<svg xmlns="http://www.w3.org/2000/svg" xmlns:xlink="http://www.w3.org/1999/xlink" viewBox="0 0 274 274"><defs><style>.cls-1{fill:url(#무제_그라디언트_5);}.cls-2{fill:#fff;}.cls-3{fill:#231815;}.cls-4{fill:#70d191;}.cls-5{fill:#513539;}.cls-6{fill:#4d3034;}.cls-7{fill:#4c3235;}.cls-8{opacity:0.6;}.cls-9{isolation:isolate;opacity:0.3;}.cls-10{fill:#0600ff;}.cls-11{opacity:0.5;}.cls-12{fill:#ff003d;}.cls-13{fill:#664008;}.cls-14{fill:#99764b;}</style><linearGradient id="무제_그라디언트_5" x1="131.01" y1="22.93" x2="144.66" y2="330.49" gradientUnits="userSpaceOnUse"><stop offset="0.02" stop-color="#c2dbff"/><stop offset="0.38" stop-color="#c7deff"/><stop offset="0.78" stop-color="#d5e5ff"/><stop offset="1" stop-color="#dfebff"/></linearGradient></defs><g id="레이어_1" data-name="레이어 1"><path class="cls-1" d="M255.35,37.18H170a32.5,32.5,0,0,0,.23-3.85,33.38,33.38,0,0,0-66.75,0,34.76,34.76,0,0,0,.23,3.85H18.42A18.3,18.3,0,0,0,0,55.36V255.42a18.31,18.31,0,0,0,18.42,18.19H255.35a18.31,18.31,0,0,0,18.42-18.19V55.36A18.3,18.3,0,0,0,255.35,37.18Z"/><path class="cls-2" d="M97.82,97.67a.85.85,0,0,1-.74-.25,1.05,1.05,0,0,1-.27-.76V93.9a1,1,0,0,1,.27-.74,1,1,0,0,1,.74-.27l23.09-.06a1,1,0,0,1,.74.26,1,1,0,0,1,.27.75v2.39a.94.94,0,0,1-.27.72,1.19,1.19,0,0,1-.74.29l-8.45.16-.1,6.23c0,.68-.38,1-1,1h-4a.89.89,0,0,1-1-1l-.1-6.12Zm3.26-6.49a2.15,2.15,0,0,1-1.56-.44,2.43,2.43,0,0,1-.46-1.58l-.23-11.69c0-.67.28-1,1-1h3.88a.92.92,0,0,1,.72.26,1.2,1.2,0,0,1,.25.75v1.85l9.5,0V77.41c0-.68.34-1,1-1h3.77a.87.87,0,0,1,1,1L119.63,89a2.24,2.24,0,0,1-.42,1.57,2.3,2.3,0,0,1-1.56.45Zm3.64-4.68,9.49,0,0-2.66-9.49.07Z"/><path class="cls-2" d="M130.48,89.36c1.5,0,3.12,0,4.85,0s3.36-.2,4.91-.4A1,1,0,0,1,141,89a1,1,0,0,1,.28.65l.27,2.33a.94.94,0,0,1-.81,1.11c-.8.2-1.73.37-2.77.52s-2.15.26-3.32.35-2.37.16-3.6.19-2.45,0-3.64,0a2.12,2.12,0,0,1-2.35-2.33l-.21-12.79a2.14,2.14,0,0,1,.64-1.77,2.53,2.53,0,0,1,1.72-.59L139,76.66a1.17,1.17,0,0,1,.86.32,1.19,1.19,0,0,1,.32.86v2.29A1.1,1.1,0,0,1,139,81.31l-8.52.07v1.75l8.32-.07a.86.86,0,0,1,.71.3,1.18,1.18,0,0,1,.23.71l0,2.49a.87.87,0,0,1-.3.74,1.18,1.18,0,0,1-.81.21l-8.12.1Zm-.37,11.41a.75.75,0,0,1-.85-.84v-3.2a.75.75,0,0,1,.85-.84h16.63a2.19,2.19,0,0,1,1.46.49,1.77,1.77,0,0,1,.56,1.53c0,.72,0,1.39,0,2s0,1.23-.07,1.84-.08,1.21-.13,1.82-.12,1.24-.19,1.91a1.43,1.43,0,0,1-.3.75.94.94,0,0,1-.71.27h-3.37a1,1,0,0,1-.74-.27,1,1,0,0,1-.27-.75c0-.49,0-.92,0-1.29s0-.74,0-1.1,0-.74,0-1.14,0-.88,0-1.41Zm14.44-6.13a.89.89,0,0,1-1-1l-.2-16.6c0-.67.32-1,1-1h4.11a.86.86,0,0,1,1,1l-.14,5.8H152A1.1,1.1,0,0,1,153.2,84v2.77A1.1,1.1,0,0,1,152,87.94h-2.86l-.1,5.69c0,.68-.38,1-1,1Z"/><path class="cls-2" d="M155.26,102.39a.9.9,0,0,1-.75-.25,1.08,1.08,0,0,1-.26-.76V98.45a1,1,0,0,1,.26-.74,1,1,0,0,1,.75-.27l23.09-.07a1,1,0,0,1,.74.27,1,1,0,0,1,.27.74v2.56a.93.93,0,0,1-.27.72,1.13,1.13,0,0,1-.74.29Zm3.56-8.69a2.23,2.23,0,0,1-1.73-.57,2.54,2.54,0,0,1-.62-1.75L156.3,80.1a2.14,2.14,0,0,1,.64-1.77,2.53,2.53,0,0,1,1.72-.59l17.44-.07A1.16,1.16,0,0,1,177,78a1.15,1.15,0,0,1,.32.86v2.6a1.1,1.1,0,0,1-1.17,1.17l-13.77.17v5.73l14.07,0c.74,0,1.11.3,1.11.91v2.73a.85.85,0,0,1-.94.94Z"/><path class="cls-2" d="M188.35,94.48a45.79,45.79,0,0,0,9-.71c.65-.11,1,.11,1.11.67l.51,2.8a.93.93,0,0,1-.71,1.17,27.2,27.2,0,0,1-2.89.64c-1.06.18-2.16.34-3.3.46s-2.33.21-3.54.27-2.41.07-3.6,0c-1.57,0-2.36-.82-2.36-2.32l-.1-9.4a2.3,2.3,0,0,1,.64-1.77,2.4,2.4,0,0,1,1.68-.58l5.76,0V82.39h-6.3a1.16,1.16,0,0,1-.85-.32,1.15,1.15,0,0,1-.32-.86V78.58a1.1,1.1,0,0,1,1.17-1.17l9.9.06a2.44,2.44,0,0,1,1.7.59,2.16,2.16,0,0,1,.63,1.77l-.17,8.55a2.54,2.54,0,0,1-.61,1.72,2.4,2.4,0,0,1-1.75.64l-5.59.1ZM203,102.89a.89.89,0,0,1-1-1v-9l-3.16,0a1.17,1.17,0,0,1-.86-.32,1.13,1.13,0,0,1-.32-.86V89.05a1.1,1.1,0,0,1,1.18-1.17l3.16,0V85.76l-3.16,0a1.17,1.17,0,0,1-.86-.32,1.13,1.13,0,0,1-.32-.86V82a1.1,1.1,0,0,1,1.18-1.17l3.16,0V78a.88.88,0,0,1,1-1h4.11a.86.86,0,0,1,1,1l-.74,23.84a.89.89,0,0,1-1,1Z"/><path class="cls-2" d="M212,102.72a.86.86,0,0,1-.74-.25,1.05,1.05,0,0,1-.27-.76V99a.93.93,0,0,1,1-1h3.57l0-4.74a.88.88,0,0,1,.94-1h.2a4,4,0,0,1-.64-.47,8.23,8.23,0,0,1-2.22-2.78,8.09,8.09,0,0,1-.81-3.65,8.25,8.25,0,0,1,3.05-6.53,10.31,10.31,0,0,1,3.35-1.82,13.71,13.71,0,0,1,8.28,0A10.11,10.11,0,0,1,231,78.72a8.51,8.51,0,0,1,2.24,2.84,8.2,8.2,0,0,1,.83,3.69,8,8,0,0,1-.84,3.67A8.17,8.17,0,0,1,231,91.68a4,4,0,0,1-.63.47h.26c.72,0,1.06.28,1,1l-.06,4.75h3.5a1,1,0,0,1,.74.26,1,1,0,0,1,.27.75v2.39a.94.94,0,0,1-.27.72,1.21,1.21,0,0,1-.74.29Zm7.44-15.45a4.07,4.07,0,0,0,1.08,1.26,5,5,0,0,0,1.58.81,6.54,6.54,0,0,0,2,.29,6.31,6.31,0,0,0,1.91-.29,5.15,5.15,0,0,0,1.59-.79,3.78,3.78,0,0,0,1.09-1.3,3.75,3.75,0,0,0,0-3.33,3.86,3.86,0,0,0-1.08-1.3,5.15,5.15,0,0,0-1.6-.82,6.31,6.31,0,0,0-1.91-.29,6.6,6.6,0,0,0-2,.29,4.83,4.83,0,0,0-1.58.82,3.77,3.77,0,0,0-1,1.3,3.82,3.82,0,0,0-.37,1.67A4,4,0,0,0,219.46,87.27Zm1.89,10.64h4.51l0-4a15.42,15.42,0,0,1-2.26.17,17.15,17.15,0,0,1-2.19-.14Z"/><path class="cls-2" d="M240.8,94.48a1,1,0,0,1-1.18-1.18l-1.26-18.71a1,1,0,0,1,1.14-1.18h6.38A1,1,0,0,1,247,74.59L245.84,93.3a1,1,0,0,1-1.18,1.18Zm1.73,9.57a3.59,3.59,0,1,1,0-7.17,3.59,3.59,0,1,1,0,7.17Z"/><path class="cls-2" d="M141.75,19.18a5.9,5.9,0,0,1,4.11,9"/><path class="cls-3" d="M146.31,28.48l-.89-.57a5.37,5.37,0,0,0-3.74-8.21l.15-1.05a6.44,6.44,0,0,1,5.43,7.29A6.64,6.64,0,0,1,146.31,28.48Z"/><path class="cls-2" d="M141,15l7.54,16.89a.62.62,0,0,1-.33.82.71.71,0,0,1-.28.06,52.78,52.78,0,0,0-25,4.8.62.62,0,0,1-.82-.31L119,30.18a.63.63,0,0,1,.3-.81A77.17,77.17,0,0,0,140,14.78a.63.63,0,0,1,.88,0A.66.66,0,0,1,141,15Z"/><path class="cls-3" d="M148.41,33.19a1.15,1.15,0,0,1-.52.1,51.88,51.88,0,0,0-24.25,4.54l-.48.21a1.15,1.15,0,0,1-1.53-.57h0l-3.15-7.06a1.15,1.15,0,0,1,.55-1.5h0a76.94,76.94,0,0,0,20.58-14.49,1.14,1.14,0,0,1,1.86.35L149,31.66a1.16,1.16,0,0,1-.1,1.11A1.13,1.13,0,0,1,148.41,33.19Zm-25.18,3.68A52.88,52.88,0,0,1,148,32.18a.08.08,0,0,0,.09,0,.09.09,0,0,0,0-.09l-7.54-16.89a.11.11,0,0,0,0-.07.12.12,0,0,0-.08,0,77.78,77.78,0,0,1-20.86,14.68.11.11,0,0,0,0,.12L122.66,37a.09.09,0,0,0,.12,0h0Z"/><rect class="cls-4" x="120.53" y="28.09" width="5.93" height="8.3" rx="0.97" transform="translate(-2.42 53.13) rotate(-24.05)"/><path class="cls-2" d="M128,35.45s5.68,9.86,6.24,10,3.49-2.32,3.49-2.32l-5.57-8.91Z"/><path class="cls-3" d="M134.9,45.85a1.09,1.09,0,0,1-.78.14c-.11,0-.77-.23-6.56-10.27a.54.54,0,0,1,.31-.78l4.17-1.2a.55.55,0,0,1,.6.23l5.56,8.91a.53.53,0,0,1-.1.69A15.65,15.65,0,0,1,134.9,45.85Zm-.45-.92h0a17.58,17.58,0,0,0,2.6-1.86L132,34.87l-3.13.9C131.16,39.8,133.74,44.07,134.45,44.93Z"/><rect class="cls-3" x="125.65" y="26.57" width="1.06" height="9.47" transform="translate(-1.81 54.14) rotate(-24.05)"/><rect class="cls-3" x="122.33" y="28.04" width="1.06" height="9.27" transform="translate(-2.65 52.91) rotate(-24.05)"/><path class="cls-3" d="M127.89,27.7a.54.54,0,0,1-.68-.22.52.52,0,0,1,.18-.71h0l1.48-.86a.53.53,0,1,1,.54.91h0l-1.48.85Z"/><path class="cls-3" d="M131,25.81a.54.54,0,0,1-.72-.23.53.53,0,0,1,.23-.71,26.15,26.15,0,0,0,5.72-4.6A.53.53,0,0,1,137,21a27.16,27.16,0,0,1-6,4.78Z"/><path class="cls-2" d="M145.59,15.19l.93-2.14"/><path class="cls-3" d="M145.8,15.68a.51.51,0,0,1-.42,0,.52.52,0,0,1-.32-.67v0l1-2.11a.53.53,0,0,1,1,.27l-.06.14-1,2.11A.51.51,0,0,1,145.8,15.68Z"/><path class="cls-2" d="M153.57,28.84l-2.2-.7"/><path class="cls-3" d="M153.79,29.33a.48.48,0,0,1-.39,0l-2.2-.69a.54.54,0,0,1-.4-.64.53.53,0,0,1,.64-.39l.1,0,2.21.74a.54.54,0,0,1,.35.67h0A.57.57,0,0,1,153.79,29.33Z"/><path class="cls-2" d="M154,23.88l-2.4.27"/><path class="cls-3" d="M154.22,24.35l-.15.07-2.41.23a.54.54,0,0,1-.59-.47.52.52,0,0,1,.46-.58h0l2.41-.24a.54.54,0,0,1,.59.46h0A.55.55,0,0,1,154.22,24.35Z"/><path class="cls-2" d="M153.19,19.54l-2.22,1"/><path class="cls-3" d="M153.4,20l-2.22,1a.52.52,0,0,1-.69-.27.53.53,0,0,1,.26-.7h0l2.22-1a.53.53,0,1,1,.43,1Z"/><path class="cls-2" d="M148.7,17.64l1.81-1.6"/><path class="cls-3" d="M148.92,18.13a.54.54,0,0,1-.7-.29.56.56,0,0,1,.13-.6l1.79-1.63a.53.53,0,0,1,.75,0,.54.54,0,0,1,0,.75L149.06,18A.42.42,0,0,1,148.92,18.13Z"/><path class="cls-2" d="M51.27,83.9c-.66-.22-.88.37-.94.24-.45-6.89-4.93-12.63-10.77-12.75a2.91,2.91,0,0,0-.51,0h-.18v-.06h-.69c-5.84.13-10.32,5.86-10.77,12.75-.06.13-.28-.46-.93-.23-1,.33-1.45,1.59-1.21,3.29s3.2,2.22,3.3,2.37c.67,2.44,2,6.33,6.25,7.48v6.68l8.11,0V97.05c4.21-1.15,5.58-5,6.25-7.49.1-.15,3.06-.66,3.29-2.37S52.27,84.24,51.27,83.9Z"/><path class="cls-5" d="M42.93,104.37h0l-8.12,0a.64.64,0,0,1-.62-.63V97.49C30.32,96.21,28.82,92.7,28,90L28,90c-.92-.3-3.08-1-3.33-2.73-.29-2,.33-3.54,1.64-4a1.25,1.25,0,0,1,.58-.08c.8-7,5.54-12.34,11.31-12.47h.7a.85.85,0,0,1,.23,0h.46c5.78.12,10.53,5.42,11.32,12.46a1.63,1.63,0,0,1,.59.08c1.3.45,1.91,1.93,1.63,4C52.86,89,50.7,89.71,49.78,90l-.08,0c-.78,2.7-2.27,6.2-6.14,7.49v6.22a.64.64,0,0,1-.19.45A.59.59,0,0,1,42.93,104.37Zm-7.48-1.3,6.85,0V97.05a.62.62,0,0,1,.46-.61c3.71-1,5.05-4.3,5.81-7a.53.53,0,0,1,.08-.17c.14-.23.33-.29.74-.42.7-.23,2.33-.76,2.46-1.7.19-1.39-.11-2.39-.79-2.61h0c-.09,0-.09,0-.19.06a.77.77,0,0,1-.64.22.7.7,0,0,1-.47-.37.46.46,0,0,1-.06-.23C49.26,77.36,44.89,72.13,39.54,72h-.07a1.62,1.62,0,0,0-.31,0h-.29a.58.58,0,0,1-.26-.06h-.43c-5.33.12-9.7,5.35-10.14,12.17a.59.59,0,0,1-.07.25.66.66,0,0,1-.47.34.73.73,0,0,1-.63-.22c-.1-.09-.1-.09-.19-.06-.68.23-1,1.22-.79,2.61.13.94,1.77,1.47,2.47,1.7.41.14.6.2.74.42a.51.51,0,0,1,.07.17c.76,2.75,2.11,6,5.81,7a.64.64,0,0,1,.47.61ZM50.33,84.14Z"/><circle class="cls-5" cx="35.07" cy="85.24" r="1.2"/><path class="cls-5" d="M38.86,93.22a3.29,3.29,0,0,1-2.33-1,.42.42,0,0,1,0-.6.42.42,0,0,1,.59,0,2.47,2.47,0,0,0,3.49,0,.42.42,0,0,1,.59,0,.43.43,0,0,1,0,.6A3.3,3.3,0,0,1,38.86,93.22Z"/><path class="cls-5" d="M39.51,90.23a.4.4,0,0,1-.29-.12.5.5,0,0,0-.7,0,.42.42,0,0,1-.59-.59,1.33,1.33,0,0,1,1.88,0,.42.42,0,0,1-.3.71Z"/><path class="cls-5" d="M34.67,88.82a3.32,3.32,0,1,1,0-6.59,3.32,3.32,0,1,1,0,6.59Zm0-5.75a2.48,2.48,0,1,0,0,4.91,2.48,2.48,0,1,0,0-4.91Z"/><circle class="cls-5" cx="42.72" cy="85.24" r="1.2"/><path class="cls-5" d="M43.11,88.82a3.32,3.32,0,1,1,3.7-3.3A3.52,3.52,0,0,1,43.11,88.82Zm0-5.75A2.48,2.48,0,1,0,46,85.52,2.68,2.68,0,0,0,43.11,83.07Z"/><path class="cls-5" d="M38.14,85.65l-.59-.6a1.67,1.67,0,0,1,2.63,0l-.59.6A.87.87,0,0,0,38.14,85.65Z"/><path class="cls-5" d="M42.1,75.83a.43.43,0,0,1-.39-.26A2.66,2.66,0,0,0,40,74a.42.42,0,0,1-.29-.52.41.41,0,0,1,.52-.29,3.49,3.49,0,0,1,2.31,2.09.41.41,0,0,1-.23.54A.45.45,0,0,1,42.1,75.83Z"/><path class="cls-5" d="M40.56,76.46a.41.41,0,0,1-.39-.27A2.05,2.05,0,0,0,39.1,75,2,2,0,0,0,37.52,75a.76.76,0,0,0-.16.06.42.42,0,1,1-.36-.76,1.09,1.09,0,0,1,.23-.09,2.85,2.85,0,0,1,2.22.1A2.9,2.9,0,0,1,41,75.9a.42.42,0,0,1-.26.54A.32.32,0,0,1,40.56,76.46Z"/><path class="cls-6" d="M51.62,79.62a10.06,10.06,0,0,0-.37-2.17h0a6.75,6.75,0,0,0,.17-2,1.88,1.88,0,0,0-.14-1.85,10.39,10.39,0,0,0-4-4.28,3.19,3.19,0,0,0-2.3-.51l-.51-.21a4,4,0,0,0-2.69-2,8.14,8.14,0,0,0-3.83.17,38.25,38.25,0,0,0-7.07,2.76c-.74.35-1.57.83-1.78,1.58h0a4.16,4.16,0,0,0-.83,1.4,17,17,0,0,1-.51,1.76,6.52,6.52,0,0,1-2,2,3.49,3.49,0,0,0-1.53,2.35A3.8,3.8,0,0,0,25,80.83L27,84h0s.54.94,1.31,2.31c0,0,1,.41,1,.4a5.79,5.79,0,0,1,2.55-6c1.43-1.07,3.21-1.66,4.45-2.91a24.5,24.5,0,0,0,1.94-2.61,4.21,4.21,0,0,1,2.62-1.84c1.23-.12,2.25,1.78,2.26,1.78.69-.66,2.68,1.29,3.26,2.07a16,16,0,0,1,1.8,4.5c.2.92,1,3.48.72,4.53h0a4.4,4.4,0,0,1,2.27-2h0A20.68,20.68,0,0,0,51.62,79.62Z"/><path class="cls-5" d="M39.08,76.84a.44.44,0,0,1-.33-.15,1.58,1.58,0,0,0-2-.41.42.42,0,1,1-.4-.73,2.42,2.42,0,0,1,3.08.61.42.42,0,0,1-.33.68Z"/><path class="cls-2" d="M28.63,76.23A3.72,3.72,0,0,1,27.3,76a.43.43,0,0,1-.24-.53.38.38,0,0,1,.49-.26A4.44,4.44,0,0,0,31.84,74a18.92,18.92,0,0,0,2.3-2.51c.37-.46.73-.91,1.12-1.34a6.9,6.9,0,0,1,4.52-2.68c1.63-.1,3,1.72,3.93,3.26.21.37.37.66.48.89A3.07,3.07,0,0,1,45.72,71a2.79,2.79,0,0,1,2.25.57.43.43,0,0,1,.05.59.37.37,0,0,1-.55.06,2.1,2.1,0,0,0-1.65-.39,2,2,0,0,0-1.43.78.37.37,0,0,1-.54.1.44.44,0,0,1-.15-.23c-.19-.51-2.09-4.28-3.87-4.15a6.21,6.21,0,0,0-4,2.42c-.37.42-.73.87-1.09,1.31a20.49,20.49,0,0,1-2.4,2.62A5.86,5.86,0,0,1,28.63,76.23Z"/><path class="cls-2" d="M25.62,81a.42.42,0,0,1-.4-.3.42.42,0,0,1,.29-.52,19.54,19.54,0,0,0,9.14-5.57.44.44,0,0,1,.6,0,.43.43,0,0,1,0,.6A20.55,20.55,0,0,1,25.74,81Z"/><path class="cls-5" d="M44.08,81.75a.41.41,0,0,1-.33-.16.49.49,0,0,0-.68-.08.42.42,0,1,1-.51-.67,1.32,1.32,0,0,1,1.85.24.41.41,0,0,1-.33.67Z"/><path class="cls-5" d="M33.36,81.75a.38.38,0,0,1-.26-.09.41.41,0,0,1-.07-.58,1.33,1.33,0,0,1,1.86-.24.43.43,0,0,1,.07.59.42.42,0,0,1-.59.08.49.49,0,0,0-.68.08A.41.41,0,0,1,33.36,81.75Z"/><path class="cls-5" d="M46.51,86.3l-.08-.83a7.51,7.51,0,0,0,2.23-1l.42-.23.4.74-.41.23A7.68,7.68,0,0,1,46.51,86.3Z"/><rect class="cls-5" x="29.66" y="84.29" width="0.84" height="2.96" transform="translate(-60.73 89.55) rotate(-73.06)"/><path class="cls-2" d="M32.5,98.66A19.37,19.37,0,0,0,45,98.47c.32,5.61,2.1,6.42,1.07,7-1.66,1-6.92.44-8.86.37-1.24,0-4.31.11-5.46-.34S32.3,100.8,32.5,98.66Z"/><path class="cls-6" d="M42.22,106.75c-1.14,0-2.4-.07-3.71-.15-.54,0-1-.07-1.37-.08H36a15.76,15.76,0,0,1-4.56-.38c-1.27-.49-.75-2.53-.16-4.9a18.59,18.59,0,0,0,.56-2.64.62.62,0,0,1,.82-.54,18.83,18.83,0,0,0,12.05-.18.63.63,0,0,1,.84.56,17.21,17.21,0,0,0,1.08,5.43c.31.84.6,1.63-.32,2.19A8.64,8.64,0,0,1,42.22,106.75Zm-5.87-1.49h.83l1.41.08c2.07.13,5.92.37,7.1-.35h0a5.06,5.06,0,0,0-.22-.67,17.78,17.78,0,0,1-1.1-5A20.05,20.05,0,0,1,33,99.47c-.12.63-.3,1.34-.49,2.08-.28,1.12-.75,3-.55,3.43a17.43,17.43,0,0,0,4.05.28Z"/><path class="cls-2" d="M58,118.54a76.06,76.06,0,0,0-.5-9.32,10.7,10.7,0,0,0-2.15-4.64,13,13,0,0,0-3.86-2.77l-4.39-2.39c-.25-.14-.7-.32-.71-.34L45,100.84a19.67,19.67,0,0,1-12.3.17l1,17.53"/><path class="cls-5" d="M33.07,118.58l-1-17.54a.65.65,0,0,1,.24-.53.67.67,0,0,1,.58-.1,18.86,18.86,0,0,0,11.72-.11l1.2-1.59a.61.61,0,0,1,.57-.25.62.62,0,0,1,.27.09l.13.06c.16.07.39.17.55.26l4.39,2.38a13.87,13.87,0,0,1,4,2.91,11.46,11.46,0,0,1,2.3,4.94,78.85,78.85,0,0,1,.51,9.44H57.33a75.1,75.1,0,0,0-.48-9.19,10.07,10.07,0,0,0-2-4.39,12.61,12.61,0,0,0-3.67-2.61L46.76,100l-.21-.1-1,1.34a.59.59,0,0,1-.3.22,20.12,20.12,0,0,1-11.82.43l.91,16.65Z"/><path class="cls-5" d="M47.25,107.07H31a.63.63,0,0,1,0-1.26H47.25a.63.63,0,1,1,0,1.26Z"/><path class="cls-5" d="M47.25,110.41H31a.63.63,0,0,1,0-1.26H47.25a.63.63,0,1,1,0,1.26Z"/><path class="cls-5" d="M47.25,113.75H31a.63.63,0,0,1-.63-.63.64.64,0,0,1,.63-.63H47.25a.63.63,0,0,1,.63.63A.63.63,0,0,1,47.25,113.75Z"/><path class="cls-5" d="M47.25,117.09H31a.63.63,0,0,1-.63-.63.64.64,0,0,1,.63-.63H47.25a.63.63,0,0,1,.63.63A.63.63,0,0,1,47.25,117.09Z"/><path class="cls-6" d="M44.76,100.9l1.53-2s.46.2.71.34l4.37,2.44a13.42,13.42,0,0,1,3.85,2.85,11.16,11.16,0,0,1,2.16,4.79,67.33,67.33,0,0,1,.51,9.2H43.8l1-17.66Z"/><path class="cls-7" d="M32.9,101.12c-.89-1.17-1.53-2.2-1.53-2.2s-.46.2-.71.34l-4.39,2.44a13.42,13.42,0,0,0-3.85,2.85,11.4,11.4,0,0,0-2.16,4.79,78.08,78.08,0,0,0-.51,9.2h14.1S32.83,101,32.9,101.12Z"/><g class="cls-8"><g class="cls-9"><circle class="cls-10" cx="31.78" cy="90.1" r="1.48"/></g><g class="cls-9"><circle class="cls-10" cx="45.87" cy="90.1" r="1.48"/></g></g><path class="cls-5" d="M82.55,67.81a5.71,5.71,0,0,1,5.5,2.76c.45.81.67,1.73,1.09,2.57a3,3,0,0,0,2,1.76,2,2,0,0,0,2.21-1.79v-.06a3.51,3.51,0,0,1-.11,5,3.07,3.07,0,0,1-.34.29,2.54,2.54,0,0,1-2,.52,3.94,3.94,0,0,1-1.81-1.19,19.61,19.61,0,0,0-6.16-4.38,21.07,21.07,0,0,0-2.72-.76c-.65-.16-1.94-.19-2.32-.82s.17-1.3.58-1.74A6.39,6.39,0,0,1,82.55,67.81Z"/><path class="cls-5" d="M74.18,84.15l-1-.76a1.54,1.54,0,0,1,1-.61,1.61,1.61,0,0,1,1.16.31L75,83.6l-.4.49a.26.26,0,0,0-.22-.06A.34.34,0,0,0,74.18,84.15Z"/><path class="cls-5" d="M74.18,84.3l-1-.77a1.61,1.61,0,0,1,1-.6,1.56,1.56,0,0,1,1.16.32l-.73,1h0a.38.38,0,0,0-.26-.08A.34.34,0,0,0,74.18,84.3Z"/><path class="cls-2" d="M89,87.75c-.64-.23-.85.37-.91.24-.44-7-4.84-12.87-10.58-13L77,75l-.51,0c-5.75.13-10.14,6-10.58,13-.06.13-.28-.47-.92-.24-1,.34-1.43,1.62-1.19,3.36a2.69,2.69,0,0,0,2,2.56c.54.16.85-.07.94.08,1.16,3.74,2.34,6.21,6.47,7.38v4.05h7.63v-4c4.13-1.17,5.32-3.64,6.47-7.37.1-.16.4.07,1-.09a2.74,2.74,0,0,0,2-2.56C90.47,89.41,90,88.09,89,87.75Z"/><path class="cls-5" d="M80.85,105.81H73.22a.64.64,0,0,1-.63-.63V101.6c-4-1.3-5.26-3.93-6.31-7.24a2,2,0,0,1-.65-.08,3.36,3.36,0,0,1-2.41-3.09c-.29-2.08.31-3.58,1.6-4a1.67,1.67,0,0,1,.57-.08c.78-7.18,5.45-12.58,11.13-12.71l.55,0,.45,0c5.72.13,10.38,5.53,11.16,12.71a1.67,1.67,0,0,1,.57.08c1.28.45,1.89,2,1.61,4.06a3.4,3.4,0,0,1-2.41,3.09,2.1,2.1,0,0,1-.66.08c-1.05,3.31-2.29,5.94-6.31,7.24v3.56A.63.63,0,0,1,80.85,105.81Zm-7-1.26h6.37v-3.4a.62.62,0,0,1,.46-.6c3.65-1,4.81-3,6-7a.51.51,0,0,1,.07-.15.84.84,0,0,1,.88-.33,1,1,0,0,0,.42,0,2.14,2.14,0,0,0,1.52-2c.19-1.39-.12-2.47-.77-2.7h-.08s-.06,0-.09.07a.74.74,0,0,1-.65.23.71.71,0,0,1-.47-.38.54.54,0,0,1,0-.22c-.44-7-4.72-12.29-10-12.41l-.47,0-.57,0C71.3,75.74,67,81.07,66.58,88a.79.79,0,0,1-.06.22.67.67,0,0,1-.47.38.74.74,0,0,1-.65-.23s-.07-.07-.09-.07c-.73.24-1,1.3-.85,2.69s1,1.89,1.51,2a1.12,1.12,0,0,0,.44,0,.82.82,0,0,1,.88.33,1,1,0,0,1,.07.15c1.22,4,2.39,5.92,6,7a.63.63,0,0,1,.46.61ZM88.13,88Z"/><path class="cls-5" d="M77,96.43h0a3.32,3.32,0,0,1-2.39-1,.42.42,0,0,1,0-.6.42.42,0,0,1,.59,0,2.54,2.54,0,0,0,1.8.76h0a2.54,2.54,0,0,0,1.8-.75.42.42,0,1,1,.59.59A3.36,3.36,0,0,1,77,96.43Z"/><path class="cls-5" d="M77.35,93.34a.39.39,0,0,1-.3-.13h0l-.08.06a.41.41,0,0,1-.53-.06.42.42,0,0,1,0-.59h0a.85.85,0,0,1,.6-.24h0a.86.86,0,0,1,.61.25.43.43,0,0,1,0,.6A.4.4,0,0,1,77.35,93.34Z"/><path class="cls-5" d="M77.59,71.53c-6.8,0-14.36,5.85-11.61,14.63.25.48,5.46-4.7,6.34-7.94a15.21,15.21,0,0,0,6.88,1.29,9.05,9.05,0,0,0,4.85,2c.67,1.73,3.07,3.55,3.84,3.33.44-.13.25,2.17.64-.3C88.17,76.67,84.39,71.53,77.59,71.53Z"/><path class="cls-2" d="M77,71.35A13,13,0,0,0,64.19,84.49c0,1.93.41,2.9,1.13,3.57a.55.55,0,0,0,.91-.48v-.42a10.82,10.82,0,1,1,21.64,0h0v.42a.56.56,0,0,0,.44.64.54.54,0,0,0,.46-.13c.73-.67,1.13-1.64,1.13-3.56A13,13,0,0,0,77.07,71.35Z"/><path class="cls-5" d="M88.41,88.86l-.21,0a1.18,1.18,0,0,1-1-1.3v-.38a10.23,10.23,0,0,0-3-7.26,10.1,10.1,0,0,0-7.2-3h0A10.24,10.24,0,0,0,66.86,87.16v.42a1.14,1.14,0,0,1-.3.86,1.2,1.2,0,0,1-.82.39,1.19,1.19,0,0,1-.84-.31c-.94-.86-1.34-2.06-1.34-4A13.66,13.66,0,0,1,77,70.72h0A13.65,13.65,0,0,1,90.53,84.53c0,2-.4,3.16-1.33,4A1.17,1.17,0,0,1,88.41,88.86ZM77.05,75.64A11.34,11.34,0,0,1,85.14,79a11.47,11.47,0,0,1,3.36,8.15v.36c.38-.43.77-1.14.77-3A12.39,12.39,0,0,0,77.06,72l0-.63V72A12.39,12.39,0,0,0,64.82,84.49c0,1.8.37,2.53.8,3l0-.3A11.5,11.5,0,0,1,77.05,75.64Z"/><ellipse class="cls-5" cx="81.21" cy="89.08" rx="1.23" ry="1.24"/><path class="cls-5" d="M81.87,87.3a.43.43,0,0,1-.34-.16.5.5,0,0,0-.34-.2.49.49,0,0,0-.38.11.43.43,0,0,1-.59-.07.42.42,0,0,1,.08-.59,1.33,1.33,0,0,1,1-.28,1.31,1.31,0,0,1,.9.52.41.41,0,0,1-.08.58A.38.38,0,0,1,81.87,87.3Z"/><ellipse class="cls-5" cx="72.87" cy="89.08" rx="1.23" ry="1.24"/><path class="cls-5" d="M72.21,87.3a.38.38,0,0,1-.25-.09.41.41,0,0,1-.08-.58,1.31,1.31,0,0,1,.9-.52,1.29,1.29,0,0,1,1,.28.42.42,0,0,1-.51.66.49.49,0,0,0-.38-.11.5.5,0,0,0-.34.2A.43.43,0,0,1,72.21,87.3Z"/><path class="cls-2" d="M95.35,118.54a53.54,53.54,0,0,0-.49-7.72,8.76,8.76,0,0,0-2.15-4,12.84,12.84,0,0,0-3.83-2.39l-4.36-2.08a31,31,0,0,0-6,2.16,4.58,4.58,0,0,1-3.91,0,26.33,26.33,0,0,0-6.49-2.1l-4.37,2.06a13,13,0,0,0-3.83,2.39,8.7,8.7,0,0,0-2.14,4,54.68,54.68,0,0,0-.51,7.69"/><path class="cls-5" d="M57.85,118.55l-1.26,0a45.69,45.69,0,0,1,.53-7.84,9.31,9.31,0,0,1,2.3-4.29,13.75,13.75,0,0,1,4-2.54l4.34-2c.72-.39,5.68,1.45,7,2.1a3.9,3.9,0,0,0,3.37,0c.06,0,5.76-2.53,6.57-2.15l4.37,2.08a13.51,13.51,0,0,1,4,2.49,9.36,9.36,0,0,1,2.34,4.31,54.69,54.69,0,0,1,.51,7.86H94.72a53.34,53.34,0,0,0-.47-7.57,8.25,8.25,0,0,0-2-3.71,12.22,12.22,0,0,0-3.6-2.23l-4.27-2a40.42,40.42,0,0,0-5.64,2.09,5.21,5.21,0,0,1-4.45,0,31,31,0,0,0-6.07-2L64,105a12.3,12.3,0,0,0-3.68,2.29A8.14,8.14,0,0,0,58.34,111,43.06,43.06,0,0,0,57.85,118.55Zm10.51-15.61,0,0Z"/><path class="cls-5" d="M73,111.62a5.65,5.65,0,0,1-3.88-1.85A14,14,0,0,1,67,106.22a3.52,3.52,0,0,1,.77-3.68.63.63,0,1,1,.91.87,2.28,2.28,0,0,0-.51,2.36A12.7,12.7,0,0,0,70.1,109c.42.48,2.53,2.2,4.25,1a3.76,3.76,0,0,0,1.79-2,2.57,2.57,0,0,0-.57-2.4.63.63,0,0,1,1-.84,3.87,3.87,0,0,1,.85,3.53,4.8,4.8,0,0,1-2.3,2.77A3.49,3.49,0,0,1,73,111.62Z"/><path class="cls-5" d="M80.91,111.62a3.55,3.55,0,0,1-2.07-.66,4.84,4.84,0,0,1-2.3-2.79,3.56,3.56,0,0,1,.87-3.37.63.63,0,0,1,.89,0,.64.64,0,0,1,0,.9,2.28,2.28,0,0,0-.56,2.19,3.76,3.76,0,0,0,1.8,2c1.75,1.24,3.83-.46,4.29-1a12.58,12.58,0,0,0,1.93-3.21,2.28,2.28,0,0,0-.52-2.32.62.62,0,0,1,0-.89.63.63,0,0,1,.89,0,3.54,3.54,0,0,1,.79,3.64,14,14,0,0,1-2.15,3.57A5.7,5.7,0,0,1,80.91,111.62Z"/><path class="cls-5" d="M77,106.6a.57.57,0,0,1-.43-.17,1.31,1.31,0,0,1-.28-.45.85.85,0,0,1,.22-1l.26.29.2-.4a1,1,0,0,0,.29.1.62.62,0,0,1,.44.36,1.21,1.21,0,0,1-.44,1.18A.58.58,0,0,1,77,106.6Zm.21-.81.14.17a.39.39,0,0,0,.11-.44Z"/><ellipse class="cls-7" cx="77" cy="111.12" rx="0.85" ry="0.86"/><ellipse class="cls-7" cx="77" cy="114.81" rx="0.85" ry="0.86"/><g class="cls-11"><g class="cls-9"><ellipse class="cls-12" cx="82.82" cy="92.92" rx="1.48" ry="1.49"/></g></g><g class="cls-11"><g class="cls-9"><ellipse class="cls-12" cx="71.25" cy="92.92" rx="1.48" ry="1.49"/></g></g><rect class="cls-2" x="18.27" y="110.75" width="237.79" height="150" rx="15"/><path class="cls-13" d="M119.57,144.53c.07.07.08.19,0,.36a1.29,1.29,0,0,1-.31.5l-.34.31a1.13,1.13,0,0,1-.35.2.67.67,0,0,1-.37,0,.72.72,0,0,1-.37-.2c-.33-.23-.68-.5-1-.79a5.55,5.55,0,0,1-1-1l-2,2.44a.74.74,0,0,1-.75.25,1.59,1.59,0,0,1-.83-.43,1.5,1.5,0,0,1-.42-.5.38.38,0,0,1,0-.46l1.07-1.22c.38-.45.76-.9,1.13-1.37s.73-.92,1.07-1.37.62-.86.85-1.21l-3.3.37a1,1,0,0,1-.8-.23,1,1,0,0,1-.31-.59,1,1,0,0,1,.13-.63.65.65,0,0,1,.51-.32l5.51-.37a1,1,0,0,1,.68.26,2.27,2.27,0,0,1,.49.61,1.5,1.5,0,0,1,.14.47.55.55,0,0,1-.12.43l-1.72,2.23Zm3.1,3a2,2,0,0,1,1.25.2,1,1,0,0,1,.51.79l0,4.39c0,.19-.14.35-.41.48a2.84,2.84,0,0,1-.86.25,2.23,2.23,0,0,1-1,0c-.28-.07-.43-.23-.43-.46l0-3.83-4.28.14a.9.9,0,0,1-.77-.22.94.94,0,0,1-.28-.6.86.86,0,0,1,.22-.61,1,1,0,0,1,.75-.29Zm-1.23-9.19c0-.15.14-.28.42-.38a3.73,3.73,0,0,1,.93-.23,3.16,3.16,0,0,1,1,0c.31.06.46.2.46.42l.06,3.43,2.23-.19a.88.88,0,0,1,.69.29.93.93,0,0,1,.26.63,1,1,0,0,1-1,1l-2.17.14,0,2.81c0,.15-.14.27-.41.37a3.06,3.06,0,0,1-.86.18,2.58,2.58,0,0,1-1,0c-.28-.06-.43-.21-.43-.43Z"/><path class="cls-13" d="M131.3,138.52c.07-.21.26-.32.58-.34a2.76,2.76,0,0,1,1,.13,2.84,2.84,0,0,1,.74.37c.2.15.27.3.2.46l-.63,1.68c.19.27.38.51.56.72l.52.59c.33.34.64.66.94.94s.57.55.83.78a.47.47,0,0,1,.15.51,1.36,1.36,0,0,1-.28.58,1.75,1.75,0,0,1-.36.36,1.09,1.09,0,0,1-.44.2.86.86,0,0,1-.45,0,.92.92,0,0,1-.43-.25c-.34-.28-.68-.58-1-.92s-.67-.68-1-1.05v0L131,146c-.09.16-.3.24-.62.24a2.48,2.48,0,0,1-.93-.18,2.62,2.62,0,0,1-.66-.39c-.18-.15-.23-.3-.16-.45.26-.63.5-1.22.72-1.78s.45-1.09.66-1.62.42-1.06.63-1.6S131.08,139.14,131.3,138.52Zm5.27,15.57a5.29,5.29,0,0,1-1.67-.25,3.33,3.33,0,0,1-1.21-.7,2.77,2.77,0,0,1-.7-1.06,2.85,2.85,0,0,1-.11-1.35,3.49,3.49,0,0,1,.5-1.42,3.88,3.88,0,0,1,1-1.05,4.69,4.69,0,0,1,1.35-.65,5.06,5.06,0,0,1,1.55-.23,4.74,4.74,0,0,1,1.57.25,3.38,3.38,0,0,1,1.23.7,3,3,0,0,1,.76,1,2.53,2.53,0,0,1,.15,1.35,3.31,3.31,0,0,1-.51,1.42,4.11,4.11,0,0,1-1,1,4.64,4.64,0,0,1-1.36.66A5.3,5.3,0,0,1,136.57,154.09Zm2.05-13.68,0-2.14c0-.16.13-.3.4-.41a3.47,3.47,0,0,1,.91-.22,2.59,2.59,0,0,1,1,.13c.29.1.44.24.44.42l.22,8.06c0,.14-.14.25-.42.35a3.2,3.2,0,0,1-.89.18,2,2,0,0,1-.93-.06c-.28-.08-.44-.22-.46-.43l-.17-4-2,.15a.92.92,0,0,1-.83-.18,1,1,0,0,1-.31-.68,1,1,0,0,1,.16-.69.84.84,0,0,1,.72-.34Zm-1.56,8.75a1.41,1.41,0,0,0-1,.41,1.78,1.78,0,0,0-.48,1.3,1.72,1.72,0,0,0,.08.71,1.41,1.41,0,0,0,.28.48,1,1,0,0,0,.4.26,1.32,1.32,0,0,0,1.46-.39,1.87,1.87,0,0,0,.4-1.06,1.94,1.94,0,0,0-.27-1.23A1,1,0,0,0,137.06,149.16Z"/><path class="cls-13" d="M152.05,148.94l-3.44.08a.75.75,0,0,1-.69-.24,1.2,1.2,0,0,1-.13-1.27.78.78,0,0,1,.55-.38l8.7-.24a.85.85,0,0,1,.69.28,1.14,1.14,0,0,1,.25.64,1.21,1.21,0,0,1-.23.68.89.89,0,0,1-.77.32l-2.22.09-.45,4.45c0,.19-.21.33-.5.41a2.83,2.83,0,0,1-1,.08,3.14,3.14,0,0,1-.89-.22c-.25-.1-.36-.23-.34-.4Zm-.36-10.22-.29-2.09c0-.16.12-.31.38-.46a2.76,2.76,0,0,1,.85-.3,2.57,2.57,0,0,1,1,0,.57.57,0,0,1,.47.52l.25,2.27,2.13,0a.8.8,0,0,1,.69.29,1,1,0,0,1,.2.62,1.15,1.15,0,0,1-.29.62.91.91,0,0,1-.72.28l-6.73.16a1,1,0,0,1-.78-.29,1,1,0,0,1-.28-.65,1,1,0,0,1,.19-.65.88.88,0,0,1,.75-.3Zm1,7.74a4,4,0,0,1-2.52-.71,2.1,2.1,0,0,1-.74-2,2.22,2.22,0,0,1,.42-1.11,3.61,3.61,0,0,1,.89-.85,4,4,0,0,1,1.21-.54,4.94,4.94,0,0,1,1.38-.19,5.27,5.27,0,0,1,1.33.17,3.17,3.17,0,0,1,1.1.5,2,2,0,0,1,.85,2,2.64,2.64,0,0,1-.45,1.19,3.25,3.25,0,0,1-.92.85,4,4,0,0,1-1.2.5A5.67,5.67,0,0,1,152.73,146.46Zm.39-3.76a1.27,1.27,0,0,0-.83.31,1.2,1.2,0,0,0-.4.85.77.77,0,0,0,.3.76,1.28,1.28,0,0,0,.77.24,1.33,1.33,0,0,0,.86-.28,1.06,1.06,0,0,0,.37-.72,1.11,1.11,0,0,0-.25-.85A1.08,1.08,0,0,0,153.12,142.7Z"/><path class="cls-13" d="M32.84,167a2.07,2.07,0,0,1-.92-.21.69.69,0,0,1-.43-.63v-1.58c0-.45,0-.76,0-.92a.54.54,0,0,1,.4-.49,2.3,2.3,0,0,1,.85-.15,2.39,2.39,0,0,1,.89.17.58.58,0,0,1,.44.51v1.19c0,.25,0,.49,0,.74a5.16,5.16,0,0,1,0,.61.63.63,0,0,1-.39.59A2,2,0,0,1,32.84,167Z"/><path class="cls-13" d="M40.37,173.73l-3.45.08a.72.72,0,0,1-.68-.24,1,1,0,0,1-.26-.64,1,1,0,0,1,.12-.63.8.8,0,0,1,.56-.38l8.69-.24A.85.85,0,0,1,46,172a1,1,0,0,1,0,1.32.87.87,0,0,1-.77.32l-2.21.09-.46,4.86c0,.19-.2.33-.5.41a2.77,2.77,0,0,1-1,.08,3.14,3.14,0,0,1-.89-.22c-.26-.1-.37-.23-.34-.4Zm.45-10.79a.77.77,0,0,1,.7-.29,2.16,2.16,0,0,1,1,.27,2.25,2.25,0,0,1,.55.41.41.41,0,0,1,.13.47l-1,1.64a8.63,8.63,0,0,0,1.4,1.51c.47.39,1,.8,1.61,1.24.07.07.07.19,0,.37a1.86,1.86,0,0,1-.29.51,1.76,1.76,0,0,1-.76.52.86.86,0,0,1-.84-.21c-.41-.27-.79-.55-1.14-.83a13.88,13.88,0,0,1-1.15-1L39.73,170a.61.61,0,0,1-.67.24,2.29,2.29,0,0,1-.91-.36,1.93,1.93,0,0,1-.56-.43c-.14-.16-.17-.31-.09-.43l.82-1.45c.29-.51.57-1,.86-1.56l.85-1.57Z"/><path class="cls-13" d="M55.67,169.73c.07.07.07.19,0,.36a1.42,1.42,0,0,1-.31.5l-.34.31a1.07,1.07,0,0,1-.36.2.66.66,0,0,1-.37,0,.73.73,0,0,1-.36-.2c-.33-.23-.68-.5-1.05-.79a5.55,5.55,0,0,1-1-1l-2,2.45a.77.77,0,0,1-.75.24,1.55,1.55,0,0,1-.83-.43,1.39,1.39,0,0,1-.42-.5.38.38,0,0,1,0-.46L49,169.23c.39-.45.77-.9,1.14-1.37s.73-.92,1.07-1.37.62-.86.85-1.21l-3.3.37a1,1,0,0,1-.8-.23,1,1,0,0,1-.31-.59,1,1,0,0,1,.12-.63.67.67,0,0,1,.52-.32l5.51-.36a1,1,0,0,1,.68.25,2.48,2.48,0,0,1,.49.61,1.49,1.49,0,0,1,.13.47.51.51,0,0,1-.11.43l-1.72,2.23Zm.59,9.56a5.33,5.33,0,0,1-1.67-.25,3.41,3.41,0,0,1-1.21-.7,2.77,2.77,0,0,1-.7-1.06,2.85,2.85,0,0,1-.11-1.35,3.49,3.49,0,0,1,.5-1.42,3.88,3.88,0,0,1,1-1,4.69,4.69,0,0,1,1.35-.65,5.39,5.39,0,0,1,1.55-.23,4.74,4.74,0,0,1,1.57.25,3.38,3.38,0,0,1,1.23.7,3,3,0,0,1,.76,1.05,2.53,2.53,0,0,1,.15,1.35,3.31,3.31,0,0,1-.51,1.42,4,4,0,0,1-1,1.05,4.64,4.64,0,0,1-1.36.66A5.3,5.3,0,0,1,56.26,179.29Zm2.05-13.68,0-2.14c0-.16.14-.3.4-.41a3.47,3.47,0,0,1,.91-.22,2.59,2.59,0,0,1,1,.13c.29.1.44.24.44.42l.23,8.06c0,.14-.15.25-.42.35a3.35,3.35,0,0,1-.9.18,2,2,0,0,1-.93-.06c-.28-.08-.43-.22-.46-.43l-.17-4-2,.15a.9.9,0,0,1-.83-.18.93.93,0,0,1-.32-.68,1,1,0,0,1,.16-.69.84.84,0,0,1,.72-.34Zm-1.56,8.75a1.41,1.41,0,0,0-1,.41,1.87,1.87,0,0,0-.48,1.3,1.9,1.9,0,0,0,.08.71,1.41,1.41,0,0,0,.28.48,1,1,0,0,0,.4.26,1.19,1.19,0,0,0,.45.08,1.17,1.17,0,0,0,1-.47,1.87,1.87,0,0,0,.4-1.06,1.94,1.94,0,0,0-.27-1.23A1,1,0,0,0,56.75,174.36Z"/><path class="cls-13" d="M64.38,167a2.1,2.1,0,0,1-.92-.21.69.69,0,0,1-.43-.63v-1.58c0-.45,0-.76,0-.92a.54.54,0,0,1,.4-.49,2.3,2.3,0,0,1,.85-.15,2.39,2.39,0,0,1,.89.17.58.58,0,0,1,.44.51v1.19c0,.25,0,.49,0,.74a5.16,5.16,0,0,1,0,.61.63.63,0,0,1-.39.59A2,2,0,0,1,64.38,167Z"/><path class="cls-13" d="M72.87,164.19a1.67,1.67,0,0,1,.59,0,1.82,1.82,0,0,1,.54.19,1.26,1.26,0,0,1,.42.33,1,1,0,0,1,.22.48l.2,4.71c0,.19-.13.36-.41.5a3.13,3.13,0,0,1-.88.28,2.1,2.1,0,0,1-.94,0c-.29-.07-.45-.23-.47-.46l-.29-4.2-3.51.14a.88.88,0,0,1-.75-.24.9.9,0,0,1-.29-.6.75.75,0,0,1,.19-.61,1,1,0,0,1,.73-.31Zm-3.69,11.14a1.3,1.3,0,0,1-.93-.31,1.14,1.14,0,0,1-.32-.84L67.81,170c0-.15.13-.27.4-.37a3.18,3.18,0,0,1,.93-.2,3.58,3.58,0,0,1,1,.12c.3.09.45.22.47.41l.1,3.49,4.8-.29h0a.83.83,0,0,1,.78.19,1.22,1.22,0,0,1,.37.63,1.09,1.09,0,0,1-.14.66.92.92,0,0,1-.64.41ZM77,163.72c0-.16.13-.3.41-.4a3.19,3.19,0,0,1,.94-.19,2.93,2.93,0,0,1,.95.09c.3.07.44.2.44.38l.09,4.94h0l2.07-.14a.8.8,0,0,1,.7.23,1,1,0,0,1,.26.65,1,1,0,0,1-.24.65,1,1,0,0,1-.72.35l-2,.17.12,5.74c0,.15-.13.27-.4.37a4.61,4.61,0,0,1-.87.2,3.25,3.25,0,0,1-1-.06c-.28-.07-.43-.21-.43-.43Z"/><path class="cls-13" d="M90.29,167a2.11,2.11,0,0,1-.93-.21.7.7,0,0,1-.43-.63v-1.58c0-.45,0-.76,0-.92a.55.55,0,0,1,.4-.49,2.3,2.3,0,0,1,.85-.15,2.48,2.48,0,0,1,.9.17.6.6,0,0,1,.44.51v1.19c0,.25,0,.49,0,.74s0,.45,0,.61a.66.66,0,0,1-.39.59A2,2,0,0,1,90.29,167Z"/><path class="cls-13" d="M103.8,167.1l0-1-1.68.16a.93.93,0,0,1-.84-.16l0,0a4.44,4.44,0,0,1,0,.9,3.77,3.77,0,0,1-.5,1.56,4.33,4.33,0,0,1-1,1.19,4.61,4.61,0,0,1-1.38.75,4.72,4.72,0,0,1-1.53.25,4.78,4.78,0,0,1-1.66-.27,3.49,3.49,0,0,1-1.2-.77,2.77,2.77,0,0,1-.7-1.18,3.81,3.81,0,0,1-.14-1.53,3.87,3.87,0,0,1,.49-1.54,4.26,4.26,0,0,1,1-1.19,4.47,4.47,0,0,1,1.37-.76,4.8,4.8,0,0,1,1.55-.26,4.39,4.39,0,0,1,1.51.25,3.38,3.38,0,0,1,1.22.75,3.12,3.12,0,0,1,.7.94,1.14,1.14,0,0,1,.16-.36.79.79,0,0,1,.68-.33l2-.19,0-.71c0-.16.12-.3.38-.43a2.58,2.58,0,0,1,.89-.25,2.82,2.82,0,0,1,1,.08c.31.08.47.23.47.43l.16,6.71c0,.13-.14.26-.43.38a3.47,3.47,0,0,1-.9.21,2.62,2.62,0,0,1-1-.06c-.29-.08-.44-.23-.44-.45l0-1.17-1.62.16a.93.93,0,0,1-.78-.24,1,1,0,0,1-.31-.62.85.85,0,0,1,.17-.61.87.87,0,0,1,.67-.33Zm-6.52-2.21a1.29,1.29,0,0,0-1,.53,2.74,2.74,0,0,0-.48,1.62,2.21,2.21,0,0,0,.35,1.54A1.14,1.14,0,0,0,97,169a1.11,1.11,0,0,0,1-.56,3.55,3.55,0,0,0,.42-1.43,2.56,2.56,0,0,0-.25-1.6A1,1,0,0,0,97.28,164.89Zm2.34,10.4,3.59-.39.1-1.34-4.33.13a.87.87,0,0,1-1-.86,1,1,0,0,1,.23-.64,1,1,0,0,1,.75-.31l5.27-.16a2.1,2.1,0,0,1,1.3.26.91.91,0,0,1,.48.85c0,.41,0,.84-.09,1.3s-.08.91-.13,1.36a1,1,0,0,1-.47.7,2.9,2.9,0,0,1-1,.33l-.32,0-.56.06-1,.1-1.57.17a4.11,4.11,0,0,0,.1.88,3.58,3.58,0,0,0,.2.63,7.66,7.66,0,0,0,1.48-.2l1.48-.37a1,1,0,0,1,.8.11,1,1,0,0,1,.41.63.94.94,0,0,1-.07.63.78.78,0,0,1-.57.43,20.45,20.45,0,0,1-2.07.42,15.15,15.15,0,0,1-2.3.2c-.82,0-1.32-.29-1.49-.88a2.17,2.17,0,0,1-.26-.59,7.63,7.63,0,0,1-.2-.76,7.05,7.05,0,0,1-.15-.8,6.38,6.38,0,0,1,0-.7,1.07,1.07,0,0,1,.38-.83A1.77,1.77,0,0,1,99.62,175.29Z"/><path class="cls-13" d="M108,168.31a.87.87,0,0,1,.44-.75,3.28,3.28,0,0,1,1.06-.44l3-.77c0-.13,0-.33.08-.6s0-.51,0-.72l-2.77.17A.88.88,0,0,1,109,165a.92.92,0,0,1-.05-1.25,1,1,0,0,1,.75-.31l3.73-.12a1.7,1.7,0,0,1,1.17.31c.45.28.67.54.65.76-.05.39-.09.82-.12,1.28A11.68,11.68,0,0,1,115,167a1,1,0,0,1-.35.58,4.45,4.45,0,0,1-.95.43l-1.78.45-1.15.3.27,1.58.47-.07c.22,0,.47-.08.76-.14l.92-.22c.33-.08.64-.18,1-.28a.84.84,0,0,1,.79.13,1.07,1.07,0,0,1,.39.67,1.11,1.11,0,0,1-.1.64.84.84,0,0,1-.61.44h0c-.22.07-.51.14-.87.22l-1.2.23-1.19.18a8.16,8.16,0,0,1-1,.07,2.4,2.4,0,0,1-1.14-.25,1.09,1.09,0,0,1-.6-.78h0Zm10.89,4.95a1.77,1.77,0,0,1,1.52.37,1.83,1.83,0,0,1,.45,1.14l0,2.38a1.5,1.5,0,0,1-.41,1,2.36,2.36,0,0,1-1.17.53,10.36,10.36,0,0,1-1.11.14c-.45,0-.91.08-1.37.1l-1.31,0-1,0q-.39,0-.72,0a2,2,0,0,1-.6-.13,1.12,1.12,0,0,1-.43-.27.85.85,0,0,1-.21-.51l-.35-3.72a1.54,1.54,0,0,1,0-.16,1.21,1.21,0,0,1,.11-.3,1.08,1.08,0,0,1,.21-.28.41.41,0,0,1,.3-.12Zm-.69,1.76-3.24.12.1,1.58a.52.52,0,0,0,.2.44,1.26,1.26,0,0,0,.7,0l2.24-.14Zm-.78-11.55c0-.16.14-.29.42-.4a3.36,3.36,0,0,1,1.92-.1c.3.08.45.2.45.38l.06,3.47,2.11-.15a.9.9,0,0,1,.69.29.92.92,0,0,1,.25.64,1,1,0,0,1-.25.65.92.92,0,0,1-.75.31l-2,.16.1,3.16c0,.15-.13.28-.4.37a3.92,3.92,0,0,1-.85.21,3.34,3.34,0,0,1-1-.07c-.3-.06-.45-.21-.45-.43Z"/><path class="cls-13" d="M126.32,167a2.11,2.11,0,0,1-.93-.21.7.7,0,0,1-.43-.63v-1.58c0-.45,0-.76,0-.92a.55.55,0,0,1,.4-.49,2.35,2.35,0,0,1,.86-.15,2.43,2.43,0,0,1,.89.17.6.6,0,0,1,.44.51v1.19c0,.25,0,.49,0,.74s0,.45,0,.61a.66.66,0,0,1-.39.59A2,2,0,0,1,126.32,167Z"/><path class="cls-13" d="M132.82,173.65a3.87,3.87,0,0,1-1.64-.33,3.19,3.19,0,0,1-1.2-.95,3.84,3.84,0,0,1-.7-1.48,6.58,6.58,0,0,1-.15-1.93,5.26,5.26,0,0,1,.46-1.94,4.79,4.79,0,0,1,1-1.48,4.4,4.4,0,0,1,1.38-.94,3.83,3.83,0,0,1,1.56-.33,3.64,3.64,0,0,1,1.5.32,3.43,3.43,0,0,1,1.22.92A3.69,3.69,0,0,1,137,167a5.64,5.64,0,0,1,.21,2,5.24,5.24,0,0,1-.47,2,5.15,5.15,0,0,1-1,1.47,4.2,4.2,0,0,1-1.38.93A4.1,4.1,0,0,1,132.82,173.65Zm.49-7.59c-.35,0-.68.26-1,.78a4.88,4.88,0,0,0-.49,2.25,6,6,0,0,0,.09,1.27,3.57,3.57,0,0,0,.27.9,1.53,1.53,0,0,0,.4.53.71.71,0,0,0,.45.17.87.87,0,0,0,.59-.22,1.81,1.81,0,0,0,.44-.61,3.81,3.81,0,0,0,.29-.9,5.83,5.83,0,0,0,.1-1.14,6.16,6.16,0,0,0-.29-2.2C134,166.33,133.69,166.06,133.31,166.06Zm5.78-2.48c0-.15.14-.28.4-.39a3.25,3.25,0,0,1,1.89-.18c.31.06.46.2.46.4l.17,12.7c0,.13-.14.25-.43.36a3.61,3.61,0,0,1-.89.19,2.75,2.75,0,0,1-1,0c-.29-.07-.43-.21-.43-.43Z"/><path class="cls-13" d="M159,167.19l0-3.45c0-.16.13-.3.4-.41a3.78,3.78,0,0,1,.91-.23,4.37,4.37,0,0,1,1,.08q.45.09.45.36l.21,12.65c0,.14-.14.26-.42.37a3,3,0,0,1-.89.2,2.06,2.06,0,0,1-.94-.08.59.59,0,0,1-.46-.45l-.16-7.13-1.79.15a1,1,0,0,1-.8-.21,5.25,5.25,0,0,1-.47,1.89,4.94,4.94,0,0,1-1,1.47,4.14,4.14,0,0,1-1.39.93,4.06,4.06,0,0,1-1.55.32,3.91,3.91,0,0,1-1.64-.33,3.27,3.27,0,0,1-1.2-.95,3.82,3.82,0,0,1-.69-1.48,6.25,6.25,0,0,1-.16-1.93,5.47,5.47,0,0,1,.46-1.94,5,5,0,0,1,1-1.48,4.47,4.47,0,0,1,1.37-.94,3.9,3.9,0,0,1,1.56-.33,3.65,3.65,0,0,1,1.51.32,3.43,3.43,0,0,1,1.22.92,4,4,0,0,1,.78,1.48c.05.19.1.39.14.59a1.08,1.08,0,0,1,.54-.22Zm-6.48-1.13c-.36,0-.68.26-1,.78a5,5,0,0,0-.48,2.25,6,6,0,0,0,.08,1.27,3.54,3.54,0,0,0,.28.9,1.42,1.42,0,0,0,.4.53.71.71,0,0,0,.45.17.88.88,0,0,0,.59-.22,2,2,0,0,0,.44-.61,3.82,3.82,0,0,0,.28-.9,5.8,5.8,0,0,0,.11-1.14,6.4,6.4,0,0,0-.29-2.2C153.2,166.33,152.91,166.06,152.53,166.06Z"/><path class="cls-13" d="M163.25,168.31a.87.87,0,0,1,.44-.75,3.28,3.28,0,0,1,1.06-.44l2.95-.77a4.52,4.52,0,0,0,.07-.6q0-.41,0-.72l-2.76.17a.88.88,0,0,1-.74-.25.92.92,0,0,1-.05-1.25,1,1,0,0,1,.75-.31l3.74-.12a1.68,1.68,0,0,1,1.17.31c.46.28.68.54.66.76,0,.39-.09.82-.12,1.28a11.68,11.68,0,0,1-.16,1.34.94.94,0,0,1-.36.58,4.21,4.21,0,0,1-1,.43l-1.79.45-1.15.3.27,1.58.47-.07c.22,0,.47-.08.76-.14l.93-.22c.33-.08.64-.18.95-.28a.83.83,0,0,1,.79.13,1,1,0,0,1,.4.67,1.11,1.11,0,0,1-.1.64.84.84,0,0,1-.62.44h0c-.22.07-.51.14-.87.22l-1.21.23-1.19.18a8.28,8.28,0,0,1-1,.07,2.4,2.4,0,0,1-1.14-.25,1.09,1.09,0,0,1-.6-.78h0Zm10.13,5.27c0-.16.13-.29.38-.38a3,3,0,0,1,.91-.13,3.26,3.26,0,0,1,.9.12c.28.09.42.22.44.39l0,3.59a2.74,2.74,0,0,1-.09.55,1,1,0,0,1-.23.41,1.52,1.52,0,0,1-.47.3,3,3,0,0,1-.79.22,5.9,5.9,0,0,1-.9.16l-1.13.12-1.21.07L170,179a2.43,2.43,0,0,1-1.31-.33,1.27,1.27,0,0,1-.62-1c-.11-.7-.2-1.35-.27-2s-.1-1.29-.1-2c0-.15.14-.28.41-.37a2.83,2.83,0,0,1,1-.15,2.76,2.76,0,0,1,.94.16c.29.1.43.23.43.4l0,.9,2.95-.33Zm0,2.44-2.85.31.1,1a2.26,2.26,0,0,0,.62,0l.8-.06a6.34,6.34,0,0,0,.78-.13,4.66,4.66,0,0,0,.55-.14Zm.13-7.73,0-1.56-1.68.17a.89.89,0,0,1-.83-.18,1,1,0,0,1-.32-.66,1,1,0,0,1,.17-.64.83.83,0,0,1,.68-.33l1.94-.18,0-1.39c0-.16.13-.3.38-.43a2.64,2.64,0,0,1,.9-.25,2.84,2.84,0,0,1,1,.08c.31.08.46.23.46.43l.17,8.49c0,.14-.15.26-.43.38a3.11,3.11,0,0,1-.91.22,2.37,2.37,0,0,1-1-.07c-.3-.08-.44-.23-.44-.45l0-1.76-1.83.16a.93.93,0,0,1-.78-.24,1,1,0,0,1-.31-.62.89.89,0,0,1,.17-.62.87.87,0,0,1,.68-.34Z"/><path class="cls-13" d="M178.76,170.61l8.63-.2a.87.87,0,0,1,.69.26,1,1,0,0,1,.25.6,1,1,0,0,1-.23.59.94.94,0,0,1-.73.31l-8.39.25a.78.78,0,0,1-.69-.25,1.08,1.08,0,0,1-.25-.62.89.89,0,0,1,.13-.61A.74.74,0,0,1,178.76,170.61Zm4.45-8.61a.7.7,0,0,1,.7-.29,2.33,2.33,0,0,1,.94.29,1.77,1.77,0,0,1,.54.46.37.37,0,0,1,0,.48h0l-1,1.42a9.42,9.42,0,0,0,1.17,1.2,10.24,10.24,0,0,0,1.43,1,.53.53,0,0,1,.22.46,1,1,0,0,1-.2.55,1.53,1.53,0,0,1-.75.56,1,1,0,0,1-.91-.17h0l-1.14-.8a6.87,6.87,0,0,1-1.07-.95l-1.56,2.36a.71.71,0,0,1-.69.24,2.24,2.24,0,0,1-.93-.34,2.4,2.4,0,0,1-.56-.45c-.13-.17-.15-.31,0-.43.66-1,1.32-1.93,2-2.92S182.69,162.82,183.21,162Zm2,12.38c0-.16.12-.29.37-.38a3.09,3.09,0,0,1,.92-.13,3.24,3.24,0,0,1,.89.12c.28.09.43.22.44.39l0,4.21a2.8,2.8,0,0,1-.08.54.82.82,0,0,1-.24.41,1.54,1.54,0,0,1-.47.31,3.07,3.07,0,0,1-.79.21,11.47,11.47,0,0,1-1.87.28c-.73.06-1.49.09-2.25.09a2.52,2.52,0,0,1-1.31-.32,1.3,1.3,0,0,1-.62-1c-.11-.7-.2-1.46-.27-2.29s-.1-1.61-.1-2.36c0-.15.14-.28.41-.37a2.83,2.83,0,0,1,.95-.15,2.54,2.54,0,0,1,.94.16c.29.1.43.23.43.4l0,1.35,2.65-.37Zm0,2.85-2.55.31.1,1.21a1.68,1.68,0,0,0,.57,0l.7-.06a6.66,6.66,0,0,0,.67-.12l.51-.14Z"/><path class="cls-13" d="M190.57,171.14q-.12-.63-.21-1.38c-.05-.5-.1-1-.13-1.52s-.06-1-.08-1.51,0-.95,0-1.37q0-.33.45-.45a3.11,3.11,0,0,1,1-.1,4,4,0,0,1,1,.22c.28.11.43.26.43.45a16.83,16.83,0,0,0,.37,5.17.52.52,0,0,0,.11.19.35.35,0,0,0,.26.08l.72,0,.81-.07q.42,0,.81-.12l.71-.13a1,1,0,0,1,.83.09.9.9,0,0,1,.42.63.77.77,0,0,1-.07.59,1.06,1.06,0,0,1-.63.45l-1.14.21c-.41.07-.83.12-1.25.16s-.85.07-1.27.08a7.41,7.41,0,0,1-1.17,0,2,2,0,0,1-1.29-.49A1.85,1.85,0,0,1,190.57,171.14Zm8.86-7.56c0-.15.13-.28.4-.39a3.37,3.37,0,0,1,.91-.23,3.44,3.44,0,0,1,1,0c.31.06.47.2.47.4l.16,12.7q0,.19-.42.36a3.71,3.71,0,0,1-.89.19,2.8,2.8,0,0,1-1,0c-.28-.07-.43-.21-.43-.43Z"/><path class="cls-13" d="M205.85,165l5.16-.31a.94.94,0,0,1,.76.27.92.92,0,0,1,.23.6.94.94,0,0,1-.22.62.84.84,0,0,1-.62.32c-.7.05-1.38.1-2,.12s-1.25.07-1.75.13l.31,4.3c.26,0,.56,0,.89,0s.68,0,1,0l1-.1a6.28,6.28,0,0,0,.82-.16,1.06,1.06,0,0,1,.81,0,.67.67,0,0,1,.4.51.88.88,0,0,1,0,.32,1.12,1.12,0,0,1-.12.35,1.07,1.07,0,0,1-.25.32.78.78,0,0,1-.35.18,10.92,10.92,0,0,1-1.15.2c-.43.06-.86.1-1.31.13l-1.34.06c-.44,0-.83,0-1.19,0a2.92,2.92,0,0,1-1.26-.33,1.13,1.13,0,0,1-.6-.75,16.3,16.3,0,0,1-.32-2.35c-.06-.87-.11-1.73-.13-2.58a3.16,3.16,0,0,1,0-.61,1.31,1.31,0,0,1,.17-.55,1.22,1.22,0,0,1,.41-.44A1.57,1.57,0,0,1,205.85,165Zm8.63-1.31c0-.16.14-.3.42-.4a3.41,3.41,0,0,1,.95-.19,3.09,3.09,0,0,1,1,.09c.29.07.44.2.44.38l.06,3.75,2.24-.14a.87.87,0,0,1,.68.28,1,1,0,0,1,.26.64,1,1,0,0,1-.26.66.93.93,0,0,1-.75.3l-2.13.17.1,6.93c0,.15-.13.27-.4.37a4.4,4.4,0,0,1-.85.2,3.06,3.06,0,0,1-1-.06c-.29-.07-.44-.21-.44-.43Z"/><path class="cls-13" d="M223.61,170a2.27,2.27,0,0,1,0-.35c0-.09,0-.2,0-.35h-.62l-.61,0a.82.82,0,0,1-.67-.4,1.39,1.39,0,0,1-.25-.79,1.05,1.05,0,0,1,.15-.57.66.66,0,0,1,.48-.31h1.76l1.58,0,1.81,0,1.86-.07,1.77-.08a.87.87,0,0,1,.63.34,1.16,1.16,0,0,1,.23.71,1.24,1.24,0,0,1-.23.7.91.91,0,0,1-.69.37l-.93,0c0,.13,0,.26,0,.38s0,.24,0,.37c0,.32,0,.64,0,1s0,.65,0,1v.64c0,.2,0,.42,0,.63a.6.6,0,0,1-.43.52,2.21,2.21,0,0,1-.87.16,2.26,2.26,0,0,1-.88-.17.66.66,0,0,1-.43-.51c0-.61,0-1.26,0-1.94v-2h-1.09c0,.33-.05.67-.08,1s0,.71-.08,1.05-.06.67-.08,1-.06.6-.08.84a.62.62,0,0,1-.42.49,2.35,2.35,0,0,1-.86.15,2.31,2.31,0,0,1-1-.22c-.32-.14-.45-.34-.41-.6s.05-.36.08-.59.06-.47.08-.73.06-.54.08-.82Z"/><path class="cls-13" d="M235,170c0-.15,0-.27,0-.35s0-.2,0-.35h-.61l-.62,0a.84.84,0,0,1-.67-.4,1.39,1.39,0,0,1-.25-.79,1.05,1.05,0,0,1,.15-.57.68.68,0,0,1,.48-.31h1.77l1.58,0,1.8,0,1.87-.07,1.76-.08a.89.89,0,0,1,.64.34,1.15,1.15,0,0,1,.22.71,1.23,1.23,0,0,1-.22.7.93.93,0,0,1-.7.37l-.92,0c0,.13,0,.26,0,.38a2.51,2.51,0,0,0,0,.37l0,1c0,.32,0,.65,0,1v.64c0,.2,0,.42,0,.63a.6.6,0,0,1-.42.52,2.43,2.43,0,0,1-1.76,0,.66.66,0,0,1-.43-.51c0-.61,0-1.26,0-1.94v-2h-1.08l-.09,1c0,.36-.05.71-.08,1.05s0,.67-.08,1-.05.6-.08.84a.62.62,0,0,1-.42.49,2.34,2.34,0,0,1-.85.15,2.38,2.38,0,0,1-1-.22c-.31-.14-.45-.34-.41-.6s.06-.36.08-.59.06-.47.09-.73,0-.54.08-.82S235,170.27,235,170Z"/><path class="cls-14" d="M83.9,214q.07-.25.48-.3a1.83,1.83,0,0,1,.8.09,1.78,1.78,0,0,1,.61.33c.17.13.23.26.17.39L85.44,216c.16.22.31.43.46.6s.3.34.44.48c.27.29.52.54.77.78s.47.45.68.65a.38.38,0,0,1,.13.42,1.09,1.09,0,0,1-.23.47,1.42,1.42,0,0,1-.3.3.91.91,0,0,1-.36.17.77.77,0,0,1-.37,0,.79.79,0,0,1-.36-.21c-.28-.23-.56-.48-.84-.76s-.56-.56-.82-.85l-1,2.25c-.08.14-.25.21-.52.21a2,2,0,0,1-.77-.16,2.14,2.14,0,0,1-.54-.32.31.31,0,0,1-.14-.37q.33-.78.6-1.47c.19-.45.37-.91.55-1.35l.51-1.34C83.54,215,83.72,214.54,83.9,214Zm3.81,12.06a1.7,1.7,0,0,1-.55,0,1.83,1.83,0,0,1-.5-.15,1,1,0,0,1-.36-.27.52.52,0,0,1-.12-.37l.24-3.93a.3.3,0,0,1,.11-.23.92.92,0,0,1,.28-.15,2,2,0,0,1,.38-.06,3.1,3.1,0,0,1,.43,0,2.29,2.29,0,0,1,.77.18c.24.09.35.22.34.38l-.17,3.15,3.43-.14a.75.75,0,0,1,.63.18.66.66,0,0,1,.21.48.75.75,0,0,1-.22.49.83.83,0,0,1-.6.24l-3.2.19-1.12.05Zm2-12.67c0-.13.11-.23.33-.32a2.75,2.75,0,0,1,.75-.19,3.1,3.1,0,0,1,.81,0c.25.05.38.16.38.33l.13,7.83c0,.11-.11.21-.34.3a3.61,3.61,0,0,1-.74.16,2.33,2.33,0,0,1-.8,0c-.23-.05-.35-.17-.35-.35Z"/><path class="cls-14" d="M98,227.56a3.42,3.42,0,0,1-2.39-.75,2.17,2.17,0,0,1-.66-2,2.83,2.83,0,0,1,.42-1.17,3,3,0,0,1,.83-.86,3.52,3.52,0,0,1,1.11-.51,1.61,1.61,0,0,1,.29-.09.25.25,0,0,1,0-.08l.14-1.63-3.1.13a.59.59,0,0,1-.56-.19.93.93,0,0,1-.22-.53.94.94,0,0,1,.12-.53.56.56,0,0,1,.47-.27l7.08-.2a.78.78,0,0,1,.6.22.66.66,0,0,1,.22.5.73.73,0,0,1-.22.5.85.85,0,0,1-.6.27l-1.57.07-.17,1.69,0,.12.12,0a3.08,3.08,0,0,1,1,.56,2.32,2.32,0,0,1,.62.86,2,2,0,0,1,.13,1.11,2.73,2.73,0,0,1-.42,1.16,3.16,3.16,0,0,1-.85.86,3.91,3.91,0,0,1-1.13.53A4.85,4.85,0,0,1,98,227.56Zm1.71-12.79a5.27,5.27,0,0,0,.82.73,7.87,7.87,0,0,0,.88.56.38.38,0,0,1,.18.36.76.76,0,0,1-.17.44,1.41,1.41,0,0,1-.61.45.73.73,0,0,1-.71-.1c-.29-.18-.57-.37-.83-.57a6.27,6.27,0,0,1-.84-.77l-1,.87-1,.81a.54.54,0,0,1-.63.15,1.6,1.6,0,0,1-.64-.44.87.87,0,0,1-.25-.4.33.33,0,0,1,.06-.34l3.56-2.88-2.88.32a.8.8,0,0,1-.92-.68.71.71,0,0,1,.13-.51.61.61,0,0,1,.43-.27l4.76-.3a.92.92,0,0,1,.54.18,1.17,1.17,0,0,1,.39.41,1.14,1.14,0,0,1,.16.48.38.38,0,0,1-.11.35h0Zm-1.3,8.8a1.17,1.17,0,0,0-.81.32,1.41,1.41,0,0,0-.39,1.05,1.53,1.53,0,0,0,.06.59,1.07,1.07,0,0,0,.23.38.72.72,0,0,0,.33.2,1.26,1.26,0,0,0,.38.06,1,1,0,0,0,.83-.37,1.47,1.47,0,0,0,.33-.86,1.54,1.54,0,0,0-.22-1A.86.86,0,0,0,98.4,223.57Z"/><path class="cls-14" d="M106.12,215.16l-.3-2.32c0-.14.12-.28.34-.4a2.06,2.06,0,0,1,.71-.24,2.86,2.86,0,0,1,.42,0,1.59,1.59,0,0,1,.4.07,1.05,1.05,0,0,1,.3.15.36.36,0,0,1,.13.25l.31,2.49,1.46,0a.68.68,0,0,1,.56.23.72.72,0,0,1,.16.5.92.92,0,0,1-.23.51.78.78,0,0,1-.6.22l-5.28.17a.87.87,0,0,1-.67-.24.91.91,0,0,1-.26-.54.68.68,0,0,1,.14-.53.65.65,0,0,1,.58-.25Zm.78,7.69a3.38,3.38,0,0,1-1.23-.2,2.58,2.58,0,0,1-.92-.56,2.18,2.18,0,0,1-.53-.87,2.67,2.67,0,0,1-.1-1.1,2.62,2.62,0,0,1,.38-1.11,3.25,3.25,0,0,1,.75-.86,3.37,3.37,0,0,1,1-.56,3.53,3.53,0,0,1,1.16-.19,3.25,3.25,0,0,1,1.14.19,2.86,2.86,0,0,1,.93.55,2.41,2.41,0,0,1,.59.85,2.33,2.33,0,0,1,.13,1.13,2.62,2.62,0,0,1-.38,1.13,3.17,3.17,0,0,1-.77.86,3.35,3.35,0,0,1-1,.55A3.51,3.51,0,0,1,106.9,222.85Zm.36-4.1a.94.94,0,0,0-.7.35,1.72,1.72,0,0,0-.35,1.11,1.41,1.41,0,0,0,.24,1,.9.9,0,0,0,1.38-.07,2,2,0,0,0,.28-1,1.88,1.88,0,0,0-.18-1.09A.76.76,0,0,0,107.26,218.75Zm4.93-5.28c0-.13.11-.23.33-.32a2.75,2.75,0,0,1,.75-.19,3.08,3.08,0,0,1,.81,0c.25.05.38.16.38.33l.13,10.49c0,.11-.11.21-.34.3a3.47,3.47,0,0,1-.74.16,2.33,2.33,0,0,1-.8,0c-.23-.05-.35-.17-.35-.35Z"/><path class="cls-14" d="M126.47,218.55c.06.06.06.16,0,.3a1.09,1.09,0,0,1-.26.41,3.45,3.45,0,0,1-.28.26,1,1,0,0,1-.29.17.55.55,0,0,1-.31,0,.66.66,0,0,1-.3-.17c-.27-.19-.56-.41-.87-.65a4.59,4.59,0,0,1-.79-.8l-1.66,2a.65.65,0,0,1-.62.21,1.36,1.36,0,0,1-.69-.36,1.16,1.16,0,0,1-.35-.42.33.33,0,0,1,0-.38l.88-1c.32-.37.63-.75.94-1.13s.61-.76.88-1.14.51-.7.71-1l-2.73.31a.79.79,0,0,1-.66-.19.84.84,0,0,1-.26-.49.8.8,0,0,1,.1-.51.56.56,0,0,1,.43-.27l4.56-.3a.79.79,0,0,1,.55.21,2,2,0,0,1,.41.5,1.25,1.25,0,0,1,.11.39.44.44,0,0,1-.09.35l-1.43,1.85ZM129,221a1.65,1.65,0,0,1,1,.16.82.82,0,0,1,.43.65l0,3.63c0,.15-.11.29-.34.39a2.45,2.45,0,0,1-.71.22,2.11,2.11,0,0,1-.8,0c-.23-.06-.35-.19-.35-.38l0-3.17-3.54.12a.77.77,0,0,1-.63-.18.75.75,0,0,1-.23-.5.69.69,0,0,1,.18-.5.8.8,0,0,1,.61-.24Zm-1-7.59c0-.13.12-.23.35-.32a3,3,0,0,1,.77-.19,2.41,2.41,0,0,1,.81,0c.25.05.38.16.38.34l.05,2.83,1.84-.15a.72.72,0,0,1,.57.24.75.75,0,0,1,.21.52.84.84,0,0,1-.21.54.8.8,0,0,1-.6.26l-1.8.12,0,2.32c0,.12-.12.22-.34.3a2.9,2.9,0,0,1-.71.15,2.1,2.1,0,0,1-.8,0c-.24-.06-.36-.17-.36-.36Z"/><path class="cls-14" d="M136.16,213.59a.47.47,0,0,1,.48-.28,2.06,2.06,0,0,1,.81.11,2.31,2.31,0,0,1,.61.3c.17.13.22.25.17.38l-.53,1.38c.16.23.32.43.47.61l.43.48.77.78c.24.23.47.45.69.64a.41.41,0,0,1,.12.43,1.13,1.13,0,0,1-.22.47,2.2,2.2,0,0,1-.31.3,1,1,0,0,1-.36.17,1.15,1.15,0,0,1-.37,0,.71.71,0,0,1-.35-.22,8.31,8.31,0,0,1-.85-.75q-.42-.42-.81-.87h0l-1,2.26a.57.57,0,0,1-.52.2,2.07,2.07,0,0,1-.77-.15,2.33,2.33,0,0,1-.54-.32c-.15-.13-.19-.25-.13-.38l.6-1.46c.18-.46.36-.9.54-1.34l.52-1.32C135.8,214.57,136,214.1,136.16,213.59Zm4.36,12.86a4.23,4.23,0,0,1-1.39-.21,2.66,2.66,0,0,1-1-.58,2.18,2.18,0,0,1-.66-2,2.68,2.68,0,0,1,.41-1.18,3.09,3.09,0,0,1,.83-.86,3.9,3.9,0,0,1,1.12-.55,4.55,4.55,0,0,1,1.28-.18,3.88,3.88,0,0,1,1.29.2,3,3,0,0,1,1,.58,2.43,2.43,0,0,1,.63.87,2.09,2.09,0,0,1,.12,1.12,2.57,2.57,0,0,1-.42,1.17,3.16,3.16,0,0,1-.85.86,4,4,0,0,1-1.12.55A4.58,4.58,0,0,1,140.52,226.45Zm1.69-11.3,0-1.77c0-.13.11-.24.34-.34a2.75,2.75,0,0,1,.75-.18,2.07,2.07,0,0,1,.8.11c.25.08.37.2.37.35l.18,6.65c0,.12-.11.21-.34.29a3,3,0,0,1-.74.15,1.77,1.77,0,0,1-.77,0c-.23-.06-.36-.18-.38-.35l-.14-3.32-1.62.12a.77.77,0,0,1-.69-.15.93.93,0,0,1-.13-1.13.68.68,0,0,1,.6-.28Zm-1.29,7.23a1.13,1.13,0,0,0-.8.34,1.44,1.44,0,0,0-.4,1.07,1.52,1.52,0,0,0,.07.59.94.94,0,0,0,.23.39.83.83,0,0,0,.33.22,1.16,1.16,0,0,0,.37.07,1,1,0,0,0,.84-.39,1.76,1.76,0,0,0,.33-.88,1.68,1.68,0,0,0-.23-1A.85.85,0,0,0,140.92,222.38Z"/><path class="cls-14" d="M148.1,215.16l-.3-2.66c0-.14.12-.28.34-.4a2.29,2.29,0,0,1,.71-.24,2.86,2.86,0,0,1,.42,0,1.59,1.59,0,0,1,.4.07,1.05,1.05,0,0,1,.3.15.36.36,0,0,1,.13.25l.31,2.83,1.28,0a.69.69,0,0,1,.57.23.72.72,0,0,1,.16.5.92.92,0,0,1-.23.51.78.78,0,0,1-.6.22l-4.94.17a.87.87,0,0,1-.67-.24,1,1,0,0,1-.27-.54.73.73,0,0,1,.15-.53.65.65,0,0,1,.58-.25Zm.78,7.69a3,3,0,0,1-1.14-.2,2.25,2.25,0,0,1-.86-.56,2.13,2.13,0,0,1-.51-.87,2.67,2.67,0,0,1-.1-1.1,3.08,3.08,0,0,1,.35-1.11,3.26,3.26,0,0,1,.7-.86,2.91,2.91,0,0,1,1-.56,3.33,3.33,0,0,1,1.14-.19,2.79,2.79,0,0,1,1.92.74,2.38,2.38,0,0,1,.58.85,2.33,2.33,0,0,1,.12,1.13,3,3,0,0,1-.34,1.13,3,3,0,0,1-.71.86,3,3,0,0,1-1,.55A3.33,3.33,0,0,1,148.88,222.85Zm.34-4.1a.72.72,0,0,0-.57.35,2,2,0,0,0-.29,1.11,1.55,1.55,0,0,0,.2,1,.67.67,0,0,0,.53.28.64.64,0,0,0,.61-.36,2.61,2.61,0,0,0,.22-1,2.12,2.12,0,0,0-.14-1.09A.6.6,0,0,0,149.22,218.75Zm3.9-4.72c0-.14.11-.25.33-.35a2.36,2.36,0,0,1,.74-.19,2.58,2.58,0,0,1,.79,0c.25,0,.37.15.37.3l.07,3.41,1.19-.1-.07-3.51c0-.13.11-.25.32-.34a2.75,2.75,0,0,1,.75-.18,2.58,2.58,0,0,1,.8.06c.24.05.37.14.37.29l.23,10.44c0,.12-.1.22-.32.3a2.91,2.91,0,0,1-.69.17,2.29,2.29,0,0,1-.81-.07c-.23-.06-.34-.19-.34-.37l-.21-5.3-1.18.12.1,4.23c0,.13-.11.23-.32.31a3.77,3.77,0,0,1-.7.17,2.89,2.89,0,0,1-.8,0c-.24-.06-.35-.18-.35-.36Z"/><path class="cls-14" d="M163.88,221.85l-2.85.07a.64.64,0,0,1-.57-.19.89.89,0,0,1-.21-.54.83.83,0,0,1,.1-.51.66.66,0,0,1,.46-.32l7.18-.2a.69.69,0,0,1,.57.24.88.88,0,0,1,.21.52,1,1,0,0,1-.19.56.73.73,0,0,1-.64.27l-1.83.07-.37,4c0,.15-.17.27-.42.33a2.3,2.3,0,0,1-.8.07,2.59,2.59,0,0,1-.74-.18c-.21-.08-.3-.19-.28-.33Zm1-7.36-2.85.32a.81.81,0,0,1-.66-.19.86.86,0,0,1-.25-.49.78.78,0,0,1,.12-.52.58.58,0,0,1,.44-.26l4.69-.34a1.09,1.09,0,0,1,.56.15.92.92,0,0,1,.39.39,1.08,1.08,0,0,1,.14.53.57.57,0,0,1-.12.41l-1.29,1.28a3.22,3.22,0,0,0,.37.37l.46.38c.16.12.31.24.46.34l.42.25a.47.47,0,0,1,.18.19.73.73,0,0,1,.07.24,1.15,1.15,0,0,1,0,.26.57.57,0,0,1-.08.19,1.32,1.32,0,0,1-.7.45.83.83,0,0,1-.73-.18l-1.68-1.3-.82.76-1.12,1a.63.63,0,0,1-.61.11,1.64,1.64,0,0,1-.65-.4,1.17,1.17,0,0,1-.27-.42.32.32,0,0,1,.09-.38q.38-.3.84-.72l1-.84.92-.86C164.46,215,164.71,214.7,164.91,214.49Z"/><path class="cls-14" d="M172.55,214.33c.06-.17.22-.26.49-.28a2.27,2.27,0,0,1,.81.11,1.64,1.64,0,0,1,.33.14,2,2,0,0,1,.26.17.46.46,0,0,1,.16.18.25.25,0,0,1,0,.19l-.7,1.78a10.14,10.14,0,0,0,1.21,1.59,19.39,19.39,0,0,0,1.59,1.53.46.46,0,0,1,.07.41.85.85,0,0,1-.22.5,1.11,1.11,0,0,1-.7.42.79.79,0,0,1-.74-.27l-.4-.31c-.18-.14-.36-.3-.56-.49s-.39-.38-.58-.59a4.41,4.41,0,0,1-.45-.59c-.18.45-.36.9-.55,1.34s-.37.88-.56,1.32a.62.62,0,0,1-.53.26,1.7,1.7,0,0,1-.78-.17,2.88,2.88,0,0,1-.56-.34c-.17-.14-.22-.27-.17-.39Zm5.34-.86c0-.13.11-.23.33-.32A2.75,2.75,0,0,1,179,213a3.1,3.1,0,0,1,.81,0c.25.05.38.16.38.33l.13,10.49c0,.11-.11.21-.34.3a3.61,3.61,0,0,1-.74.16,2.31,2.31,0,0,1-.8,0c-.24-.05-.35-.17-.35-.35Z"/><path class="cls-14" d="M186.44,213.18a1.29,1.29,0,0,1,.48,0,1.49,1.49,0,0,1,.45.15,1.39,1.39,0,0,1,.35.28.77.77,0,0,1,.18.39l.17,4.34c0,.16-.11.29-.34.41a2.59,2.59,0,0,1-.73.23,1.85,1.85,0,0,1-.78,0c-.24-.06-.37-.19-.39-.38l-.24-3.92-2.89.12a.72.72,0,0,1-.62-.19.78.78,0,0,1-.25-.5.63.63,0,0,1,.16-.5.85.85,0,0,1,.61-.26Zm.61,10,3-.32.08-1.1-3.57.1a.73.73,0,0,1-.64-.2.76.76,0,0,1-.21-.51.75.75,0,0,1,.81-.78l4.36-.14a1.69,1.69,0,0,1,1.07.22.77.77,0,0,1,.4.7c0,.34,0,.7-.08,1.07s-.06.76-.11,1.13a.83.83,0,0,1-.39.58,2.43,2.43,0,0,1-.84.27l-.27,0-.46.05-.81.09-1.29.13a4.26,4.26,0,0,0,.08.73,3.66,3.66,0,0,0,.17.53,7.63,7.63,0,0,0,1.22-.17c.39-.09.79-.19,1.22-.31a.86.86,0,0,1,.66.1.74.74,0,0,1,.34.51.71.71,0,0,1-.06.53.63.63,0,0,1-.46.35c-.55.14-1.12.25-1.71.35a12.81,12.81,0,0,1-1.9.16c-.68,0-1.09-.24-1.24-.73a1.81,1.81,0,0,1-.21-.48c-.06-.2-.12-.41-.17-.63s-.09-.44-.12-.66a4.24,4.24,0,0,1,0-.58.89.89,0,0,1,.31-.69A1.6,1.6,0,0,1,187.05,223.14Zm3.19-9.72c0-.13.11-.23.33-.32a2.75,2.75,0,0,1,.75-.19,3.1,3.1,0,0,1,.81,0c.25.05.38.16.38.33l.13,5.68c0,.11-.11.21-.35.29a2.5,2.5,0,0,1-.73.16,2.1,2.1,0,0,1-.8,0c-.24-.06-.35-.17-.35-.36Z"/><path class="cls-14" d="M103.4,245.33a2,2,0,0,1-1.33-.64l-.52-.49q-.67-.63-1.38-1.32a10.09,10.09,0,0,1-1.27-1.49,7.36,7.36,0,0,1-.92-1.73,5.64,5.64,0,0,1-.36-2v-.25a1.37,1.37,0,0,1,0-.29,2.72,2.72,0,0,1,.19-.94,2.6,2.6,0,0,1,.51-.8,2.41,2.41,0,0,1,.82-.55,2.74,2.74,0,0,1,1.15-.22,2.22,2.22,0,0,1,.87.18,3.47,3.47,0,0,1,.8.48,4,4,0,0,1,.7.67,5.9,5.9,0,0,1,.53.77,3.8,3.8,0,0,1,1.23-1.52,2.8,2.8,0,0,1,1.68-.56,3,3,0,0,1,1,.18,2.47,2.47,0,0,1,.85.52,2.81,2.81,0,0,1,.6.83,2.6,2.6,0,0,1,.22,1.1,6.94,6.94,0,0,1-.28,2.15,8.69,8.69,0,0,1-.82,1.94,11.12,11.12,0,0,1-1.27,1.75,16.52,16.52,0,0,1-1.57,1.56,3.75,3.75,0,0,1-.76.53A1.64,1.64,0,0,1,103.4,245.33Z"/><path class="cls-14" d="M113.56,242.67l-2.84.07a.62.62,0,0,1-.57-.2.86.86,0,0,1-.21-.53.8.8,0,0,1,.1-.52.66.66,0,0,1,.45-.31l7.19-.2a.72.72,0,0,1,.57.23.91.91,0,0,1,.21.53,1,1,0,0,1-.2.56.72.72,0,0,1-.63.27l-1.83.07-.38,4c0,.16-.17.27-.41.34a2.34,2.34,0,0,1-.81.07,2.89,2.89,0,0,1-.73-.18c-.21-.08-.3-.19-.28-.33Zm2.78-8.79a3.38,3.38,0,0,1,.79.06q.36.08.36.3l0,4.2a1.24,1.24,0,0,1-.38.81,2,2,0,0,1-1,.44c-.2.05-.44.09-.72.13l-.86.11c-.3,0-.59.06-.87.07l-.73,0a1.92,1.92,0,0,1-1.09-.31,1.15,1.15,0,0,1-.5-.81c-.1-.71-.16-1.48-.2-2.32s-.07-1.61-.08-2.32c0-.13.12-.22.36-.28a3.26,3.26,0,0,1,.8-.09,2.75,2.75,0,0,1,.79.1q.36.1.36.3a.62.62,0,0,1,0,.13,1.42,1.42,0,0,0,0,.23c0,.1,0,.24,0,.41s0,.41,0,.69l.3,0,.47,0,.55-.07.53-.09a1.69,1.69,0,0,0,0-.25c0-.11,0-.21,0-.33l0-.35v-.31c0-.12.11-.22.34-.29A4.22,4.22,0,0,1,116.34,233.88ZM115.09,237l-.39.07-.46.08-.47.07-.34,0v.3c0,.13,0,.27,0,.41s0,.27,0,.38a1,1,0,0,0,0,.22l.85-.1a2.69,2.69,0,0,0,.75-.17Z"/><path class="cls-14" d="M120.1,235.27a.8.8,0,0,1,.25-.81,1.6,1.6,0,0,1,.92-.29l4-.21a.75.75,0,0,1,.58.22.74.74,0,0,1,.2.5.75.75,0,0,1-.2.48.7.7,0,0,1-.46.26l-3,.24.1,1.22,2.57-.22a.82.82,0,0,1,.61.22.69.69,0,0,1,.21.51.84.84,0,0,1-.21.54.77.77,0,0,1-.62.27l-2.49.25.17,1.27.63-.06c.24,0,.5-.06.76-.1l.78-.12.76-.16a.57.57,0,0,1,.59.05.92.92,0,0,1,.3.5.67.67,0,0,1,0,.5.6.6,0,0,1-.46.34,13.86,13.86,0,0,1-2.1.45,13.63,13.63,0,0,1-2,.15,1.46,1.46,0,0,1-1-.3,1.37,1.37,0,0,1-.44-.84Zm8.78,6.89a1.72,1.72,0,0,1,1,.16.8.8,0,0,1,.42.66l0,3.28c0,.16-.11.29-.34.4a2.23,2.23,0,0,1-.71.21,1.93,1.93,0,0,1-.8,0c-.24-.06-.35-.19-.35-.38l0-2.83-3.54.12a.81.81,0,0,1-.64-.18.74.74,0,0,1-.22-.5.64.64,0,0,1,.17-.5.83.83,0,0,1,.62-.25Zm-1-8c0-.13.12-.25.35-.33a3,3,0,0,1,.79-.16,2.56,2.56,0,0,1,.8.08c.24.06.37.16.37.31l0,2.86,1.74-.12a.72.72,0,0,1,.57.24.77.77,0,0,1,.21.53.84.84,0,0,1-.21.54.76.76,0,0,1-.62.25l-1.66.14.09,2.61q0,.18-.33.3a3.2,3.2,0,0,1-.71.17,2.59,2.59,0,0,1-.8-.05c-.25-.06-.37-.17-.37-.36Z"/><path class="cls-14" d="M134.57,242.84l7.13-.17a.74.74,0,0,1,.57.22.8.8,0,0,1,.21.49.75.75,0,0,1-.2.49.77.77,0,0,1-.6.26l-6.93.2a.61.61,0,0,1-.56-.2.88.88,0,0,1-.21-.51.72.72,0,0,1,.11-.51A.56.56,0,0,1,134.57,242.84Zm.22-6.4a2.83,2.83,0,0,1,0-.5,1,1,0,0,1,.14-.46,1.06,1.06,0,0,1,.34-.36,1.09,1.09,0,0,1,.59-.19l4.1-.25a.79.79,0,0,1,.63.22.74.74,0,0,1,.18.49.82.82,0,0,1-.18.52.69.69,0,0,1-.51.26c-.58.05-1.12.08-1.61.1s-.95.06-1.36.11l.26,2.33h.71l.79,0,.76-.08a4.89,4.89,0,0,0,.65-.14.9.9,0,0,1,.67,0,.54.54,0,0,1,.33.42.83.83,0,0,1,0,.27,1.11,1.11,0,0,1-.1.29,1.21,1.21,0,0,1-.2.26.61.61,0,0,1-.3.15c-.28.07-.59.12-.92.17s-.68.08-1,.1l-1,0c-.34,0-.66,0-1,0a2.28,2.28,0,0,1-1-.27,1,1,0,0,1-.5-.63Z"/><path class="cls-14" d="M152.32,239.69l0-1.59-1.44.1a.86.86,0,0,1-.66-.19.87.87,0,0,1-.24-.32l-.07.68a.7.7,0,0,1-.35.52,3,3,0,0,1-.82.33c-.19.05-.4.11-.64.16l-.74.18c-.25.07-.51.12-.77.18l-.67.15.38,2.21,3.14-.33h0a.79.79,0,0,1,.69.14.75.75,0,0,1,.24.57,1.08,1.08,0,0,1-.12.45.57.57,0,0,1-.44.33c-.27.06-.58.11-.92.16l-1.07.12-1.1.08-1,0a1.83,1.83,0,0,1-.93-.22,1,1,0,0,1-.51-.66l-.54-3.16a.79.79,0,0,1,.28-.82,1.67,1.67,0,0,1,.83-.35l2.9-.65.2-1.52-2.69.1a.75.75,0,0,1-.64-.2.76.76,0,0,1-.21-.53.83.83,0,0,1,.2-.53.79.79,0,0,1,.62-.27h.43l.59,0,.94,0,1.49-.08a2.9,2.9,0,0,1,.59,0,.9.9,0,0,1,.48.18,1.09,1.09,0,0,1,.39.38.63.63,0,0,1,.08.36L150,237l0,0a.68.68,0,0,1,.57-.26l1.64-.15,0-2.15c0-.14.11-.25.33-.34a3.16,3.16,0,0,1,.75-.19,3.56,3.56,0,0,1,.82.06c.25.05.37.15.37.3l.17,10.43c0,.12-.12.22-.35.32a2.89,2.89,0,0,1-.73.18,1.75,1.75,0,0,1-.77-.08c-.24-.09-.36-.21-.39-.38l-.06-3.53-1.51.11a.86.86,0,0,1-.66-.19.7.7,0,0,1-.27-.49.66.66,0,0,1,.67-.78Z"/><path class="cls-14" d="M156.68,243.62l1.2,0c0-.68,0-1.36,0-2s0-1.37.07-2a.3.3,0,0,1,0-.15l-.19-.19a2.55,2.55,0,0,1-.57-1,3.61,3.61,0,0,1,1.11-3.77,3.66,3.66,0,0,1,1.12-.64,3.58,3.58,0,0,1,1.29-.23,3.69,3.69,0,0,1,1.25.21,2.68,2.68,0,0,1,1,.64,2.92,2.92,0,0,1,.65,1,3.27,3.27,0,0,1,.16,1.39,3.42,3.42,0,0,1-.41,1.39,3.47,3.47,0,0,1-.69.9.35.35,0,0,0,.13.05.45.45,0,0,1,.32.43v.56c0,.19,0,.43,0,.71s0,.63,0,1.05,0,.95-.09,1.58l.92,0a.68.68,0,0,1,.56.23.9.9,0,0,1,.22.51.75.75,0,0,1-.2.49.77.77,0,0,1-.6.26c-1.23.05-2.44.1-3.63.12l-3.45.08a.62.62,0,0,1-.57-.2.88.88,0,0,1-.21-.51.78.78,0,0,1,.12-.52.61.61,0,0,1,.49-.26Zm3.88-8.64a1,1,0,0,0-.81.47,2.6,2.6,0,0,0-.4,1.44,2.18,2.18,0,0,0,.29,1.37.92.92,0,0,0,.71.41,1,1,0,0,0,.85-.5,2.6,2.6,0,0,0,.32-1.28,2.81,2.81,0,0,0-.23-1.39A.8.8,0,0,0,160.56,235Zm-.41,5.08h-.07l0,3.49h.83c0-.57.07-1.16.08-1.78s0-1.1,0-1.78A4.58,4.58,0,0,1,160.15,240.06Z"/><path class="cls-14" d="M171.3,245.33a2,2,0,0,1-1.32-.64l-.53-.49q-.67-.63-1.38-1.32a10.09,10.09,0,0,1-1.27-1.49,7.36,7.36,0,0,1-.92-1.73,5.64,5.64,0,0,1-.36-2v-.25a2.64,2.64,0,0,1,0-.29,2.72,2.72,0,0,1,.19-.94,2.6,2.6,0,0,1,.51-.8,2.41,2.41,0,0,1,.82-.55,2.74,2.74,0,0,1,1.15-.22,2.22,2.22,0,0,1,.87.18,3.47,3.47,0,0,1,.8.48,4,4,0,0,1,.7.67,5.9,5.9,0,0,1,.53.77,3.89,3.89,0,0,1,1.23-1.52,2.8,2.8,0,0,1,1.68-.56,3,3,0,0,1,1,.18,2.47,2.47,0,0,1,.85.52,2.81,2.81,0,0,1,.6.83,2.6,2.6,0,0,1,.22,1.1,7.25,7.25,0,0,1-.27,2.15,9.22,9.22,0,0,1-.83,1.94,11.12,11.12,0,0,1-1.27,1.75,16.52,16.52,0,0,1-1.57,1.56,3.75,3.75,0,0,1-.76.53A1.61,1.61,0,0,1,171.3,245.33Z"/></g></svg>