<svg id="레이어_1" data-name="레이어 1" xmlns="http://www.w3.org/2000/svg" viewBox="0 0 280 250"><defs><style>.cls-1{fill:#fff;}.cls-2{fill:#231815;}.cls-3{fill:#70d191;}</style></defs><path class="cls-1" d="M149.51,33.22a7.69,7.69,0,0,1,.1,12.92"/><path class="cls-2" d="M150,46.71l-.76-1.15a7,7,0,0,0-.09-11.76l.74-1.17A8.38,8.38,0,0,1,150,46.71Z"/><path class="cls-1" d="M150.86,27.82l0,24.12a.82.82,0,0,1-1.19.72,68.86,68.86,0,0,0-32.28-7.55.82.82,0,0,1-.82-.81V34.23a.82.82,0,0,1,.79-.81,101,101,0,0,0,32.42-6.36A.81.81,0,0,1,150.86,27.82Z"/><path class="cls-2" d="M150,53.44a1.48,1.48,0,0,1-.68-.16,67.68,67.68,0,0,0-31.28-7.48h-.69a1.51,1.51,0,0,1-1.52-1.5V34.23a1.5,1.5,0,0,1,1.46-1.5h0a100,100,0,0,0,32.2-6.32,1.53,1.53,0,0,1,1.39.17,1.51,1.51,0,0,1,.64,1.24l0,24.12a1.47,1.47,0,0,1-.71,1.27A1.51,1.51,0,0,1,150,53.44Zm-31.95-9A69,69,0,0,1,150,52a.1.1,0,0,0,.12,0,.1.1,0,0,0,.06-.1l0-24.12a.12.12,0,0,0,0-.1.14.14,0,0,0-.11,0,101.62,101.62,0,0,1-32.65,6.4.13.13,0,0,0-.12.11V44.3a.12.12,0,0,0,.12.12Z"/><rect class="cls-3" x="116.96" y="33.66" width="7.73" height="10.83" rx="1.26"/><path class="cls-1" d="M124.53,45.3s1.52,14.76,2.1,15.26,5.38-.91,5.38-.91l-1.89-13.56Z"/><path class="cls-2" d="M127.18,61.34c-.69,0-.88-.16-1-.25s-.8-.68-2.35-15.72a.71.71,0,0,1,.2-.57.7.7,0,0,1,.58-.19l5.6.79a.69.69,0,0,1,.59.59l1.89,13.57a.69.69,0,0,1-.49.76A20.37,20.37,0,0,1,127.18,61.34ZM127.13,60h0a22.15,22.15,0,0,0,4.09-.83L129.51,46.7l-4.2-.59C125.94,52.15,126.75,58.6,127.13,60Z"/><rect class="cls-2" x="123.83" y="33.21" width="1.38" height="12.35"/><rect class="cls-2" x="119.15" y="33.21" width="1.38" height="12.09"/><path class="cls-2" d="M128.47,36a.69.69,0,0,1-.68-.63.67.67,0,0,1,.61-.75l2.23-.23a.69.69,0,0,1,.76.61.69.69,0,0,1-.62.76l-2.22.23Z"/><path class="cls-2" d="M133.17,35.39a.69.69,0,0,1-.08-1.38,34,34,0,0,0,9.25-2.43.7.7,0,0,1,.91.37.71.71,0,0,1-.37.91,35.37,35.37,0,0,1-9.63,2.52Z"/><path class="cls-1" d="M156.2,30.51l2.25-2.05"/><path class="cls-2" d="M156.2,31.2a.68.68,0,0,1-.51-.22.69.69,0,0,1,0-1L158,28a.69.69,0,1,1,.93,1L156.67,31A.69.69,0,0,1,156.2,31.2Z"/><path class="cls-1" d="M158.45,51l-2.25-2"/><path class="cls-2" d="M158.45,51.7a.66.66,0,0,1-.47-.19l-2.25-2a.69.69,0,1,1,.94-1l2.24,2.05a.7.7,0,0,1,.05,1A.71.71,0,0,1,158.45,51.7Z"/><path class="cls-1" d="M161.61,45.33l-3-.95"/><path class="cls-2" d="M161.61,46a.76.76,0,0,1-.21,0l-3-1a.7.7,0,0,1-.45-.87.69.69,0,0,1,.87-.45l3,1a.69.69,0,0,1,.45.87A.7.7,0,0,1,161.61,46Z"/><path class="cls-1" d="M162.94,39.73h-3.17"/><path class="cls-2" d="M162.94,40.42h-3.17a.69.69,0,1,1,0-1.38h3.17a.69.69,0,1,1,0,1.38Z"/><path class="cls-1" d="M158.61,35.08l3-.95"/><path class="cls-2" d="M158.61,35.78a.7.7,0,0,1-.21-1.36l3-1a.69.69,0,1,1,.42,1.32l-3,1A.52.52,0,0,1,158.61,35.78Z"/></svg>