<svg id="레이어_1" data-name="레이어 1" xmlns="http://www.w3.org/2000/svg" viewBox="0 0 160 48"><defs><style>.cls-1{fill:#88adff;}.cls-2{fill:#fff;}</style></defs><rect class="cls-1" width="160" height="48" rx="24"/><path class="cls-2" d="M50.2,23.6a.88.88,0,0,1-.48.72l-.51.33-.63.39-4,2.47a.47.47,0,0,1-.52,0,1.44,1.44,0,0,1-.47-.48,1.58,1.58,0,0,1-.22-.64.46.46,0,0,1,.23-.48l1.18-.69,1.43-.81,1.34-.77c-.53-.34-1.08-.66-1.62-1l-1.68-.92-.34-.17-.35-.18a.46.46,0,0,1-.26-.47,1.18,1.18,0,0,1,.23-.62,1.38,1.38,0,0,1,.55-.46.73.73,0,0,1,.7.06c.4.23.77.46,1.11.67s.71.43,1.08.63.88.48,1.33.74.93.55,1.43.87a1.23,1.23,0,0,1,.37.39A.76.76,0,0,1,50.2,23.6Z"/><path class="cls-2" d="M58.14,23.6a.89.89,0,0,1-.47.72l-.51.33-.64.39-4,2.47a.49.49,0,0,1-.53,0,1.41,1.41,0,0,1-.46-.48,1.44,1.44,0,0,1-.22-.64.46.46,0,0,1,.22-.48l1.18-.69,1.43-.81c.48-.27.93-.52,1.35-.77-.54-.34-1.08-.66-1.63-1s-1.1-.61-1.67-.92l-.35-.17-.34-.18a.44.44,0,0,1-.26-.47,1.17,1.17,0,0,1,.22-.62,1.41,1.41,0,0,1,.56-.46.71.71,0,0,1,.69.06l1.12.67q.51.33,1.08.63l1.33.74c.45.25.93.55,1.43.87a1.35,1.35,0,0,1,.37.39A.84.84,0,0,1,58.14,23.6Z"/><path class="cls-2" d="M66.09,23.6a.88.88,0,0,1-.48.72l-.51.33-.63.39-4,2.47a.47.47,0,0,1-.52,0,1.44,1.44,0,0,1-.47-.48,1.58,1.58,0,0,1-.22-.64.46.46,0,0,1,.23-.48l1.18-.69,1.43-.81,1.35-.77c-.54-.34-1.09-.66-1.63-1l-1.68-.92-.34-.17-.35-.18a.46.46,0,0,1-.26-.47,1.18,1.18,0,0,1,.23-.62,1.38,1.38,0,0,1,.55-.46.73.73,0,0,1,.7.06c.4.23.77.46,1.11.67s.71.43,1.08.63.88.48,1.33.74.93.55,1.43.87a1.23,1.23,0,0,1,.37.39A.76.76,0,0,1,66.09,23.6Z"/><path class="cls-2" d="M67.48,24.87l.7,0h1.23l0-1.11a2.22,2.22,0,0,1-1.14-.48,1.64,1.64,0,0,1-.54-1.49,1.7,1.7,0,0,1,.32-.83,2.57,2.57,0,0,1,.71-.63,3.42,3.42,0,0,1,1-.4A4.54,4.54,0,0,1,71,19.81a4.7,4.7,0,0,1,1.08.12,2.36,2.36,0,0,1,.85.37,1.59,1.59,0,0,1,.53.62,1.61,1.61,0,0,1,.1.89,1.63,1.63,0,0,1-.34.85,2.51,2.51,0,0,1-.73.64,4.46,4.46,0,0,1-.62.29l0,1.23c.6-.06,1.1-.13,1.5-.2s.67-.13.82-.17a.76.76,0,0,1,.67.09,1,1,0,0,1,.35.56.8.8,0,0,1-.09.51.64.64,0,0,1-.44.35,9.06,9.06,0,0,1-1.68.35c-.61.07-1.23.11-1.87.13s-1.25,0-1.87,0l-1.69-.06a.67.67,0,0,1-.52-.25,1,1,0,0,1-.21-.51.93.93,0,0,1,.15-.52.58.58,0,0,1,.54-.23Zm2-7.07-.25-1.32q0-.21.33-.39a2.34,2.34,0,0,1,.73-.26,2.12,2.12,0,0,1,.87,0,.52.52,0,0,1,.46.44l.25,1.48,1.35,0a.67.67,0,0,1,.59.25.8.8,0,0,1,.17.53.91.91,0,0,1-.25.51.79.79,0,0,1-.61.22L68,19.38a.82.82,0,0,1-.92-.77.86.86,0,0,1,.17-.55.74.74,0,0,1,.64-.26Zm1.19,3.25a1,1,0,0,0-.59.19.84.84,0,0,0-.29.64.6.6,0,0,0,.21.55.76.76,0,0,0,.53.21.86.86,0,0,0,.63-.21.76.76,0,0,0,.25-.53.72.72,0,0,0-.15-.63A.78.78,0,0,0,70.69,21.05ZM76,27.29a1.76,1.76,0,0,1,1.07.17.83.83,0,0,1,.44.68l0,3.41c0,.16-.12.3-.35.41a2.43,2.43,0,0,1-.74.22,2.08,2.08,0,0,1-.83,0c-.24-.07-.37-.2-.37-.4l0-2.94L71.55,29a.81.81,0,0,1-.66-.19.78.78,0,0,1-.23-.52.75.75,0,0,1,.18-.52.88.88,0,0,1,.64-.25Zm-.6-8.73c0-.15.12-.27.35-.36a2.84,2.84,0,0,1,.81-.17,3,3,0,0,1,.82.08c.25.06.38.17.38.32l0,3.5,1.81-.12a.73.73,0,0,1,.6.25.87.87,0,0,1,.23.54.89.89,0,0,1-.2.55.81.81,0,0,1-.63.28l-1.79.14.07,2.78c0,.12-.11.23-.34.31a4.12,4.12,0,0,1-.75.18,2.88,2.88,0,0,1-.86-.06c-.25-.05-.37-.18-.37-.36Z"/><path class="cls-2" d="M84.46,25.2A3.86,3.86,0,0,1,83.05,25a2.57,2.57,0,0,1-1.63-1.74,3.8,3.8,0,0,1-.13-1.42,3.72,3.72,0,0,1,.42-1.43,3.43,3.43,0,0,1,.86-1.06,4,4,0,0,1,2.5-.91,3.64,3.64,0,0,1,1.29.22,2.84,2.84,0,0,1,1,.66,3,3,0,0,1,.68,1.08,3.33,3.33,0,0,1,.16,1.44,3.45,3.45,0,0,1-.42,1.45A3.64,3.64,0,0,1,87,24.31a4,4,0,0,1-2.49.89Zm.42-5.27a1.05,1.05,0,0,0-.84.49,2.6,2.6,0,0,0-.41,1.5,2.24,2.24,0,0,0,.3,1.41.93.93,0,0,0,.74.43,1,1,0,0,0,.88-.53,2.62,2.62,0,0,0,.33-1.31,3,3,0,0,0-.24-1.45A.83.83,0,0,0,84.88,19.93Zm3.23,11.58a1.82,1.82,0,0,1-.57,0,2.44,2.44,0,0,1-.52-.16,1.17,1.17,0,0,1-.37-.28.57.57,0,0,1-.12-.39l.25-4.08a.3.3,0,0,1,.11-.24,1,1,0,0,1,.29-.15l.4-.07H88a2.47,2.47,0,0,1,.8.18c.24.1.36.23.35.4L89,30l3.57-.14a.74.74,0,0,1,.65.18.69.69,0,0,1,0,1,.85.85,0,0,1-.62.26l-3.33.19-1.16.05Zm2.08-13.15c0-.12.11-.24.34-.33a3,3,0,0,1,.78-.19,2.93,2.93,0,0,1,.84,0c.26.05.39.17.39.34l.14,8.13q0,.16-.36.3a2.71,2.71,0,0,1-.76.17,2.49,2.49,0,0,1-.83,0c-.24-.05-.37-.18-.37-.36Z"/><path class="cls-2" d="M94,23.62a.88.88,0,0,1,.48-.72l.51-.33.63-.39,4-2.46a.46.46,0,0,1,.51,0,1.33,1.33,0,0,1,.48.49,1.49,1.49,0,0,1,.22.63.45.45,0,0,1-.23.48L99.43,22,98,22.86c-.47.26-.92.51-1.34.76.53.34,1.08.66,1.62,1l1.68.91.34.18.35.17a.45.45,0,0,1,.25.47,1.26,1.26,0,0,1-.24.62,1.42,1.42,0,0,1-.54.46.69.69,0,0,1-.69,0c-.4-.24-.77-.46-1.11-.68s-.71-.42-1.08-.62l-1.33-.74c-.45-.26-.93-.55-1.43-.88a1.23,1.23,0,0,1-.37-.39A.76.76,0,0,1,94,23.62Z"/><path class="cls-2" d="M101.93,23.62a.89.89,0,0,1,.47-.72,5.41,5.41,0,0,0,.51-.33l.64-.39,4-2.46a.47.47,0,0,1,.52,0,1.38,1.38,0,0,1,.47.49,1.36,1.36,0,0,1,.22.63.44.44,0,0,1-.22.48l-1.18.69-1.43.82c-.48.26-.93.51-1.35.76.54.34,1.08.66,1.63,1s1.1.61,1.68.91l.34.18.34.17a.46.46,0,0,1,.26.47,1.26,1.26,0,0,1-.24.62,1.38,1.38,0,0,1-.55.46.67.67,0,0,1-.68,0l-1.12-.68c-.34-.22-.7-.42-1.08-.62l-1.33-.74c-.45-.26-.93-.55-1.43-.88a1.35,1.35,0,0,1-.37-.39A.84.84,0,0,1,101.93,23.62Z"/><path class="cls-2" d="M109.87,23.62a.88.88,0,0,1,.48-.72l.51-.33.63-.39,4-2.46a.46.46,0,0,1,.51,0,1.33,1.33,0,0,1,.48.49,1.49,1.49,0,0,1,.22.63.45.45,0,0,1-.23.48l-1.18.69-1.43.82c-.47.26-.92.51-1.34.76.53.34,1.08.66,1.62,1l1.68.91.34.18.35.17a.45.45,0,0,1,.25.47,1.26,1.26,0,0,1-.24.62,1.42,1.42,0,0,1-.54.46.69.69,0,0,1-.69,0c-.4-.24-.77-.46-1.11-.68s-.71-.42-1.08-.62l-1.33-.74c-.45-.26-.93-.55-1.43-.88A1.23,1.23,0,0,1,110,24,.86.86,0,0,1,109.87,23.62Z"/></svg>