<svg id="레이어_1" data-name="레이어 1" xmlns="http://www.w3.org/2000/svg" viewBox="0 0 96 112"><defs><style>.cls-1{fill:#fffbed;}.cls-2{fill:#513539;}.cls-3,.cls-5,.cls-8{fill:#fff;}.cls-3,.cls-4{stroke:#513539;stroke-linecap:round;stroke-linejoin:round;}.cls-4,.cls-7{fill:none;}.cls-5{stroke:#4d3034;stroke-width:1.5px;}.cls-5,.cls-7{stroke-miterlimit:10;}.cls-6{fill:#4d3034;}.cls-7{stroke:#fff;}.cls-9{opacity:0.5;}.cls-10{fill:#ff003d;opacity:0.3;}</style></defs><rect class="cls-1" width="96" height="112" rx="10"/><path class="cls-2" d="M78.94,40.63A16.49,16.49,0,0,0,77.79,39c-1-1.24-3-2.38-3.62-3.85,0-.1,0-.21,0-.32L74,34.81c-.44-1.29-.47-2.8-1-4.12a27.32,27.32,0,0,0-5.52-8.29c-6-6.77-13-8.85-19.54-8.31-6.55-.54-13.53,1.54-19.54,8.31a27.32,27.32,0,0,0-5.52,8.29c-.49,1.32-.52,2.83-1,4.12l-.11.06c0,.11,0,.22,0,.32-.67,1.47-2.6,2.61-3.62,3.85a16.49,16.49,0,0,0-1.15,1.59A9,9,0,0,0,15.8,48.1c.72,2.16,2.56,4,2.64,6.24s-1.54,4.52-.52,6.48c1.27,2.46,5.14,1.72,7.32,3.43,1.62,1.28,1.93,3.63,3.23,5.25,1.73,2.16,4.89,2.58,7.62,2.15s5.34-1.56,8.09-1.86a17,17,0,0,1,3.71,0v0h.22v0a17,17,0,0,1,3.71,0c2.75.3,5.35,1.42,8.09,1.86s5.89,0,7.62-2.15c1.3-1.62,1.61-4,3.23-5.25,2.18-1.71,6-1,7.32-3.43,1-2-.59-4.27-.52-6.48s1.92-4.08,2.64-6.24A9,9,0,0,0,78.94,40.63Z"/><path class="cls-3" d="M69.91,45.62c-1.18-.41-1.57.68-1.68.44-.8-12.74-8.83-23.34-19.31-23.57-.31,0-.61,0-.92.05s-.61-.05-.92-.05c-10.48.23-18.51,10.83-19.31,23.57-.11.24-.5-.85-1.68-.44-1.8.62-2.6,2.94-2.16,6.09S26,56,27.51,56.4c1,.29,1.56-.13,1.73.15,2.1,6.76,4.26,11.26,11.81,13.37v7.35H55V69.92c7.55-2.11,9.71-6.61,11.81-13.37.17-.28.73.14,1.73-.15,1.5-.44,3.15-1.55,3.58-4.69S71.71,46.24,69.91,45.62Z"/><path class="cls-2" d="M56.24,38a40.21,40.21,0,0,0,11.81,10.8c1.34.8,3,1.53,4.4.82A3.29,3.29,0,0,0,74,46.85a8,8,0,0,0-.65-3.22A33.68,33.68,0,0,0,41.74,21.49a18.2,18.2,0,0,0-9.25,2.11,9.78,9.78,0,0,0-5,7.85A19.9,19.9,0,0,0,22,42.71c-.13,1-.1,2.24.76,2.81s4.39,1.38,5.26.95c6.07-3,8.34-9.74,10.38-16.2a8.08,8.08,0,0,1,.83-2.07,2.22,2.22,0,0,1,1.86-1.07,1.32,1.32,0,0,1,1.25,1.5c-.2-.56.68-1.11,1.27-1.21a1.73,1.73,0,0,1,1.56.68,5.23,5.23,0,0,1,.8,1.58c1.16,3.21,2.45,6.66,5.28,8.56a8,8,0,0,0,6.72,1"/><circle class="cls-2" cx="39.95" cy="48.21" r="2.25"/><circle class="cls-2" cx="56.05" cy="48.21" r="2.25"/><path class="cls-4" d="M44.35,61.92a5.41,5.41,0,0,0,7.65,0"/><path class="cls-4" d="M49.38,56.79a1.7,1.7,0,0,0-2.41,0"/><path class="cls-4" d="M58.07,43a1.7,1.7,0,0,0-2.39-.29"/><path class="cls-4" d="M37.93,43a1.7,1.7,0,0,1,2.39-.29"/><path class="cls-5" d="M35.83,75a38,38,0,0,0,24.42-.38c.61,11-2.13,11.52-4.16,12.75-3.26,2-7.31,1.92-11.12,1.8a21.5,21.5,0,0,1-7.15-1C35.57,87.29,35.45,79.21,35.83,75Z"/><path class="cls-6" d="M84.39,93.76a16.42,16.42,0,0,0-4.21-7.57,25.72,25.72,0,0,0-7.5-4.51l-8.56-3.89c-.43-.2-1.82-.73-2.52-1-2.2,2.88-7.46,4.92-13.6,4.92s-11.4-2-13.6-4.92c-.7.26-2.09.79-2.52,1l-8.56,3.89a25.72,25.72,0,0,0-7.5,4.51,16.42,16.42,0,0,0-4.21,7.57c-.75,2.83-.94,15.32-1,18.24H85.36C85.33,109.08,85.14,96.59,84.39,93.76Z"/><path class="cls-7" d="M30.81,78.07s5.79,7.38,18.3,7.08C61.23,84.87,65.19,78,65.19,78"/><circle class="cls-8" cx="48" cy="92.4" r="1.66"/><circle class="cls-8" cx="48" cy="101.18" r="1.66"/><g class="cls-9"><circle class="cls-10" cx="36.8" cy="56.41" r="2.91"/></g><g class="cls-9"><circle class="cls-10" cx="59.2" cy="56.41" r="2.91"/></g></svg>