<svg id="레이어_1" data-name="레이어 1" xmlns="http://www.w3.org/2000/svg" viewBox="0 0 96 112"><defs><style>.cls-1{fill:#fffbed;}.cls-2,.cls-5{fill:#513539;}.cls-3,.cls-6{fill:#fff;}.cls-3,.cls-4,.cls-9{stroke:#513539;}.cls-3,.cls-4,.cls-5{stroke-linecap:round;stroke-linejoin:round;}.cls-4,.cls-9{fill:none;}.cls-5{stroke:#fff;}.cls-7{opacity:0.5;}.cls-8{fill:#ff003d;opacity:0.3;}.cls-9{stroke-miterlimit:10;}</style></defs><rect class="cls-1" x="0.31" width="96" height="112" rx="10"/><path class="cls-2" d="M69.51,75.94a12.2,12.2,0,0,0-.87-2,8.34,8.34,0,0,1-.36-3.66q.6-11.67,1.21-23.35c-3.59-1-7.79-1.53-11.37-.52a16.11,16.11,0,0,0-8,6A28.48,28.48,0,0,0,48,55.62a28.48,28.48,0,0,0-2.11-3.16,16.11,16.11,0,0,0-8-6c-3.58-1-7.78-.47-11.37.52q.6,11.69,1.21,23.35A8.34,8.34,0,0,1,27.36,74a12.2,12.2,0,0,0-.87,2,3.11,3.11,0,0,0,2.35,3.41,5.23,5.23,0,0,0,4.3-1.07,2.43,2.43,0,0,0,2.14,1.94,7,7,0,0,0,3.06-.43l5-1.48a13.7,13.7,0,0,0,4.64-2,13.7,13.7,0,0,0,4.64,2l5,1.48a7,7,0,0,0,3.06.43,2.43,2.43,0,0,0,2.14-1.94,5.23,5.23,0,0,0,4.3,1.07A3.11,3.11,0,0,0,69.51,75.94Z"/><path class="cls-3" d="M68.26,49.66c-1.1-.39-1.47.64-1.57.41C65.94,38.15,58.43,28.23,48.62,28c-.29,0-.58,0-.86,0s-.58,0-.87,0c-9.8.22-17.31,10.14-18.06,22.06-.11.23-.47-.8-1.57-.41-1.69.58-2.44,2.75-2,5.7s1.95,4,3.35,4.39c.94.27,1.46-.13,1.62.14,2,6.33,4,10.53,11.05,12.51V82.68h13V72.4c7.06-2,9.09-6.18,11.06-12.51.15-.27.68.13,1.61-.14,1.41-.42,2.95-1.45,3.35-4.39S69.94,50.24,68.26,49.66Z"/><path class="cls-2" d="M48.05,20.48c-12.81,0-27,12.59-21.86,27.5.48.81,1.58,3.29,2.55,3.52,1.25.3,19.84-13.3,24-16.31.71,3.14,12.9,15.31,14.05,16.35.62.55,3.9-3,4.1-7.51A22.54,22.54,0,0,0,48.05,20.48Z"/><circle class="cls-2" cx="40.54" cy="50.4" r="2.1"/><circle class="cls-2" cx="55.6" cy="50.4" r="2.1"/><path class="cls-4" d="M44.66,62.2a5.06,5.06,0,0,0,7.16,0"/><path class="cls-4" d="M49.36,58.43a1.59,1.59,0,0,0-2.25,0"/><path class="cls-3" d="M54.77,16.32c-3-2.37-5-3.57-6.77-3.76-1.76.19-3.78,1.39-6.77,3.76-10.61,8.4-13.18,14.89-14.11,18h0l.64-.17A77.63,77.63,0,0,1,48,31.31a77.63,77.63,0,0,1,20.24,2.83l.64.17h0C68,31.21,65.38,24.72,54.77,16.32Z"/><path class="cls-3" d="M70.47,34.9a2.48,2.48,0,0,0-1.59-1.21l-.64-.2A64,64,0,0,0,48,30a64,64,0,0,0-20.24,3.52l-.64.2a2.48,2.48,0,0,0-1.59,1.21c-.3.79-.71,8.13,0,8,0,0,5.89-5.2,21.69-5.2h1.6c15.8,0,21.69,5.2,21.69,5.2C71.18,43,70.77,35.69,70.47,34.9Z"/><path class="cls-4" d="M57.72,46.81a1.59,1.59,0,0,0-2.24-.28"/><path class="cls-4" d="M38.88,46.81a1.59,1.59,0,0,1,2.24-.28"/><line class="cls-5" x1="9.76" y1="111.37" x2="86.24" y2="111.37"/><path class="cls-5" d="M86.24,111.37c0-3-.23-12-1-14.9a16.82,16.82,0,0,0-4.31-7.75c-2.15-2.09-4.94-3.37-7.68-4.61-2.92-1.33-5.49-2.24-8.91-3.43-.53-.19-4.72-1.59-4.75-1.62L47.72,81.14C46.21,80.67,36.83,78,36.83,78S32,79.89,31.51,80.12l-8.76,4c-2.74,1.24-5.53,2.52-7.68,4.61a16.82,16.82,0,0,0-4.31,7.75c-.77,2.89-1,11.91-1,14.9"/><path class="cls-5" d="M55.75,75.27s-3.39,4.63-7.91,5.88c0,0,4.63,4.74,4.74,6.32,0,0,8.47-6.32,7.68-7.57S58.12,76.29,55.75,75.27Z"/><path class="cls-5" d="M39.76,75.27s3.38,4.63,7.9,5.88c0,0-4.63,4.74-4.74,6.32,0,0-8.47-6.32-7.68-7.57S37.38,76.29,39.76,75.27Z"/><circle class="cls-6" cx="47.61" cy="90.66" r="1.7"/><circle class="cls-6" cx="47.61" cy="97.45" r="1.7"/><g class="cls-7"><circle class="cls-8" cx="58.3" cy="60.69" r="2.91"/></g><g class="cls-7"><circle class="cls-8" cx="37.7" cy="60.69" r="2.91"/></g><path class="cls-9" d="M28.4,33.91l.05-.33a17.7,17.7,0,0,0,0,7.41"/><path class="cls-9" d="M32,32.26a13.29,13.29,0,0,0-.31,7.22"/><path class="cls-9" d="M35.31,31a16.45,16.45,0,0,0,.36,7.79"/><path class="cls-9" d="M39.51,30.4a14.35,14.35,0,0,0,.09,8.41.16.16,0,0,0,.17-.21"/><path class="cls-9" d="M43.4,30.07a27.06,27.06,0,0,0,.16,7.71"/><path class="cls-9" d="M47.45,30.27l-.06,7"/><path class="cls-9" d="M51.05,30a15,15,0,0,1,.42,8.12"/><path class="cls-9" d="M55,30.49A11.92,11.92,0,0,1,55.58,38"/><path class="cls-9" d="M59.18,31.37a8.13,8.13,0,0,1-.13,6.93"/><path class="cls-9" d="M63.33,32.44a15.93,15.93,0,0,1-.13,8.11"/><path class="cls-9" d="M67.64,33.43a14.14,14.14,0,0,1-.51,7.16"/></svg>