<svg id="레이어_1" data-name="레이어 1" xmlns="http://www.w3.org/2000/svg" viewBox="0 0 96 112"><defs><style>.cls-1{fill:#fffbed;}.cls-2,.cls-5{fill:#fff;}.cls-2,.cls-4{stroke:#513539;stroke-linecap:round;stroke-linejoin:round;stroke-width:1.5px;}.cls-3{fill:#513539;}.cls-4{fill:none;}.cls-5{stroke:#4d3034;stroke-miterlimit:10;}.cls-6{opacity:0.5;}.cls-7{fill:#ff003d;opacity:0.3;}</style></defs><rect class="cls-1" width="96" height="112" rx="10"/><path class="cls-2" d="M72.54,48.15c-1.32-.45-1.76.77-1.88.5-.9-14.27-9.89-26.14-21.63-26.4-.34,0-.69,0-1,.05s-.69-.05-1-.05c-11.74.26-20.73,12.13-21.63,26.4-.12.27-.56-.95-1.88-.5-2,.7-2.91,3.3-2.42,6.82s2.33,4.77,4,5.26c1.12.33,1.74-.15,1.93.17C29.34,68,31.76,73,40.21,75.38v8.23H55.79V75.38C64.24,73,66.66,68,69,60.4c.19-.32.81.16,1.93-.17,1.68-.49,3.53-1.73,4-5.26S74.55,48.85,72.54,48.15Z"/><path class="cls-3" d="M48,13.13c-15.33,0-30.28,15.34-23,35.65.5,1.41,10-5.67,21.8-21a1.33,1.33,0,0,1,2.23.19C57.8,45,69,47.89,70.33,49.08c.75.66,2.28-4.12,2.52-9.51C73.55,23.65,63.28,13.13,48,13.13Z"/><circle class="cls-3" cx="39.36" cy="49.04" r="2.51"/><circle class="cls-3" cx="57.39" cy="49.04" r="2.51"/><path class="cls-4" d="M49.92,58.65a1.91,1.91,0,0,0-2.69,0"/><path class="cls-4" d="M59.65,45.07A1.91,1.91,0,0,0,57,44.74"/><path class="cls-4" d="M37.1,45.07a1.91,1.91,0,0,1,2.68-.33"/><path class="cls-4" d="M44.29,64.4a6.05,6.05,0,0,0,8.57,0"/><path class="cls-4" d="M24.85,59a2.73,2.73,0,0,1,.07.82c-.06,1.21-.76,2.17-1.56,2.14S22,60.89,22,59.68c0-.58,0-.73.26-1.11"/><path class="cls-4" d="M71.14,58.91a2.73,2.73,0,0,0-.07.82c.06,1.22.76,2.17,1.56,2.14s1.41-1,1.35-2.26c0-.58,0-.73-.26-1.11"/><path class="cls-5" d="M82.11,97.87a13.35,13.35,0,0,0-3.94-6.32,24.89,24.89,0,0,0-7-3.76l-8-3.25c-.47-.19-1.27-.43-1.29-.45V79.57c-4.4,1.05-23.22,1.05-27.62,0v4.52s-.82.26-1.29.45l-8,3.25a24.89,24.89,0,0,0-7,3.76,13.35,13.35,0,0,0-3.94,6.32C13.18,100.23,13,109.56,13,112H83C83,109.56,82.82,100.23,82.11,97.87Z"/><path class="cls-3" d="M41.68,80.45c2.28-1.81-.13-2.93,1.45-5.4-6.12-2.49-10.21-8.87-13-14.72a20.23,20.23,0,0,0-1.43,3.08c-.4.8-1.19,1.14-1.83,1.7a7.59,7.59,0,0,0-2,2.81A8.08,8.08,0,0,0,25,74c.84,2,2.51,3.68,2.39,5.82-.18,3.24-4.36,5.21-4.16,8.45.18,2.79,3.59,4.48,3.64,7.28,0,1.44-.88,2.9-.42,4.25a3.82,3.82,0,0,0,2.14,2A18.62,18.62,0,0,0,36,103.66a7,7,0,0,1,.43-6.56c.9-1.42,2.37-2.59,2.51-4.28.26-3-1.59-4.84-1.63-7.86C37.33,83,40.2,81.62,41.68,80.45Z"/><g class="cls-6"><circle class="cls-7" cx="59.62" cy="57.42" r="2.91"/></g><g class="cls-6"><circle class="cls-7" cx="36.38" cy="57.42" r="2.91"/></g></svg>