<svg id="레이어_1" data-name="레이어 1" xmlns="http://www.w3.org/2000/svg" viewBox="0 0 96 112"><defs><style>.cls-1{fill:#fffbed;}.cls-2{fill:#513539;}.cls-3,.cls-5{fill:#fff;}.cls-3,.cls-4{stroke:#513539;stroke-linejoin:round;}.cls-3,.cls-4,.cls-9{stroke-linecap:round;}.cls-3,.cls-4,.cls-5{stroke-width:1.5px;}.cls-4,.cls-9{fill:none;}.cls-5{stroke:#4d3034;}.cls-5,.cls-9{stroke-miterlimit:10;}.cls-6{fill:#4d3034;}.cls-7{opacity:0.5;}.cls-8{fill:#ff003d;opacity:0.3;}.cls-9{stroke:#fff;}</style></defs><rect class="cls-1" width="96" height="112" rx="10"/><path class="cls-2" d="M72.85,35.14a96.06,96.06,0,0,1-22.39-4.55c.1-.31.2-.61.32-.92-.48.19-1,.36-1.46.54-1.14-.4-2.27-.81-3.39-1.25a13.86,13.86,0,0,1,.66,2.23,95.69,95.69,0,0,1-22.73,4.67,162.07,162.07,0,0,0,1.55,49l28.05-.08c-.13-.23-.25-.46-.37-.69l18.21.06A162.12,162.12,0,0,0,72.85,35.14Z"/><path class="cls-3" d="M71.19,47c-1.26-.43-1.67.74-1.79.48C68.55,33.84,60,22.52,48.79,22.27c-.33,0-.66,0-1,.06l-1-.06c-11.19.25-19.75,11.57-20.61,25.17-.12.26-.53-.91-1.79-.48-1.92.67-2.78,3.15-2.31,6.51s2.22,4.53,3.83,5c1.06.31,1.66-.15,1.84.16,2.24,7.22,4.55,12,12.6,14.27V87H55.23V72.91c8.05-2.25,10.36-7,12.61-14.27.18-.31.77.15,1.84-.16,1.6-.48,3.36-1.65,3.82-5S73.11,47.63,71.19,47Z"/><circle class="cls-2" cx="39.58" cy="47.81" r="2.4"/><circle class="cls-2" cx="56.76" cy="47.81" r="2.4"/><path class="cls-4" d="M44.27,61.28a5.77,5.77,0,0,0,8.17,0"/><path class="cls-4" d="M49.64,57a1.82,1.82,0,0,0-2.57,0"/><path class="cls-2" d="M47.77,36.56c10.78,0,20.76,3.83,24.15,9.17A21.9,21.9,0,0,0,73,38.84C73,26,61.94,15.61,48.27,15.61S23.5,26,23.5,38.84a22,22,0,0,0,1.37,7.61c2.62-5,8.74-8.82,18.14-9.7.68-.06,2.44-5.47,3.15-5.5S47.08,36.56,47.77,36.56Z"/><path class="cls-4" d="M36.92,42.08a1.84,1.84,0,0,1,2.56-.32"/><path class="cls-4" d="M55.56,42.42a1.81,1.81,0,0,1,2.55-.32"/><path class="cls-5" d="M48.79,93.63,60.17,81a45.31,45.31,0,0,1-24,.28C40.42,85.67,47.75,93.3,48.79,93.63Z"/><path class="cls-6" d="M84.39,94.61A16.42,16.42,0,0,0,80.18,87a25.94,25.94,0,0,0-7.5-4.51l-8.56-3.89c-.5-.23-1.36-.51-1.38-.55L60.17,81,48.79,93.63c-1-.33-8.37-8-12.58-12.4-1.74-1.84-3-3.14-3-3.14s-.88.32-1.38.55l-8.56,3.89A25.94,25.94,0,0,0,15.82,87a16.42,16.42,0,0,0-4.21,7.57c-.75,2.83-.94,14.47-1,17.39H85.36C85.33,109.08,85.14,97.44,84.39,94.61Z"/><g class="cls-7"><circle class="cls-8" cx="59.62" cy="56.44" r="2.91"/></g><g class="cls-7"><circle class="cls-8" cx="36.38" cy="56.44" r="2.91"/></g><path class="cls-9" d="M43.32,29.34a14.71,14.71,0,0,0-4.15,9.09"/><path class="cls-9" d="M38.21,29.3a13.44,13.44,0,0,0-5.09,12.23"/><path class="cls-9" d="M47.53,28.36a10.78,10.78,0,0,1,2.78,9.74"/><path class="cls-9" d="M62.24,31.1a11.76,11.76,0,0,1,3,11.2"/><path class="cls-9" d="M54,30.25a20.08,20.08,0,0,1,1.7,4.33,6.68,6.68,0,0,1-.42,4.54"/><path class="cls-9" d="M58.62,31.13A12.86,12.86,0,0,1,60,41.33"/></svg>