<svg id="레이어_1" data-name="레이어 1" xmlns="http://www.w3.org/2000/svg" viewBox="0 0 96 112"><defs><style>.cls-1{fill:#fffbed;}.cls-2,.cls-5{fill:#513539;}.cls-3{fill:#fff;}.cls-3,.cls-4,.cls-5{stroke:#513539;stroke-linecap:round;stroke-linejoin:round;stroke-width:1.5px;}.cls-4{fill:none;}.cls-6{opacity:0.6;}.cls-7{fill:#0600ff;opacity:0.3;}</style></defs><rect class="cls-1" x="0.31" width="96" height="112" rx="10"/><path class="cls-2" d="M37,30.25a51.9,51.9,0,0,1,26.3,1.13,18.45,18.45,0,0,1,5.43,2.48A8.07,8.07,0,0,1,72,38.69a4.65,4.65,0,0,1-1.61,4.66,7.1,7.1,0,0,1-3.21.95c-12.84,1.56-25.82,1-38.74.41A6.06,6.06,0,0,1,25,43.82a4.06,4.06,0,0,1-1.38-3.37c.05-1.26,0-4,2.77-5.51,4.72-3.4,5.79-2.91,9.66-5.09a2.15,2.15,0,0,1,1.08-.37c.38,0,.77.34.72.72"/><path class="cls-3" d="M71.26,47.05c-1.23-.41-1.64.7-1.75.45-.84-12.93-9.24-23.69-20.21-23.92-.33,0-.65,0-1,.05l-.33,0v-.09l-.33,0-1-.05c-11,.24-19.37,11-20.21,23.93-.11.24-.52-.87-1.75-.45-1.88.63-2.72,3-2.27,6.18s6,4.16,6.19,4.45c1.26,4.58,3.83,11.89,11.73,14V84.2l15.22.09V71.72c7.9-2.15,10.47-9.46,11.73-14,.18-.29,5.73-1.25,6.19-4.45S73.14,47.68,71.26,47.05Z"/><circle class="cls-2" cx="40.88" cy="49.57" r="2.25"/><path class="cls-4" d="M44.17,62.19a5.43,5.43,0,0,0,7.66,0"/><path class="cls-4" d="M49.21,58.15a1.71,1.71,0,0,0-2.41,0"/><circle class="cls-2" cx="55.23" cy="49.57" r="2.25"/><path class="cls-3" d="M30.3,31.21c7.12-1.7,15.6.51,22.8,1.23A66.56,66.56,0,0,1,63,33.87a8.42,8.42,0,0,1,.72-.62A4.52,4.52,0,0,1,69.19,33a12.57,12.57,0,0,0,.56-3.68c0-9-9.63-16.33-21.52-16.33S26.71,20.34,26.71,29.36a12.79,12.79,0,0,0,.81,4.44A3.88,3.88,0,0,1,30.3,31.21Z"/><path class="cls-3" d="M25.91,30.74h0l.68-.18a83.6,83.6,0,0,1,21.63-3,83.41,83.41,0,0,1,21.63,3l.69.18h0"/><path class="cls-3" d="M72.24,31.51A2.71,2.71,0,0,0,70.55,30l-.69-.25a60.6,60.6,0,0,0-21.63-4.33A60.73,60.73,0,0,0,26.6,29.77c-.2.07-.44.15-.68.25a2.73,2.73,0,0,0-1.7,1.49,45.25,45.25,0,0,0-.43,6.76,1.7,1.7,0,0,0,2.59,1.45c3.09-1.89,9.66-4.78,21-4.78h1.72c11.33,0,17.9,2.89,21,4.78a1.7,1.7,0,0,0,2.59-1.45A45.25,45.25,0,0,0,72.24,31.51Z"/><polygon class="cls-5" points="52.27 43.96 52.27 45.05 58.7 45.05 58.7 43.5 52.27 43.96"/><polygon class="cls-5" points="43.73 43.96 43.73 45.05 37.3 45.05 37.3 43.5 43.73 43.96"/><path class="cls-3" d="M84.39,96.69a16.37,16.37,0,0,0-4.21-7.57,25.72,25.72,0,0,0-7.5-4.51l-8.56-3.9c-.5-.22-1.36-.51-1.38-.54l-15,1.54c-1.48-.46-14.47-1.54-14.47-1.54s-.88.32-1.38.54l-8.56,3.9a25.72,25.72,0,0,0-7.5,4.51,16.37,16.37,0,0,0-4.21,7.57c-.75,2.83-.94,11.63-1,14.55H85.36C85.33,108.32,85.14,99.52,84.39,96.69Z"/><path class="cls-3" d="M57.16,74.8s-4,5.45-9.3,6.91c0,0,5.45,5.58,5.58,7.44,0,0,10-7.44,9-8.9S60,76,57.16,74.8Z"/><circle class="cls-3" cx="48.24" cy="89.5" r="1.23"/><circle class="cls-3" cx="48.24" cy="102.01" r="1.23"/><path class="cls-3" d="M38.35,74.8s4,5.45,9.3,6.91c0,0-5.45,5.58-5.58,7.44,0,0-10-7.44-9-8.9S35.56,76,38.35,74.8Z"/><g class="cls-6"><circle class="cls-7" cx="36.92" cy="57.9" r="2.91"/><circle class="cls-7" cx="59.08" cy="57.9" r="2.91"/></g></svg>