<svg id="레이어_1" data-name="레이어 1" xmlns="http://www.w3.org/2000/svg" viewBox="0 0 96 112"><defs><style>.cls-1{fill:#fffbed;}.cls-2{fill:#4d3034;}.cls-3{fill:#fff;}.cls-3,.cls-4,.cls-8{stroke:#513539;stroke-linecap:round;stroke-linejoin:round;}.cls-3,.cls-4{stroke-width:1.5px;}.cls-4,.cls-8{fill:none;}.cls-5{opacity:0.6;}.cls-6{fill:#0600ff;opacity:0.3;}.cls-7{fill:#513539;}</style></defs><rect class="cls-1" width="96" height="112" rx="10"/><path class="cls-2" d="M82.11,98.32a15.37,15.37,0,0,0-3.94-7.1,24,24,0,0,0-7-4.22l-8-3.66c-.47-.21-1.27-.47-1.29-.5V77.76c-4.4,1.18-23.22,1.18-27.62,0v5.08s-.82.29-1.29.5l-8,3.66a24,24,0,0,0-7,4.22,15.37,15.37,0,0,0-3.94,7.1C13.18,101,13,109.23,13,112H83C83,109.23,82.82,101,82.11,98.32Z"/><path class="cls-3" d="M71.26,48.33c-1.23-.41-1.64.7-1.75.46-.84-12.94-9.24-23.7-20.21-23.93-.33,0-.65,0-1,.05l-.33,0v-.08h-.33l-1-.05c-11,.24-19.37,11-20.21,23.93-.11.24-.52-.87-1.75-.45-1.88.63-2.72,3-2.27,6.18s6,4.16,6.19,4.45c1.26,4.58,3.83,11.89,11.73,14v7.45l15.22.09V73c7.9-2.14,10.47-9.46,11.73-14,.18-.28,5.73-1.25,6.19-4.45S73.14,49,71.26,48.33Z"/><path class="cls-4" d="M44.17,63.47a5.43,5.43,0,0,0,7.66,0"/><path class="cls-4" d="M49.21,59.44a1.7,1.7,0,0,0-2.41,0"/><path class="cls-2" d="M71.31,32.32c-.13-.66-.29-1.31-.47-2A26.65,26.65,0,0,0,67.13,23a19.37,19.37,0,0,0-7.78-7,30.33,30.33,0,0,0-12.14-2.66c-.07-.07-.12-.16-.2-.23a2.64,2.64,0,0,0-2.62-.39,3,3,0,0,0-1.23,1l-.16,0a3.46,3.46,0,0,0-2.16-.08,4.66,4.66,0,0,0-2.15,1,2.2,2.2,0,0,0-.73,1.6,2.16,2.16,0,0,0-.27.37h-.38c-3.3.06-7.53,3.3-10.44,8.36a24.26,24.26,0,0,0-1.73,3.72,13.65,13.65,0,0,0-.75,2.6c-.06.29-.11.58-.15.86s-.09.54-.13.83a1.64,1.64,0,0,1,0,.22c-.42,3.44-.45,12.69,2.39,16.28.07.09,5.63-14.35,10.13-18.7,2-.78,6.51,4.45,11.23,4.44S57.51,29.89,60,30.62c3,3.06,8.49,17.1,9,19a3.36,3.36,0,0,0,1.69-2.17C71.66,42.59,72.27,37.18,71.31,32.32Z"/><g class="cls-5"><circle class="cls-6" cx="36.92" cy="60.14" r="2.91"/><circle class="cls-6" cx="59.08" cy="60.14" r="2.91"/></g><circle class="cls-7" cx="55.37" cy="52.91" r="2.25"/><path class="cls-8" d="M58.58,50a3,3,0,0,0-4.23-.64"/><circle class="cls-7" cx="40.63" cy="52.91" r="2.25"/><path class="cls-8" d="M37.42,50a3,3,0,0,1,4.23-.64"/></svg>