<svg id="레이어_1" data-name="레이어 1" xmlns="http://www.w3.org/2000/svg" viewBox="0 0 96 112"><defs><style>.cls-1{fill:#fffbed;}.cls-2,.cls-6,.cls-8{fill:#fff;}.cls-2,.cls-4{stroke:#513539;stroke-linecap:round;stroke-linejoin:round;}.cls-2,.cls-4,.cls-6{stroke-width:1.5px;}.cls-3{fill:#513539;}.cls-4{fill:none;}.cls-5{fill:#45282b;}.cls-6{stroke:#4d3034;stroke-miterlimit:10;}.cls-7{fill:#4d3034;}.cls-9{opacity:0.6;}.cls-10{fill:#0600ff;opacity:0.3;}</style></defs><rect class="cls-1" x="-0.21" width="96" height="112" rx="10"/><path class="cls-2" d="M72.76,49.11c-1.31-.44-1.75.74-1.87.48C70,35.82,61.06,24.37,49.38,24.12l-1,.05H48v-.09l-.35,0c-.34,0-.69-.05-1-.06C34.94,24.29,26,35.73,25.11,49.5c-.12.26-.56-.92-1.87-.48-2,.67-2.9,3.18-2.41,6.58s6.39,4.43,6.58,4.74C28.76,65.21,31.49,73,39.9,75.28V90.52l16.2.09V75.37c8.41-2.29,11.14-10.07,12.49-14.94.19-.31,6.1-1.34,6.58-4.74S74.76,49.78,72.76,49.11Z"/><circle class="cls-3" cx="40.42" cy="51.79" r="2.39"/><path class="cls-4" d="M43.93,65.22a5.75,5.75,0,0,0,8.14,0"/><path class="cls-4" d="M49.28,60.93a1.8,1.8,0,0,0-2.56,0"/><circle class="cls-3" cx="55.69" cy="51.79" r="2.39"/><path class="cls-4" d="M58.42,44.33A1.82,1.82,0,0,0,55.87,44"/><path class="cls-4" d="M37,44.33A1.82,1.82,0,0,1,39.54,44"/><path class="cls-5" d="M72.35,31.8c-.14-.69-.3-1.38-.49-2.05A28.26,28.26,0,0,0,67.93,22a20.36,20.36,0,0,0-8.22-7.37C53.84,11.93,46.1,10.8,39.88,12.8a7.54,7.54,0,0,0-3.06,2.37h-.41c-3.49.07-8,3.49-11,8.82a24.7,24.7,0,0,0-1.84,3.92,14.22,14.22,0,0,0-.78,2.74c-.07.31-.12.61-.17.91s-.09.57-.13.88l0,.22a44.35,44.35,0,0,0,.26,10.8,9.08,9.08,0,0,0,2.07,6.06c.07.1.13.21.2.3s0,0,.05,0a7.06,7.06,0,0,0,.66.68c.08-.77.17-1.53.25-2.3.31-2.72.61-5.45.92-8.18a18.51,18.51,0,0,0,6.31-6.1l1.55-2.43-.13.23c1.89-2.34,5.56-2.87,8.58-2.06s5.55,2.7,8,4.5,5.11,3.6,8.18,4.22a7.55,7.55,0,0,0,3.72-.09,4.39,4.39,0,0,0,2.2-1.53c1.25,3.15,5.45,10.6,5.61,12.88C72.17,49.6,73.36,36.94,72.35,31.8Z"/><path class="cls-6" d="M34.35,82.43a45.26,45.26,0,0,0,29-.44,12.9,12.9,0,0,1,.17,8.63,11.94,11.94,0,0,1-5.11,6.53c-3.88,2.35-8.7,2.28-13.24,2.14a25.63,25.63,0,0,1-8.5-1.23c-2.68-1-5.11-3.2-5.66-6a6.5,6.5,0,0,1,.74-4.43c.48-.84,1.14-1.55,1.65-2.37S34.59,83.36,34.35,82.43Z"/><path class="cls-7" d="M36.21,84.05c-1.74-1.84-3-3.14-3-3.14s-.88.32-1.38.55l-8.56,3.89a25.72,25.72,0,0,0-7.5,4.51,16.37,16.37,0,0,0-4.21,7.57c-.75,2.83-.94,11.63-1,14.55H38.09L36.22,84.05Z"/><path class="cls-8" d="M84.39,97.43a16.37,16.37,0,0,0-4.21-7.57,25.72,25.72,0,0,0-7.5-4.51l-8.56-3.89c-.5-.23-1.36-.52-1.38-.55l-2.57,2.86a45.27,45.27,0,0,1-24,.28L38.09,112H85.36C85.33,109.06,85.14,100.26,84.39,97.43Z"/><path class="cls-7" d="M59.79,84.05c1.74-1.84,3-3.14,3-3.14s.88.32,1.38.55l8.56,3.89a25.72,25.72,0,0,1,7.5,4.51,16.37,16.37,0,0,1,4.21,7.57c.75,2.83.94,11.63,1,14.55H57.91l1.87-27.93Z"/><g class="cls-9"><circle class="cls-10" cx="36.92" cy="60.12" r="2.91"/><circle class="cls-10" cx="59.08" cy="60.12" r="2.91"/></g></svg>