<svg id="레이어_1" data-name="레이어 1" xmlns="http://www.w3.org/2000/svg" viewBox="0 0 96 112"><defs><style>.cls-1{fill:#fffbed;}.cls-2,.cls-9{fill:#fff;}.cls-2,.cls-4,.cls-5{stroke:#513539;}.cls-2,.cls-4,.cls-7,.cls-8{stroke-linecap:round;}.cls-2,.cls-4,.cls-7{stroke-linejoin:round;}.cls-2,.cls-4,.cls-5,.cls-7,.cls-8,.cls-9{stroke-width:1.5px;}.cls-3{fill:#513539;}.cls-4,.cls-5,.cls-7,.cls-8{fill:none;}.cls-5,.cls-9{stroke-miterlimit:10;}.cls-6{fill:#4d3034;}.cls-7,.cls-8{stroke:#fff;}.cls-8{stroke-linejoin:bevel;}.cls-9{stroke:#4d3034;}.cls-10{fill:#4c3235;}.cls-11{opacity:0.6;}.cls-12{fill:#0600ff;opacity:0.3;}</style></defs><rect class="cls-1" width="96" height="112" rx="10"/><path class="cls-2" d="M72.31,45.28c-1.29-.44-1.72.72-1.84.47-.87-13.51-9.65-24.75-21.11-25-.33,0-.67,0-1,.06l-.35,0V20.7l-.35,0c-.33,0-.67,0-1,0-11.45.25-20.23,11.48-21.1,25-.13.25-.55-.91-1.84-.47-2,.66-2.84,3.12-2.37,6.45s6.28,4.35,6.47,4.65c1.32,4.78,4,12.42,12.25,14.67V84.08l15.9.09V71.05c8.25-2.25,10.93-9.89,12.25-14.67.19-.3,6-1.31,6.46-4.65S74.27,45.94,72.31,45.28Z"/><circle class="cls-3" cx="40.57" cy="47.91" r="2.35"/><path class="cls-4" d="M44,61.08a5.66,5.66,0,0,0,8,0"/><path class="cls-4" d="M49.27,56.87a1.79,1.79,0,0,0-2.52,0"/><ellipse class="cls-5" cx="39.79" cy="48.46" rx="6.42" ry="5.64"/><circle class="cls-3" cx="55.56" cy="47.91" r="2.35"/><ellipse class="cls-5" cx="56.33" cy="48.46" rx="6.42" ry="5.64"/><path class="cls-5" d="M50,48.12c-1.34-1.34-2.62-1.34-4,0"/><path class="cls-4" d="M54.35,27.82a6.07,6.07,0,0,0-4-3.61"/><path class="cls-4" d="M51.33,28.7a4.88,4.88,0,0,0-6.63-2.77"/><path class="cls-6" d="M73,36.89a19.2,19.2,0,0,0-.73-4.25h0a13.35,13.35,0,0,0,.34-3.83c.73-1,.3-2.48-.27-3.62a20.44,20.44,0,0,0-7.81-8.39,6.24,6.24,0,0,0-4.5-1l-1-.41a7.92,7.92,0,0,0-5.28-3.95,16.15,16.15,0,0,0-7.5.34A74.1,74.1,0,0,0,32.4,17.19c-1.46.68-3.08,1.62-3.5,3.1h0a7.93,7.93,0,0,0-1.63,2.75,29.09,29.09,0,0,1-1,3.45c-.81,1.69-2.45,2.83-3.92,4s-2.9,2.75-3,4.61a7.53,7.53,0,0,0,1.55,4.16l3.8,6.14h0s1.07,1.83,2.58,4.52c0,0,2,.81,2,.78-.62-5.19.74-8.6,5-11.78,2.79-2.08,6.29-3.24,8.72-5.7A48.05,48.05,0,0,0,46.8,28.1c1.27-1.71,3-3.29,5.14-3.59,2.41-.24,4.4,3.49,4.42,3.48,1.35-1.29,5.26,2.53,6.39,4.06,1.53,2.07,3.14,7,3.53,8.81s1.94,6.83,1.42,8.89c0,0,0,0,0,0a8.62,8.62,0,0,1,4.44-3.88s0,0,0,0A40.06,40.06,0,0,0,73,36.89Z"/><path class="cls-4" d="M48.43,29.52a3.95,3.95,0,0,0-5-1"/><path class="cls-7" d="M65.31,23.9c-2-1.66-6.17-1.2-7.69.92.08,0-4.22-9-9-8.73-3.51.22-6.58,2.46-9,5s-4.52,5.43-7.28,7.62-6.49,3.57-9.82,2.42"/><path class="cls-8" d="M42.79,28.84A39.21,39.21,0,0,1,24.49,40"/><path class="cls-4" d="M58.23,40.58a1.78,1.78,0,0,0-2.49-.31"/><path class="cls-4" d="M37.21,40.58a1.78,1.78,0,0,1,2.49-.31"/><path class="cls-5" d="M62.92,49.17a15.15,15.15,0,0,0,5.24-1.44"/><path class="cls-5" d="M33.55,49.78,28,48.09"/><path class="cls-9" d="M35.52,74.21a38,38,0,0,0,24.42-.37c.61,11,4.11,12.58,2.08,13.82-3.25,2-13.55.85-17.36.73-2.42-.08-8.45.2-10.7-.67S35.14,78.41,35.52,74.21Z"/><path class="cls-2" d="M84.46,93.83a19.37,19.37,0,0,0-4.23-8.61c-2.12-2.32-4.87-3.75-7.55-5.13l-8.61-4.43c-.5-.26-1.37-.58-1.39-.62L60.1,78.29a40.51,40.51,0,0,1-24.1.32l1.88,32.5H85.44C85.41,107.78,85.22,97.05,84.46,93.83Z"/><line class="cls-2" x1="32.67" y1="85.51" x2="64.44" y2="85.51"/><line class="cls-2" x1="32.67" y1="92.06" x2="64.44" y2="92.06"/><line class="cls-2" x1="32.67" y1="98.61" x2="64.44" y2="98.61"/><line class="cls-2" x1="32.67" y1="105.16" x2="64.44" y2="105.16"/><path class="cls-6" d="M59.56,78.48c1.75-2.21,3-3.77,3-3.77s.89.38,1.39.65L72.52,80c2.69,1.46,5.43,3,7.55,5.41a20.92,20.92,0,0,1,4.23,9.09c.88,3.93,1,14.53,1,17.46H57.67l1.88-33.52Z"/><path class="cls-10" d="M36.31,78.89c-1.75-2.21-3-4.18-3-4.18s-.89.38-1.39.65L23.32,80c-2.68,1.46-5.43,3-7.55,5.41a20.92,20.92,0,0,0-4.23,9.09c-.76,3.39-.95,13.95-1,17.46H38.17S36.17,78.71,36.31,78.89Z"/><g class="cls-11"><circle class="cls-12" cx="34.11" cy="57.44" r="2.91"/><circle class="cls-12" cx="61.74" cy="57.44" r="2.91"/></g></svg>