<svg id="레이어_1" data-name="레이어 1" xmlns="http://www.w3.org/2000/svg" viewBox="0 0 216 46"><defs><style>.cls-1{fill:#566cdb;}.cls-2{fill:#fff;}</style></defs><rect class="cls-1" width="216" height="46" rx="22"/><path class="cls-2" d="M31.25,21.17a1,1,0,0,1-.53.8l-.56.36-.7.44L25,25.5a.52.52,0,0,1-.58,0,1.65,1.65,0,0,1-.52-.53,1.62,1.62,0,0,1-.24-.71.48.48,0,0,1,.25-.53l1.31-.77q.8-.47,1.59-.9l1.49-.85q-.9-.57-1.8-1.08c-.61-.34-1.23-.68-1.87-1l-.38-.2-.38-.19a.5.5,0,0,1-.29-.52,1.3,1.3,0,0,1,.25-.7,1.45,1.45,0,0,1,.62-.5.77.77,0,0,1,.77.06l1.24.75q.57.36,1.2.69c.48.26,1,.53,1.47.82s1,.61,1.6,1a1.51,1.51,0,0,1,.41.43A.9.9,0,0,1,31.25,21.17Z"/><path class="cls-2" d="M40.08,21.17a1,1,0,0,1-.53.8c-.17.1-.36.22-.56.36l-.71.44L33.81,25.5a.53.53,0,0,1-.59,0,1.62,1.62,0,0,1-.51-.53,1.78,1.78,0,0,1-.25-.71.5.5,0,0,1,.26-.53L34,22.92q.8-.47,1.59-.9l1.49-.85c-.6-.38-1.2-.74-1.81-1.08s-1.22-.68-1.86-1l-.38-.2-.38-.19a.5.5,0,0,1-.29-.52,1.3,1.3,0,0,1,.25-.7,1.49,1.49,0,0,1,.61-.5A.78.78,0,0,1,34,17l1.24.75q.57.36,1.2.69c.48.26,1,.53,1.47.82s1,.61,1.59,1a1.28,1.28,0,0,1,.41.43A.92.92,0,0,1,40.08,21.17Z"/><path class="cls-2" d="M49.55,20.66,48,20.7c0,.61,0,1.23,0,1.87a1.41,1.41,0,0,1-.37.92,2.58,2.58,0,0,1-1,.55,9.64,9.64,0,0,1-1,.14l-1,.09c-.32,0-.62,0-.91.05H43A1.84,1.84,0,0,1,41.81,24a1.47,1.47,0,0,1-.52-1c0-.08,0-.19,0-.35s0-.4,0-.73,0-.78-.06-1.34,0-1.3-.09-2.21a1.94,1.94,0,0,1,.13-1,1.13,1.13,0,0,1,.8-.56l4.11-.35a1.93,1.93,0,0,1,1.38.31,1.4,1.4,0,0,1,.57,1c0,.4,0,.8,0,1.21l1.44-.08-.07-2.87c0-.16.12-.29.36-.4a2.84,2.84,0,0,1,.81-.23l.47,0a1.86,1.86,0,0,1,.42,0,1,1,0,0,1,.31.14.27.27,0,0,1,.13.22l.27,10.55c0,.14-.13.26-.39.35a4.34,4.34,0,0,1-.86.2,2.69,2.69,0,0,1-.88-.07.5.5,0,0,1-.41-.4Zm-5.91-2.33v.41l0,.73c0,.31,0,.72.06,1.22s.06,1.14.1,1.92l1.56-.19c0-.25,0-.56,0-.94V20.31c0-.41,0-.8,0-1.18s0-.69-.07-.95Zm9.21-2.75c0-.16.13-.29.37-.39a3.09,3.09,0,0,1,.86-.22A3.91,3.91,0,0,1,55,15c.28.06.42.17.42.34l.2,12c0,.14-.13.26-.37.35a4.06,4.06,0,0,1-.8.19,2.73,2.73,0,0,1-.93-.06c-.27-.06-.4-.2-.4-.41Z"/><path class="cls-2" d="M59.89,16.32a.37.37,0,0,1,.2-.21.75.75,0,0,1,.34-.1,1.61,1.61,0,0,1,.43,0,1.7,1.7,0,0,1,.45.15,2.38,2.38,0,0,1,.67.37c.19.14.28.28.25.43l-.82,2.14A5.71,5.71,0,0,0,62,20q.42.54.9,1.11c.33.38.64.73,1,1.05a5.42,5.42,0,0,0,.71.67c.06.05,0,.16,0,.34a1.76,1.76,0,0,1-.35.52,2,2,0,0,1-.39.3,1.49,1.49,0,0,1-.44.17,1.23,1.23,0,0,1-.43,0,.77.77,0,0,1-.36-.28c-.39-.39-.76-.77-1.11-1.15a12.33,12.33,0,0,1-.86-1c-.18.63-.36,1.19-.54,1.69a9.16,9.16,0,0,1-.57,1.32.72.72,0,0,1-.61.25,2.74,2.74,0,0,1-.88-.19,2.59,2.59,0,0,1-.66-.37c-.19-.14-.26-.28-.22-.41.51-1.23,1-2.51,1.5-3.85S59.49,17.49,59.89,16.32Zm5.31,4.32-1.23,0a.91.91,0,0,1-.75-.22,1,1,0,0,1-.25-.57.74.74,0,0,1,.16-.57.88.88,0,0,1,.58-.34l1.47,0,0-2.85c0-.16.13-.29.38-.4a3.07,3.07,0,0,1,.83-.23h.47a1.84,1.84,0,0,1,.42.07,1.12,1.12,0,0,1,.31.15.25.25,0,0,1,.13.22l.19,10.49c0,.14-.12.26-.36.35a3.69,3.69,0,0,1-.81.2,3.43,3.43,0,0,1-.94-.06c-.26-.07-.39-.2-.39-.41ZM69,15.58c0-.16.12-.29.37-.39A3,3,0,0,1,70.2,15a3.91,3.91,0,0,1,.93.07c.28.06.42.17.42.34l.19,12c0,.14-.12.26-.37.35a4.06,4.06,0,0,1-.8.19,2.77,2.77,0,0,1-.93-.06c-.27-.06-.4-.2-.4-.41Z"/><path class="cls-2" d="M77.07,17.87l-3.26.25A.85.85,0,0,1,73,18a.92.92,0,0,1-.29-.58.85.85,0,0,1,.11-.56.6.6,0,0,1,.49-.3l5.26-.39a1.09,1.09,0,0,1,.63.19,1.25,1.25,0,0,1,.42.47,1.93,1.93,0,0,1,.18.56.67.67,0,0,1-.08.46l-1.68,2.32a11.08,11.08,0,0,0,1.07,1.26c.38.38.76.76,1.16,1.14a.4.4,0,0,1,.07.45,1.31,1.31,0,0,1-.33.51,1.73,1.73,0,0,1-.77.45.76.76,0,0,1-.77-.2h0q-.58-.52-1-.93t-.81-.9L74.9,24.29a.64.64,0,0,1-.67.22,1.88,1.88,0,0,1-.81-.38,1.81,1.81,0,0,1-.44-.48c-.11-.19-.11-.34,0-.45Zm5.14-2.47c0-.14.13-.26.38-.37a3.47,3.47,0,0,1,.87-.21,3.2,3.2,0,0,1,.93,0c.29.06.44.18.44.38L85,27.34c0,.13-.13.24-.4.34a3.3,3.3,0,0,1-.85.19,3.07,3.07,0,0,1-.92,0c-.27-.07-.41-.21-.41-.41Z"/><path class="cls-2" d="M91.74,20.76c-.14-.82-.25-1.63-.32-2.44s-.11-1.61-.11-2.43c0-.21.14-.35.43-.43a2.87,2.87,0,0,1,.94-.09,3.26,3.26,0,0,1,.92.21c.27.1.41.25.41.43,0,.4-.06.77-.06,1.1s0,.66,0,1a9.85,9.85,0,0,0,.12,1c.06.35.14.74.25,1.19a.45.45,0,0,0,.11.17.3.3,0,0,0,.24.08,7.85,7.85,0,0,0,1.27-.1c.43-.06.85-.14,1.25-.23a1,1,0,0,1,.79.09.86.86,0,0,1,.4.59.75.75,0,0,1-.07.57,1,1,0,0,1-.59.43c-.68.14-1.38.26-2.09.35a10.14,10.14,0,0,1-2.13,0,1.91,1.91,0,0,1-1.22-.47A1.78,1.78,0,0,1,91.74,20.76ZM101.08,24a1.72,1.72,0,0,1,1.44.35,1.7,1.7,0,0,1,.43,1.09l0,2.86a1.36,1.36,0,0,1-.39.95,2.13,2.13,0,0,1-1.11.51c-.27.05-.64.1-1.1.14s-.92.07-1.4.08L97.56,30c-.42,0-.73,0-.94,0s-.48,0-.69,0a2.4,2.4,0,0,1-.57-.11,1,1,0,0,1-.41-.27.79.79,0,0,1-.2-.49c-.08-.44-.14-.83-.18-1.18s-.07-.67-.09-1,0-.63,0-.93,0-.65,0-1t0-.15a1.25,1.25,0,0,1,.1-.29,1.21,1.21,0,0,1,.2-.26.38.38,0,0,1,.29-.12Zm-.67,1.68-3.36.12v.82a11.71,11.71,0,0,0,.1,1.27c0,.22.09.36.2.42a1.32,1.32,0,0,0,.66,0l2.4-.14Zm-.31-10.31c0-.15.13-.27.4-.38a3.87,3.87,0,0,1,.89-.21,2.92,2.92,0,0,1,.94,0c.28.06.43.19.43.4l0,3.26,2.13-.17a.85.85,0,0,1,.66.27.88.88,0,0,1,.24.6.92.92,0,0,1-.94.92l-2.07.14,0,2.67c0,.15-.13.26-.39.36a3.62,3.62,0,0,1-.82.17,2.53,2.53,0,0,1-.92,0c-.27-.06-.41-.2-.41-.41Z"/><path class="cls-2" d="M112.44,16.05a1.93,1.93,0,0,1,1.12.21,1.37,1.37,0,0,1,.44.37.66.66,0,0,1,.14.36l-1.36,8.32a.67.67,0,0,1-.55.44,2.67,2.67,0,0,1-1,0,2.09,2.09,0,0,1-.74-.25.53.53,0,0,1-.31-.46l1.17-7.28L107.8,18a.82.82,0,0,1-.71-.23.9.9,0,0,1,0-1.19.93.93,0,0,1,.72-.3Zm3.62-.65c0-.14.12-.26.38-.37a3.47,3.47,0,0,1,.87-.21,3.2,3.2,0,0,1,.93,0c.29.06.43.18.43.38l.16,12.09c0,.13-.13.24-.4.34a3.39,3.39,0,0,1-.85.19,3.07,3.07,0,0,1-.92,0c-.27-.07-.41-.21-.41-.41Z"/><path class="cls-2" d="M121.64,22.69l8.23-.2a.83.83,0,0,1,.65.26.91.91,0,0,1,.24.56.87.87,0,0,1-.22.57.89.89,0,0,1-.69.29l-8,.24a.71.71,0,0,1-.66-.24,1,1,0,0,1-.24-.58.88.88,0,0,1,.13-.59A.66.66,0,0,1,121.64,22.69Zm2.43-2a2.1,2.1,0,0,1-.61,0,2.39,2.39,0,0,1-.57-.2,1.35,1.35,0,0,1-.42-.31.58.58,0,0,1-.16-.4l.23-4.34c0-.17.19-.29.48-.37a3.23,3.23,0,0,1,1-.09,3.86,3.86,0,0,1,.49.06l.42.13a.77.77,0,0,1,.29.19.34.34,0,0,1,.11.24L125,18.86l3.71-.19a.87.87,0,0,1,.69.26.84.84,0,0,1,.21.6,1,1,0,0,1-.23.62.91.91,0,0,1-.73.31l-4.64.2Zm.37,10.64a2,2,0,0,1-.64,0,2.25,2.25,0,0,1-.57-.17,1.2,1.2,0,0,1-.41-.31.56.56,0,0,1-.14-.43l.27-3.89a.34.34,0,0,1,.13-.27.87.87,0,0,1,.32-.16,1.91,1.91,0,0,1,.44-.08l.5,0a3.13,3.13,0,0,1,.89.21c.26.11.39.25.38.44l-.2,3,4-.15a.86.86,0,0,1,.72.2.78.78,0,0,1,.23.56.84.84,0,0,1-.24.56,1,1,0,0,1-.69.28l-3.69.21-1.29.06Z"/><path class="cls-2" d="M142.05,17.81l0-2.46c0-.15.13-.27.38-.38a3.7,3.7,0,0,1,.87-.21,3.16,3.16,0,0,1,.93.05c.29.06.44.18.44.38l.16,7.69c0,.13-.14.25-.41.35a4.11,4.11,0,0,1-.86.18,2.58,2.58,0,0,1-.93,0c-.28-.06-.42-.2-.42-.41l-.08-3.3-1.7.14a.88.88,0,0,1-.74-.24.84.84,0,0,1-.25-.35l0,2a1.35,1.35,0,0,1-.42.93,2.55,2.55,0,0,1-1.07.52,17.15,17.15,0,0,1-1.83.26c-.64.06-1.19.09-1.64.09a2.3,2.3,0,0,1-1.25-.32,1.21,1.21,0,0,1-.59-.89c-.07-.42-.12-.91-.17-1.48s-.08-1.16-.1-1.74-.05-1.19-.06-1.8,0-1.17,0-1.66c0-.16.13-.27.4-.35a3.16,3.16,0,0,1,.9-.12,2.74,2.74,0,0,1,.9.14c.27.09.4.21.4.37a14,14,0,0,0,0,1.47q0,.81.06,1.38c.31,0,.65-.09,1-.16s.72-.13,1-.19a10.11,10.11,0,0,0,0-1.13c0-.41,0-.8,0-1.18q0-.21.36-.33a3.58,3.58,0,0,1,.86-.15,3.49,3.49,0,0,1,.86.06c.27.06.41.18.41.35v3l0,.19a.91.91,0,0,0,.07-.14.8.8,0,0,1,.67-.31Zm-5.25,1.62-.91.15-.93.18c0,.09,0,.21,0,.37l0,.49c0,.17,0,.32.05.47s0,.24.05.29c.29,0,.59-.07.92-.13a2.92,2.92,0,0,0,.8-.24Zm4.88,5q0-.24.36-.36a2.49,2.49,0,0,1,.87-.13,3,3,0,0,1,.85.12c.27.07.41.2.42.37l0,3.85a3.49,3.49,0,0,1-.07.51.86.86,0,0,1-.23.39,1.6,1.6,0,0,1-.45.3,3.33,3.33,0,0,1-.75.2A11.52,11.52,0,0,1,141,30c-.63.05-1.3.08-2,.08a2.32,2.32,0,0,1-1.25-.31,1.22,1.22,0,0,1-.59-.94c-.1-.66-.19-1.39-.25-2.17s-.1-1.55-.1-2.26c0-.14.13-.26.39-.35a2.74,2.74,0,0,1,.9-.14,2.56,2.56,0,0,1,.89.15c.26.1.4.22.4.38l0,1.29,2.3-.35Zm0,2.56-2.19.29.1,1.15a1.65,1.65,0,0,0,.51,0,5.9,5.9,0,0,0,.59-.06,4.46,4.46,0,0,0,.55-.11l.44-.14Z"/><path class="cls-2" d="M154.51,26.09l.18-4.06h-.57a2.12,2.12,0,0,1-1.25-.37,1.31,1.31,0,0,1-.58-.92c-.11-.82-.18-1.72-.23-2.68s-.07-1.85-.08-2.68c0-.14.13-.25.41-.32a3.62,3.62,0,0,1,.91-.1,3.27,3.27,0,0,1,.92.11c.27.08.41.2.41.35a.86.86,0,0,1,0,.15,1.86,1.86,0,0,0,0,.26c0,.12,0,.28,0,.48s0,.47,0,.79a2.53,2.53,0,0,0,.34,0l.55,0,.63-.08.61-.11a2.33,2.33,0,0,0,0-.29c0-.12,0-.25,0-.37l0-.41v-.36q0-.21.39-.33A4,4,0,0,1,159,15c.28.06.42.18.42.35l0,4.84a1.5,1.5,0,0,1-.43.94,2.33,2.33,0,0,1-1.13.5l-.45.1a.3.3,0,0,1,0,.1l-.16,4.22,2.4-.12a.81.81,0,0,1,.66.27,1,1,0,0,1,.24.59,1,1,0,0,1-.22.57.9.9,0,0,1-.7.29l-8,.23a.7.7,0,0,1-.65-.23,1,1,0,0,1-.24-.59.85.85,0,0,1,.13-.59.71.71,0,0,1,.57-.3Zm2.11-7.6-.44.08-.53.09-.54.08-.4.06c0,.08,0,.19,0,.34s0,.31,0,.47,0,.31,0,.44a.72.72,0,0,0,0,.26l1-.11a3.6,3.6,0,0,0,.86-.21Z"/><path class="cls-2" d="M167.41,16.05a1.91,1.91,0,0,1,1.11.21,1.37,1.37,0,0,1,.44.37.59.59,0,0,1,.14.36l-1.36,8.32a.67.67,0,0,1-.55.44,2.67,2.67,0,0,1-1,0,2.09,2.09,0,0,1-.74-.25.53.53,0,0,1-.31-.46l1.17-7.28-3.57.17a.82.82,0,0,1-.71-.23.9.9,0,0,1-.05-1.19.93.93,0,0,1,.72-.3ZM171,15.4c0-.14.13-.26.38-.37a3.47,3.47,0,0,1,.87-.21,3.2,3.2,0,0,1,.93,0c.29.06.44.18.44.38l.15,12.09c0,.13-.13.24-.4.34a3.39,3.39,0,0,1-.85.19,3.07,3.07,0,0,1-.92,0c-.27-.07-.41-.21-.41-.41Z"/><path class="cls-2" d="M183.62,21.17a1,1,0,0,1-.53.8l-.57.36-.7.44-4.47,2.73a.53.53,0,0,1-.59,0,1.65,1.65,0,0,1-.52-.53,1.76,1.76,0,0,1-.24-.71.5.5,0,0,1,.25-.53l1.31-.77c.53-.31,1.07-.61,1.59-.9l1.5-.85c-.6-.38-1.2-.74-1.81-1.08s-1.23-.68-1.86-1l-.39-.2-.38-.19a.51.51,0,0,1-.29-.52,1.39,1.39,0,0,1,.25-.7,1.51,1.51,0,0,1,.62-.5.77.77,0,0,1,.77.06c.44.26.86.51,1.24.75s.78.47,1.2.69,1,.53,1.48.82,1,.61,1.59,1a1.38,1.38,0,0,1,.41.43A.92.92,0,0,1,183.62,21.17Z"/><path class="cls-2" d="M192.44,21.17a1,1,0,0,1-.52.8l-.57.36-.7.44-4.48,2.73a.52.52,0,0,1-.58,0,1.65,1.65,0,0,1-.52-.53,1.62,1.62,0,0,1-.24-.71.5.5,0,0,1,.25-.53l1.31-.77q.8-.47,1.59-.9l1.5-.85c-.6-.38-1.21-.74-1.81-1.08s-1.23-.68-1.87-1l-.38-.2-.38-.19a.51.51,0,0,1-.29-.52,1.39,1.39,0,0,1,.25-.7,1.45,1.45,0,0,1,.62-.5.77.77,0,0,1,.77.06l1.24.75q.57.36,1.2.69l1.48.82c.5.29,1,.61,1.59,1a1.38,1.38,0,0,1,.41.43A.9.9,0,0,1,192.44,21.17Z"/></svg>