<svg id="레이어_1" data-name="레이어 1" xmlns="http://www.w3.org/2000/svg" viewBox="0 0 360 640"><defs><style>.cls-1{fill:none;stroke:#c2dbff;stroke-miterlimit:10;stroke-dasharray:1;}.cls-2{fill:#b9ddf1;}.cls-3{fill:#a1b3e3;}.cls-4{fill:#fdc97a;}.cls-5{fill:#f5855a;}.cls-6{fill:#182a85;}.cls-7{opacity:0.49;}.cls-8{fill:#fdfdff;}.cls-9{fill:#566cdb;}.cls-10{fill:#c2dbff;}.cls-11{fill:#97adff;}.cls-12{fill:#fff;}</style></defs><path class="cls-1" d="M184.43,364.76c-15.06-2.9-32.26,1.87-48.42,2.23-36.47.8-65.43-24.48-62.36-54.52C75,299.27,85,283.36,101.22,280.4c14.1-2.59,26.11,7.62,24.26,19.17S110.06,321.77,96,324.41s-27.79-2-35.77-10.18-10.73-19.61-9.9-31.07c1.86-25.79,22.13-52.86,50.9-67.89"/><path class="cls-2" d="M201,272.9c1.72-6.46,5.45-17.33,10.58-21.47a6,6,0,0,1,3.71-1.51c2.41,0,4.4,2.17,5,4.51a13.62,13.62,0,0,1-.59,7.13c2-3.79,3.26-7.66,6.28-10.71a7.87,7.87,0,0,1,4.66-2.1,6.33,6.33,0,0,1,6.43,4.41c.77,2.66.05,5.53-.92,8.13a20,20,0,0,1,6.11-9.83c1.34-1.17,4.12-2.94,6-2.55a3.79,3.79,0,0,1,3.1,2.49c1.7,4.48-.14,14.37-1.52,17.21"/><path class="cls-3" d="M100.18,274.5a47.37,47.37,0,0,1,16-28.24c1.94-1.63,4.6-3.17,6.86-2a4.73,4.73,0,0,1,2.3,3.8,13.86,13.86,0,0,1-.56,4.57c1.48-3.44,3.07-7,6-9.38s7.55-3,10.27-.48,2.33,7.22,1.62,11a25.81,25.81,0,0,1,3.56,4.11,6.13,6.13,0,0,1-3,9.47,20.23,20.23,0,0,1-6.46,1.46"/><path class="cls-4" d="M196.29,200s35.33,24.61,36.55,25.48,0,2.14,0,2.14L189.09,288s-6.08,9-7.41,9.14-51.06-33.29-51.72-33.7a1.11,1.11,0,0,1-.36-1.27c3.22-7.41,31.3-44.32,31.3-44.32S176.63,191.52,196.29,200Z"/><path class="cls-5" d="M179.05,238s-5.26-2.45-7.35,2.76,1.28,7.6,5.26,7.35,13-.67,14.24-2.56-.56-8.83-.56-8.83-1.53-6-4-7.81-7.15.81-7.15.81a4.91,4.91,0,0,0-1.33,4.65A36.49,36.49,0,0,0,179.05,238Z"/><path class="cls-6" d="M201,271.67a.9.9,0,0,1-.57-.2,1,1,0,0,1-.19-1.33l14.91-19.81A1,1,0,1,1,217,251a1,1,0,0,1-.37.48l-14.91,19.81A1,1,0,0,1,201,271.67Z"/><path class="cls-3" d="M237.92,298.73a33.58,33.58,0,0,0,1.61-6.31,5.88,5.88,0,0,0-2.49-5.48,4.52,4.52,0,0,0-6.08,1.94,5,5,0,0,0-.21.48,2.45,2.45,0,0,0-1.85-2.93h0a4,4,0,0,0-3.57,1.17,11.8,11.8,0,0,0-2.17,3.24,3.87,3.87,0,0,0-1.77-5.18,4.26,4.26,0,0,0-.78-.28c-2.33-.41-4.43,1.43-5.87,3.3A28.19,28.19,0,0,0,209.16,302v.2Z"/><g class="cls-7"><circle class="cls-8" cx="132.36" cy="261.58" r="0.46"/><circle class="cls-8" cx="138.36" cy="253.08" r="0.46"/><circle class="cls-8" cx="144.37" cy="244.58" r="0.46"/><circle class="cls-8" cx="150.38" cy="236.08" r="0.46"/><circle class="cls-8" cx="156.39" cy="227.58" r="0.46"/><circle class="cls-8" cx="162.4" cy="219.08" r="0.46"/><circle class="cls-8" cx="168.4" cy="210.57" r="0.46"/><circle class="cls-8" cx="174.41" cy="202.07" r="0.46"/><circle class="cls-8" cx="180.42" cy="193.57" r="0.46"/><circle class="cls-8" cx="137.29" cy="260.34" r="0.46"/><circle class="cls-8" cx="143.3" cy="251.84" r="0.46"/><circle class="cls-8" cx="149.31" cy="243.34" r="0.46"/><circle class="cls-8" cx="155.32" cy="234.84" r="0.46"/><circle class="cls-8" cx="161.33" cy="226.34" r="0.46"/><circle class="cls-8" cx="167.33" cy="217.84" r="0.46"/><circle class="cls-8" cx="173.34" cy="209.34" r="0.46"/><circle class="cls-8" cx="179.35" cy="200.84" r="0.46"/><circle class="cls-8" cx="185.36" cy="192.34" r="0.46"/></g><g class="cls-7"><circle class="cls-8" cx="138.68" cy="263.71" r="0.46"/><circle class="cls-8" cx="144.69" cy="255.21" r="0.46"/><circle class="cls-8" cx="150.7" cy="246.71" r="0.46"/><circle class="cls-8" cx="156.71" cy="238.21" r="0.46"/><circle class="cls-8" cx="162.72" cy="229.71" r="0.46"/><circle class="cls-8" cx="168.72" cy="221.21" r="0.46"/><circle class="cls-8" cx="174.73" cy="212.71" r="0.46"/><circle class="cls-8" cx="180.74" cy="204.21" r="0.46"/><circle class="cls-8" cx="186.75" cy="195.71" r="0.46"/><circle class="cls-8" cx="143.62" cy="262.47" r="0.46"/><circle class="cls-8" cx="149.63" cy="253.97" r="0.46"/><circle class="cls-8" cx="155.64" cy="245.47" r="0.46"/><circle class="cls-8" cx="161.65" cy="236.97" r="0.46"/><circle class="cls-8" cx="167.65" cy="228.47" r="0.46"/><circle class="cls-8" cx="173.66" cy="219.97" r="0.46"/><circle class="cls-8" cx="179.67" cy="211.47" r="0.46"/><circle class="cls-8" cx="185.68" cy="202.97" r="0.46"/><circle class="cls-8" cx="191.69" cy="194.47" r="0.46"/></g><g class="cls-7"><circle class="cls-8" cx="142.9" cy="266.41" r="0.46"/><circle class="cls-8" cx="148.91" cy="257.91" r="0.46"/><circle class="cls-8" cx="154.92" cy="249.41" r="0.46"/><circle class="cls-8" cx="160.93" cy="240.91" r="0.46"/><circle class="cls-8" cx="166.94" cy="232.41" r="0.46"/><circle class="cls-8" cx="172.94" cy="223.91" r="0.46"/><circle class="cls-8" cx="178.95" cy="215.41" r="0.46"/><circle class="cls-8" cx="184.96" cy="206.9" r="0.46"/><circle class="cls-8" cx="190.97" cy="198.4" r="0.46"/><circle class="cls-8" cx="147.84" cy="265.17" r="0.46"/><circle class="cls-8" cx="153.85" cy="256.67" r="0.46"/><circle class="cls-8" cx="159.86" cy="248.17" r="0.46"/><circle class="cls-8" cx="165.87" cy="239.67" r="0.46"/><circle class="cls-8" cx="171.87" cy="231.17" r="0.46"/><circle class="cls-8" cx="177.88" cy="222.67" r="0.46"/><circle class="cls-8" cx="183.89" cy="214.17" r="0.46"/><circle class="cls-8" cx="189.9" cy="205.67" r="0.46"/><circle class="cls-8" cx="195.91" cy="197.17" r="0.46"/></g><g class="cls-7"><circle class="cls-8" cx="147.24" cy="270.62" r="0.46"/><circle class="cls-8" cx="153.25" cy="262.12" r="0.46"/><circle class="cls-8" cx="159.26" cy="253.62" r="0.46"/><circle class="cls-8" cx="165.26" cy="245.12" r="0.46"/><circle class="cls-8" cx="171.27" cy="236.62" r="0.46"/><circle class="cls-8" cx="177.28" cy="228.12" r="0.46"/><circle class="cls-8" cx="183.29" cy="219.62" r="0.46"/><circle class="cls-8" cx="189.3" cy="211.12" r="0.46"/><circle class="cls-8" cx="195.3" cy="202.61" r="0.46"/><circle class="cls-8" cx="152.18" cy="269.38" r="0.46"/><circle class="cls-8" cx="158.19" cy="260.88" r="0.46"/><circle class="cls-8" cx="164.19" cy="252.38" r="0.46"/><circle class="cls-8" cx="170.2" cy="243.88" r="0.46"/><circle class="cls-8" cx="176.21" cy="235.38" r="0.46"/><circle class="cls-8" cx="182.22" cy="226.88" r="0.46"/><circle class="cls-8" cx="188.23" cy="218.38" r="0.46"/><circle class="cls-8" cx="194.23" cy="209.88" r="0.46"/><circle class="cls-8" cx="200.24" cy="201.38" r="0.46"/></g><g class="cls-7"><circle class="cls-8" cx="151.58" cy="274.83" r="0.46"/><circle class="cls-8" cx="157.58" cy="266.33" r="0.46"/><circle class="cls-8" cx="163.59" cy="257.83" r="0.46"/><circle class="cls-8" cx="169.6" cy="249.33" r="0.46"/><circle class="cls-8" cx="175.61" cy="240.83" r="0.46"/><circle class="cls-8" cx="181.61" cy="232.33" r="0.46"/><circle class="cls-8" cx="187.62" cy="223.83" r="0.46"/><circle class="cls-8" cx="193.63" cy="215.33" r="0.46"/><circle class="cls-8" cx="199.64" cy="206.83" r="0.46"/><circle class="cls-8" cx="156.51" cy="273.59" r="0.46"/><circle class="cls-8" cx="162.52" cy="265.09" r="0.46"/><circle class="cls-8" cx="168.53" cy="256.59" r="0.46"/><circle class="cls-8" cx="174.54" cy="248.09" r="0.46"/><circle class="cls-8" cx="180.55" cy="239.59" r="0.46"/><circle class="cls-8" cx="186.55" cy="231.09" r="0.46"/><circle class="cls-8" cx="192.56" cy="222.59" r="0.46"/><circle class="cls-8" cx="198.57" cy="214.09" r="0.46"/><circle class="cls-8" cx="204.58" cy="205.59" r="0.46"/></g><g class="cls-7"><circle class="cls-8" cx="160.25" cy="283.25" r="0.46"/><circle class="cls-8" cx="166.25" cy="274.75" r="0.46"/><circle class="cls-8" cx="172.26" cy="266.25" r="0.46"/><circle class="cls-8" cx="178.27" cy="257.75" r="0.46"/><circle class="cls-8" cx="184.28" cy="249.25" r="0.46"/><circle class="cls-8" cx="190.29" cy="240.75" r="0.46"/><circle class="cls-8" cx="196.29" cy="232.25" r="0.46"/><circle class="cls-8" cx="202.3" cy="223.75" r="0.46"/><circle class="cls-8" cx="208.31" cy="215.25" r="0.46"/><circle class="cls-8" cx="165.18" cy="282.02" r="0.46"/><circle class="cls-8" cx="171.19" cy="273.52" r="0.46"/><circle class="cls-8" cx="177.2" cy="265.01" r="0.46"/><circle class="cls-8" cx="183.21" cy="256.51" r="0.46"/><circle class="cls-8" cx="189.22" cy="248.01" r="0.46"/><circle class="cls-8" cx="195.22" cy="239.51" r="0.46"/><circle class="cls-8" cx="201.23" cy="231.01" r="0.46"/><circle class="cls-8" cx="207.24" cy="222.51" r="0.46"/><circle class="cls-8" cx="213.25" cy="214.01" r="0.46"/></g><g class="cls-7"><circle class="cls-8" cx="164.58" cy="287.47" r="0.46"/><circle class="cls-8" cx="170.59" cy="278.96" r="0.46"/><circle class="cls-8" cx="176.6" cy="270.46" r="0.46"/><circle class="cls-8" cx="182.61" cy="261.96" r="0.46"/><circle class="cls-8" cx="188.61" cy="253.46" r="0.46"/><circle class="cls-8" cx="194.62" cy="244.96" r="0.46"/><circle class="cls-8" cx="200.63" cy="236.46" r="0.46"/><circle class="cls-8" cx="206.64" cy="227.96" r="0.46"/><circle class="cls-8" cx="212.64" cy="219.46" r="0.46"/><circle class="cls-8" cx="169.52" cy="286.23" r="0.46"/><circle class="cls-8" cx="175.53" cy="277.73" r="0.46"/><circle class="cls-8" cx="181.54" cy="269.23" r="0.46"/><circle class="cls-8" cx="187.54" cy="260.73" r="0.46"/><circle class="cls-8" cx="193.55" cy="252.22" r="0.46"/><circle class="cls-8" cx="199.56" cy="243.72" r="0.46"/><circle class="cls-8" cx="205.57" cy="235.22" r="0.46"/><circle class="cls-8" cx="211.58" cy="226.72" r="0.46"/><circle class="cls-8" cx="217.58" cy="218.22" r="0.46"/></g><g class="cls-7"><circle class="cls-8" cx="171.69" cy="289.83" r="0.44"/><circle class="cls-8" cx="177.44" cy="281.63" r="0.44"/><circle class="cls-8" cx="183.19" cy="273.43" r="0.44"/><circle class="cls-8" cx="188.94" cy="265.23" r="0.44"/><circle class="cls-8" cx="194.69" cy="257.03" r="0.44"/><circle class="cls-8" cx="200.44" cy="248.83" r="0.44"/><circle class="cls-8" cx="206.19" cy="240.64" r="0.44"/><circle class="cls-8" cx="211.94" cy="232.44" r="0.44"/><circle class="cls-8" cx="217.69" cy="224.24" r="0.44"/><circle class="cls-8" cx="176.41" cy="288.62" r="0.44"/><circle class="cls-8" cx="182.99" cy="279.26" r="0.44"/><circle class="cls-8" cx="189.56" cy="269.89" r="0.44"/><circle class="cls-8" cx="196.13" cy="260.52" r="0.44"/><circle class="cls-8" cx="202.7" cy="251.15" r="0.44"/><circle class="cls-8" cx="209.27" cy="241.78" r="0.44"/><circle class="cls-8" cx="215.85" cy="232.41" r="0.44"/><circle class="cls-8" cx="222.42" cy="223.05" r="0.44"/></g><g class="cls-7"><circle class="cls-8" cx="177.81" cy="293.78" r="0.46"/><circle class="cls-8" cx="183.81" cy="285.28" r="0.46"/><circle class="cls-8" cx="189.82" cy="276.78" r="0.46"/><circle class="cls-8" cx="195.83" cy="268.28" r="0.46"/><circle class="cls-8" cx="201.84" cy="259.78" r="0.46"/><circle class="cls-8" cx="207.85" cy="251.28" r="0.46"/><circle class="cls-8" cx="213.85" cy="242.78" r="0.46"/><circle class="cls-8" cx="219.86" cy="234.28" r="0.46"/><circle class="cls-8" cx="225.87" cy="225.78" r="0.46"/><circle class="cls-8" cx="182.74" cy="292.54" r="0.46"/><circle class="cls-8" cx="188.75" cy="284.04" r="0.46"/><circle class="cls-8" cx="194.76" cy="275.54" r="0.46"/><circle class="cls-8" cx="200.77" cy="267.04" r="0.46"/><circle class="cls-8" cx="206.78" cy="258.54" r="0.46"/><circle class="cls-8" cx="212.78" cy="250.04" r="0.46"/><circle class="cls-8" cx="218.79" cy="241.54" r="0.46"/><circle class="cls-8" cx="224.8" cy="233.04" r="0.46"/><circle class="cls-8" cx="230.81" cy="224.54" r="0.46"/></g><path class="cls-6" d="M140.89,258.76a1,1,0,0,1-.3-1.86l32.07-10.42a1,1,0,1,1,.59,1.81l-32.07,10.42A.93.93,0,0,1,140.89,258.76Z"/><path class="cls-6" d="M192.22,241.13a1,1,0,0,1-.8-1.16,1,1,0,0,1,.48-.69l29.82-10.42a1,1,0,0,1,1,1,1,1,0,0,1-.4.83l-29.82,10.41A.81.81,0,0,1,192.22,241.13Z"/><path class="cls-6" d="M181.6,281.06h0a1,1,0,0,1-.91-1l1.64-31.86a1,1,0,0,1,1.9.1l-1.63,31.86A1,1,0,0,1,181.6,281.06Z"/><path class="cls-6" d="M184.86,229.09a1,1,0,0,1-1-1v-12.2a1,1,0,0,1,1.9-.62.94.94,0,0,1,0,.62v12.25A1,1,0,0,1,184.86,229.09Z"/><path class="cls-6" d="M179.58,238.93a.94.94,0,0,1-.81-.46c-.09-.14-2.18-3.63-1.17-6.86a6.1,6.1,0,0,1,3.61-3.77,6,6,0,0,1,5.2-.14c2.94,1.43,3.93,5.25,4,5.41a1,1,0,0,1-1,.94,1,1,0,0,1-.8-.47s-.82-3.14-3-4.17a4.12,4.12,0,0,0-3.59.17,4.3,4.3,0,0,0-2.57,2.59c-.74,2.38,1,5.29,1,5.31a1,1,0,0,1-.32,1.31A.81.81,0,0,1,179.58,238.93Z"/><g class="cls-7"><circle class="cls-8" cx="155.91" cy="279.04" r="0.46"/><circle class="cls-8" cx="161.92" cy="270.54" r="0.46"/><circle class="cls-8" cx="167.93" cy="262.04" r="0.46"/><circle class="cls-8" cx="173.93" cy="253.54" r="0.46"/><circle class="cls-8" cx="179.94" cy="245.04" r="0.46"/><circle class="cls-8" cx="185.95" cy="236.54" r="0.46"/><circle class="cls-8" cx="191.96" cy="228.04" r="0.46"/><circle class="cls-8" cx="197.97" cy="219.54" r="0.46"/><circle class="cls-8" cx="203.97" cy="211.04" r="0.46"/><circle class="cls-8" cx="160.85" cy="277.8" r="0.46"/><circle class="cls-8" cx="166.86" cy="269.3" r="0.46"/><circle class="cls-8" cx="172.86" cy="260.8" r="0.46"/><circle class="cls-8" cx="178.87" cy="252.3" r="0.46"/><circle class="cls-8" cx="184.88" cy="243.8" r="0.46"/><circle class="cls-8" cx="190.89" cy="235.3" r="0.46"/><circle class="cls-8" cx="196.9" cy="226.8" r="0.46"/><circle class="cls-8" cx="202.9" cy="218.3" r="0.46"/><circle class="cls-8" cx="208.91" cy="209.8" r="0.46"/></g><path class="cls-6" d="M180.23,249.19c-4.14,0-7.69-.89-8.87-2.64a6.49,6.49,0,0,1,0-6.89.95.95,0,0,1,1.6,1,4.62,4.62,0,0,0,0,4.81c1.39,2.06,10.8,2.72,17.56-.13a31.5,31.5,0,0,0-.07-8,.95.95,0,1,1,1.87-.32.09.09,0,0,1,0,0,32.26,32.26,0,0,1,0,9.1l-.08.5-.46.21A29.25,29.25,0,0,1,180.23,249.19Z"/><path class="cls-2" d="M135.65,219.23c2.9-10.91,9.2-29.29,17.87-36.28a10,10,0,0,1,6.27-2.55c4.08.06,7.44,3.67,8.45,7.62s.16,8.13-1,12c3.43-6.39,5.5-12.93,10.6-18.09a13.43,13.43,0,0,1,7.89-3.54c4.66-.55,9.56,2.93,10.86,7.44s.09,9.35-1.56,13.74A33.92,33.92,0,0,1,205.38,183c2.25-2,7-5,10.1-4.31a6.44,6.44,0,0,1,5.24,4.21c2.86,7.58-.24,24.28-2.57,29.09"/><path class="cls-6" d="M167.2,200.77a.79.79,0,0,1-.3-.05,1,1,0,0,1-.61-1.2l1.65-5a1,1,0,0,1,1.81.6l-1.65,5A1,1,0,0,1,167.2,200.77Z"/><path class="cls-6" d="M196.76,198.67a.61.61,0,0,1-.19,0,1,1,0,0,1-.75-1.11l1.15-5.82a.94.94,0,0,1,1.1-.75h0a1,1,0,0,1,.76,1.12l-1.15,5.81A1,1,0,0,1,196.76,198.67Z"/><path class="cls-6" d="M162.7,217.71a1,1,0,0,1-.06-1.9l37.78-2.65a1,1,0,1,1,.74,1.86,1,1,0,0,1-.61,0l-37.78,2.65Z"/><path class="cls-2" d="M130.45,299.08c-2.71-.31.17-5.51,1.41-7.94a21.52,21.52,0,0,1,5.16-6.31,11.21,11.21,0,0,1,4.13-2.49,4.83,4.83,0,0,1,4.55.88,3.15,3.15,0,0,1,.28,4.34,9.53,9.53,0,0,1,6-6.95,6.31,6.31,0,0,1,3.57-.32,3.8,3.8,0,0,1,2.72,2.22,2.79,2.79,0,0,1-.9,3.24,12.06,12.06,0,0,1,2.14-4.39,5.8,5.8,0,0,1,4.25-2.2c2.48,0,4.57,2.08,5.38,4.42a18.11,18.11,0,0,1,.43,7.38s.05,1.25-4.54,2.17-33.39,5.95-33.39,5.95S131.58,299.21,130.45,299.08Z"/><path class="cls-6" d="M169.25,289.05a1,1,0,0,1-.95-.93c0-1,0-1.64-.06-2.25s0-1.23-.06-2.27a3.82,3.82,0,0,0-.61-2.55c-.74-.85-2.47-1.23-4.13-.91a1,1,0,0,1-1.07-.81,1,1,0,0,1,.7-1.05c2-.39,4.55-.07,5.94,1.52a5.57,5.57,0,0,1,1.08,3.76v2.25c0,.61,0,1.23.06,2.27a1,1,0,0,1-.93,1Z"/><path class="cls-6" d="M146.17,289.76h-.26a1.28,1.28,0,0,1-1-1.51h0l.68-3.23a1.27,1.27,0,0,1,2.48.52l-.68,3.24A1.26,1.26,0,0,1,146.17,289.76Z"/><path class="cls-6" d="M157.76,287.65h-.2a1,1,0,0,1-.73-1.13l.68-3.23a.93.93,0,0,1,1.1-.74h0a1,1,0,0,1,.74,1.13l-.68,3.23A1,1,0,0,1,157.76,287.65Z"/><path class="cls-9" d="M88,106a1.51,1.51,0,0,1-1.66-1.34,1.93,1.93,0,0,1,0-.24v-3.79a1.53,1.53,0,0,1,1.49-1.58H88l15.4-.06V94.51c-.06-1.05.44-1.58,1.56-1.63h6.19c1.12,0,1.73.48,1.68,1.53l-.11,4.53,13.61-.1a1.53,1.53,0,0,1,1.67,1.39,1.28,1.28,0,0,1,0,.19v3.21a1.56,1.56,0,0,1-1.56,1.58h-.12Zm28.35-9.38a1.58,1.58,0,0,1-1.59-1.57,1.73,1.73,0,0,1,0-.32,49.88,49.88,0,0,0,.61-7.22H104.88a43,43,0,0,1-3,8.22c-.61,1.21-1.5,1.74-2.51,1.42l-4.61-1.48c-1.06-.37-1.45-1-.89-2.37a23.75,23.75,0,0,0,1.5-4.74H89.26a1.29,1.29,0,0,1-1.4-1.17V82.24a1.28,1.28,0,0,1,1.25-1.32.75.75,0,0,1,.15,0h13.11a1.32,1.32,0,0,1,1.39-1h17.8c2,0,3.35,1,3.35,3.16v1a38.53,38.53,0,0,1-1.78,11.38c-.39,1.22-1,1.74-2.07,1.64Zm8.15,31.56a1.92,1.92,0,0,1-2.07,1.06,34.68,34.68,0,0,1-12-3.69,87.35,87.35,0,0,1-18.19,4.21c-1.39.21-2-.15-2.29-1.31l-1-3.32a1.6,1.6,0,0,1,1-2,1.86,1.86,0,0,1,.47-.09c7.76-1.21,14.23-2.48,21.15-5.48l-19.64.26a1.53,1.53,0,0,1-1.67-1.39,1.28,1.28,0,0,1,0-.19v-3.79a1.54,1.54,0,0,1,1.49-1.59h10.73l.23-2.53c.11-1.11.83-1.63,2.12-1.53l5.69.53c1.28.1,1.84.79,1.62,2l-.32,1.6h8.59c2.46,0,3.8,1.69,2.9,4.27a13,13,0,0,1-4.24,5.74,42.12,42.12,0,0,0,5.36.74,1.34,1.34,0,0,1,1.38,1.3,1.4,1.4,0,0,1-.1.54Z"/><path class="cls-9" d="M144.22,103.26c-1-.42-1.12-1.53-.51-2.58a26.23,26.23,0,0,0,3-10.33H133.11a1.27,1.27,0,0,1-1.35-1.18V84A1.27,1.27,0,0,1,133,82.68a.85.85,0,0,1,.16,0H154c1.95,0,3.35,1,3.35,3.16v.53a35.4,35.4,0,0,1-6.19,17.6,2.11,2.11,0,0,1-2.52,1Zm-.56,25.92a2.4,2.4,0,0,1-2.51-2.29v-.08l-.17-8.64a2.35,2.35,0,0,1,2.34-2.37h.17l20.54-.37V113l-21.82.31a1.53,1.53,0,0,1-1.67-1.38v-3.3c0-1.06.56-1.59,1.67-1.59l29.3-.36a2.14,2.14,0,0,1,2.49,1.74,2.22,2.22,0,0,1,0,.63l-.34,9.27a2.42,2.42,0,0,1-2.47,2.37h0l-20.42.16v2.21l22,.27a1.53,1.53,0,0,1,1.67,1.39,1.28,1.28,0,0,1,0,.19l-.06,2.53a1.53,1.53,0,0,1-1.53,1.55h-.08Zm23.44-24c-1.12,0-1.68-.53-1.68-1.58l-.33-20.71c0-1,.5-1.58,1.61-1.58h6.81c1.12,0,1.68.53,1.62,1.58l-.56,20.71a1.47,1.47,0,0,1-1.32,1.59,1.37,1.37,0,0,1-.35,0Z"/><path class="cls-9" d="M203.92,114.48a1.46,1.46,0,0,1-1,1.81l-.2,0A65.36,65.36,0,0,1,185.34,118c-2.51,0-3.91-1.26-3.91-3.63l-.33-14c0-2.47,1.56-3.68,3.85-3.68l6.53-.06V91.51h-7.54a1.79,1.79,0,0,1-2-1.57,2.44,2.44,0,0,1,0-.27V85.82A1.78,1.78,0,0,1,183.67,84h.27l12.28.1c2.29,0,3.91,1.21,3.85,3.69l-.11,12.7c-.06,2.32-1.34,3.63-3.91,3.69l-6.19.15v5.59a68.79,68.79,0,0,0,11.38-.74c1.17-.16,1.68.11,1.84,1.06Zm4.3,8.86c-1.12,0-1.68-.53-1.68-1.58l-.28-18.29h-3.07a1.79,1.79,0,0,1-2-1.57,2.44,2.44,0,0,1,0-.27V97.1a1.8,1.8,0,0,1,1.74-1.86h3.26L206,85c0-1.06.51-1.58,1.62-1.58h6.25c1.12,0,1.68.52,1.62,1.58l-.71,36.76a1.46,1.46,0,0,1-1.67,1.58Zm11.1,0c-1.11,0-1.67-.53-1.67-1.58V84.45a1.42,1.42,0,0,1,1.62-1.58h6.25c1.11,0,1.67.53,1.61,1.58l-1.22,37.31a1.46,1.46,0,0,1-1.68,1.58Z"/><path class="cls-9" d="M261.39,114.48a1.38,1.38,0,0,1-1.17,1.85c-6.19,1.74-15.35,2.32-22.71,2.21-2.51-.05-3.85-1.26-3.91-3.63l-.67-27.77c0-2.48,1.62-3.69,3.91-3.69l17.8-.1a1.79,1.79,0,0,1,2,1.57,2.44,2.44,0,0,1,0,.27v4.32a1.79,1.79,0,0,1-1.73,1.85h-.27l-11.72.27.06,5.11,9.65-.21a1.49,1.49,0,0,1,1.56,1.42v.16l-.05,4.53c0,1.05-.73,1.58-1.84,1.58l-9.16.16.12,5.79a85.08,85.08,0,0,0,15.45-1.1c1.18-.21,1.68.1,1.84,1Zm5.64,8.86c-1.12,0-1.68-.53-1.68-1.58V104.37l-6.64.1a1.78,1.78,0,0,1-1.94-1.62,1.62,1.62,0,0,1,0-.22V98a1.79,1.79,0,0,1,1.72-1.86h.28l6.64.1V84.45A1.42,1.42,0,0,1,267,82.87h6.74c1.11,0,1.67.53,1.62,1.58l-1.23,37.31a1.46,1.46,0,0,1-1.67,1.58Z"/><path class="cls-10" d="M86.29,103.49a1.51,1.51,0,0,1-1.66-1.34,1.93,1.93,0,0,1,0-.24V98.12a1.53,1.53,0,0,1,1.49-1.58,1.08,1.08,0,0,1,.18,0l15.4-.05,0-4.49c-.06-1.06.44-1.58,1.56-1.64h6.19c1.12,0,1.73.48,1.68,1.53L111,96.42l13.61-.1a1.53,1.53,0,0,1,1.67,1.39,1.28,1.28,0,0,1,0,.19v3.21a1.56,1.56,0,0,1-1.56,1.58h-.12Zm28.35-9.37a1.6,1.6,0,0,1-1.59-1.61,1.43,1.43,0,0,1,0-.29,49.88,49.88,0,0,0,.61-7.22H103.2a42.79,42.79,0,0,1-3,8.22c-.57,1.21-1.44,1.78-2.44,1.42l-4.63-1.47c-1.06-.37-1.45-1.06-.89-2.37a23.27,23.27,0,0,0,1.52-4.75H87.58a1.29,1.29,0,0,1-1.4-1.15V79.74a1.28,1.28,0,0,1,1.25-1.32.75.75,0,0,1,.15,0h13.11a1.32,1.32,0,0,1,1.39-1h17.81c2,0,3.34,1,3.34,3.16v1.06A38.45,38.45,0,0,1,121.45,93c-.39,1.21-1,1.74-2.07,1.63Zm8.12,31.56a1.9,1.9,0,0,1-2.07,1A34.51,34.51,0,0,1,108.76,123a88.1,88.1,0,0,1-18.2,4.22c-1.39.21-2-.16-2.28-1.32l-1-3.32a1.6,1.6,0,0,1,.94-2.06,1.71,1.71,0,0,1,.51-.1c7.76-1.21,14.23-2.48,21.15-5.48l-19.64.26a1.53,1.53,0,0,1-1.67-1.39,1.28,1.28,0,0,1,0-.19v-3.79a1.54,1.54,0,0,1,1.49-1.59h10.74l.22-2.53c.11-1.1.84-1.63,2.12-1.53l5.69.53c1.28.11,1.84.79,1.62,2l-.28,1.58h8.6c2.46,0,3.8,1.69,2.9,4.27a13,13,0,0,1-4.24,5.74,40.4,40.4,0,0,0,5.36.74,1.34,1.34,0,0,1,1.38,1.3,1.28,1.28,0,0,1-.1.55Z"/><path class="cls-10" d="M142.54,100.75c-1-.42-1.12-1.52-.5-2.58a26.19,26.19,0,0,0,3.06-10.32H131.43A1.29,1.29,0,0,1,130,86.69V81.53a1.27,1.27,0,0,1,1.24-1.31.75.75,0,0,1,.15,0H152.3c2,0,3.35,1,3.35,3.16v.52a35.4,35.4,0,0,1-6.19,17.6,2.1,2.1,0,0,1-2.51,1ZM142,126.68a2.4,2.4,0,0,1-2.51-2.29v-.08l-.17-8.64a2.38,2.38,0,0,1,2.38-2.38h.13l20.54-.36V110.5l-21.82.32a1.55,1.55,0,0,1-1.67-1.4v-3.29c0-1.06.56-1.58,1.67-1.58l29.3-.37a2.16,2.16,0,0,1,2.49,1.77,2,2,0,0,1,0,.6l-.33,9.27a2.43,2.43,0,0,1-2.49,2.37h0l-20.43.16v2.22l22,.26a1.53,1.53,0,0,1,1.67,1.39,1.28,1.28,0,0,1,0,.19l-.06,2.53a1.53,1.53,0,0,1-1.49,1.58,1.08,1.08,0,0,1-.18,0Zm23.44-24c-1.12,0-1.68-.53-1.68-1.58l-.33-20.71A1.42,1.42,0,0,1,165,78.81h6.8c1.12,0,1.68.53,1.62,1.58l-.56,20.71a1.47,1.47,0,0,1-1.32,1.59,1.37,1.37,0,0,1-.35,0Z"/><path class="cls-10" d="M202.24,112a1.44,1.44,0,0,1-.94,1.79l-.23,0a65.78,65.78,0,0,1-17.41,1.69c-2.51-.06-3.91-1.27-3.91-3.64l-.33-14c0-2.48,1.56-3.69,3.85-3.69h6.53V89h-7.54a1.81,1.81,0,0,1-1.95-1.64v-4A1.8,1.8,0,0,1,182,81.46h.22l12.28.11c2.29,0,3.91,1.21,3.85,3.68L198.28,98c-.06,2.32-1.34,3.64-3.91,3.69l-6.19.16v5.58a68.78,68.78,0,0,0,11.38-.73c1.17-.16,1.68.1,1.84,1Zm4.3,8.85c-1.12,0-1.68-.53-1.68-1.58L204.58,101h-3.06a1.8,1.8,0,0,1-2-1.59,2.17,2.17,0,0,1,0-.26V94.59a1.78,1.78,0,0,1,1.73-1.85h3.27l-.16-10.28A1.42,1.42,0,0,1,206,80.89h6.25c1.12,0,1.68.53,1.62,1.58l-.67,36.78a1.46,1.46,0,0,1-1.67,1.58Zm11.1,0c-1.11,0-1.67-.53-1.67-1.58V81.94a1.42,1.42,0,0,1,1.62-1.58h6.25c1.11,0,1.67.53,1.61,1.58l-1.22,37.31a1.46,1.46,0,0,1-1.68,1.58Z"/><path class="cls-10" d="M259.76,112c.23,1.1-.22,1.58-1.17,1.84-6.19,1.74-15.34,2.32-22.71,2.21-2.51,0-3.85-1.26-3.91-3.63l-.67-27.77c-.05-2.47,1.62-3.69,3.91-3.69l17.8-.1a1.79,1.79,0,0,1,2,1.57,2.44,2.44,0,0,1,0,.27V87a1.8,1.8,0,0,1-1.74,1.86H253l-11.72.26.06,5.11L251,94a1.5,1.5,0,0,1,1.56,1.44v.14l-.05,4.53c0,1.06-.73,1.58-1.84,1.58l-9.15.16.11,5.8a86,86,0,0,0,15.45-1.11c1.18-.21,1.68.11,1.85,1Zm5.64,8.85c-1.12,0-1.68-.53-1.68-1.58V101.86l-6.64.11a1.81,1.81,0,0,1-1.95-1.64V95.49a1.81,1.81,0,0,1,1.74-1.86h.21l6.64.11V81.94a1.42,1.42,0,0,1,1.62-1.58h6.81c1.12,0,1.67.53,1.62,1.58l-1.23,37.31a1.46,1.46,0,0,1-1.67,1.58Z"/><rect class="cls-11" x="108.5" y="356.62" width="143" height="20" rx="8"/><path class="cls-12" d="M123.43,368.93l7.84-.19a.77.77,0,0,1,.62.24.85.85,0,0,1,.23.54.83.83,0,0,1-.87.82l-7.62.22a.64.64,0,0,1-.62-.22,1,1,0,0,1-.23-.56.79.79,0,0,1,.12-.56A.64.64,0,0,1,123.43,368.93Zm7-8.87a.88.88,0,0,1,.74.23,1,1,0,0,1,.28.55.93.93,0,0,1-.15.59.55.55,0,0,1-.52.27h-.67v2.46H131c.32,0,.53.06.62.26a1.43,1.43,0,0,1,.14.61.63.63,0,0,1-.28.53,1.26,1.26,0,0,1-.67.26l-6.57.33a.78.78,0,0,1-.58-.23.86.86,0,0,1-.08-1,.6.6,0,0,1,.51-.29l1-.08-.33-2.32h-.69a.81.81,0,0,1-.64-.26.87.87,0,0,1-.06-1.13.78.78,0,0,1,.64-.29Zm-3.41,2a6,6,0,0,0,.08,1.18c.08.4.08.8.13,1.18h.67V362Z"/><path class="cls-12" d="M137.28,369.71l.17-3.39h-.35a2.43,2.43,0,0,1-1-.22,1,1,0,0,1-.55-.67l-.12-.5a3.13,3.13,0,0,0-.14-.63q-.07-.33-.12-.63a4.51,4.51,0,0,1,0-.52,1,1,0,0,1,.41-.8,1.93,1.93,0,0,1,1-.39l2.35-.26v-1.12H137.6l-1.6.09a.69.69,0,0,1-.68-.18.93.93,0,0,1-.25-.59.86.86,0,0,1,.19-.58.82.82,0,0,1,.67-.29h3.8a2.7,2.7,0,0,1,.63.07,2.88,2.88,0,0,1,.56.2,1.3,1.3,0,0,1,.39.31.58.58,0,0,1,.15.38l-.19,2.39c-.07.53-.51.82-1.3.85l-2.35.34.26,1.19c.51,0,1-.08,1.52-.16a10.13,10.13,0,0,0,1.54-.36.76.76,0,0,1,.74.13,1.08,1.08,0,0,1,.37.61.89.89,0,0,1-.09.6.79.79,0,0,1-.58.37l-1.32.23a.21.21,0,0,1,0,.11l-.15,3.46,2.29-.11a.78.78,0,0,1,.63.25,1,1,0,0,1,.23.57.85.85,0,0,1-.88.82l-7.61.22a.69.69,0,0,1-.63-.22,1,1,0,0,1-.23-.56.88.88,0,0,1,.13-.57.67.67,0,0,1,.54-.29Z"/><path class="cls-12" d="M149.14,363.19a6.7,6.7,0,0,0,.92,1c.36.32.72.63,1.09.93.07.06.06.17,0,.33a2.21,2.21,0,0,1-.33.47,2,2,0,0,1-.36.29,1.34,1.34,0,0,1-.39.16.62.62,0,0,1-.38,0,.51.51,0,0,1-.3-.24,7.56,7.56,0,0,1-.68-.59c-.21-.2-.45-.45-.74-.75-.27.35-.55.69-.83,1s-.55.66-.83,1a.69.69,0,0,1-.67.24,1.39,1.39,0,0,1-.76-.39,1.48,1.48,0,0,1-.4-.46.35.35,0,0,1,0-.43l.84-1a15.52,15.52,0,0,0,1-1.27c.31-.44.67-.89,1-1.33a4.94,4.94,0,0,0,.61-1.13l-2.68.33a.86.86,0,0,1-.72-.2.82.82,0,0,1-.28-.54.87.87,0,0,1,.11-.57.6.6,0,0,1,.46-.29l4.71-.33a1,1,0,0,1,.58.18,1.42,1.42,0,0,1,.43.45,1.11,1.11,0,0,1,.17.53.68.68,0,0,1-.1.44Zm6,4.62a2.26,2.26,0,0,1,1.09.18.83.83,0,0,1,.53.71v4c0,.17-.12.33-.37.47a2.13,2.13,0,0,1-.78.27,1.87,1.87,0,0,1-.88-.06c-.26-.1-.39-.25-.39-.46v-3.46l-4.34.11a.85.85,0,0,1-.7-.2.81.81,0,0,1-.25-.55.79.79,0,0,1,.19-.55,1,1,0,0,1,.68-.27Zm-2.83-4.41h-1.18a.79.79,0,0,1-.7-.21.84.84,0,0,1-.24-.54.7.7,0,0,1,.14-.54.9.9,0,0,1,.56-.33h1.4v-1.71c0-.15.12-.28.37-.39a3.54,3.54,0,0,1,.79-.21,3.23,3.23,0,0,1,.44,0,2.76,2.76,0,0,1,.4.06,1,1,0,0,1,.3.14.25.25,0,0,1,.12.22l.19,6c0,.14-.12.25-.35.34a3.45,3.45,0,0,1-.77.18,3,3,0,0,1-.89-.05c-.25-.06-.37-.2-.37-.39Zm3.59-3.8c0-.15.12-.28.36-.38a3.2,3.2,0,0,1,.81-.2,4.39,4.39,0,0,1,.89.06c.27.06.4.17.4.33l.19,7.47c0,.13-.12.25-.36.33a3.39,3.39,0,0,1-.76.19,2.66,2.66,0,0,1-.89-.06c-.25-.06-.38-.19-.38-.39Z"/><path class="cls-12" d="M160.37,368.93l7.84-.19a.83.83,0,0,1,.63.24.85.85,0,0,1,.23.54.79.79,0,0,1-.22.54.84.84,0,0,1-.66.28l-7.61.22a.66.66,0,0,1-.63-.22,1,1,0,0,1-.23-.56.92.92,0,0,1,.12-.56A.64.64,0,0,1,160.37,368.93Zm.41-8a.9.9,0,0,1,.27-.89,1.7,1.7,0,0,1,1-.32l4.21-.23a.78.78,0,0,1,.64,1.32.84.84,0,0,1-.51.28l-3.11.26.11,1.16,2.64-.24a.86.86,0,0,1,.66.24.8.8,0,0,1,.24.56.91.91,0,0,1-.23.59.87.87,0,0,1-.69.3l-2.55.28.19,1.25a9.19,9.19,0,0,0,1.42-.17c.54-.09,1.08-.19,1.61-.32a.63.63,0,0,1,.66.05,1.2,1.2,0,0,1,.33.55.89.89,0,0,1,0,.56.68.68,0,0,1-.51.37A18.54,18.54,0,0,1,165,367a12.78,12.78,0,0,1-2,.16,1.69,1.69,0,0,1-1.09-.32,1.56,1.56,0,0,1-.48-.92Z"/><path class="cls-12" d="M178.79,365.09,179,363c0-.18.13-.31.4-.41a2.57,2.57,0,0,1,.87-.15,2.62,2.62,0,0,1,.88.15l.18.09.26-3.18-1.6.26-1.15,3.5a.66.66,0,0,1-.59.38,2.59,2.59,0,0,1-.92-.07,1.85,1.85,0,0,1-.63-.31.37.37,0,0,1-.17-.45l1.19-3.33h-1l-.8.09a.83.83,0,0,1-.69-.2.81.81,0,0,1-.25-.55.7.7,0,0,1,.19-.55.9.9,0,0,1,.68-.27h2.08a5.07,5.07,0,0,0,.68-.11h0a1.28,1.28,0,0,1,1.08.27L181,358a6.9,6.9,0,0,0,1.25-.15,1.25,1.25,0,0,1,1.15.33q.51.45.51.78l-.26,4.25a.54.54,0,0,1-.39.44,2.87,2.87,0,0,1-1.68-.05l-.15-.08-.15,1.51,2-.11a.75.75,0,0,1,.63.25,1,1,0,0,1,.23.57.83.83,0,0,1-.21.54.91.91,0,0,1-.66.28l-7.62.22a.66.66,0,0,1-.62-.22,1,1,0,0,1-.24-.56.88.88,0,0,1,.13-.57.77.77,0,0,1,.54-.29Zm1.28,6-2.92.28h0a.76.76,0,0,1-.72-.15.85.85,0,0,1-.25-.56.71.71,0,0,1,.13-.53.63.63,0,0,1,.48-.29l2.74-.13L178,368.26a.38.38,0,0,1-.07-.45,1.44,1.44,0,0,1,1.08-.89.81.81,0,0,1,.72.26l1.71,1.73c.16.14.21.27.13.41a.27.27,0,0,1-.09.12l-.13.12h.44a1.39,1.39,0,0,1,.72.17,1,1,0,0,1,.4.43,1.6,1.6,0,0,1,.09.53.74.74,0,0,1-.14.43l-1.25,1,2.14,1.26a.33.33,0,0,1,.16.19.66.66,0,0,1,0,.28,1.11,1.11,0,0,1-.08.3.87.87,0,0,1-.16.26,1,1,0,0,1-.7.34,1.17,1.17,0,0,1-.81-.21l-1.93-1.23L178,375.1a.74.74,0,0,1-.71.26,1,1,0,0,1-.72-.41.76.76,0,0,1-.23-.51.49.49,0,0,1,.14-.46Z"/><path class="cls-12" d="M190.5,359.21a1.19,1.19,0,0,1,.53,0,1.82,1.82,0,0,1,.5.16,1.91,1.91,0,0,1,.38.31.84.84,0,0,1,.19.43l.19,4.77c0,.17-.13.32-.37.44a2.78,2.78,0,0,1-.8.26,2.08,2.08,0,0,1-.86,0,.51.51,0,0,1-.43-.42l-.26-4.3-3.18.13a.81.81,0,0,1-.68-.22.83.83,0,0,1-.27-.55.66.66,0,0,1,.17-.55,1,1,0,0,1,.66-.29Zm.67,10.94,3.26-.35.09-1.21-3.93.11a.77.77,0,0,1-.69-.22.84.84,0,0,1-.24-.56.89.89,0,0,1,.22-.58.91.91,0,0,1,.68-.28l4.78-.15a1.87,1.87,0,0,1,1.18.25.83.83,0,0,1,.44.76c0,.37-.05.77-.08,1.18s-.07.83-.12,1.24a.91.91,0,0,1-.43.63,2.54,2.54,0,0,1-.93.3h-.29l-.51.06-.89.09-1.42.15a3.57,3.57,0,0,0,.09.8,3.93,3.93,0,0,0,.19.58,8.65,8.65,0,0,0,1.34-.19c.42-.1.87-.21,1.34-.34a1,1,0,0,1,.73.11.87.87,0,0,1,.37.56.78.78,0,0,1-.07.58.72.72,0,0,1-.51.39c-.6.15-1.22.28-1.88.38a14.62,14.62,0,0,1-2.09.18c-.74,0-1.19-.27-1.35-.8a2.53,2.53,0,0,1-.24-.53q-.11-.35-.18-.69a5.86,5.86,0,0,1-.13-.73,4.6,4.6,0,0,1-.05-.64,1,1,0,0,1,.34-.75A1.65,1.65,0,0,1,191.17,370.15Zm3.5-10.68c0-.14.12-.26.37-.36a3.28,3.28,0,0,1,.82-.2,3.32,3.32,0,0,1,.89,0c.28.06.42.18.42.37l.15,6.24c0,.12-.13.23-.39.32a3.66,3.66,0,0,1-.81.18,2.54,2.54,0,0,1-.87,0q-.39-.09-.39-.39Z"/><path class="cls-12" d="M206.51,365.28h-1.15a.87.87,0,0,1-.74-.21,1,1,0,0,1-.27-.56.29.29,0,0,1,0-.13l-.21.17a3.58,3.58,0,0,1-.89.35,11.9,11.9,0,0,0-1.15.38,6.37,6.37,0,0,1-1.22.37l.43,2.42,2.7-.36h0a.87.87,0,0,1,.76.15.8.8,0,0,1,.27.63,1.37,1.37,0,0,1-.13.49.71.71,0,0,1-.49.37c-.59.11-1.2.21-1.8.29a16.66,16.66,0,0,1-2,.14,2,2,0,0,1-1-.24,1.15,1.15,0,0,1-.56-.73l-.6-3.48a.87.87,0,0,1,.31-.89,1.73,1.73,0,0,1,.92-.39l2.44-.71.23-1.67-2.22.11a.79.79,0,0,1-.7-.21.86.86,0,0,1-.23-.59.94.94,0,0,1,.21-.58.84.84,0,0,1,.68-.29h1.54l1.52-.08a2.29,2.29,0,0,1,.64,0,1,1,0,0,1,.53.19,1.44,1.44,0,0,1,.43.42.7.7,0,0,1,.09.4l-.3,3a.86.86,0,0,1,.58-.27l1.4-.09-.08-3.48c0-.15.12-.28.36-.38a3.17,3.17,0,0,1,.8-.22,2.43,2.43,0,0,1,.85,0c.28.06.41.17.41.34l.26,10.08c0,.14-.12.25-.37.33a3.9,3.9,0,0,1-.82.19,2.27,2.27,0,0,1-.86-.07c-.24-.06-.38-.19-.4-.38Zm3.56-5.59c0-.15.12-.27.36-.37a2.85,2.85,0,0,1,.81-.21,3.78,3.78,0,0,1,.89.07c.27.05.4.16.4.32l.19,11.47c0,.14-.13.25-.37.34a3.75,3.75,0,0,1-.75.19,3.31,3.31,0,0,1-.89-.06c-.25-.06-.38-.19-.38-.39Z"/><path class="cls-12" d="M214.43,361.53a.88.88,0,0,1,.27-.88,1.78,1.78,0,0,1,1-.33l4.4-.22a.81.81,0,0,1,.64.24.78.78,0,0,1,.21.54.8.8,0,0,1-.21.53.74.74,0,0,1-.51.29l-3.3.26.11,1.94,2.83-.24a.87.87,0,0,1,.67.24.79.79,0,0,1,.23.56,1,1,0,0,1-.22.59.87.87,0,0,1-.69.3l-2.74.28.18,2.29.7-.06.83-.12.87-.14.83-.16a.63.63,0,0,1,.65,0,1.2,1.2,0,0,1,.33.55.89.89,0,0,1,0,.56.67.67,0,0,1-.52.37,15.56,15.56,0,0,1-4.45.65,1.63,1.63,0,0,1-1.09-.32,1.49,1.49,0,0,1-.47-.92Zm9.23,2.09v-3.93c0-.15.12-.27.36-.37a3.07,3.07,0,0,1,.83-.21,3.78,3.78,0,0,1,.89.07c.28.05.41.16.41.32l.19,11.47c0,.13-.13.24-.38.34a3.19,3.19,0,0,1-.81.19,2,2,0,0,1-.85-.08c-.25-.09-.39-.22-.42-.41l-.15-5.66-1.62.13a.85.85,0,0,1-.72-.19.94.94,0,0,1-.17-1.18.82.82,0,0,1,.59-.34Z"/><path class="cls-12" d="M228.54,366.47l7.84-.19a.8.8,0,0,1,.63.24.91.91,0,0,1,.23.54.83.83,0,0,1-.21.54.86.86,0,0,1-.67.28l-7.61.23a.68.68,0,0,1-.63-.23,1,1,0,0,1-.23-.56.89.89,0,0,1,.12-.55A.63.63,0,0,1,228.54,366.47Zm2.31-1.94a1.37,1.37,0,0,1-.57,0,2.45,2.45,0,0,1-.54-.18,1.21,1.21,0,0,1-.41-.3.58.58,0,0,1-.15-.38l.22-4.14c0-.16.18-.28.46-.35a2.73,2.73,0,0,1,.9-.09,3.62,3.62,0,0,1,.46.06,2.77,2.77,0,0,1,.41.12.8.8,0,0,1,.27.18.3.3,0,0,1,.11.23l-.23,3.17,3.54-.19a.87.87,0,0,1,.65.25.79.79,0,0,1,.21.57,1,1,0,0,1-.23.6.92.92,0,0,1-.68.3l-4.44.18Zm.36,10.15a2.08,2.08,0,0,1-.61,0,2.19,2.19,0,0,1-.55-.17,1,1,0,0,1-.39-.29.59.59,0,0,1-.13-.41l.26-3.71a.3.3,0,0,1,.12-.25.92.92,0,0,1,.31-.16,2,2,0,0,1,.42-.07h.47a2.76,2.76,0,0,1,.85.19c.25.11.38.25.36.42l-.18,2.85,3.78-.15a.83.83,0,0,1,.69.2.75.75,0,0,1,.22.53.8.8,0,0,1-.23.53.9.9,0,0,1-.66.27l-3.52.2-1.23.06Z"/><rect class="cls-11" x="56.96" y="386.13" width="246.08" height="20" rx="8.04"/><path class="cls-12" d="M73,398.29a3.49,3.49,0,0,1-1.49-.3,2.86,2.86,0,0,1-1.09-.86,3.52,3.52,0,0,1-.63-1.34,5.71,5.71,0,0,1-.14-1.75,4.55,4.55,0,0,1,.42-1.77,4.39,4.39,0,0,1,.92-1.34,4,4,0,0,1,1.25-.85,3.42,3.42,0,0,1,2.78,0,3,3,0,0,1,1.11.83,3.7,3.7,0,0,1,.7,1.33A5,5,0,0,1,77,394a4.65,4.65,0,0,1-1.36,3.12,3.81,3.81,0,0,1-1.26.84A3.55,3.55,0,0,1,73,398.29Zm.45-6.89c-.33,0-.62.24-.89.71a4.41,4.41,0,0,0-.44,2.05,5.52,5.52,0,0,0,.08,1.15,3.3,3.3,0,0,0,.25.81,1.22,1.22,0,0,0,.36.48.67.67,0,0,0,.41.16.73.73,0,0,0,.53-.2,1.56,1.56,0,0,0,.4-.55,3,3,0,0,0,.26-.82,4.78,4.78,0,0,0,.1-1,5.89,5.89,0,0,0-.26-2C74.05,391.65,73.78,391.4,73.44,391.4Zm5.25-2.25q0-.21.36-.36a3.46,3.46,0,0,1,.83-.2,2.9,2.9,0,0,1,.88.05q.42.08.42.36l.15,11.52c0,.13-.13.24-.38.33a3.66,3.66,0,0,1-.81.18,2.6,2.6,0,0,1-.88,0q-.39-.09-.39-.39Z"/><path class="cls-12" d="M89,388.66a3.21,3.21,0,0,1,.82.07c.26,0,.39.16.39.32v1.53a.12.12,0,0,1,.07-.13.72.72,0,0,1,.62-.3l1.77-.16v-.9c0-.14.12-.26.35-.38a2.09,2.09,0,0,1,.81-.23,2.6,2.6,0,0,1,.88.07q.42.12.42.39l.15,7.34c0,.12-.13.24-.39.34a2.9,2.9,0,0,1-.82.2,2.23,2.23,0,0,1-.89-.06c-.26-.07-.4-.21-.4-.41v-1.6l-1.66.15a.84.84,0,0,1-.71-.22.93.93,0,0,1-.28-.45v.48a1.25,1.25,0,0,1-.4.89,2.34,2.34,0,0,1-1,.49,14.74,14.74,0,0,1-1.75.25c-.61.06-1.13.09-1.57.09a2.08,2.08,0,0,1-1.19-.31,1.17,1.17,0,0,1-.56-.85c-.06-.39-.11-.87-.16-1.41s-.07-1.1-.1-1.66,0-1.13,0-1.71v-1.58c0-.15.13-.27.38-.34a3.56,3.56,0,0,1,.86-.11,2.53,2.53,0,0,1,.86.13c.25.09.37.2.37.35v2.72l1-.15,1-.18a9.73,9.73,0,0,0,0-1.08v-1.12c0-.14.12-.24.36-.32A5,5,0,0,1,89,388.66ZM87.62,393l-.86.15-.89.17a2,2,0,0,0,0,.35v.92a2.74,2.74,0,0,0,0,.28,4.83,4.83,0,0,0,.87-.13,2.57,2.57,0,0,0,.76-.23Zm3.17,10.43a4.59,4.59,0,0,1-1.52-.22,3,3,0,0,1-1.1-.64,2.34,2.34,0,0,1-.63-1,2.52,2.52,0,0,1-.1-1.22,3,3,0,0,1,.45-1.29,3.47,3.47,0,0,1,.92-.95,3.8,3.8,0,0,1,1.23-.6,4.75,4.75,0,0,1,1.4-.21,4.6,4.6,0,0,1,1.43.23,3.14,3.14,0,0,1,1.11.63,2.57,2.57,0,0,1,.69,1,2.25,2.25,0,0,1,.14,1.23,2.9,2.9,0,0,1-.46,1.28,3.55,3.55,0,0,1-.93,1,4.74,4.74,0,0,1-1.24.6,5,5,0,0,1-1.39.14Zm.45-4.47a1.35,1.35,0,0,0-.89.37,1.66,1.66,0,0,0-.43,1.18,1.59,1.59,0,0,0,.07.65,1.24,1.24,0,0,0,.25.43.88.88,0,0,0,.36.24,1.14,1.14,0,0,0,.41.07,1.11,1.11,0,0,0,.93-.42,1.9,1.9,0,0,0,.36-1,1.84,1.84,0,0,0-.25-1.12,1,1,0,0,0-.81-.42Zm1.45-5.88v-1.42l-1.52.15a.88.88,0,0,1-.77-.15,1.1,1.1,0,0,1-.2-.28v.51l-.06,1.93c0-.08.08-.16.13-.24a.86.86,0,0,1,.62-.3Z"/><path class="cls-12" d="M99.32,391,99,388.45a.65.65,0,0,1,.38-.44,2.41,2.41,0,0,1,.78-.27h.46a1.32,1.32,0,0,1,.44.08,1.26,1.26,0,0,1,.33.16.49.49,0,0,1,.15.27l.35,2.75h1.6a.73.73,0,0,1,.8.65v.15a.91.91,0,0,1-.26.56.83.83,0,0,1-.65.24l-5.81.19a1,1,0,0,1-1-.86.75.75,0,0,1,.16-.58.74.74,0,0,1,.64-.27Zm.86,8.45a3.73,3.73,0,0,1-1.36-.22,2.75,2.75,0,0,1-1-.62,2.32,2.32,0,0,1-.59-1,3.11,3.11,0,0,1,.31-2.42,3.76,3.76,0,0,1,.83-.95,3.59,3.59,0,0,1,1.12-.61,3.93,3.93,0,0,1,1.27-.21,3.83,3.83,0,0,1,1.26.21,2.84,2.84,0,0,1,1,.6,2.59,2.59,0,0,1,.66.94,2.63,2.63,0,0,1,.15,1.24,3,3,0,0,1-.42,1.24,3.67,3.67,0,0,1-.85,1,4,4,0,0,1-2.38.81Zm.39-4.5a1,1,0,0,0-.78.38,2,2,0,0,0-.38,1.22,1.56,1.56,0,0,0,.27,1.13.94.94,0,0,0,.7.32.91.91,0,0,0,.81-.4,2.17,2.17,0,0,0,.31-1.05,2,2,0,0,0-.2-1.2.81.81,0,0,0-.73-.35Zm5.34-5.68c0-.15.13-.27.38-.37a3.2,3.2,0,0,1,.87-.17,2.89,2.89,0,0,1,.88.08c.27.07.4.18.4.35l.06,3.4,2-.13a.8.8,0,0,1,.62.26.84.84,0,0,1,.24.58.89.89,0,0,1-.24.6.83.83,0,0,1-.68.28l-1.93.15.09,6.29q0,.21-.36.33a4,4,0,0,1-.78.19,2.62,2.62,0,0,1-.88-.06c-.27-.06-.4-.19-.4-.39Z"/><path class="cls-12" d="M116.58,399.44l.11-4.76c0-.15.13-.26.39-.34a3.24,3.24,0,0,1,.82-.11,2.32,2.32,0,0,1,.78.17c.2.08.3.2.3.35l-.13,4.14h.82l.22-4.12c0-.12.11-.24.32-.36a1.32,1.32,0,0,1,.8-.14,2.55,2.55,0,0,1,.82.17h.09c0-.34.07-.67.08-1s0-.62,0-.91a4.39,4.39,0,0,0-.06-.88c-.06-.3,0-.63-.09-1l-4.19.24a.7.7,0,0,1-.62-.19.71.71,0,0,1-.2-.55.77.77,0,0,1,.24-.53,1,1,0,0,1,.69-.29l4.86-.26a2.15,2.15,0,0,1,.62,0,2,2,0,0,1,.53.16,1.24,1.24,0,0,1,.39.29.73.73,0,0,1,.18.4c0,.51.08,1,.11,1.35s0,.76,0,1.1v2.06c0,.17-.17.31-.44.41a2.6,2.6,0,0,1-1.74,0h-.09l-.25,4a10.2,10.2,0,0,0,1.23-.1c.41-.05.82-.12,1.23-.2a.83.83,0,0,1,.7.12.94.94,0,0,1,.34.53.84.84,0,0,1-.11.6.8.8,0,0,1-.57.39,10.41,10.41,0,0,1-1.24.23c-.48.06-1,.1-1.45.12h-4.34a1.08,1.08,0,0,1-.82-.29A1.25,1.25,0,0,1,116.58,399.44Z"/><path class="cls-12" d="M133.8,394.73c.07.07.07.17,0,.33a1.21,1.21,0,0,1-.28.46l-.3.27a1.09,1.09,0,0,1-.33.19.62.62,0,0,1-.33,0,.77.77,0,0,1-.34-.19c-.3-.21-.61-.45-1-.71a4.88,4.88,0,0,1-.87-.89l-1.83,2.22a.68.68,0,0,1-.68.22,1.47,1.47,0,0,1-.75-.39,1.3,1.3,0,0,1-.38-.46.32.32,0,0,1,0-.41l1-1.11,1-1.24c.34-.42.66-.84,1-1.25a11.69,11.69,0,0,0,.78-1.1l-3,.34a.92.92,0,0,1-.73-.21,1,1,0,0,1-.28-.54.85.85,0,0,1,.11-.56.57.57,0,0,1,.47-.29l5-.34a.93.93,0,0,1,.61.23,2.17,2.17,0,0,1,.45.55,1.62,1.62,0,0,1,.12.43.5.5,0,0,1-.1.39l-1.57,2Zm.54,8.68a4.57,4.57,0,0,1-1.51-.22,2.9,2.9,0,0,1-1.1-.64,2.34,2.34,0,0,1-.63-1,2.65,2.65,0,0,1-.11-1.22,3.13,3.13,0,0,1,.46-1.29,3.43,3.43,0,0,1,.91-1,4,4,0,0,1,1.23-.6,4.82,4.82,0,0,1,1.41-.21,4.59,4.59,0,0,1,1.42.23,3.27,3.27,0,0,1,1.12.63,2.76,2.76,0,0,1,.69,1,2.45,2.45,0,0,1,.14,1.23,3,3,0,0,1-.47,1.28,3.55,3.55,0,0,1-.93,1,4.19,4.19,0,0,1-1.24.6,5,5,0,0,1-1.39.16Zm.45-4.47a1.32,1.32,0,0,0-.88.37,1.61,1.61,0,0,0-.44,1.18,1.78,1.78,0,0,0,.07.65,1.45,1.45,0,0,0,.26.43.88.88,0,0,0,.36.24,1.14,1.14,0,0,0,.41.07,1.09,1.09,0,0,0,.92-.42,1.74,1.74,0,0,0,.36-1,1.84,1.84,0,0,0-.25-1.12.91.91,0,0,0-.81-.4Zm.71-9.85c0-.14.13-.25.38-.35a4.06,4.06,0,0,1,.85-.21,2.66,2.66,0,0,1,.89,0c.27.06.41.18.41.38l.06,3.11,2-.17a.76.76,0,0,1,.62.27.81.81,0,0,1,.23.57.86.86,0,0,1-.23.59.84.84,0,0,1-.66.29l-2,.13v2.55c0,.14-.12.25-.37.33a2.94,2.94,0,0,1-.78.17,2.17,2.17,0,0,1-.88,0q-.39-.09-.39-.39Z"/><path class="cls-12" d="M144.46,389.76c.06-.18.24-.29.53-.32a2,2,0,0,1,.88.1,2,2,0,0,1,.67.35c.19.15.25.29.19.43l-.58,1.56c.16.23.33.46.51.67l.48.53.84.85c.27.26.52.5.76.71a.44.44,0,0,1,.14.47,1.39,1.39,0,0,1-.25.52,1.72,1.72,0,0,1-.34.32.94.94,0,0,1-.8.19.81.81,0,0,1-.39-.23c-.31-.25-.62-.53-.93-.83s-.61-.62-.89-.94l-1.07,2.47c-.08.15-.27.23-.56.23a2.26,2.26,0,0,1-.85-.17,2.55,2.55,0,0,1-.6-.35c-.16-.14-.21-.28-.15-.41.24-.57.46-1.11.66-1.61s.41-1,.6-1.49l.57-1.47C144.06,390.84,144.26,390.32,144.46,389.76ZM148.65,403a2.08,2.08,0,0,1-.61,0,2.19,2.19,0,0,1-.55-.17,1,1,0,0,1-.39-.29.59.59,0,0,1-.13-.41l.26-4.32a.32.32,0,0,1,.12-.26.89.89,0,0,1,.31-.15,2.07,2.07,0,0,1,.42-.08h.47a2.77,2.77,0,0,1,.85.2c.25.1.38.24.36.42l-.18,3.46,3.78-.15a.83.83,0,0,1,.69.2.75.75,0,0,1,.22.53.8.8,0,0,1-.23.53.9.9,0,0,1-.66.27l-3.51.22-1.23.06Zm2.45-11.53V389c0-.14.12-.27.36-.37a3,3,0,0,1,.83-.2,2.19,2.19,0,0,1,.88.12c.27.09.4.22.4.38l.21,8.7c0,.12-.13.23-.38.31a3.65,3.65,0,0,1-.81.17,2,2,0,0,1-.85-.06q-.39-.1-.42-.39l-.15-4.52-1.79.13a.79.79,0,0,1-.75-.16.87.87,0,0,1-.29-.62,1,1,0,0,1,.15-.63.73.73,0,0,1,.65-.3Z"/><path class="cls-12" d="M157.34,389.28c.06-.19.24-.29.52-.31a2.19,2.19,0,0,1,.88.12,2.58,2.58,0,0,1,.66.34c.19.13.28.27.25.41l-.56,1.52h0a15.71,15.71,0,0,0,1.14,1.54,16,16,0,0,0,1.21,1.26.45.45,0,0,1,.12.47,1.22,1.22,0,0,1-.25.51,1.46,1.46,0,0,1-.71.46.78.78,0,0,1-.78-.21l-1.54-1.62-.92,2.32c-.06.16-.24.24-.53.23a2.89,2.89,0,0,1-.86-.19,2.84,2.84,0,0,1-.61-.35c-.17-.14-.22-.27-.16-.39.42-1.06.81-2.08,1.15-3.08S157,390.31,157.34,389.28Zm5.77,14.13a5.24,5.24,0,0,1-1.62-.22,2.76,2.76,0,0,1-1.11-.64,2.09,2.09,0,0,1-.59-1,2.79,2.79,0,0,1,0-1.22,3.18,3.18,0,0,1,.53-1.29,3.62,3.62,0,0,1,1-1,4,4,0,0,1,1.32-.6,5.58,5.58,0,0,1,1.52-.21,4.6,4.6,0,0,1,1.52.23,3.4,3.4,0,0,1,1.15.63,2.34,2.34,0,0,1,.66,1,2.45,2.45,0,0,1,.08,1.23,3.32,3.32,0,0,1-.55,1.28,3.66,3.66,0,0,1-1,1,4.63,4.63,0,0,1-1.32.6A5.69,5.69,0,0,1,163.11,403.41Zm.62-4.47a1.44,1.44,0,0,0-.54.1,1.42,1.42,0,0,0-.48.27,1.49,1.49,0,0,0-.34.49,2,2,0,0,0-.15.69,1.45,1.45,0,0,0,.09.65,1.42,1.42,0,0,0,.29.43,1.1,1.1,0,0,0,.42.24,1.61,1.61,0,0,0,.49.07,1.34,1.34,0,0,0,1.05-.42,1.63,1.63,0,0,0,.42-1,1.6,1.6,0,0,0-.31-1.12A1.13,1.13,0,0,0,163.73,398.94Zm-1.49-9.18c0-.15.12-.28.36-.4a2.58,2.58,0,0,1,.81-.23,2.9,2.9,0,0,1,.88.05c.27.07.41.18.41.36v2.38l1.31-.15-.06-2.46c0-.14.12-.27.35-.37a2.53,2.53,0,0,1,.81-.2,4.39,4.39,0,0,1,.89.06c.27.06.41.17.41.33l.17,7.24q0,.21-.36.36a2.84,2.84,0,0,1-.76.2,2.27,2.27,0,0,1-.86-.07c-.25-.08-.38-.2-.41-.38l-.15-3.05-1.24.13v2.64c0,.14-.13.25-.38.34a3.39,3.39,0,0,1-.78.17,2.43,2.43,0,0,1-.85,0c-.25-.07-.39-.19-.41-.38Z"/><path class="cls-12" d="M170.39,394.25c-.13-.78-.23-1.56-.3-2.32s-.1-1.54-.1-2.32c0-.2.13-.33.4-.41a3.4,3.4,0,0,1,.9-.09,4.23,4.23,0,0,1,.87.2c.26.1.39.24.39.41,0,.39-.05.74-.05,1.06v.93a8.27,8.27,0,0,0,.12,1c0,.33.13.71.23,1.13a1,1,0,0,0,.1.17.3.3,0,0,0,.24.07,8.21,8.21,0,0,0,1.21-.09c.41-.06.8-.14,1.19-.22a.9.9,0,0,1,.75.08.84.84,0,0,1,.38.57.73.73,0,0,1-.06.54,1,1,0,0,1-.57.41c-.65.14-1.31.25-2,.33a9.55,9.55,0,0,1-2,0,1.75,1.75,0,0,1-1.17-.45A1.69,1.69,0,0,1,170.39,394.25Zm8.91,3.07a1.38,1.38,0,0,1,1.72.92,1.19,1.19,0,0,1,.06.46v2.72a1.36,1.36,0,0,1-.38.91,2.11,2.11,0,0,1-1.06.49c-.26,0-.61.09-1,.13l-1.34.08-1.29.05h-1.55a2,2,0,0,1-.59-.08.78.78,0,0,1-.39-.25.74.74,0,0,1-.2-.46c-.07-.42-.13-.8-.17-1.13s-.06-.64-.08-.94,0-.59,0-.88v-1.15a.9.9,0,0,1,.11-.27,1.14,1.14,0,0,1,.18-.25.41.41,0,0,1,.28-.11Zm-.64,1.6-3.2.12v.78c0,.4,0,.81.09,1.21a.53.53,0,0,0,.19.4,1.13,1.13,0,0,0,.63,0l2.29-.13Zm.15-9.83c0-.14.12-.25.36-.35a3.07,3.07,0,0,1,.83-.21,3.31,3.31,0,0,1,.89.05q.42.09.42.36l.15,7.3c0,.13-.13.23-.39.33a3.16,3.16,0,0,1-.81.17,2.54,2.54,0,0,1-.87,0c-.26-.06-.39-.2-.39-.39Z"/><path class="cls-12" d="M190.3,397.84a.76.76,0,0,1,.71.16,1,1,0,0,1,.33.57.78.78,0,0,1-.15.57.9.9,0,0,1-.55.38,15.55,15.55,0,0,1-1.67.21c-.59,0-1.2.07-1.82.08h-1.88q-.95,0-1.86-.06a.69.69,0,0,1-.56-.28,1,1,0,0,1-.18-.57,1,1,0,0,1,.17-.59.66.66,0,0,1,.59-.27H187q.88,0,1.74-.06A11.74,11.74,0,0,0,190.3,397.84Zm-3.78-1.69a4.2,4.2,0,0,1-1.49-.25,3.05,3.05,0,0,1-1.09-.72,2.89,2.89,0,0,1-.64-1.13,3.81,3.81,0,0,1-.13-1.5,3.72,3.72,0,0,1,.44-1.5,3.55,3.55,0,0,1,.91-1.13,4,4,0,0,1,1.24-.71,4,4,0,0,1,1.41-.25,4.24,4.24,0,0,1,1.37.23,3,3,0,0,1,1.11.7,3.16,3.16,0,0,1,.72,1.14,3.42,3.42,0,0,1,.17,1.52,3.73,3.73,0,0,1-1.38,2.66,4.22,4.22,0,0,1-1.24.7A4.16,4.16,0,0,1,186.52,396.15Zm.45-5.57a1.12,1.12,0,0,0-.89.52,2.75,2.75,0,0,0-.43,1.58,2.29,2.29,0,0,0,.31,1.49,1,1,0,0,0,.78.45,1.06,1.06,0,0,0,.94-.55,2.71,2.71,0,0,0,.35-1.39,3.21,3.21,0,0,0-.25-1.53.9.9,0,0,0-.81-.57Zm5.06-1.3c0-.15.13-.27.37-.37a3.06,3.06,0,0,1,1.73-.09c.26.07.4.18.4.35l.22,11.43q0,.21-.36.33a3.64,3.64,0,0,1-.79.19,2.84,2.84,0,0,1-.92-.06q-.39-.09-.39-.39Z"/><path class="cls-12" d="M200.87,396.09l7.84-.18a.77.77,0,0,1,.62.24.81.81,0,0,1,0,1.14.83.83,0,0,1-.6.22l-7.62.22a.66.66,0,0,1-.62-.22,1,1,0,0,1-.24-.56.85.85,0,0,1,.13-.56A.68.68,0,0,1,200.87,396.09Zm4.09-1.65a3.27,3.27,0,0,1-2.55-.94,3,3,0,0,1-.71-2.47,3.63,3.63,0,0,1,.43-1.4,3.87,3.87,0,0,1,.89-1.08,3.68,3.68,0,0,1,1.2-.69,4.15,4.15,0,0,1,1.39-.24,4.22,4.22,0,0,1,1.36.23,3,3,0,0,1,1.08.67,2.75,2.75,0,0,1,.68,1.07,3.19,3.19,0,0,1,.16,1.44,3.46,3.46,0,0,1-.43,1.41,3.7,3.7,0,0,1-.89,1.08,3.75,3.75,0,0,1-1.22.68,4,4,0,0,1-1.36.24Zm-1.43,9.86a2.08,2.08,0,0,1-.61,0,3.5,3.5,0,0,1-.55-.17,1.14,1.14,0,0,1-.39-.3.55.55,0,0,1-.13-.41l.26-3.7a.32.32,0,0,1,.12-.26.89.89,0,0,1,.31-.15,2.07,2.07,0,0,1,.42-.08h.48a2.71,2.71,0,0,1,.84.2c.26.1.38.24.37.42l-.19,2.85,3.78-.15a.79.79,0,0,1,.69.19.75.75,0,0,1,.22.53.72.72,0,0,1-.23.53.9.9,0,0,1-.66.27l-3.52.21-1.23.05Zm1.88-15.12a1,1,0,0,0-.84.48,2.76,2.76,0,0,0-.39,1.48,2.3,2.3,0,0,0,.27,1.41.94.94,0,0,0,.74.4.89.89,0,0,0,.85-.52,3.38,3.38,0,0,0,.34-1.29,2.58,2.58,0,0,0-.18-1.45.86.86,0,0,0-.76-.51Z"/><path class="cls-12" d="M213.56,398.12l.05-1.64h-.35a1.63,1.63,0,0,1-1.09-.32,1.49,1.49,0,0,1-.47-.92l-.53-5a.9.9,0,0,1,.27-.89,1.7,1.7,0,0,1,1-.32l4-.23a.8.8,0,0,1,.86.79.87.87,0,0,1-.73.81l-2.92.27.11,1.15,2.46-.24a.9.9,0,0,1,.66.24.79.79,0,0,1,.23.56.9.9,0,0,1-.22.59.87.87,0,0,1-.69.3l-2.37.28.19,1.25a11.79,11.79,0,0,0,1.33-.17c.48-.08,1-.19,1.52-.31a.63.63,0,0,1,.65,0,1.22,1.22,0,0,1,.34.55.83.83,0,0,1-.05.56.68.68,0,0,1-.51.37c-.41.13-.8.23-1.17.32l-.14,1.94h.71l.64-.07,1.06-.11a1,1,0,0,1,.77.14.89.89,0,0,1,.36.51.65.65,0,0,1-.09.51.74.74,0,0,1-.52.35c-.49.08-1,.14-1.7.2s-1.31.1-2,.13-1.35,0-2,0h-1.69a.68.68,0,0,1-.57-.3,1,1,0,0,1-.2-.55.8.8,0,0,1,.16-.56.67.67,0,0,1,.59-.25Zm6.59-8.84c0-.15.12-.27.37-.37a3.2,3.2,0,0,1,.86-.17,3.1,3.1,0,0,1,.86.08c.27.07.41.18.41.35l.22,11.43q0,.21-.36.33a3.72,3.72,0,0,1-.8.19,2.8,2.8,0,0,1-.91-.06q-.39-.09-.39-.39Z"/><path class="cls-12" d="M232.72,394.94a.88.88,0,0,1,.66.25.81.81,0,0,1,.23.57.91.91,0,0,1-.21.57.86.86,0,0,1-.68.28l-7.62.19a.66.66,0,0,1-.58-.21,1.14,1.14,0,0,1-.24-.55,1,1,0,0,1,.12-.54.7.7,0,0,1,.48-.34Zm-6,6.18,3.32-.35.09-1.16-4,.11a.79.79,0,0,1-.92-.64.61.61,0,0,1,0-.14.94.94,0,0,1,.21-.58.9.9,0,0,1,.68-.27l4.84-.15a1.8,1.8,0,0,1,1.18.24.83.83,0,0,1,.44.76c0,.37-.05.75-.08,1.13s-.07.77-.12,1.18a.94.94,0,0,1-.43.63,2.54,2.54,0,0,1-.93.3h-.3l-.53.06-.9.09-1.44.15a3,3,0,0,0,.09.72c.05.16.12.33.19.51a9,9,0,0,0,1.37-.19c.44-.1.9-.21,1.37-.34a.88.88,0,0,1,1.1.68.8.8,0,0,1-.07.57.72.72,0,0,1-.51.39c-.6.15-1.23.28-1.91.39a16.52,16.52,0,0,1-2.11.17c-.75,0-1.2-.27-1.36-.8a2,2,0,0,1-.23-.51c-.07-.21-.13-.42-.19-.64a5,5,0,0,1-.13-.67,4.32,4.32,0,0,1-.05-.62.86.86,0,0,1,.35-.72,1.76,1.76,0,0,1,1-.3Zm.25-11.36,2.34-.26v-.93H228l-1.59.08a.72.72,0,0,1-.9-.48.76.76,0,0,1,0-.21.81.81,0,0,1,.18-.58.82.82,0,0,1,.67-.29h3.83a2.7,2.7,0,0,1,.63.07,1.9,1.9,0,0,1,.56.21,1.45,1.45,0,0,1,.39.3.58.58,0,0,1,.15.39l-.18,2.09c-.08.51-.51.79-1.31.82l-2.34.26.26,1.13a11.18,11.18,0,0,0,1.55-.16,8.44,8.44,0,0,0,1.58-.37.82.82,0,0,1,.74.13,1.11,1.11,0,0,1,.37.62.87.87,0,0,1-.09.59.81.81,0,0,1-.58.36c-.59.11-1.28.21-2.06.3s-1.51.13-2.22.15a2.29,2.29,0,0,1-1-.23,1,1,0,0,1-.55-.67,3.17,3.17,0,0,0-.12-.46c0-.18-.09-.38-.14-.57a5.78,5.78,0,0,1-.12-.57,2.61,2.61,0,0,1,0-.48.93.93,0,0,1,.4-.79,2.06,2.06,0,0,1,.94-.45Z"/><path class="cls-12" d="M246.14,399.28a2.16,2.16,0,0,1,1.09.2.85.85,0,0,1,.55.65v3.8c0,.18-.12.32-.36.43a2.21,2.21,0,0,1-.8.21,1.62,1.62,0,0,1-.44,0,1.37,1.37,0,0,1-.4-.09.68.68,0,0,1-.29-.18.32.32,0,0,1-.12-.26v-3.11l-3.74.1a.85.85,0,0,1-.69-.18.68.68,0,0,1-.26-.53.76.76,0,0,1,.2-.56.92.92,0,0,1,.68-.3l2-.07a.06.06,0,0,0,0-.06l.15-1.78-3.43.07a.75.75,0,0,1-.58-.24,1,1,0,0,1-.24-.54,1,1,0,0,1,.13-.57.67.67,0,0,1,.53-.29h2.76l2.07-.07,3-.09a.82.82,0,0,1,.89.82.79.79,0,0,1-.23.56,1,1,0,0,1-.66.29l-1.73.08-.19,1.79Zm-2-8.35-2.85.32a.79.79,0,0,1-.72-.17,1,1,0,0,1-.27-.55.83.83,0,0,1,.14-.55.66.66,0,0,1,.48-.29l1.69-.11v-2.16c0-.14.1-.26.31-.36a2.42,2.42,0,0,1,.79-.2,2.37,2.37,0,0,1,.84,0c.24.06.37.19.37.39v2.14l1.3-.1a1.16,1.16,0,0,1,.6.17,1.07,1.07,0,0,1,.42.45,1.22,1.22,0,0,1,.17.56c0,.2,0,.33-.13.39l-1.23,1a3.79,3.79,0,0,0,.82.49,4.8,4.8,0,0,1,.88.51.44.44,0,0,1,.19.39.93.93,0,0,1-.14.54,1.12,1.12,0,0,1-.59.5.91.91,0,0,1-.8-.11l-1-.52a4.54,4.54,0,0,1-.94-.63l-2.23,1.67a.79.79,0,0,1-.7.09,1.3,1.3,0,0,1-.64-.44,1.11,1.11,0,0,1-.28-.43.3.3,0,0,1,.13-.37Z"/><path class="cls-12" d="M252.87,391l-.34-2.55c0-.16.14-.31.37-.44a2.67,2.67,0,0,1,.78-.27h.47a1.32,1.32,0,0,1,.44.08,1.07,1.07,0,0,1,.32.16.36.36,0,0,1,.15.27l.34,2.74H257a.74.74,0,0,1,.62.25.85.85,0,0,1,.18.55.91.91,0,0,1-.26.56.83.83,0,0,1-.65.24l-5.81.19a1,1,0,0,1-1-.86.86.86,0,0,1,.16-.58.77.77,0,0,1,.63-.34Zm.85,8.45a4,4,0,0,1-1.36-.22,2.89,2.89,0,0,1-1-.62,2.32,2.32,0,0,1-.59-1,2.87,2.87,0,0,1-.1-1.2,2.81,2.81,0,0,1,.41-1.22,3.66,3.66,0,0,1,1.94-1.56,4,4,0,0,1,1.28-.21,3.83,3.83,0,0,1,1.26.21,2.84,2.84,0,0,1,1,.6,2.56,2.56,0,0,1,.65.94,2.61,2.61,0,0,1,.15,1.24,3,3,0,0,1-.42,1.24,3.8,3.8,0,0,1-.84,1,4.55,4.55,0,0,1-2.36.86Zm.39-4.5a1,1,0,0,0-.77.38,1.85,1.85,0,0,0-.38,1.22,1.47,1.47,0,0,0,.27,1.13.94.94,0,0,0,.7.32.91.91,0,0,0,.81-.4,2,2,0,0,0,.3-1.05,2,2,0,0,0-.19-1.2.8.8,0,0,0-.72-.35Zm5.35-5.68c0-.15.12-.27.38-.37a3.07,3.07,0,0,1,1.75-.09c.27.07.4.18.4.35l.06,3.4,2-.13a.82.82,0,0,1,.62.26.9.9,0,0,1,.23.58,1,1,0,0,1-.23.6.86.86,0,0,1-.68.28l-1.94.15.1,6.29c0,.14-.12.25-.37.33a4.13,4.13,0,0,1-.77.19,2.62,2.62,0,0,1-.88-.06c-.27-.06-.4-.19-.4-.39Z"/><path class="cls-12" d="M268.73,391l-.33-2.55c0-.16.13-.31.37-.44a2.67,2.67,0,0,1,.78-.27H270a1.51,1.51,0,0,1,.76.24.36.36,0,0,1,.15.27l.33,2.74h1.61a.77.77,0,0,1,.62.25.85.85,0,0,1,.18.55,1,1,0,0,1-.26.56.86.86,0,0,1-.66.24l-5.81.19a1,1,0,0,1-1-.86.81.81,0,0,1,.16-.58.74.74,0,0,1,.64-.27Zm.86,8.45a4,4,0,0,1-1.36-.22,3.05,3.05,0,0,1-1-.62,2.4,2.4,0,0,1-.58-1,3,3,0,0,1,.3-2.42,3.76,3.76,0,0,1,.83-.95,3.59,3.59,0,0,1,1.12-.61,4,4,0,0,1,1.28-.21,3.77,3.77,0,0,1,1.25.21,3,3,0,0,1,1,.6,2.69,2.69,0,0,1,.65.94,2.61,2.61,0,0,1,.15,1.24,3,3,0,0,1-.42,1.24,3.36,3.36,0,0,1-.85,1,4,4,0,0,1-1.12.6,4.1,4.1,0,0,1-1.25.26ZM270,395a1,1,0,0,0-.77.38,1.85,1.85,0,0,0-.38,1.22,1.47,1.47,0,0,0,.27,1.13,1,1,0,0,0,1.41,0l.09-.1a2.61,2.61,0,0,0,.12-2.25A.83.83,0,0,0,270,395Zm5.34-5.68c0-.15.13-.27.39-.37a3.2,3.2,0,0,1,.86-.17,3,3,0,0,1,.89.08c.26.07.4.18.4.35l.05,3.4,2-.13a.82.82,0,0,1,.63.26.9.9,0,0,1,.23.58,1,1,0,0,1-.23.6.86.86,0,0,1-.68.28l-1.94.15.09,6.29q0,.21-.36.33a4.13,4.13,0,0,1-.77.19,2.66,2.66,0,0,1-.89-.06c-.27-.06-.4-.19-.4-.39Z"/><path class="cls-12" d="M287.87,389.13a2.08,2.08,0,0,1,.61,0,2,2,0,0,1,.53.16,1.24,1.24,0,0,1,.39.29.62.62,0,0,1,.18.4c0,.51.09,1,.11,1.35s0,.76.05,1.1a6.68,6.68,0,0,1,0,1v1.06c0,.17-.17.31-.43.41a2.6,2.6,0,0,1-1.74,0q-.37-.15-.36-.45c0-.36.06-.69.08-1s0-.62,0-.91l-.06-.88a6.27,6.27,0,0,0-.09-1l-4.27.34a.73.73,0,0,1-.63-.19.74.74,0,0,1-.19-.55.77.77,0,0,1,.24-.53,1,1,0,0,1,.69-.29Zm-5.18,10.31c0-.81,0-1.66.05-2.55s.08-1.77.14-2.66c0-.17.17-.29.45-.33a2.9,2.9,0,0,1,.93,0,5.5,5.5,0,0,1,.81.27c.24.12.35.25.34.39-.07.8-.13,1.55-.16,2.23s0,1.39,0,2.09h1.17l.95-.05.93-.08,1.12-.15a.73.73,0,0,1,.67.12,1,1,0,0,1,.32.53.89.89,0,0,1-.1.6.84.84,0,0,1-.53.39,12.87,12.87,0,0,1-1.53.27c-.52.05-1,.09-1.56.11s-1,0-1.49,0-.94-.05-1.36-.09c-.81-.08-1.2-.44-1.2-1.09Z"/><rect class="cls-11" x="100.63" y="430.09" width="158.73" height="20" rx="8.04"/><path class="cls-12" d="M114.24,439.38l7.84-.19a.81.81,0,0,1,.62.25.78.78,0,0,1,0,1.08.94.94,0,0,1-.66.28l-7.62.22a.68.68,0,0,1-.62-.22,1,1,0,0,1-.24-.56.8.8,0,0,1,.13-.56A.63.63,0,0,1,114.24,439.38Zm4,9.11a3.71,3.71,0,0,1-2.63-.83,2.41,2.41,0,0,1-.73-2.18,3.11,3.11,0,0,1,.45-1.29,3.29,3.29,0,0,1,.92-.94,4,4,0,0,1,1.23-.58,5.11,5.11,0,0,1,1.41-.2,4.59,4.59,0,0,1,1.42.23,3.6,3.6,0,0,1,1.12.61,2.68,2.68,0,0,1,.69,1,2.42,2.42,0,0,1,.14,1.22,3.14,3.14,0,0,1-.47,1.29,3.61,3.61,0,0,1-.93.94,4.13,4.13,0,0,1-1.24.58,5.41,5.41,0,0,1-1.38.15Zm.18-10.39a3.29,3.29,0,0,1-2.56-.94,3.11,3.11,0,0,1-.71-2.47,3.8,3.8,0,0,1,.43-1.4,4,4,0,0,1,.89-1.08,3.9,3.9,0,0,1,1.2-.69,4.14,4.14,0,0,1,2.75,0,2.81,2.81,0,0,1,1.08.67,2.75,2.75,0,0,1,.68,1.07,3.2,3.2,0,0,1,.17,1.44,3.72,3.72,0,0,1-1.32,2.49,4,4,0,0,1-1.22.68,4.15,4.15,0,0,1-1.39.24Zm.26,6a1.25,1.25,0,0,0-.88.36,1.54,1.54,0,0,0-.44,1.15,1.44,1.44,0,0,0,.08.65.91.91,0,0,0,.25.42.71.71,0,0,0,.36.22,1.24,1.24,0,0,0,1.33-.34,1.71,1.71,0,0,0,.36-.95,1.65,1.65,0,0,0-.25-1.1,1,1,0,0,0-.81-.42Zm.19-11.24a1,1,0,0,0-.84.47,2.67,2.67,0,0,0-.39,1.48,2.3,2.3,0,0,0,.27,1.41.93.93,0,0,0,.74.4.89.89,0,0,0,.85-.52,3.37,3.37,0,0,0,.33-1.29,2.5,2.5,0,0,0-.18-1.45.82.82,0,0,0-.73-.51Z"/><path class="cls-12" d="M132.45,438.45a.79.79,0,0,1,.61.22.8.8,0,0,1,.21.51.68.68,0,0,1-.21.47,1,1,0,0,1-.65.25l-2.81.1-.43,2.53c0,.17-.14.3-.4.37a3.46,3.46,0,0,1-.84.11,2.21,2.21,0,0,1-.81-.16q-.37-.14-.33-.36l.39-2.44h-2a.7.7,0,0,1-.59-.19.78.78,0,0,1-.29-.48.68.68,0,0,1,.12-.48.75.75,0,0,1,.55-.27Zm-4.33-.61a4.5,4.5,0,0,1-1.49-.23,3.1,3.1,0,0,1-1.07-.61,2.47,2.47,0,0,1-.61-.94,2.57,2.57,0,0,1-.08-1.2,2.85,2.85,0,0,1,.44-1.22,3.25,3.25,0,0,1,.87-.94,4.05,4.05,0,0,1,1.21-.61,4.59,4.59,0,0,1,1.39-.21,4.19,4.19,0,0,1,1.36.2,3.22,3.22,0,0,1,1.09.59,2.32,2.32,0,0,1,.67.94,2.43,2.43,0,0,1,.15,1.25,2.74,2.74,0,0,1-.45,1.23,3.19,3.19,0,0,1-.89.94,3.81,3.81,0,0,1-1.21.6,4.57,4.57,0,0,1-1.38.21Zm.45-4.4a1.31,1.31,0,0,0-.88.34,1.69,1.69,0,0,0-.45,1.19,2.06,2.06,0,0,0,.06.7.86.86,0,0,0,.62.62,1.52,1.52,0,0,0,.42.06,1.18,1.18,0,0,0,.92-.37,2,2,0,0,0,.38-1,1.52,1.52,0,0,0-.23-1.17,1.07,1.07,0,0,0-.83-.37ZM131.23,448a1.88,1.88,0,0,1-.58,0,2.78,2.78,0,0,1-.56-.17,1.14,1.14,0,0,1-.39-.3.59.59,0,0,1-.13-.41l.26-3.26a.33.33,0,0,1,.12-.25,1,1,0,0,1,.31-.16,2,2,0,0,1,.42-.07h.48a2.65,2.65,0,0,1,.84.2c.26.1.38.24.37.42l-.19,2.4,3.78-.15a.78.78,0,0,1,.69.19.7.7,0,0,1,.22.54.76.76,0,0,1-.23.53,1,1,0,0,1-.66.27l-3.52.2Zm2.61-5.59-2.33.07a.78.78,0,0,1-.64-.17.65.65,0,0,1-.26-.5.6.6,0,0,1,.12-.48.72.72,0,0,1,.44-.3l2.64-.07-.06-7.79c0-.14.12-.27.36-.36a3,3,0,0,1,.84-.18,3.29,3.29,0,0,1,.88.09c.27.07.4.18.4.34l.13,10.08c0,.13-.12.25-.36.33a3.72,3.72,0,0,1-.8.19,3.54,3.54,0,0,1-.92-.06c-.26-.06-.4-.19-.4-.39Z"/><path class="cls-12" d="M140.48,434.86l-.34-2.55c0-.17.14-.31.37-.44a2.67,2.67,0,0,1,.78-.27,1.85,1.85,0,0,1,.47,0,2.36,2.36,0,0,1,.44.07,1.41,1.41,0,0,1,.32.17.39.39,0,0,1,.15.27l.34,2.74h1.6a.74.74,0,0,1,.62.25.82.82,0,0,1,.17.55,1,1,0,0,1-.25.56.84.84,0,0,1-.65.24l-5.81.19a1,1,0,0,1-.74-.26,1.09,1.09,0,0,1-.29-.6.79.79,0,0,1,.16-.59.74.74,0,0,1,.64-.27Zm.85,8.45a3.88,3.88,0,0,1-1.36-.22,2.86,2.86,0,0,1-1-.62,2.22,2.22,0,0,1-.59-1,3,3,0,0,1,.31-2.42,3.41,3.41,0,0,1,.83-.95,3.35,3.35,0,0,1,1.11-.61,4,4,0,0,1,1.28-.22,3.68,3.68,0,0,1,1.26.22,2.84,2.84,0,0,1,1,.6,2.53,2.53,0,0,1,.8,2.17,3.09,3.09,0,0,1-.42,1.25,3.78,3.78,0,0,1-.84.94,4.27,4.27,0,0,1-1.13.61,4.21,4.21,0,0,1-1.25.25Zm.39-4.51a1,1,0,0,0-.77.39,1.91,1.91,0,0,0-.39,1.22,1.47,1.47,0,0,0,.28,1.13,1,1,0,0,0,.69.32.92.92,0,0,0,.81-.4,2.07,2.07,0,0,0,.31-1,2,2,0,0,0-.2-1.21A.81.81,0,0,0,141.72,438.8Zm5.35-5.68c0-.14.13-.27.38-.36a3.21,3.21,0,0,1,.87-.18,3.29,3.29,0,0,1,.88.09c.27.07.4.18.4.34l.06,3.41,2-.13a.82.82,0,0,1,.62.26.93.93,0,0,1,.23.58,1,1,0,0,1-.23.59.86.86,0,0,1-.68.28l-1.94.15.1,6.3c0,.13-.12.24-.37.33a4.13,4.13,0,0,1-.77.19,3.21,3.21,0,0,1-.88-.06c-.27-.06-.4-.19-.4-.39Z"/><path class="cls-12" d="M154.5,439.94l7.84-.19a.74.74,0,0,1,.61.25.76.76,0,0,1,0,1.08.85.85,0,0,1-.66.27l-7.62.23a.65.65,0,0,1-.61-.23.9.9,0,0,1-.23-.55.74.74,0,0,1,.12-.56A.61.61,0,0,1,154.5,439.94Zm2.31-1.94a1.88,1.88,0,0,1-.58,0,2.47,2.47,0,0,1-.54-.19,1.08,1.08,0,0,1-.4-.3.51.51,0,0,1-.16-.38l.22-4.13c0-.17.18-.28.46-.36a3.36,3.36,0,0,1,.9-.09l.47.06.4.12a1,1,0,0,1,.28.18.37.37,0,0,1,.1.23l-.22,3.17,3.54-.19a.81.81,0,0,1,.64.26.69.69,0,0,1,.2.56.94.94,0,0,1-.22.6.86.86,0,0,1-.69.3l-4.43.18Zm.35,10.15a2.08,2.08,0,0,1-.61,0A2,2,0,0,1,156,448a1,1,0,0,1-.4-.3.51.51,0,0,1-.13-.41l.26-3.71a.27.27,0,0,1,.13-.25.79.79,0,0,1,.3-.16,2.63,2.63,0,0,1,.42-.07h.48a2.76,2.76,0,0,1,.84.19c.26.11.38.25.37.42l-.19,2.85,3.78-.15a.84.84,0,0,1,.69.2.75.75,0,0,1,.22.53.8.8,0,0,1-.23.53.89.89,0,0,1-.66.27l-3.52.21-1.23.05Z"/><path class="cls-12" d="M174,434a1.88,1.88,0,0,1,1.33.3,1.33,1.33,0,0,1,.54,1,20.55,20.55,0,0,1,0,2.22c0,.75-.08,1.53-.08,2.34a1.25,1.25,0,0,1-.35.87,2.29,2.29,0,0,1-1,.52,6.51,6.51,0,0,1-1,.14l-1.06.09h-1.77a1.84,1.84,0,0,1-1.11-.31,1.42,1.42,0,0,1-.49-.92v-1a10.61,10.61,0,0,0-.06-1.27c-.06-.53-.06-1.24-.09-2.11a1.89,1.89,0,0,1,.13-1,1.09,1.09,0,0,1,.76-.54Zm-2.72,1.79v1.08a8.77,8.77,0,0,0,.06,1.16c.06.48.05,1.09.09,1.84l1.86-.19v-3.13a4.11,4.11,0,0,0-.06-.91Zm6.26-2.67c0-.14.13-.27.38-.36a4.49,4.49,0,0,1,.87-.18,3.21,3.21,0,0,1,.88.09c.27.07.4.18.4.34l.06,3.41,2-.13a.79.79,0,0,1,.62.26.8.8,0,0,1,.24.58.82.82,0,0,1-.24.59.79.79,0,0,1-.68.28l-1.93.15.09,6.3q0,.19-.36.33a4,4,0,0,1-.78.19,3.26,3.26,0,0,1-.88-.06c-.27-.06-.4-.19-.4-.39Z"/><path class="cls-12" d="M184.92,439.38l7.84-.19a.84.84,0,0,1,.63.25.78.78,0,0,1,0,1.08,1,1,0,0,1-.67.28l-7.61.22a.73.73,0,0,1-.63-.22.9.9,0,0,1-.23-.56.86.86,0,0,1,.12-.56A.66.66,0,0,1,184.92,439.38Zm6.6,3.28a1.36,1.36,0,0,1,1.71.89,1.66,1.66,0,0,1,.07.49v2.71a1.43,1.43,0,0,1-.38.92,2,2,0,0,1-1.06.48c-.26.05-.6.09-1,.13s-.84.07-1.28.09h-2.74a1.92,1.92,0,0,1-.54-.11,1,1,0,0,1-.4-.25.75.75,0,0,1-.19-.47c-.08-.42-.13-.79-.17-1.12s-.06-.64-.08-.94a8.69,8.69,0,0,0-.05-.89,6.64,6.64,0,0,1,0-1,.38.38,0,0,1,0-.15.88.88,0,0,1,.1-.27.79.79,0,0,1,.19-.26.39.39,0,0,1,.28-.11Zm-2.46-4.56a3.26,3.26,0,0,1-2.55-.94,3.08,3.08,0,0,1-.72-2.47,3.63,3.63,0,0,1,.43-1.4,4,4,0,0,1,.88-1.08,4.12,4.12,0,0,1,1.2-.69,4.21,4.21,0,0,1,1.4-.24,4.13,4.13,0,0,1,1.36.23,3.17,3.17,0,0,1,1.08.67,2.75,2.75,0,0,1,.68,1.07,3.19,3.19,0,0,1,.16,1.44,3.77,3.77,0,0,1-2.54,3.17A4,4,0,0,1,189.06,438.1Zm1.82,6.16-3,.11v.78a8.21,8.21,0,0,0,.09,1.21.42.42,0,0,0,.19.4,1.12,1.12,0,0,0,.63,0l2.08-.16Zm-1.38-11.41a1,1,0,0,0-.83.47,2.5,2.5,0,0,0-.39,1.48,2.11,2.11,0,0,0,.27,1.41.92.92,0,0,0,1.59-.12,4.09,4.09,0,0,0,.33-1.29,2.67,2.67,0,0,0-.17-1.45A.87.87,0,0,0,189.5,432.85Z"/><path class="cls-12" d="M196,438.41l7.84-.18a.75.75,0,0,1,.62.24.75.75,0,0,1,0,1.06l0,0a.81.81,0,0,1-.66.28l-7.61.22a.69.69,0,0,1-.63-.22,1,1,0,0,1-.23-.56.84.84,0,0,1,.12-.56A.69.69,0,0,1,196,438.41Zm.92-6.91,4.7-.27a.79.79,0,0,1,.67.24.78.78,0,0,1,.21.54,1,1,0,0,1-.19.57.79.79,0,0,1-.56.29c-.64.05-1.26.09-1.87.11s-1.13.07-1.58.12l.28,2.45h1.73l.9-.1a3.12,3.12,0,0,0,.75-.15,1,1,0,0,1,.73,0,.6.6,0,0,1,.37.47.71.71,0,0,1,0,.29.94.94,0,0,1-.11.32.8.8,0,0,1-.23.29.61.61,0,0,1-.32.16,8.85,8.85,0,0,1-1.05.19c-.38.05-.78.08-1.19.11l-1.21.05a9.73,9.73,0,0,1-1.08,0,2.72,2.72,0,0,1-1.14-.3,1.09,1.09,0,0,1-.55-.69c-.08-.31-.13-.57-.18-.78s-.08-.42-.11-.63,0-.45-.07-.67v-.94a2.53,2.53,0,0,1,0-.55,1.21,1.21,0,0,1,.15-.5,1.29,1.29,0,0,1,.37-.4A1.52,1.52,0,0,1,197,431.5Zm.81,13.1,3.33-.36.08-1.21-4,.11a.77.77,0,0,1-.69-.22.85.85,0,0,1-.25-.56,1,1,0,0,1,.22-.58.92.92,0,0,1,.68-.27l4.84-.15a1.8,1.8,0,0,1,1.18.24.81.81,0,0,1,.44.76c0,.37-.05.77-.08,1.18s-.08.83-.13,1.24a.91.91,0,0,1-.42.64,2.73,2.73,0,0,1-.93.29h-.3l-.53.06-.91.09-1.43.15a5.29,5.29,0,0,0,.09.8,3.93,3.93,0,0,0,.19.58,8.86,8.86,0,0,0,1.37-.19l1.37-.33a.86.86,0,0,1,.72.1.77.77,0,0,1,.37.57.81.81,0,0,1-.06.57.69.69,0,0,1-.51.39c-.6.15-1.23.28-1.91.39a16.37,16.37,0,0,1-2.11.17c-.75,0-1.2-.26-1.36-.8a2.53,2.53,0,0,1-.24-.53c-.06-.22-.13-.45-.18-.69s-.1-.48-.13-.72,0-.43,0-.65a1.05,1.05,0,0,1,.34-.75A1.58,1.58,0,0,1,197.76,444.6Z"/><path class="cls-12" d="M207.06,438.41l7.84-.18a.8.8,0,0,1,.63.24.78.78,0,0,1,0,1.08.91.91,0,0,1-.67.28l-7.61.22a.65.65,0,0,1-.62-.22.84.84,0,0,1-.24-.56.86.86,0,0,1,.12-.56A.69.69,0,0,1,207.06,438.41Zm1.74,6.17,3.31-.36.09-1.21-4,.11a.79.79,0,0,1-.92-.64.32.32,0,0,1,0-.14.82.82,0,0,1,.89-.85l4.84-.15a1.84,1.84,0,0,1,1.19.24.87.87,0,0,1,.43.76c0,.37-.06.77-.09,1.18s-.07.83-.11,1.24a1.06,1.06,0,0,1-.43.64,2.8,2.8,0,0,1-.93.29h-.3l-.53.06-.9.09-1.44.15a4.27,4.27,0,0,0,.1.8,3,3,0,0,0,.18.58,9.21,9.21,0,0,0,1.37-.19l1.37-.33a.9.9,0,0,1,.73.1.93.93,0,0,1,.37.57.76.76,0,0,1-.08.57.69.69,0,0,1-.51.39c-.58.15-1.22.28-1.91.39a16.37,16.37,0,0,1-2.11.17c-.75,0-1.2-.26-1.36-.8a1.94,1.94,0,0,1-.23-.53c-.07-.22-.13-.45-.19-.69s-.1-.48-.13-.72,0-.43-.05-.65a1.06,1.06,0,0,1,.35-.75,1.57,1.57,0,0,1,1-.3Zm2.3-7.3a3.54,3.54,0,0,1-2.56-.85,2.49,2.49,0,0,1-.69-2.24,2.9,2.9,0,0,1,.42-1.27,3.68,3.68,0,0,1,.89-1,4,4,0,0,1,1.2-.62,4.34,4.34,0,0,1,2.76,0,3.28,3.28,0,0,1,1.08.6,2.27,2.27,0,0,1,.67,1,2.67,2.67,0,0,1,.15,1.31,3.1,3.1,0,0,1-.44,1.29,3.44,3.44,0,0,1-.9,1,3.83,3.83,0,0,1-1.21.61,4.25,4.25,0,0,1-1.38.17Zm.45-4.66a1.12,1.12,0,0,0-.84.41,2.08,2.08,0,0,0-.39,1.27,1.62,1.62,0,0,0,.27,1.19,1,1,0,0,0,.74.33.91.91,0,0,0,.85-.43,3.46,3.46,0,0,0,.34-1.09,1.91,1.91,0,0,0-.19-1.24.89.89,0,0,0-.79-.46Z"/><path class="cls-12" d="M225,443.18l.19-4.13a.29.29,0,0,1,0-.13h-1a1.78,1.78,0,0,1-1.11-.32,1.4,1.4,0,0,1-.49-.91.43.43,0,0,0,0-.16v-.31a7.05,7.05,0,0,0,0-.89c-.05-.42-.06-1.07-.09-1.94a1.89,1.89,0,0,1,.13-1,1.12,1.12,0,0,1,.76-.53l4.48-.33a1.88,1.88,0,0,1,1.33.3,1.33,1.33,0,0,1,.54,1l-.08,3.45a1.25,1.25,0,0,1-.35.87,2.2,2.2,0,0,1-1,.53,4.93,4.93,0,0,1-.67.11.43.43,0,0,1,.18.37l-.14,4,2.29-.11a.75.75,0,0,1,.62.25.93.93,0,0,1,.23.57.78.78,0,0,1-.21.54.85.85,0,0,1-.66.28l-7.62.22a.69.69,0,0,1-.63-.22,1,1,0,0,1-.23-.56.94.94,0,0,1,.13-.57.73.73,0,0,1,.54-.29Zm-.14-8.86.19,3,2-.19v-1.44a14.52,14.52,0,0,0-.11-1.48Z"/><path class="cls-12" d="M235.33,442.14a3.43,3.43,0,0,1-1.49-.3,3,3,0,0,1-1.09-.86,3.37,3.37,0,0,1-.63-1.34,5.5,5.5,0,0,1-.14-1.76,4.88,4.88,0,0,1,.42-1.76,4.36,4.36,0,0,1,.91-1.34,4.08,4.08,0,0,1,1.25-.85,3.48,3.48,0,0,1,1.42-.3,3.24,3.24,0,0,1,2.47,1.12,3.74,3.74,0,0,1,.72,1.33,5.18,5.18,0,0,1,.17,1.8,4.6,4.6,0,0,1-.42,1.79A4.47,4.47,0,0,1,238,441a4,4,0,0,1-1.25.84A3.63,3.63,0,0,1,235.33,442.14Zm.45-6.89c-.33,0-.62.23-.89.7a5.92,5.92,0,0,0-.36,3.16,3.3,3.3,0,0,0,.25.81,1.29,1.29,0,0,0,.36.48.65.65,0,0,0,.41.16.81.81,0,0,0,.53-.2,2.25,2.25,0,0,0,.41-.55,4.6,4.6,0,0,0,.26-.82,6.64,6.64,0,0,0,.09-1,5.89,5.89,0,0,0-.26-2C236.39,435.5,236.12,435.25,235.78,435.25Zm5.17-2.13c0-.14.13-.27.39-.36a3.06,3.06,0,0,1,.86-.18,3.41,3.41,0,0,1,.89.09c.25.07.39.18.39.34v3.41l2-.13a.86.86,0,0,1,.64.26.87.87,0,0,1,.22.58.9.9,0,0,1-.22.59.86.86,0,0,1-.68.28l-1.94.15.09,6.3c0,.13-.13.24-.36.33a4,4,0,0,1-.78.19,3.37,3.37,0,0,1-.89-.06c-.25-.06-.39-.19-.39-.39Z"/><rect class="cls-11" x="67.85" y="460.83" width="224.3" height="20" rx="8.04"/><path class="cls-12" d="M148.86,470.2l7.51-.22a.81.81,0,0,1,.61.2.69.69,0,0,1,.21.49.74.74,0,0,1-.22.49,1,1,0,0,1-.64.27l-2.48.09L153.5,475c0,.18-.16.31-.4.39a2.46,2.46,0,0,1-.85.12,1.54,1.54,0,0,1-.43-.06,1.82,1.82,0,0,1-.39-.14.83.83,0,0,1-.26-.19.32.32,0,0,1-.07-.23l.43-3.31h-2.44a.71.71,0,0,1-.59-.19.83.83,0,0,1-.29-.48.72.72,0,0,1,.11-.47A.84.84,0,0,1,148.86,470.2Zm3.21-.8a3.48,3.48,0,0,1-2.6-.91,3,3,0,0,1-.75-2.51,3.3,3.3,0,0,1,.43-1.43,3.67,3.67,0,0,1,.92-1.08,4.09,4.09,0,0,1,1.23-.67,4.31,4.31,0,0,1,1.42-.23,4.23,4.23,0,0,1,1.37.22,3.19,3.19,0,0,1,1.11.65,2.7,2.7,0,0,1,.72,1.07,3.19,3.19,0,0,1,.17,1.47,3.46,3.46,0,0,1-.45,1.47,3.54,3.54,0,0,1-.93,1.07,4,4,0,0,1-1.25.66,4.52,4.52,0,0,1-1.37.22Zm.44-5.21a1.14,1.14,0,0,0-.88.46,2.35,2.35,0,0,0-.44,1.45,2.58,2.58,0,0,0,.08.83,1.38,1.38,0,0,0,.25.55.81.81,0,0,0,.36.3,1,1,0,0,0,.41.09,1,1,0,0,0,.93-.5,2.37,2.37,0,0,0,.36-1.27,2.83,2.83,0,0,0-.27-1.4.85.85,0,0,0-.78-.51Zm5-.62c0-.14.12-.25.36-.35a3.07,3.07,0,0,1,.83-.21,3.32,3.32,0,0,1,.89,0q.42.09.42.36l.15,11.53c0,.12-.13.23-.39.32a2.8,2.8,0,0,1-.81.18,2.12,2.12,0,0,1-.87,0q-.39-.09-.39-.39Z"/><path class="cls-12" d="M164,465.38l-.34-2.93c0-.16.14-.3.37-.43a2.74,2.74,0,0,1,.79-.27,1.77,1.77,0,0,1,.46,0,2.13,2.13,0,0,1,.44.07,1.29,1.29,0,0,1,.33.17.42.42,0,0,1,.14.27l.34,3.11h1.41a.75.75,0,0,1,.63.25.78.78,0,0,1,.18.55,1,1,0,0,1-.27.56.83.83,0,0,1-.65.24l-5.43.19a1,1,0,0,1-.74-.26,1,1,0,0,1-.29-.6.86.86,0,0,1,.16-.58.74.74,0,0,1,.64-.27Zm.85,8.45a3.33,3.33,0,0,1-1.25-.22,2.59,2.59,0,0,1-1-.62,2.42,2.42,0,0,1-.56-1,2.9,2.9,0,0,1-.1-1.21,3,3,0,0,1,.38-1.21,3.5,3.5,0,0,1,.76-.95,3.32,3.32,0,0,1,1-.61,3.77,3.77,0,0,1,1.25-.21,3.25,3.25,0,0,1,1.15.21,2.84,2.84,0,0,1,1,.6,2.54,2.54,0,0,1,.64.94,2.57,2.57,0,0,1,.14,1.23,3.2,3.2,0,0,1-1.16,2.19,3.3,3.3,0,0,1-1.06.61,3.82,3.82,0,0,1-1.15.25Zm.38-4.5a.78.78,0,0,0-.64.38,2.27,2.27,0,0,0-.31,1.22,1.69,1.69,0,0,0,.22,1.14.74.74,0,0,0,.58.31.69.69,0,0,0,.67-.4,2.92,2.92,0,0,0,.24-1.05,2.24,2.24,0,0,0-.15-1.2.64.64,0,0,0-.61-.4Zm4.28-5.2c0-.15.12-.28.36-.38a2.86,2.86,0,0,1,.81-.22,3.24,3.24,0,0,1,.88,0c.27,0,.41.16.41.34l.07,3.74,1.31-.11-.08-3.86c0-.15.12-.27.35-.37a2.9,2.9,0,0,1,.82-.2,3.31,3.31,0,0,1,.89.06c.27.06.4.17.4.33l.26,11.47c0,.13-.12.25-.35.33a4.13,4.13,0,0,1-.77.19,2.38,2.38,0,0,1-.88-.08c-.26-.07-.38-.21-.38-.41l-.23-5.82-1.3.13.11,4.65c0,.14-.12.25-.35.34a3.45,3.45,0,0,1-.77.18,2.9,2.9,0,0,1-.88-.05c-.26-.06-.38-.2-.38-.39Z"/><path class="cls-12" d="M186.76,463.78a1.87,1.87,0,0,1,1.32.29,1.33,1.33,0,0,1,.54,1,8.34,8.34,0,0,1,0,1v2.84a1.36,1.36,0,0,1-.36.87,2.26,2.26,0,0,1-1,.53,8.3,8.3,0,0,1-1,.14l-1.06.08-1,.05h-.76a1.74,1.74,0,0,1-1.11-.32,1.36,1.36,0,0,1-.49-.91v-.22a3.23,3.23,0,0,1,0-.44,8.35,8.35,0,0,0-.05-1c0-.44-.06-1.12-.1-2a2,2,0,0,1,.13-1,1.14,1.14,0,0,1,.77-.53ZM184,465.6a1.31,1.31,0,0,0,0,.28v.44a6.71,6.71,0,0,0,.05.9c0,.39.06,1,.1,1.72l1.86-.19v-2.49a3,3,0,0,0-.07-.81Zm4.69,11.83a2,2,0,0,1-.6,0,2.07,2.07,0,0,1-.55-.17,1,1,0,0,1-.39-.3.55.55,0,0,1-.13-.41l.26-4.32a.3.3,0,0,1,.12-.25.92.92,0,0,1,.31-.16,2,2,0,0,1,.42-.07h.47a2.77,2.77,0,0,1,.85.2q.38.15.36.42l-.19,3.46,3.78-.15a.83.83,0,0,1,.69.2.72.72,0,0,1,.23.53.77.77,0,0,1-.24.53.86.86,0,0,1-.66.27l-3.52.2-1.23.06Zm1.75-13.93c0-.14.13-.25.39-.35a3,3,0,0,1,.84-.21,2.72,2.72,0,0,1,.9,0c.27.05.41.18.41.38l0,2.72,2-.13a.72.72,0,0,1,.65.23.86.86,0,0,1,0,1.18.89.89,0,0,1-.67.3l-2,.13v3.34c0,.13-.13.24-.37.33a3.1,3.1,0,0,1-.79.17,2.54,2.54,0,0,1-.87,0q-.39-.09-.39-.39Z"/><path class="cls-12" d="M198,468.93l7.84-.18a.77.77,0,0,1,.62.24,1,1,0,0,1,.24.54.85.85,0,0,1-.88.82h0l-7.62.22a.66.66,0,0,1-.62-.22,1,1,0,0,1-.23-.56.79.79,0,0,1,.12-.56A.68.68,0,0,1,198,468.93Zm.91-6.9,4.69-.28a.85.85,0,0,1,.69.24.78.78,0,0,1,.21.54.9.9,0,0,1-.2.57.76.76,0,0,1-.57.29c-.63,0-1.25.09-1.86.11s-1.13.07-1.58.12l.28,2.45h1.74l.9-.1a4,4,0,0,0,.75-.14,1,1,0,0,1,.73,0,.64.64,0,0,1,.37.47,1.41,1.41,0,0,1,0,.29,1.21,1.21,0,0,1-.11.32,1.09,1.09,0,0,1-.23.29.76.76,0,0,1-.32.17q-.47.11-1.05.18c-.38.05-.78.09-1.19.11l-1.21.06h-1.08a2.65,2.65,0,0,1-1.14-.3,1,1,0,0,1-.55-.69q-.12-.47-.18-.78a4.62,4.62,0,0,0-.11-.63c0-.21-.06-.42-.08-.67s0-.55,0-.94a2.53,2.53,0,0,1,0-.55,1.08,1.08,0,0,1,.15-.5,1.18,1.18,0,0,1,.37-.4,1.31,1.31,0,0,1,.56-.23Zm.82,13.07,3.32-.36.09-1.21-4,.12a.78.78,0,0,1-.69-.23.8.8,0,0,1-.24-.56.85.85,0,0,1,.9-.85l4.84-.15a1.8,1.8,0,0,1,1.18.24.83.83,0,0,1,.44.76c0,.38-.06.77-.09,1.19s-.07.82-.12,1.23a.9.9,0,0,1-.43.64,3,3,0,0,1-.93.3h-.29l-.53.06-.91.09-1.38.23a3.57,3.57,0,0,0,.09.8,3.93,3.93,0,0,0,.19.58,9,9,0,0,0,1.37-.19l1.36-.33a.89.89,0,0,1,.73.1.85.85,0,0,1,.37.57.81.81,0,0,1-.06.57.77.77,0,0,1-.51.4c-.6.14-1.24.27-1.91.38a16.68,16.68,0,0,1-2.12.17c-.74,0-1.19-.26-1.36-.8a2.5,2.5,0,0,1-.23-.53q-.1-.35-.18-.69a6,6,0,0,1-.13-.72,3.42,3.42,0,0,1,0-.64,1,1,0,0,1,.34-.76,1.66,1.66,0,0,1,.89-.41Z"/><path class="cls-12" d="M217.6,466.8v-3.14c0-.14.12-.27.36-.37a3,3,0,0,1,.83-.2,4.39,4.39,0,0,1,.89.06c.28.06.41.17.41.33l.19,11.49c0,.12-.13.23-.38.33a3.19,3.19,0,0,1-.81.19,1.87,1.87,0,0,1-.85-.08.52.52,0,0,1-.42-.41l-.15-6.47-1.62.14a.92.92,0,0,1-.72-.19,4.84,4.84,0,0,1-.43,1.71,4.6,4.6,0,0,1-.93,1.34,3.81,3.81,0,0,1-1.26.84,3.63,3.63,0,0,1-1.41.29,3.49,3.49,0,0,1-1.49-.3,3,3,0,0,1-1.08-.86,3.33,3.33,0,0,1-.64-1.34,6.13,6.13,0,0,1-.14-1.76,4.88,4.88,0,0,1,.42-1.76,4.39,4.39,0,0,1,.92-1.34,4,4,0,0,1,1.25-.85,3.48,3.48,0,0,1,1.42-.3,3.36,3.36,0,0,1,1.36.29,3,3,0,0,1,1.11.83,3.61,3.61,0,0,1,.71,1.34,2.65,2.65,0,0,0,.13.54,1,1,0,0,1,.48-.2Zm-5.89-1c-.32,0-.62.23-.88.71a4.46,4.46,0,0,0-.44,2,5.61,5.61,0,0,0,.07,1.16,3.33,3.33,0,0,0,.26.81,1.22,1.22,0,0,0,.36.48.62.62,0,0,0,.41.16.81.81,0,0,0,.53-.2,1.81,1.81,0,0,0,.4-.55,3.4,3.4,0,0,0,.26-.82,7.07,7.07,0,0,0-.17-3c-.18-.53-.45-.78-.8-.78Z"/><path class="cls-12" d="M228.75,469.1c.06.06.07.17,0,.33a1.31,1.31,0,0,1-.28.45l-.31.28a.94.94,0,0,1-.32.19.65.65,0,0,1-.34,0,.84.84,0,0,1-.33-.19l-1-.72a4.58,4.58,0,0,1-.88-.88l-1.82,2.22a.72.72,0,0,1-.68.22,1.46,1.46,0,0,1-.76-.39,1.3,1.3,0,0,1-.38-.46.36.36,0,0,1,0-.42c.3-.33.62-.7,1-1.1a12.63,12.63,0,0,0,1-1.24c.31-.42.66-.84,1-1.25a10.88,10.88,0,0,0,.77-1.1l-3,.34a.85.85,0,0,1-1-.7.09.09,0,0,1,0-.05.87.87,0,0,1,.11-.57.62.62,0,0,1,.46-.29l5-.33a.93.93,0,0,1,.62.23,3,3,0,0,1,.45.55,1.62,1.62,0,0,1,.12.43.5.5,0,0,1-.11.39l-1.56,2Zm-.6,7.56-1.49-1.49-1.08,2.13a.76.76,0,0,1-.67.31,1.9,1.9,0,0,1-.87-.22,2.24,2.24,0,0,1-.51-.41q-.19-.23-.12-.39l2.47-5c.08-.19.26-.28.56-.27a1.86,1.86,0,0,1,.89.25,2.12,2.12,0,0,1,.61.37c.17.15.22.28.16.39l-.49,1,1.34,1.43,1.36-3a.32.32,0,0,1,.19-.23.8.8,0,0,1,.34-.07,1.52,1.52,0,0,1,.42.06,1.7,1.7,0,0,1,.45.15,2.15,2.15,0,0,1,.57.37c.15.15.2.29.14.43l-.52,1.1a.28.28,0,0,0,0,.25.66.66,0,0,0,.18.19l2.2,2a.35.35,0,0,1,.06.4,1.2,1.2,0,0,1-.34.46,1.82,1.82,0,0,1-.7.37.71.71,0,0,1-.73-.22L231,475.6l-.8,1.68a.9.9,0,0,1-.6.42,1.32,1.32,0,0,1-.83-.13,2,2,0,0,1-.52-.34c-.14-.13-.18-.24-.13-.33Zm3-9.59v-1.13l-1.6.13a.91.91,0,0,1-.71-.22.85.85,0,0,1-.14-1.11.73.73,0,0,1,.63-.27l1.76-.14v-.83c0-.15.13-.28.37-.38a3.46,3.46,0,0,1,.83-.2,4.39,4.39,0,0,1,.89.06c.27.06.41.17.41.33l.19,7.36q0,.18-.39.33a3.19,3.19,0,0,1-.81.19,1.72,1.72,0,0,1-.84-.09q-.39-.14-.42-.42l-.11-2-1.66.11a.86.86,0,0,1-.69-.19.89.89,0,0,1-.28-.56.91.91,0,0,1,.14-.58.78.78,0,0,1,.63-.28Z"/><path class="cls-12" d="M236.27,469.9l7.84-.18a.83.83,0,0,1,.63.24.85.85,0,0,1,.23.54.85.85,0,0,1-.88.82l-7.61.22a.69.69,0,0,1-.63-.22,1,1,0,0,1-.23-.56.92.92,0,0,1,.12-.56A.68.68,0,0,1,236.27,469.9Zm4-7.82a.68.68,0,0,1,.65-.26,2.28,2.28,0,0,1,.84.26,1.83,1.83,0,0,1,.5.42.36.36,0,0,1,0,.44h0l-.87,1.28a7.8,7.8,0,0,0,1.06,1.09,10,10,0,0,0,1.3.94.49.49,0,0,1,.2.42.92.92,0,0,1-.18.5,1.5,1.5,0,0,1-.68.51.89.89,0,0,1-.83-.16h0l-1-.73a6.25,6.25,0,0,1-1-.85l-1.41,2.14a.66.66,0,0,1-.63.21,1.86,1.86,0,0,1-.85-.31,2,2,0,0,1-.5-.41c-.12-.14-.14-.27,0-.39.6-.86,1.2-1.75,1.79-2.64s1.2-1.71,1.65-2.46Zm1.81,11.25c0-.15.11-.26.34-.35a2.35,2.35,0,0,1,.83-.12,3.16,3.16,0,0,1,.81.11c.26.08.39.2.4.36v3.82a2.64,2.64,0,0,1-.08.49.85.85,0,0,1-.21.37,1.39,1.39,0,0,1-.43.28,3,3,0,0,1-.72.2,12.09,12.09,0,0,1-1.69.25c-.67.05-1.36.08-2,.08a2.24,2.24,0,0,1-1.19-.3,1.14,1.14,0,0,1-.56-.89c-.1-.63-.18-1.32-.24-2.08s-.1-1.46-.1-2.15c0-.13.13-.25.38-.33a2.53,2.53,0,0,1,.86-.13,2.32,2.32,0,0,1,.86.14c.25.09.38.21.38.36v1.23l2.4-.34Zm0,2.59-2.31.28.09,1.1a2.26,2.26,0,0,0,.52,0l.63-.05a6,6,0,0,0,.61-.12,2.42,2.42,0,0,0,.46-.13Z"/><path class="cls-12" d="M247,470.39c-.08-.39-.14-.81-.19-1.26s-.09-.91-.12-1.38-.06-.92-.07-1.37,0-.86,0-1.24c0-.2.14-.34.41-.41a3,3,0,0,1,.89-.1,3.76,3.76,0,0,1,.88.21c.26.1.39.23.39.41a16.3,16.3,0,0,0,.35,4.69.62.62,0,0,0,.11.17.28.28,0,0,0,.23.07h.66l.74-.06.73-.1.64-.12a1,1,0,0,1,.76.08.86.86,0,0,1,.38.57.68.68,0,0,1-.07.54,1,1,0,0,1-.56.41l-1,.18c-.37.07-.75.11-1.13.15s-.77.06-1.15.08a6.37,6.37,0,0,1-1.07,0,1.82,1.82,0,0,1-1.16-.45A1.62,1.62,0,0,1,247,470.39Zm8-6.87c0-.14.12-.26.37-.36a2.9,2.9,0,0,1,.82-.2,3.32,3.32,0,0,1,.89,0c.28.06.42.18.42.37l.15,11.52q0,.19-.39.33a3.66,3.66,0,0,1-.81.18,2.54,2.54,0,0,1-.87,0q-.39-.09-.39-.39Z"/><path class="cls-12" d="M260.86,464.84l4.69-.28a.85.85,0,0,1,.69.24.78.78,0,0,1,.21.54.9.9,0,0,1-.2.57.8.8,0,0,1-.57.29c-.63,0-1.25.08-1.86.11s-1.13.06-1.58.11l.28,3.91h1.74a2.93,2.93,0,0,0,.9-.09,5,5,0,0,0,.75-.15,1,1,0,0,1,.73,0,.62.62,0,0,1,.37.46,1.5,1.5,0,0,1,0,.3,1,1,0,0,1-.12.32,1,1,0,0,1-.22.28.59.59,0,0,1-.32.17q-.47.11-1.05.18c-.38.05-.78.09-1.19.11l-1.21.06a9.73,9.73,0,0,1-1.08,0,2.5,2.5,0,0,1-1.14-.29,1,1,0,0,1-.55-.68,13.94,13.94,0,0,1-.29-2.14c-.06-.79-.1-1.58-.12-2.35a2.44,2.44,0,0,1,0-.54,1.17,1.17,0,0,1,.52-.91A1.36,1.36,0,0,1,260.86,464.84Zm7.84-1.19c0-.15.13-.27.38-.37a3.2,3.2,0,0,1,.87-.17,2.89,2.89,0,0,1,.88.08c.27.07.4.18.4.34l.06,3.41,2-.13a.8.8,0,0,1,.62.26.83.83,0,0,1,.23.58.9.9,0,0,1-.23.6.82.82,0,0,1-.68.27l-1.93.15.09,6.3c0,.13-.12.25-.36.33a4,4,0,0,1-.78.19,2.62,2.62,0,0,1-.88-.06c-.27-.06-.4-.19-.4-.39Z"/><path class="cls-12" d="M275,474.74a1,1,0,0,1,.44-.9,1.79,1.79,0,0,1,1-.31,1.77,1.77,0,0,1,1,.31,1,1,0,0,1,.43.81,1.17,1.17,0,0,1-.42.94,1.47,1.47,0,0,1-1,.36,1.34,1.34,0,0,1-.52-.1,2,2,0,0,1-.47-.27,1.44,1.44,0,0,1-.32-.38A.86.86,0,0,1,275,474.74Z"/><path class="cls-12" d="M89.65,469.84a.37.37,0,0,1,.1.42,1,1,0,0,1-.29.48,1.76,1.76,0,0,1-.75.45.84.84,0,0,1-.79-.18,5.26,5.26,0,0,1-.9-.8l-.73-.81c-.11.14-.3.37-.6.69s-.7.8-1.23,1.47a1,1,0,0,1-.86.32,1.79,1.79,0,0,1-.83-.34,1.46,1.46,0,0,1-.41-.48.36.36,0,0,1,0-.44c.7-.78,1.39-1.57,2.06-2.38a26.24,26.24,0,0,0,1.83-2.5l-3.08.33a.85.85,0,0,1-.75-.2.94.94,0,0,1-.3-.56.87.87,0,0,1,.11-.57.61.61,0,0,1,.48-.31l5.25-.38a1,1,0,0,1,.66.25,2,2,0,0,1,.51.62.87.87,0,0,1,.1.39.63.63,0,0,1-.12.37c-.18.26-.39.54-.61.83s-.55.69-1,1.21a9.35,9.35,0,0,0,1,1.17C88.92,469.21,89.28,469.53,89.65,469.84Zm0,8.53a2.22,2.22,0,0,1-.63,0,2.7,2.7,0,0,1-.57-.18,1.14,1.14,0,0,1-.41-.31.6.6,0,0,1-.14-.43l.27-4.51a.33.33,0,0,1,.13-.26.76.76,0,0,1,.32-.17,2.14,2.14,0,0,1,.44-.08h.5a3.32,3.32,0,0,1,.88.21c.27.11.39.25.38.43l-.19,3.62,4-.15a.86.86,0,0,1,.72.2.76.76,0,0,1,0,1.09l0,0a1,1,0,0,1-.69.28l-3.68.22-1.29.06Zm2.57-12v-2.55c0-.15.13-.28.38-.39a3.25,3.25,0,0,1,.87-.21,2.42,2.42,0,0,1,.92.13c.28.09.42.23.42.4l.21,9.08q0,.19-.39.33a4.15,4.15,0,0,1-.85.18,2.23,2.23,0,0,1-.89-.06c-.26-.08-.41-.21-.43-.41l-.16-4.73-1.87.14a.87.87,0,0,1-.79-.17,1,1,0,0,1-.14-1.3.81.81,0,0,1,.68-.32Z"/><path class="cls-12" d="M97.94,464.28l4.91-.29a.9.9,0,0,1,.72.25.88.88,0,0,1,.21.56,1,1,0,0,1-.2.6.87.87,0,0,1-.6.3l-1.94.12a15,15,0,0,0-1.66.11l.29,2.94h1.63a5.27,5.27,0,0,0,.81-.1,5.06,5.06,0,0,0,.75-.17,1,1,0,0,1,.76,0,.61.61,0,0,1,.38.48.81.81,0,0,1,0,.31,1.35,1.35,0,0,1-.11.34,1,1,0,0,1-.24.29.7.7,0,0,1-.34.18,17.24,17.24,0,0,1-2.14.31,16.15,16.15,0,0,1-2.2,0,2.62,2.62,0,0,1-1.19-.3,1.11,1.11,0,0,1-.58-.72c-.07-.32-.14-.61-.18-.86s-.08-.53-.12-.79-.06-.55-.08-.84,0-.64,0-1a2.72,2.72,0,0,1,0-.57,1.2,1.2,0,0,1,.15-.53,1.31,1.31,0,0,1,.39-.42A1.74,1.74,0,0,1,97.94,464.28Zm5,10.7,3.41-.37.1-1.26-4.11.11a.82.82,0,0,1-.73-.23.89.89,0,0,1-.24-.58.87.87,0,0,1,.84-.9h.09l5-.16a2,2,0,0,1,1.24.26.88.88,0,0,1,.45.8,6.62,6.62,0,0,1-.08,1.23c-.08.43-.08.87-.13,1.29a1,1,0,0,1-.45.67,2.91,2.91,0,0,1-1,.31H107l-.54.05-.92.1-1.49.16a4.59,4.59,0,0,0,.1.83,3.31,3.31,0,0,0,.19.61,7.38,7.38,0,0,0,1.4-.2c.44-.1.91-.22,1.4-.35a1,1,0,0,1,.76.11,1,1,0,0,1,.32,1.2.73.73,0,0,1-.53.4,20.19,20.19,0,0,1-2,.4,14.47,14.47,0,0,1-2.18.19c-.77,0-1.25-.28-1.42-.84a2.7,2.7,0,0,1-.24-.55c-.07-.23-.13-.47-.19-.72a6.36,6.36,0,0,1-.14-.76c0-.22,0-.45,0-.67a1,1,0,0,1,.36-.79,1.75,1.75,0,0,1,1-.34Zm3.19-11.17c0-.14.14-.26.4-.37a4,4,0,0,1,.89-.21,2.9,2.9,0,0,1,.93,0c.29.06.43.19.43.4l.08,2.78,2.1-.18a.8.8,0,0,1,.65.28.89.89,0,0,1,.24.62,1,1,0,0,1-.24.62.86.86,0,0,1-.69.31l-2,.1v2q0,.21-.39.36a3.88,3.88,0,0,1-.82.18,2.32,2.32,0,0,1-.91,0c-.28-.06-.41-.19-.41-.39Z"/><path class="cls-12" d="M115.78,465.82l-.35-2.67c0-.17.15-.32.39-.46a2.66,2.66,0,0,1,.82-.28,4,4,0,0,1,.49,0,1.42,1.42,0,0,1,.45.08,1.11,1.11,0,0,1,.34.18.4.4,0,0,1,.16.28l.35,2.86h1.67a.76.76,0,0,1,.65.26.84.84,0,0,1,.19.57,1.07,1.07,0,0,1-.27.59.87.87,0,0,1-.68.25l-6.07.2a1,1,0,0,1-.77-.28,1,1,0,0,1-.3-.62.83.83,0,0,1,.16-.61.77.77,0,0,1,.67-.28Zm.9,8.83a4.07,4.07,0,0,1-1.42-.23,2.94,2.94,0,0,1-1.05-.65,2.38,2.38,0,0,1-.62-1,3.16,3.16,0,0,1-.1-1.26,2.87,2.87,0,0,1,.43-1.27,3.93,3.93,0,0,1,.86-1,3.82,3.82,0,0,1,1.17-.64,4,4,0,0,1,1.33-.23,3.94,3.94,0,0,1,1.32.23,3.35,3.35,0,0,1,1.06.63,2.74,2.74,0,0,1,.68,1,2.69,2.69,0,0,1,.15,1.29,2.88,2.88,0,0,1-.44,1.3,4,4,0,0,1-.88,1,4.07,4.07,0,0,1-1.18.63A4.48,4.48,0,0,1,116.68,474.65Zm.41-4.71a1.06,1.06,0,0,0-.81.4,2,2,0,0,0-.42,1.26,1.67,1.67,0,0,0,.28,1.19,1,1,0,0,0,.73.33,1,1,0,0,0,.85-.42,2.23,2.23,0,0,0,.32-1.1,2.16,2.16,0,0,0-.2-1.25A.88.88,0,0,0,117.09,469.94Zm5.58-5.93c0-.16.13-.29.4-.38a3.44,3.44,0,0,1,.9-.19,3.63,3.63,0,0,1,.93.09q.42.11.42.36l.06,3.56,2.12-.14a.83.83,0,0,1,.65.28.89.89,0,0,1,.24.6,1,1,0,0,1-.24.62.87.87,0,0,1-.71.29l-2,.16.1,6.58c0,.14-.12.26-.38.35a4.43,4.43,0,0,1-.8.19,2.9,2.9,0,0,1-.93-.06c-.28-.06-.42-.2-.42-.41Z"/><path class="cls-12" d="M135,464.51a2,2,0,0,1,1.11.22,1.15,1.15,0,0,1,.43.36.61.61,0,0,1,.15.36l-1.36,8.29c-.05.22-.24.36-.55.43a2.8,2.8,0,0,1-1,0,2,2,0,0,1-.74-.24.53.53,0,0,1-.31-.46l1.17-7.26-3.56.18a.79.79,0,0,1-.7-.23.87.87,0,0,1-.05-1.19.9.9,0,0,1,.71-.29Zm3.6-.64c0-.14.12-.27.38-.37a3.28,3.28,0,0,1,.86-.21,3.23,3.23,0,0,1,.93,0c.29.05.43.18.43.38l.16,12c0,.13-.13.24-.4.34a3.07,3.07,0,0,1-.85.18,2.32,2.32,0,0,1-.91,0c-.27-.06-.41-.2-.41-.4Z"/></svg>