<?xml version="1.0" encoding="utf-8"?>
<!-- Generator: Adobe Illustrator 26.0.3, SVG Export Plug-In . SVG Version: 6.00 Build 0)  -->
<svg version="1.1" id="레이어_1" xmlns="http://www.w3.org/2000/svg" xmlns:xlink="http://www.w3.org/1999/xlink" x="0px"
	 y="0px" viewBox="0 0 360 640" style="enable-background:new 0 0 360 640;" xml:space="preserve">
<style type="text/css">
	.st0{fill:#B8B8FF;}
	.st1{fill:#3955E2;}
	.st2{fill:#566CDB;}
	.st3{fill:none;stroke:#97CEFF;stroke-miterlimit:10;stroke-dasharray:1;}
	.st4{fill:#B9DDF1;}
	.st5{fill:#A1B3E3;}
	.st6{fill:#FDC97A;}
	.st7{fill:#F5855A;}
	.st8{fill:#182A85;}
	.st9{opacity:0.49;}
	.st10{fill:#FDFDFF;}
	.st11{opacity:0.5;fill:#B9DDF1;enable-background:new    ;}
	.st12{enable-background:new    ;}
</style>
<circle class="st0" cx="79.7" cy="76.1" r="15.4"/>
<polygon class="st1" points="79.7,80.7 70.1,72.2 72.9,69 79.5,74.8 99.2,55.1 102.2,58.1 "/>
<path class="st2" d="M133.2,70.6l-0.1-2.7l-2.9,0.3c-0.5,0.1-1.1,0-1.5-0.3c-0.6-0.6-0.7-1.6-0.3-2.3c0.3-0.4,0.7-0.6,1.2-0.6
	l3.4-0.3l0.1-2.6c0-0.3,0.2-0.5,0.7-0.7c0.5-0.2,1-0.4,1.6-0.4c0.6,0,1.1,0,1.7,0.1c0.5,0.1,0.8,0.4,0.8,0.8l0.3,16.4
	c0,0.2-0.2,0.5-0.8,0.7c-0.5,0.2-1,0.3-1.6,0.4c-0.6,0.1-1.2,0-1.7-0.1c-0.5-0.1-0.8-0.4-0.8-0.8l-0.1-4.5l-3.2,0.3
	c-0.3,0-0.6,0-0.9-0.1c-0.1,0.1-0.2,0.2-0.2,0.3c-0.4,0.3-0.8,0.4-1.3,0.5l-12.2,0.7c-0.4,0-0.8-0.1-1.1-0.4c-0.3-0.3-0.4-0.6-0.4-1
	c0-0.4,0.1-0.7,0.3-1c0.2-0.3,0.6-0.5,1-0.6l1.3-0.1l-0.6-6.2h-0.6c-0.5,0-0.9-0.2-1.2-0.5c-0.3-0.3-0.4-0.7-0.5-1.1
	c0-0.4,0.1-0.8,0.3-1.1c0.3-0.4,0.8-0.6,1.2-0.6l12-0.9c0.5-0.1,1,0.1,1.4,0.4c0.3,0.3,0.4,0.7,0.5,1.1c0,0.4-0.1,0.8-0.3,1.1
	c-0.2,0.3-0.6,0.5-1,0.5h-0.8v6.4h1.2c0.2,0,0.3,0,0.5,0l0,0c0.3-0.4,0.7-0.6,1.2-0.6L133.2,70.6z M120.3,65.8c0,0.5,0,0.9,0.1,1.4
	c0.1,0.6,0.1,1.1,0.1,1.7s0.1,1.2,0.2,1.7c0,0.5,0.1,0.9,0.1,1.4l1.5-0.1c0-0.4,0-0.8,0.1-1.2c0-0.6,0-1.3,0-1.9v-3.2L120.3,65.8z
	 M128.4,88.9c-0.4,0.1-0.8,0.1-1.2,0c-0.4-0.1-0.7-0.2-1.1-0.3c-0.3-0.1-0.6-0.3-0.8-0.6c-0.2-0.2-0.3-0.5-0.2-0.8l0.5-8.3
	c0-0.2,0.1-0.4,0.2-0.5c0.2-0.1,0.4-0.2,0.6-0.3c0.3-0.1,0.5-0.1,0.8-0.2h0.9c0.6,0,1.1,0.2,1.6,0.4c0.5,0.2,0.7,0.5,0.7,0.8
	l-0.4,6.7l7.3-0.3c0.5-0.1,1,0.1,1.3,0.4c0.6,0.5,0.6,1.4,0.1,1.9c0,0-0.1,0.1-0.1,0.1c-0.3,0.3-0.8,0.5-1.2,0.5l-6.8,0.4
	L128.4,88.9L128.4,88.9z"/>
<path class="st2" d="M148.7,66.7l-6,0.5c-0.5,0.2-1,0.1-1.4-0.3c-0.3-0.3-0.5-0.7-0.5-1.1c0-0.3,0-0.7,0.2-1
	c0.2-0.3,0.5-0.5,0.9-0.6l9.7-0.7c0.4,0,0.8,0.1,1.2,0.4c0.3,0.2,0.6,0.5,0.8,0.9c0.2,0.3,0.3,0.6,0.3,1c0.1,0.3,0,0.6-0.1,0.8
	l-3.1,4.3c0.6,0.8,1.3,1.6,2,2.3c0.7,0.7,1.4,1.4,2.1,2.1c0.2,0.2,0.3,0.5,0.1,0.8c-0.1,0.4-0.3,0.7-0.6,0.9
	c-0.4,0.4-0.9,0.7-1.4,0.8c-0.5,0.1-1,0-1.4-0.4l0,0c-0.7-0.6-1.3-1.2-1.8-1.7s-1-1.1-1.5-1.7l-3.3,4.4c-0.3,0.4-0.8,0.5-1.2,0.4
	c-0.5-0.1-1.1-0.3-1.5-0.7c-0.3-0.2-0.6-0.6-0.8-0.9c-0.2-0.2-0.2-0.6,0-0.8L148.7,66.7z M158.2,62.1c0-0.3,0.2-0.5,0.7-0.7
	c0.5-0.2,1.1-0.3,1.6-0.4c0.6-0.1,1.1,0,1.7,0.1c0.5,0.1,0.8,0.3,0.8,0.7l0.3,22.2c0,0.2-0.2,0.4-0.7,0.6c-0.5,0.2-1,0.3-1.6,0.3
	c-0.6,0.1-1.1,0.1-1.7,0c-0.5-0.1-0.8-0.4-0.8-0.8L158.2,62.1z"/>
<path class="st2" d="M188.3,73.1c0.2,0.2,0.3,0.5,0.2,0.8c-0.1,0.3-0.3,0.6-0.5,0.9c-0.4,0.4-0.9,0.7-1.4,0.8
	c-0.5,0.1-1.1,0-1.4-0.3c-0.6-0.4-1.2-0.9-1.7-1.5c-0.4-0.5-0.8-1-1.4-1.5c-0.3,0.4-0.7,0.9-1.1,1.3c-0.5,0.6-1.3,1.5-2.3,2.7
	c-0.4,0.5-1,0.7-1.6,0.6c-0.6-0.1-1.1-0.3-1.5-0.6c-0.3-0.2-0.6-0.5-0.8-0.9c-0.2-0.2-0.2-0.6,0-0.8c1.3-1.4,2.6-2.9,3.8-4.4
	c1.2-1.5,2.3-3,3.4-4.6l-5.7,0.6c-0.5,0.1-1,0-1.4-0.4c-0.3-0.3-0.5-0.6-0.5-1c0-0.4,0-0.7,0.2-1.1c0.2-0.3,0.5-0.5,0.9-0.6l9.7-0.7
	c0.4,0,0.9,0.2,1.2,0.5c0.4,0.3,0.7,0.7,0.9,1.2c0.1,0.2,0.2,0.5,0.2,0.7c0,0.2-0.1,0.5-0.2,0.7c-0.3,0.5-0.7,1-1.1,1.5
	c-0.4,0.5-1,1.3-1.7,2.2c0.6,0.8,1.2,1.5,1.9,2.2C187,72,187.6,72.6,188.3,73.1z M188.3,88.9c-0.4,0.1-0.8,0.1-1.2,0
	c-0.4-0.1-0.7-0.2-1.1-0.3c-0.3-0.1-0.5-0.3-0.8-0.6c-0.2-0.2-0.3-0.5-0.2-0.8l0.5-8.3c0-0.2,0.1-0.4,0.2-0.5
	c0.2-0.1,0.4-0.2,0.6-0.3c0.3-0.1,0.5-0.1,0.8-0.2h0.9c0.6,0,1.1,0.2,1.6,0.4c0.5,0.2,0.7,0.5,0.7,0.8l-0.4,6.7l7.3-0.3
	c0.5-0.1,1,0.1,1.3,0.4c0.3,0.3,0.4,0.6,0.4,1c0,0.4-0.2,0.7-0.4,1c-0.3,0.3-0.8,0.5-1.3,0.5l-6.8,0.4L188.3,88.9L188.3,88.9z
	 M193,66.7v-4.7c0-0.3,0.2-0.5,0.7-0.7c0.5-0.2,1-0.3,1.6-0.4c0.6,0,1.2,0,1.7,0.2c0.5,0.2,0.8,0.4,0.8,0.7l0.4,16.8
	c0,0.2-0.2,0.4-0.7,0.6c-0.5,0.2-1,0.3-1.6,0.3c-0.5,0.1-1.1,0-1.6-0.1c-0.5-0.1-0.8-0.4-0.8-0.8l-0.3-8.7l-3.4,0.2
	c-0.5,0.1-1,0-1.4-0.3c-0.3-0.3-0.5-0.7-0.6-1.2c0-0.4,0.1-0.9,0.3-1.2c0.3-0.4,0.8-0.6,1.3-0.6L193,66.7z"/>
<path class="st2" d="M203.6,62.9l9-0.5c0.5-0.1,1,0.1,1.3,0.5c0.2,0.3,0.4,0.6,0.4,1c0,0.4-0.1,0.8-0.4,1.1
	c-0.3,0.3-0.7,0.5-1.1,0.6c-1.2,0.1-2.4,0.2-3.6,0.2s-2.2,0.1-3.1,0.2l0.5,5.4h1.5c0.5,0,1,0,1.5-0.1c0.5-0.1,1-0.1,1.5-0.2
	c0.5-0.1,0.9-0.2,1.3-0.3c0.5-0.2,1-0.2,1.4,0c0.4,0.2,0.6,0.5,0.7,0.9c0,0.2,0,0.4,0,0.6c0,0.2-0.1,0.4-0.2,0.6
	c-0.1,0.2-0.2,0.4-0.4,0.6c-0.2,0.2-0.4,0.3-0.6,0.3c-1.3,0.3-2.6,0.5-3.9,0.6c-1.3,0.1-2.7,0.1-4.1,0.1c-0.8,0-1.5-0.2-2.2-0.6
	c-0.5-0.3-0.9-0.7-1.1-1.3c-0.1-0.6-0.3-1.1-0.3-1.6s-0.2-1-0.2-1.5s-0.1-1-0.1-1.5s-0.1-1.2-0.1-1.9c0-0.4,0-0.7,0-1.1
	c0-0.4,0.1-0.7,0.3-1c0.2-0.3,0.4-0.6,0.7-0.8C202.7,62.9,203.1,62.9,203.6,62.9z M212.8,82.6l6.3-0.7l0.2-2.3l-7.6,0.2
	c-0.5,0.1-1-0.1-1.3-0.4c-0.3-0.3-0.4-0.7-0.4-1.1c0-0.4,0.2-0.8,0.4-1.1c0.3-0.4,0.8-0.6,1.3-0.5l9.2-0.3c0.8-0.1,1.6,0.1,2.3,0.5
	c0.5,0.3,0.9,0.9,0.8,1.5c-0.1,0.7-0.1,1.5-0.2,2.3s-0.1,1.6-0.2,2.4c-0.1,0.5-0.4,1-0.8,1.2c-0.6,0.3-1.2,0.5-1.8,0.6l-0.6,0.1
	l-1,0.1l-1.7,0.2l-2.8,0.3c0,0.5,0.1,1,0.2,1.5c0.1,0.4,0.2,0.8,0.4,1.1c0.9,0,1.7-0.2,2.6-0.4c0.8-0.2,1.7-0.4,2.6-0.7
	c0.5-0.1,1-0.1,1.4,0.2c0.4,0.3,0.6,0.6,0.7,1.1c0.1,0.4,0,0.8-0.1,1.1c-0.2,0.4-0.6,0.7-1,0.8c-1.1,0.3-2.4,0.5-3.6,0.7
	c-1.3,0.2-2.7,0.3-4,0.3c-1.4,0-2.3-0.5-2.6-1.5c-0.2-0.3-0.3-0.6-0.4-1c-0.1-0.4-0.2-0.9-0.4-1.3s-0.2-0.9-0.2-1.4
	s-0.1-0.8-0.1-1.2c0-0.6,0.2-1.1,0.7-1.4C211.4,82.9,212.1,82.6,212.8,82.6L212.8,82.6z M218.6,62c0-0.3,0.2-0.5,0.7-0.7
	c0.5-0.2,1.1-0.3,1.6-0.4c0.6-0.1,1.2-0.1,1.7,0c0.5,0.1,0.8,0.3,0.8,0.7l0.1,5.1l3.9-0.3c0.5,0,0.9,0.2,1.2,0.5
	c0.3,0.3,0.5,0.7,0.4,1.2c0,0.4-0.2,0.8-0.4,1.2c-0.3,0.4-0.8,0.6-1.3,0.6l-3.8,0.2v3.6c0,0.3-0.2,0.5-0.7,0.7
	c-0.5,0.2-1,0.3-1.5,0.3c-0.6,0.1-1.1,0.1-1.7-0.1c-0.5-0.1-0.8-0.4-0.8-0.7L218.6,62z"/>
<path class="st2" d="M240.1,74.6h4l0.1-2.4c-0.4-0.1-0.7-0.2-1.1-0.3c-0.8-0.3-1.5-0.7-2.1-1.3c-0.6-0.6-1-1.2-1.2-2
	c-0.3-0.8-0.3-1.7-0.2-2.6c0.1-0.9,0.4-1.8,0.9-2.5c0.5-0.8,1.1-1.4,1.8-2c1.5-1.1,3.3-1.7,5.1-1.7c0.9,0,1.8,0.1,2.6,0.4
	c0.8,0.3,1.5,0.7,2.1,1.3c0.6,0.5,1.1,1.2,1.4,2c0.3,0.8,0.4,1.7,0.3,2.6c-0.1,0.9-0.4,1.8-0.9,2.6c-0.5,0.8-1.1,1.4-1.8,1.9
	c-0.6,0.5-1.3,0.8-2,1.1l-0.1,2.6c1.2-0.1,2.2-0.2,3.1-0.4c0.6-0.1,1.1-0.2,1.7-0.4c0.5-0.2,1-0.1,1.4,0.2c0.4,0.3,0.6,0.7,0.7,1.1
	c0,0.3,0,0.7-0.2,1c-0.2,0.4-0.5,0.6-0.9,0.7l0,0c-1.1,0.4-2.3,0.6-3.4,0.7c-1.2,0.2-2.5,0.2-3.8,0.3h-3.8c-1.3,0-2.4-0.1-3.5-0.1
	c-0.4,0-0.8-0.2-1.1-0.5c-0.2-0.3-0.4-0.6-0.4-1c0-0.4,0.1-0.8,0.3-1.1C239.3,74.7,239.7,74.5,240.1,74.6L240.1,74.6z M246.9,63
	c-0.7,0-1.3,0.3-1.7,0.8c-0.6,0.7-0.9,1.6-0.8,2.6c0,0.5,0,1,0.1,1.5c0.1,0.4,0.3,0.7,0.5,1c0.2,0.2,0.4,0.4,0.7,0.5
	c0.3,0.1,0.5,0.2,0.8,0.2c0.7,0,1.3-0.3,1.7-0.9c0.4-0.7,0.7-1.5,0.8-2.2c0.2-0.9,0-1.8-0.4-2.5C248.1,63.3,247.5,63,246.9,63z
	 M252,90c-0.4,0.1-0.8,0.1-1.1,0c-0.4-0.1-0.7-0.2-1.1-0.3c-0.3-0.1-0.5-0.3-0.8-0.6c-0.2-0.2-0.3-0.5-0.2-0.8l0.5-7
	c0-0.2,0.1-0.4,0.2-0.5c0.2-0.1,0.4-0.2,0.6-0.3c0.3-0.1,0.5-0.1,0.8-0.1h0.9c0.6,0,1.1,0.2,1.6,0.4c0.5,0.2,0.7,0.5,0.7,0.8
	l-0.4,5.3l7.3-0.3c0.5-0.1,1,0.1,1.3,0.4c0.6,0.5,0.6,1.4,0,2c0,0,0,0,0,0l0,0c-0.3,0.3-0.8,0.5-1.3,0.5l-6.8,0.4L252,90z
	 M256.3,62.3c0-0.3,0.2-0.5,0.7-0.7c0.5-0.2,1.1-0.3,1.6-0.3c0.6,0,1.1,0,1.7,0.2c0.5,0.1,0.8,0.4,0.8,0.7l0.1,7.2l3.7-0.2
	c0.5,0,0.9,0.2,1.2,0.5c0.3,0.3,0.4,0.7,0.5,1.1c0,0.4-0.1,0.8-0.4,1.1c-0.3,0.4-0.8,0.6-1.3,0.6l-3.7,0.3l0.1,7
	c0,0.3-0.2,0.5-0.7,0.6c-0.5,0.2-1,0.3-1.5,0.4c-0.6,0.1-1.2,0-1.8-0.1c-0.5-0.1-0.8-0.4-0.8-0.8L256.3,62.3z"/>
<path class="st2" d="M272.8,81.9v-4.5c0-0.3,0.2-0.6,0.7-0.8c0.5-0.2,1-0.3,1.6-0.3c0.5,0,1.1,0.1,1.6,0.3c0.4,0.1,0.7,0.5,0.6,0.8
	v3.3c0,0.4,0,0.7-0.1,1.1h1.6v-1.2c0-0.2,0-0.4,0-0.6c0-0.1,0-0.2,0-0.3v-2.2c0.2-0.4,0.5-0.6,0.9-0.8c0.5-0.2,0.9-0.3,1.4-0.3
	c0.5,0,1.1,0.1,1.6,0.3c0.4,0.1,0.7,0.4,0.7,0.8v2.1c0,0.7-0.1,1.4-0.1,2.1l1.3-0.1c0.3,0,0.6,0,0.9-0.1c0.5,0,0.9,0.1,1.2,0.5
	c0.3,0.3,0.4,0.7,0.5,1.1c0,0.9-0.8,1.6-1.6,1.6c-0.5,0.1-1,0.1-1.5,0.1l-2.9,0.1l-4.5,0.1l-6.4,0.1c-0.4,0.1-0.9-0.1-1.2-0.4
	c-0.3-0.3-0.4-0.7-0.5-1.1c0-0.4,0-0.8,0.2-1.1c0.2-0.3,0.6-0.5,1-0.6h1.4C271.8,81.9,272.4,81.9,272.8,81.9z M274.4,66.8l4.5-0.5
	c0-0.3,0-0.7,0-1c0-0.4,0-0.8,0-1.2h-2.6l-3.1,0.2c-0.4,0.1-0.9,0-1.3-0.3c-0.3-0.3-0.5-0.7-0.5-1.1c0-0.4,0.1-0.8,0.4-1.1
	c0.3-0.4,0.8-0.6,1.3-0.5h0.9l1.3-0.1l2-0.1l3.1-0.1c0.4,0,0.8,0,1.2,0.1c0.4,0.1,0.7,0.2,1.1,0.4c0.3,0.1,0.5,0.3,0.8,0.6
	c0.2,0.2,0.3,0.5,0.3,0.7l-0.4,4.6c-0.1,1-1,1.6-2.5,1.7l-4.5,0.7l0.5,2.3c0.9,0,1.9-0.2,2.9-0.3c1-0.1,2-0.4,3-0.7
	c0.5-0.2,1-0.1,1.4,0.2c0.4,0.3,0.6,0.7,0.7,1.2c0.1,0.4,0,0.8-0.2,1.1c-0.2,0.4-0.6,0.7-1.1,0.7c-1.1,0.2-2.4,0.4-3.9,0.6
	c-1.5,0.2-2.9,0.3-4.2,0.3c-0.7,0-1.4-0.1-2-0.4c-0.5-0.2-0.9-0.7-1.1-1.3c-0.1-0.2-0.1-0.6-0.2-1s-0.2-0.8-0.3-1.2
	s-0.2-0.8-0.2-1.2c-0.1-0.3-0.1-0.7-0.1-1c0-0.6,0.3-1.2,0.8-1.5C273,67.1,273.7,66.9,274.4,66.8L274.4,66.8z"/>
<path class="st2" d="M290,83.8c0-0.7,0.3-1.4,0.9-1.7c0.6-0.4,1.3-0.6,2-0.6c0.7,0,1.3,0.2,1.9,0.6c0.5,0.3,0.9,0.9,0.9,1.6
	c0,0.7-0.3,1.4-0.8,1.8c-0.8,0.7-2,0.9-3,0.5c-0.3-0.1-0.6-0.3-0.9-0.5c-0.3-0.2-0.5-0.5-0.6-0.7C290.1,84.4,290,84.1,290,83.8z
	 M292.8,79.4c-0.6,0-1.1-0.1-1.6-0.3c-0.4-0.1-0.7-0.5-0.8-0.9V63.9c0-0.5,0-1.1,0-1.6c0-0.4,0.4-0.8,0.8-0.9
	c0.5-0.2,1.1-0.3,1.7-0.3c0.5,0,1,0.1,1.5,0.3c0.4,0.1,0.7,0.5,0.7,0.9v15.9c0,0.5-0.3,0.9-0.7,1C293.9,79.4,293.3,79.5,292.8,79.4
	L292.8,79.4z"/>
<path class="st3" d="M244.1,348.9c-42.4-4.8-42.1,22.5-38.9,19.8c6.2-5.3,4.9-19.6-5.7-23.7c-9.2-3.6-20.9,1.9-28.6,8.2
	c-2.3,1.9-4.4,4.1-5,6.7c-0.7,2.7,0.9,5.5,3.6,6.2c2.9,0.5,5.8-0.8,7.3-3.3c1.3-2.3,1.5-4.9,0.7-7.4c-2-7.3-9.8-12.7-18.6-13.1
	c-8.4-0.3-16.4,3.5-24.8,4.9c-18.8,3.3-38.3-7.6-42-23.4c-1.6-6.9,0.8-16,8.7-18.8c6.9-2.4,14.9,1.9,16,8s-4.1,12.7-11,15.1
	c-6.8,2.3-14.3,1.4-20.4-2.5c-5.3-3.6-9.1-9.1-10.6-15.3c-3.6-13.5,2.2-29.1,14.6-39.1"/>
<path class="st4" d="M206.4,260.7c2-7.5,6.3-20.1,12.3-24.9c1.2-1.1,2.7-1.7,4.3-1.8c2.8,0,5.1,2.5,5.8,5.2s0.1,5.6-0.7,8.3
	c2.4-4.4,3.8-8.9,7.3-12.4c1.5-1.4,3.4-2.2,5.4-2.4c3.4-0.2,6.5,1.9,7.5,5.1c0.9,3.1,0.1,6.4-1.1,9.4c1.2-4.4,3.7-8.4,7.1-11.4
	c1.5-1.4,4.8-3.4,7-3c1.6,0.2,3,1.3,3.6,2.9c2,5.2-0.2,16.7-1.7,20"/>
<path class="st5" d="M89.4,262.5c2.2-12.8,8.7-24.4,18.6-32.8c2.2-1.9,5.3-3.7,8-2.4c1.6,0.9,2.6,2.6,2.7,4.4
	c0.1,1.8-0.1,3.6-0.6,5.3c1.7-4,3.6-8.1,7-10.9s8.8-3.5,11.9-0.6s2.7,8.4,1.9,12.8c1.5,1.4,2.9,3,4.1,4.8c2.3,3.2,1.7,7.6-1.5,10
	c-0.6,0.4-1.3,0.8-2,1c-2.4,1-4.9,1.5-7.5,1.7"/>
<path class="st6" d="M201,176.1c0,0,41,28.6,42.4,29.6s0,2.5,0,2.5l-50.8,70.1c0,0-7,10.4-8.6,10.6s-59.3-38.7-60-39.2
	c-0.4-0.4-0.6-1-0.4-1.5c3.7-8.6,36.3-51.5,36.3-51.5S178.1,166.2,201,176.1z"/>
<path class="st7" d="M181,220.2c0,0-6.1-2.8-8.5,3.2s1.5,8.8,6.1,8.5s15.1-0.8,16.5-3s-0.6-10.2-0.6-10.2s-1.7-7-4.7-9.1
	s-8.3,0.9-8.3,0.9c-1.4,1.4-2,3.4-1.5,5.4C180.7,219.4,181,220.2,181,220.2z"/>
<path class="st8" d="M206.4,259.3c-0.6,0-1.1-0.5-1.1-1.1c0,0,0,0,0,0c0-0.2,0.1-0.4,0.2-0.6l17.3-23c0.4-0.4,1.1-0.4,1.6,0
	c0,0,0,0,0,0c0.3,0.3,0.4,0.9,0.2,1.3l-17.3,23C207.1,259.1,206.8,259.3,206.4,259.3z"/>
<path class="st5" d="M249.3,290.7c0,0,1.7-4.9,1.9-7.3s-0.8-5.1-2.9-6.4c-2.5-1.3-5.7-0.3-7,2.2c-0.1,0.2-0.2,0.4-0.3,0.6
	c0.3-1.5-0.6-3.1-2.2-3.4c0,0,0,0,0,0l0,0c-1.5-0.3-3.1,0.2-4.1,1.4c-1,1.1-1.9,2.4-2.5,3.8c1.1-2.2,0.2-4.9-2-6c0,0,0,0,0,0
	c-0.3-0.1-0.6-0.2-0.9-0.3c-2.7-0.5-5.1,1.6-6.8,3.8c-3.4,4.5-5.7,9.8-6.5,15.4v0.2L249.3,290.7z"/>
<g class="st9">
	<circle class="st10" cx="126.7" cy="247.6" r="0.5"/>
	<circle class="st10" cx="131.8" cy="240.4" r="0.5"/>
	<circle class="st10" cx="136.9" cy="233.2" r="0.5"/>
	<circle class="st10" cx="142" cy="226" r="0.5"/>
	<circle class="st10" cx="147" cy="218.8" r="0.5"/>
	<circle class="st10" cx="152.1" cy="211.7" r="0.5"/>
	<circle class="st10" cx="157.2" cy="204.5" r="0.5"/>
	<circle class="st10" cx="162.2" cy="197.3" r="0.5"/>
	<circle class="st10" cx="167.3" cy="190.1" r="0.5"/>
	<circle class="st10" cx="172.4" cy="182.9" r="0.5"/>
	<circle class="st10" cx="177.5" cy="175.8" r="0.5"/>
	<circle class="st10" cx="182.5" cy="168.6" r="0.5"/>
	<circle class="st10" cx="132.5" cy="246.1" r="0.5"/>
	<circle class="st10" cx="138.1" cy="238.2" r="0.5"/>
	<circle class="st10" cx="143.6" cy="230.3" r="0.5"/>
	<circle class="st10" cx="149.2" cy="222.4" r="0.5"/>
	<circle class="st10" cx="154.8" cy="214.5" r="0.5"/>
	<path class="st10" d="M160.4,206.1c0.3,0,0.5,0.2,0.5,0.5c0,0.3-0.2,0.5-0.5,0.5c-0.3,0-0.5-0.2-0.5-0.5
		C159.9,206.3,160.1,206.1,160.4,206.1z"/>
	<circle class="st10" cx="166" cy="198.7" r="0.5"/>
	<circle class="st10" cx="171.5" cy="190.9" r="0.5"/>
	<circle class="st10" cx="177.1" cy="182.9" r="0.5"/>
	<circle class="st10" cx="182.7" cy="175.1" r="0.5"/>
	<circle class="st10" cx="188.3" cy="167.2" r="0.5"/>
</g>
<g class="st9">
	<circle class="st10" cx="134.1" cy="250" r="0.5"/>
	<circle class="st10" cx="139.1" cy="242.9" r="0.5"/>
	<circle class="st10" cx="144.2" cy="235.7" r="0.5"/>
	<circle class="st10" cx="149.3" cy="228.5" r="0.5"/>
	<circle class="st10" cx="154.4" cy="221.3" r="0.5"/>
	<circle class="st10" cx="159.4" cy="214.1" r="0.5"/>
	<path class="st10" d="M164.5,206.4c0.3,0,0.5,0.2,0.5,0.5c0,0.3-0.2,0.5-0.5,0.5c0,0,0,0,0,0c-0.3,0-0.5-0.2-0.5-0.5
		C164,206.7,164.2,206.5,164.5,206.4C164.5,206.4,164.5,206.4,164.5,206.4z"/>
	<circle class="st10" cx="169.6" cy="199.8" r="0.5"/>
	<circle class="st10" cx="174.7" cy="192.6" r="0.5"/>
	<circle class="st10" cx="179.7" cy="185.4" r="0.5"/>
	<circle class="st10" cx="184.8" cy="178.2" r="0.5"/>
	<circle class="st10" cx="189.9" cy="171.1" r="0.5"/>
	<circle class="st10" cx="139.8" cy="248.6" r="0.5"/>
	<circle class="st10" cx="145.4" cy="240.7" r="0.5"/>
	<circle class="st10" cx="151" cy="232.8" r="0.5"/>
	<circle class="st10" cx="156.6" cy="224.9" r="0.5"/>
	<circle class="st10" cx="162.1" cy="217" r="0.5"/>
	<circle class="st10" cx="167.7" cy="209.1" r="0.5"/>
	<circle class="st10" cx="173.3" cy="201.2" r="0.5"/>
	<circle class="st10" cx="178.9" cy="193.3" r="0.5"/>
	<circle class="st10" cx="184.5" cy="185.4" r="0.5"/>
	<circle class="st10" cx="190.1" cy="177.5" r="0.5"/>
	<circle class="st10" cx="195.6" cy="169.6" r="0.5"/>
</g>
<g class="st9">
	<circle class="st10" cx="139" cy="253.2" r="0.5"/>
	<circle class="st10" cx="144.1" cy="246" r="0.5"/>
	<circle class="st10" cx="149.1" cy="238.8" r="0.5"/>
	<circle class="st10" cx="154.2" cy="231.6" r="0.5"/>
	<circle class="st10" cx="159.3" cy="224.4" r="0.5"/>
	<circle class="st10" cx="164.4" cy="217.3" r="0.5"/>
	<circle class="st10" cx="169.4" cy="210.1" r="0.5"/>
	<circle class="st10" cx="174.5" cy="202.9" r="0.5"/>
	<circle class="st10" cx="179.6" cy="195.7" r="0.5"/>
	<circle class="st10" cx="184.6" cy="188.6" r="0.5"/>
	<circle class="st10" cx="189.7" cy="181.4" r="0.5"/>
	<circle class="st10" cx="194.8" cy="174.2" r="0.5"/>
	<circle class="st10" cx="144.7" cy="251.7" r="0.5"/>
	<circle class="st10" cx="150.3" cy="243.8" r="0.5"/>
	<circle class="st10" cx="155.9" cy="235.9" r="0.5"/>
	<circle class="st10" cx="161.5" cy="228" r="0.5"/>
	<circle class="st10" cx="167.1" cy="220.1" r="0.5"/>
	<circle class="st10" cx="172.6" cy="212.2" r="0.5"/>
	<circle class="st10" cx="178.2" cy="204.3" r="0.5"/>
	<circle class="st10" cx="183.8" cy="196.4" r="0.5"/>
	<circle class="st10" cx="189.4" cy="188.6" r="0.5"/>
	<circle class="st10" cx="194.9" cy="180.7" r="0.5"/>
	<circle class="st10" cx="200.5" cy="172.8" r="0.5"/>
</g>
<g class="st9">
	<circle class="st10" cx="144" cy="258" r="0.5"/>
	<circle class="st10" cx="149.1" cy="250.9" r="0.5"/>
	<circle class="st10" cx="154.2" cy="243.7" r="0.5"/>
	<circle class="st10" cx="159.2" cy="236.5" r="0.5"/>
	<circle class="st10" cx="164.3" cy="229.3" r="0.5"/>
	<circle class="st10" cx="169.4" cy="222.2" r="0.5"/>
	<circle class="st10" cx="174.5" cy="215" r="0.5"/>
	<circle class="st10" cx="179.5" cy="207.8" r="0.5"/>
	<circle class="st10" cx="184.6" cy="200.6" r="0.5"/>
	<circle class="st10" cx="189.7" cy="193.4" r="0.5"/>
	<circle class="st10" cx="194.8" cy="186.3" r="0.5"/>
	<circle class="st10" cx="199.8" cy="179.1" r="0.5"/>
	<circle class="st10" cx="149.8" cy="256.6" r="0.5"/>
	<circle class="st10" cx="155.3" cy="248.7" r="0.5"/>
	<circle class="st10" cx="160.9" cy="240.8" r="0.5"/>
	<circle class="st10" cx="166.5" cy="232.9" r="0.5"/>
	<circle class="st10" cx="172.1" cy="225" r="0.5"/>
	<circle class="st10" cx="177.6" cy="217.1" r="0.5"/>
	<circle class="st10" cx="183.2" cy="209.2" r="0.5"/>
	<circle class="st10" cx="188.8" cy="201.3" r="0.5"/>
	<circle class="st10" cx="194.4" cy="193.4" r="0.5"/>
	<circle class="st10" cx="200" cy="185.6" r="0.5"/>
	<circle class="st10" cx="205.6" cy="177.6" r="0.5"/>
</g>
<g class="st9">
	<circle class="st10" cx="149.1" cy="262.9" r="0.5"/>
	<path class="st10" d="M154.1,255.2c0.3,0,0.5,0.2,0.5,0.5s-0.2,0.5-0.5,0.5s-0.5-0.2-0.5-0.5S153.8,255.2,154.1,255.2z"/>
	<circle class="st10" cx="159.2" cy="248.6" r="0.5"/>
	<circle class="st10" cx="164.3" cy="241.4" r="0.5"/>
	<circle class="st10" cx="169.3" cy="234.2" r="0.5"/>
	<circle class="st10" cx="174.4" cy="227.1" r="0.5"/>
	<circle class="st10" cx="179.5" cy="219.9" r="0.5"/>
	<circle class="st10" cx="184.6" cy="212.7" r="0.5"/>
	<circle class="st10" cx="189.6" cy="205.5" r="0.5"/>
	<circle class="st10" cx="194.7" cy="198.3" r="0.5"/>
	<circle class="st10" cx="199.8" cy="191.2" r="0.5"/>
	<circle class="st10" cx="204.9" cy="184" r="0.5"/>
	<circle class="st10" cx="154.8" cy="261.5" r="0.5"/>
	<circle class="st10" cx="160.4" cy="253.6" r="0.5"/>
	<circle class="st10" cx="165.9" cy="245.7" r="0.5"/>
	<circle class="st10" cx="171.5" cy="237.8" r="0.5"/>
	<circle class="st10" cx="177.1" cy="229.9" r="0.5"/>
	<circle class="st10" cx="182.7" cy="222" r="0.5"/>
	<circle class="st10" cx="188.3" cy="214.1" r="0.5"/>
	<circle class="st10" cx="193.9" cy="206.2" r="0.5"/>
	<circle class="st10" cx="199.4" cy="198.3" r="0.5"/>
	<circle class="st10" cx="205" cy="190.4" r="0.5"/>
	<circle class="st10" cx="210.6" cy="182.5" r="0.5"/>
</g>
<g class="st9">
	<circle class="st10" cx="159.1" cy="272.7" r="0.5"/>
	<circle class="st10" cx="164.2" cy="265.5" r="0.5"/>
	<circle class="st10" cx="169.3" cy="258.4" r="0.5"/>
	<circle class="st10" cx="174.3" cy="251.2" r="0.5"/>
	<circle class="st10" cx="179.4" cy="244" r="0.5"/>
	<circle class="st10" cx="184.5" cy="236.8" r="0.5"/>
	<circle class="st10" cx="189.6" cy="229.6" r="0.5"/>
	<circle class="st10" cx="194.6" cy="222.5" r="0.5"/>
	<circle class="st10" cx="199.7" cy="215.3" r="0.5"/>
	<circle class="st10" cx="204.8" cy="208.1" r="0.5"/>
	<circle class="st10" cx="209.9" cy="200.9" r="0.5"/>
	<circle class="st10" cx="214.9" cy="193.8" r="0.5"/>
	<circle class="st10" cx="164.9" cy="271.3" r="0.5"/>
	<circle class="st10" cx="170.4" cy="263.4" r="0.5"/>
	<path class="st10" d="M176,255c0.3,0,0.5,0.2,0.5,0.5s-0.2,0.5-0.5,0.5s-0.5-0.2-0.5-0.5S175.7,255,176,255z"/>
	<circle class="st10" cx="181.6" cy="247.6" r="0.5"/>
	<circle class="st10" cx="187.2" cy="239.7" r="0.5"/>
	<circle class="st10" cx="192.8" cy="231.8" r="0.5"/>
	<circle class="st10" cx="198.3" cy="223.9" r="0.5"/>
	<circle class="st10" cx="203.9" cy="216" r="0.5"/>
	<circle class="st10" cx="209.5" cy="208.1" r="0.5"/>
	<circle class="st10" cx="215.1" cy="200.2" r="0.5"/>
	<circle class="st10" cx="220.7" cy="192.3" r="0.5"/>
</g>
<g class="st9">
	<circle class="st10" cx="164.2" cy="277.6" r="0.5"/>
	<circle class="st10" cx="169.2" cy="270.4" r="0.5"/>
	<circle class="st10" cx="174.3" cy="263.2" r="0.5"/>
	<circle class="st10" cx="179.4" cy="256.1" r="0.5"/>
	<circle class="st10" cx="184.4" cy="248.9" r="0.5"/>
	<circle class="st10" cx="189.5" cy="241.7" r="0.5"/>
	<circle class="st10" cx="194.6" cy="234.5" r="0.5"/>
	<circle class="st10" cx="199.7" cy="227.4" r="0.5"/>
	<circle class="st10" cx="204.7" cy="220.2" r="0.5"/>
	<circle class="st10" cx="209.8" cy="213" r="0.5"/>
	<circle class="st10" cx="214.9" cy="205.8" r="0.5"/>
	<circle class="st10" cx="220" cy="198.6" r="0.5"/>
	<circle class="st10" cx="169.9" cy="276.2" r="0.5"/>
	<circle class="st10" cx="175.5" cy="268.3" r="0.5"/>
	<circle class="st10" cx="181.1" cy="260.4" r="0.5"/>
	<circle class="st10" cx="186.6" cy="252.5" r="0.5"/>
	<circle class="st10" cx="192.2" cy="244.6" r="0.5"/>
	<circle class="st10" cx="197.8" cy="236.7" r="0.5"/>
	<circle class="st10" cx="203.4" cy="228.8" r="0.5"/>
	<circle class="st10" cx="209" cy="220.9" r="0.5"/>
	<circle class="st10" cx="214.5" cy="213" r="0.5"/>
	<circle class="st10" cx="220.1" cy="205.1" r="0.5"/>
	<circle class="st10" cx="225.7" cy="197.2" r="0.5"/>
</g>
<g class="st9">
	
		<ellipse transform="matrix(0.9999 -1.448573e-02 1.448573e-02 0.9999 -4.043 2.5269)" class="st10" cx="172.4" cy="280.4" rx="0.5" ry="0.5"/>
	
		<ellipse transform="matrix(0.9999 -1.448573e-02 1.448573e-02 0.9999 -3.9321 2.6036)" class="st10" cx="177.8" cy="272.7" rx="0.5" ry="0.5"/>
	
		<ellipse transform="matrix(0.9999 -1.448573e-02 1.448573e-02 0.9999 -3.8212 2.6799)" class="st10" cx="183.1" cy="265.1" rx="0.5" ry="0.5"/>
	
		<ellipse transform="matrix(0.9999 -1.448573e-02 1.448573e-02 0.9999 -3.7104 2.7566)" class="st10" cx="188.4" cy="257.5" rx="0.5" ry="0.5"/>
	
		<ellipse transform="matrix(0.9999 -1.448573e-02 1.448573e-02 0.9999 -3.5995 2.8333)" class="st10" cx="193.8" cy="249.9" rx="0.5" ry="0.5"/>
	
		<ellipse transform="matrix(0.9999 -1.448573e-02 1.448573e-02 0.9999 -3.4886 2.9098)" class="st10" cx="199.1" cy="242.3" rx="0.5" ry="0.5"/>
	
		<ellipse transform="matrix(0.9999 -1.448573e-02 1.448573e-02 0.9999 -3.3778 2.9863)" class="st10" cx="204.5" cy="234.7" rx="0.5" ry="0.5"/>
	
		<ellipse transform="matrix(0.9999 -1.448573e-02 1.448573e-02 0.9999 -3.2668 3.0627)" class="st10" cx="209.8" cy="227" rx="0.5" ry="0.5"/>
	
		<ellipse transform="matrix(0.9999 -1.448573e-02 1.448573e-02 0.9999 -3.1559 3.1394)" class="st10" cx="215.1" cy="219.4" rx="0.5" ry="0.5"/>
	
		<ellipse transform="matrix(0.9999 -1.448573e-02 1.448573e-02 0.9999 -3.0451 3.216)" class="st10" cx="220.5" cy="211.8" rx="0.5" ry="0.5"/>
	
		<ellipse transform="matrix(0.9999 -1.448573e-02 1.448573e-02 0.9999 -2.9343 3.2927)" class="st10" cx="225.8" cy="204.2" rx="0.5" ry="0.5"/>
	
		<ellipse transform="matrix(0.9999 -9.999500e-03 9.999500e-03 0.9999 -2.789 1.7806)" class="st10" cx="176.7" cy="279.8" rx="0.5" ry="0.5"/>
	
		<ellipse transform="matrix(0.9999 -1.448573e-02 1.448573e-02 0.9999 -3.9114 2.6829)" class="st10" cx="183.2" cy="271.3" rx="0.5" ry="0.5"/>
	
		<ellipse transform="matrix(0.9999 -1.448573e-02 1.448573e-02 0.9999 -3.8005 2.7594)" class="st10" cx="188.6" cy="263.7" rx="0.5" ry="0.5"/>
	<path class="st10" d="M193.9,255.6c0.3,0,0.5,0.2,0.5,0.5c0,0.3-0.2,0.5-0.5,0.5c-0.3,0-0.5-0.2-0.5-0.5S193.6,255.6,193.9,255.6z"
		/>
	
		<ellipse transform="matrix(0.9999 -1.448573e-02 1.448573e-02 0.9999 -3.5788 2.9123)" class="st10" cx="199.2" cy="248.5" rx="0.5" ry="0.5"/>
	
		<ellipse transform="matrix(0.9999 -1.448573e-02 1.448573e-02 0.9999 -3.4679 2.989)" class="st10" cx="204.6" cy="240.9" rx="0.5" ry="0.5"/>
	
		<ellipse transform="matrix(0.9999 -1.448573e-02 1.448573e-02 0.9999 -3.3571 3.0657)" class="st10" cx="209.9" cy="233.3" rx="0.5" ry="0.5"/>
	
		<ellipse transform="matrix(0.9999 -1.448573e-02 1.448573e-02 0.9999 -3.2462 3.1423)" class="st10" cx="215.3" cy="225.7" rx="0.5" ry="0.5"/>
	
		<ellipse transform="matrix(0.9999 -1.448573e-02 1.448573e-02 0.9999 -3.1353 3.2188)" class="st10" cx="220.6" cy="218" rx="0.5" ry="0.5"/>
	
		<ellipse transform="matrix(0.9999 -1.448573e-02 1.448573e-02 0.9999 -3.0244 3.2955)" class="st10" cx="226" cy="210.4" rx="0.5" ry="0.5"/>
	
		<ellipse transform="matrix(0.9999 -1.448573e-02 1.448573e-02 0.9999 -2.9136 3.372)" class="st10" cx="231.3" cy="202.8" rx="0.5" ry="0.5"/>
</g>
<g class="st9">
	<circle class="st10" cx="179.5" cy="284.9" r="0.5"/>
	<circle class="st10" cx="184.6" cy="277.8" r="0.5"/>
	<circle class="st10" cx="189.6" cy="270.6" r="0.5"/>
	<circle class="st10" cx="194.7" cy="263.4" r="0.5"/>
	<circle class="st10" cx="199.8" cy="256.2" r="0.5"/>
	<circle class="st10" cx="204.9" cy="249.1" r="0.5"/>
	<circle class="st10" cx="209.9" cy="241.9" r="0.5"/>
	<circle class="st10" cx="215" cy="234.7" r="0.5"/>
	<circle class="st10" cx="220.1" cy="227.5" r="0.5"/>
	<circle class="st10" cx="225.2" cy="220.3" r="0.5"/>
	<circle class="st10" cx="230.2" cy="213.2" r="0.5"/>
	<circle class="st10" cx="235.3" cy="206" r="0.5"/>
	<circle class="st10" cx="185.2" cy="283.5" r="0.5"/>
	<circle class="st10" cx="190.8" cy="275.6" r="0.5"/>
	<circle class="st10" cx="196.4" cy="267.7" r="0.5"/>
	<circle class="st10" cx="202" cy="259.8" r="0.5"/>
	<circle class="st10" cx="207.6" cy="251.9" r="0.5"/>
	<circle class="st10" cx="213.1" cy="244" r="0.5"/>
	<circle class="st10" cx="218.7" cy="236.1" r="0.5"/>
	<circle class="st10" cx="224.3" cy="228.2" r="0.5"/>
	<circle class="st10" cx="229.9" cy="220.3" r="0.5"/>
	<circle class="st10" cx="235.5" cy="212.4" r="0.5"/>
	<path class="st10" d="M241.1,204c0.3,0,0.5,0.2,0.5,0.5c0,0.3-0.2,0.5-0.5,0.5c-0.3,0-0.5-0.2-0.5-0.5c0,0,0,0,0,0
		C240.5,204.2,240.8,204,241.1,204z"/>
</g>
<path class="st8" d="M136.6,244.3c-0.6,0-1.1-0.5-1.1-1.1c0-0.5,0.3-0.9,0.8-1l37.2-12.1c0.6-0.2,1.2,0.1,1.4,0.7
	c0.2,0.6-0.1,1.2-0.7,1.4c0,0,0,0,0,0L137,244.2C136.9,244.3,136.8,244.3,136.6,244.3z"/>
<path class="st8" d="M196.2,223.8c-0.6,0-1.1-0.5-1.1-1.1c0-0.5,0.3-0.9,0.7-1l34.6-12.1c0.6-0.2,1.2,0.1,1.4,0.7
	c0.2,0.6-0.1,1.2-0.7,1.4c0,0,0,0,0,0l-34.6,12.1C196.5,223.8,196.4,223.8,196.2,223.8z"/>
<path class="st8" d="M183.9,270.2L183.9,270.2c-0.6-0.1-1.1-0.6-1.1-1.1l0,0l1.9-37c0.1-0.6,0.6-1,1.2-1c0.5,0.1,0.9,0.5,1,1.1
	l-1.9,37C185,269.8,184.5,270.2,183.9,270.2z"/>
<path class="st8" d="M187.7,209.8c-0.6,0-1.1-0.5-1.1-1.1v0v-14.2c0.1-0.6,0.6-1.1,1.2-1c0.5,0.1,0.9,0.5,1,1v14.2
	C188.8,209.3,188.3,209.8,187.7,209.8C187.7,209.8,187.7,209.8,187.7,209.8z"/>
<path class="st8" d="M181.6,221.3c-0.4,0-0.7-0.2-0.9-0.5c-0.1-0.2-2.5-4.2-1.4-8c0.7-2,2.2-3.6,4.2-4.4c1.9-1,4.1-1,6-0.2
	c3.4,1.7,4.6,6.1,4.6,6.3c0.2,0.6-0.2,1.2-0.7,1.4s-1.2-0.2-1.4-0.7V215c0,0-1-3.6-3.5-4.8c-1.3-0.6-2.9-0.5-4.2,0.2
	c-1.4,0.5-2.5,1.6-3,3c-0.9,2.8,1.1,6.1,1.1,6.2c0.3,0.5,0.1,1.2-0.4,1.5C181.9,221.2,181.7,221.2,181.6,221.3L181.6,221.3z"/>
<g class="st9">
	<circle class="st10" cx="154.1" cy="267.8" r="0.5"/>
	<circle class="st10" cx="159.2" cy="260.7" r="0.5"/>
	<circle class="st10" cx="164.2" cy="253.5" r="0.5"/>
	<circle class="st10" cx="169.3" cy="246.3" r="0.5"/>
	<circle class="st10" cx="174.4" cy="239.1" r="0.5"/>
	<circle class="st10" cx="179.5" cy="231.9" r="0.5"/>
	<circle class="st10" cx="184.5" cy="224.8" r="0.5"/>
	<circle class="st10" cx="189.6" cy="217.6" r="0.5"/>
	<circle class="st10" cx="194.7" cy="210.4" r="0.5"/>
	<circle class="st10" cx="199.8" cy="203.2" r="0.5"/>
	<circle class="st10" cx="204.8" cy="196.1" r="0.5"/>
	<circle class="st10" cx="209.9" cy="188.9" r="0.5"/>
	<circle class="st10" cx="159.8" cy="266.4" r="0.5"/>
	<circle class="st10" cx="165.4" cy="258.5" r="0.5"/>
	<circle class="st10" cx="171" cy="250.6" r="0.5"/>
	<circle class="st10" cx="176.6" cy="242.7" r="0.5"/>
	<circle class="st10" cx="182.1" cy="234.8" r="0.5"/>
	<circle class="st10" cx="187.7" cy="226.9" r="0.5"/>
	<circle class="st10" cx="193.3" cy="219" r="0.5"/>
	<circle class="st10" cx="198.9" cy="211.1" r="0.5"/>
	<circle class="st10" cx="204.5" cy="203.2" r="0.5"/>
	<circle class="st10" cx="210" cy="195.3" r="0.5"/>
	<circle class="st10" cx="215.6" cy="187.4" r="0.5"/>
</g>
<path class="st8" d="M182.3,233.2c-4.8,0-8.9-1-10.3-3.1c-2.6-3.9-0.1-7.8,0-8c0.4-0.5,1.1-0.6,1.5-0.3c0.5,0.3,0.6,1,0.3,1.4l0,0
	c-0.1,0.1-1.8,3,0,5.6c1.6,2.4,12.5,3.2,20.4-0.1c0.4-3.1,0.3-6.2-0.1-9.3c-0.1-0.6,0.3-1.2,0.9-1.3c0.6-0.1,1.2,0.3,1.3,0.9l0,0
	c0.5,3.5,0.5,7.1,0,10.6l-0.1,0.6l-0.5,0.2C191.5,232.3,186.9,233.2,182.3,233.2z"/>
<path class="st4" d="M130.6,198.4c3.4-12.7,10.7-34,20.8-42.1c2-1.8,4.6-2.9,7.3-3c4.7,0.1,8.6,4.3,9.8,8.9s0.2,9.4-1.1,14
	c4-7.4,6.4-15,12.3-21c2.5-2.3,5.7-3.8,9.2-4.1c5.4-0.6,11.1,3.4,12.6,8.6s0.1,10.9-1.8,16c2-7.5,6.2-14.2,12-19.3
	c2.6-2.3,8.1-5.8,11.7-5c3.4,0.7,5.1,2.4,6.1,4.9c3.3,8.8-0.3,28.2-3,33.8"/>
<path class="st8" d="M167.2,177c-0.1,0-0.2,0-0.3,0c-0.6-0.2-0.9-0.8-0.7-1.4l1.9-5.8c0.2-0.6,0.8-0.9,1.4-0.7s0.9,0.8,0.7,1.4l0,0
	l-1.9,5.8C168.1,176.7,167.7,177,167.2,177z"/>
<path class="st8" d="M201.5,174.5h-0.2c-0.6-0.1-1-0.7-0.9-1.3l1.3-6.8c0.1-0.6,0.7-1,1.3-0.8c0,0,0,0,0,0c0.6,0.1,0.9,0.7,0.8,1.2
	l-1.3,6.8C202.5,174.1,202,174.5,201.5,174.5z"/>
<path class="st8" d="M162,196.6c-0.6,0-1.1-0.4-1.1-1c0,0,0,0,0,0c0-0.6,0.5-1.1,1.1-1.1l43.9-3.1c0.6,0,1.1,0.4,1.2,1
	c0,0.6-0.4,1.1-1,1.2l0,0l-43.9,3.1H162z"/>
<path class="st4" d="M124.5,291.1c-3.2-0.4,0.2-6.4,1.6-9.2c1.5-2.8,3.5-5.3,6-7.3c1.4-1.3,3-2.3,4.8-2.9c1.8-0.6,3.8-0.2,5.3,1
	c1.4,1.3,1.5,3.5,0.3,5c0.8-3.7,3.4-6.8,7-8.1c1.3-0.5,2.8-0.6,4.1-0.4c1.4,0.3,2.6,1.3,3.1,2.6c0.5,1.3,0.1,2.9-1,3.8
	c0.5-1.9,1.3-3.6,2.5-5.1c1.2-1.5,3-2.5,4.9-2.5c2.9,0,5.3,2.4,6.3,5.1s0.7,5.7,0.5,8.6c0,0,0.1,1.5-5.2,2.5S126,291,126,291
	S125.8,291.2,124.5,291.1z"/>
<path class="st8" d="M169.6,279.5c-0.6,0-1.1-0.5-1.1-1.1c0,0,0,0,0,0l0,0c0-1.2,0-1.9-0.1-2.6s0-1.4-0.1-2.6c0.1-1-0.2-2.1-0.7-3
	c-0.9-1-2.9-1.4-4.8-1.1c-0.6,0.1-1.2-0.2-1.3-0.8c0,0,0,0,0,0c-0.1-0.6,0.2-1.2,0.8-1.3c0,0,0,0,0,0h0.1c2.3-0.5,5.3-0.1,6.9,1.7
	c0.9,1.2,1.4,2.8,1.2,4.4c0,1.2,0.1,1.9,0.1,2.6s0,1.4,0.1,2.6C170.7,278.9,170.2,279.4,169.6,279.5
	C169.6,279.4,169.6,279.4,169.6,279.5L169.6,279.5L169.6,279.5z"/>
<path class="st8" d="M142.8,280.3h-0.3c-0.8-0.2-1.3-0.9-1.1-1.7c0,0,0,0,0,0l0,0l0.8-3.8c0.2-0.8,0.9-1.3,1.7-1.1s1.3,0.9,1.1,1.7
	l0,0l-0.8,3.8C144.1,279.8,143.5,280.3,142.8,280.3z"/>
<path class="st8" d="M156.2,277.8H156c-0.6-0.1-1-0.7-0.9-1.3c0,0,0,0,0,0l0,0l0.8-3.8c0.2-0.6,0.8-0.9,1.4-0.7
	c0.5,0.2,0.8,0.6,0.8,1.2l-0.8,3.8C157.2,277.5,156.7,277.8,156.2,277.8z"/>
<path class="st4" d="M264.7,364c0.6-0.5,5.9-7.1,6.5-8c0,0,0.1,0,0.1,0c0,0,0,0,0,0l1,5.2c0,0.1,0.1,0.1,0.1,0l1.1-6.9l0,0l7-4.3
	c0,0,0,0,0,0c0,0,0-0.1,0-0.1l-27.5-4.6c0,0,0,0,0,0.1c0,0,0,0,0,0l20.2,8.7c0,0,0,0,0,0.1l-0.8,5.5c0,0.1-0.1,0.1-0.1,0l-0.8-4.4
	l0,0l-18.7-9.7c0,0-0.1,0-0.1,0c0,0,0,0.1,0,0.1L264.7,364C264.6,364,264.7,364,264.7,364z"/>
<polygon class="st11" points="272.4,361.3 252.7,345.8 271.4,356 "/>
<g class="st12">
	<path class="st2" d="M112.1,458.9c0,0.4-0.2,0.7-0.6,1c-0.2,0.1-0.4,0.3-0.7,0.4c-0.3,0.2-0.5,0.3-0.9,0.5l-5.5,3.3
		c-0.2,0.1-0.5,0.1-0.7,0c-0.3-0.2-0.5-0.4-0.6-0.7c-0.2-0.3-0.3-0.6-0.3-0.9c0-0.3,0.1-0.5,0.3-0.7l1.6-0.9
		c0.7-0.4,1.3-0.8,1.9-1.1c0.6-0.4,1.3-0.7,1.8-1c-0.7-0.5-1.5-0.9-2.2-1.3s-1.5-0.8-2.3-1.2c-0.1-0.1-0.3-0.1-0.5-0.2
		c-0.2-0.1-0.3-0.2-0.5-0.2c-0.3-0.1-0.4-0.3-0.4-0.6c0-0.3,0.1-0.6,0.3-0.8c0.2-0.3,0.4-0.5,0.8-0.6c0.3-0.1,0.6-0.1,0.9,0.1
		c0.5,0.3,1,0.6,1.5,0.9c0.5,0.3,1,0.6,1.5,0.8c0.6,0.3,1.2,0.7,1.8,1c0.6,0.4,1.3,0.7,1.9,1.2c0.2,0.2,0.4,0.3,0.5,0.5
		C112.1,458.6,112.1,458.8,112.1,458.9z"/>
	<path class="st2" d="M122.9,458.9c0,0.4-0.2,0.7-0.6,1c-0.2,0.1-0.4,0.3-0.7,0.4c-0.3,0.2-0.5,0.3-0.9,0.5l-5.5,3.3
		c-0.2,0.1-0.5,0.1-0.7,0c-0.3-0.2-0.5-0.4-0.6-0.7c-0.2-0.3-0.3-0.6-0.3-0.9c0-0.3,0.1-0.5,0.3-0.7l1.6-0.9
		c0.7-0.4,1.3-0.8,1.9-1.1c0.6-0.4,1.3-0.7,1.8-1c-0.7-0.5-1.5-0.9-2.2-1.3s-1.5-0.8-2.3-1.2c-0.1-0.1-0.3-0.1-0.5-0.2
		c-0.2-0.1-0.3-0.2-0.5-0.2c-0.3-0.1-0.4-0.3-0.4-0.6c0-0.3,0.1-0.6,0.3-0.8c0.2-0.3,0.4-0.5,0.8-0.6c0.3-0.1,0.6-0.1,0.9,0.1
		c0.5,0.3,1,0.6,1.5,0.9c0.5,0.3,1,0.6,1.5,0.8c0.6,0.3,1.2,0.7,1.8,1c0.6,0.4,1.3,0.7,1.9,1.2c0.2,0.2,0.4,0.3,0.5,0.5
		C122.9,458.6,122.9,458.8,122.9,458.9z"/>
	<path class="st2" d="M132.7,463.4l0-1.8c-0.6-0.1-1.1-0.4-1.4-0.7c-0.6-0.6-0.8-1.3-0.7-2.3c0-0.5,0.2-0.9,0.4-1.3
		c0.2-0.4,0.6-0.7,1-1c0.4-0.3,0.9-0.5,1.4-0.6c0.5-0.2,1-0.2,1.6-0.2c0.5,0,1,0.1,1.5,0.2c0.5,0.1,0.8,0.3,1.2,0.6s0.6,0.6,0.7,1
		s0.2,0.9,0.1,1.4c0,0.5-0.2,0.9-0.5,1.3s-0.6,0.7-1,1c-0.3,0.2-0.7,0.4-1,0.5l-0.1,1.9c0.6,0,1.1,0,1.7-0.1
		c0.5-0.1,1.1-0.1,1.6-0.2h0c0.4-0.1,0.7,0,1,0.2c0.2,0.2,0.4,0.4,0.5,0.7c0,0.2,0,0.5-0.1,0.7c-0.1,0.2-0.4,0.4-0.7,0.5
		c-0.2,0.1-0.6,0.2-1.1,0.3c-0.5,0.1-1.1,0.1-1.7,0.2s-1.3,0.1-2.1,0.1s-1.4,0-2.1,0s-1.2,0-1.7,0c-0.5,0-0.9,0-1.1,0
		c-0.3,0-0.6-0.1-0.7-0.4s-0.3-0.5-0.3-0.7c0-0.3,0.1-0.5,0.2-0.7c0.2-0.2,0.4-0.3,0.8-0.3L132.7,463.4z M132.9,452.5l-0.3-2.1
		c0-0.2,0.1-0.4,0.4-0.5c0.3-0.2,0.6-0.3,1-0.3c0.4-0.1,0.8-0.1,1.2,0c0.4,0.1,0.6,0.3,0.6,0.6l0.3,2.3l1.8,0c0.4,0,0.6,0.1,0.8,0.3
		c0.2,0.2,0.2,0.5,0.2,0.7c0,0.3-0.1,0.5-0.3,0.7c-0.2,0.2-0.5,0.3-0.8,0.3l-7,0.2c-0.4,0-0.7-0.1-0.9-0.3c-0.2-0.2-0.3-0.5-0.3-0.8
		c0-0.3,0.1-0.5,0.2-0.8s0.5-0.3,0.9-0.3H132.9z M134.5,457.4c-0.3,0-0.6,0.1-0.8,0.3c-0.2,0.2-0.4,0.5-0.4,1c0,0.4,0.1,0.7,0.3,0.9
		c0.2,0.2,0.5,0.3,0.7,0.3c0.4,0,0.7-0.1,0.9-0.3s0.3-0.5,0.3-0.8c0-0.4,0-0.7-0.2-1C135.2,457.5,134.9,457.4,134.5,457.4z
		 M141.2,452.1c0-0.2,0.2-0.3,0.5-0.5c0.3-0.1,0.7-0.2,1.1-0.2c0.4,0,0.8,0,1.1,0.1s0.5,0.2,0.5,0.4l0.1,5.8l2.4-0.2
		c0.4,0,0.6,0.1,0.8,0.3c0.2,0.2,0.3,0.5,0.3,0.8c0,0.3-0.1,0.5-0.3,0.8c-0.2,0.2-0.5,0.4-0.8,0.4l-2.4,0.2l0.1,6.7
		c0,0.2-0.2,0.3-0.5,0.4s-0.6,0.2-1,0.2c-0.4,0-0.8,0-1.2-0.1c-0.3-0.1-0.5-0.2-0.5-0.5L141.2,452.1z"/>
	<path class="st2" d="M161.9,457.5l0-1.8l-2,0.2c-0.4,0.1-0.7,0-1-0.2c-0.2-0.2-0.3-0.3-0.3-0.5c0,0.4,0,0.7,0,1.1
		c0,0.4,0,0.7-0.1,1.1c0,0.4,0,0.9,0,1.4c0,0.5-0.2,0.9-0.5,1.1s-0.7,0.5-1.3,0.7c-0.4,0.1-0.8,0.1-1.3,0.2c-0.5,0-0.9,0.1-1.4,0.1
		c-0.5,0-0.9,0.1-1.3,0.1c-0.4,0-0.7,0-1,0c-0.6,0-1.1-0.1-1.4-0.4c-0.3-0.3-0.6-0.7-0.6-1.2c0-0.1,0-0.2,0-0.3c0-0.1,0-0.3,0-0.6
		c0-0.3,0-0.7-0.1-1.3c0-0.6-0.1-1.4-0.1-2.6c0-0.5,0-1,0.2-1.3s0.5-0.6,1-0.7l5.5-0.4c0.7-0.1,1.3,0.1,1.7,0.4
		c0.4,0.3,0.6,0.7,0.7,1.2c0,0.2,0,0.4,0,0.6c0-0.1,0.1-0.2,0.2-0.3c0.2-0.2,0.4-0.4,0.8-0.4l2.3-0.2l0-1.7c0-0.2,0.1-0.3,0.4-0.5
		c0.3-0.2,0.6-0.3,1-0.3c0.4,0,0.8,0,1.1,0.1c0.4,0.1,0.5,0.3,0.5,0.5l0.2,10.9c0,0.2-0.2,0.3-0.5,0.4c-0.3,0.1-0.7,0.2-1.1,0.2
		c-0.4,0-0.8,0-1.1-0.1s-0.5-0.3-0.5-0.5l0-3l-2.1,0.2c-0.4,0-0.7-0.1-0.9-0.3c-0.2-0.2-0.3-0.5-0.4-0.7c0-0.3,0-0.5,0.2-0.7
		s0.4-0.4,0.8-0.4L161.9,457.5z M152.7,454.5c0,0.1,0,0.2,0,0.4c0,0.1,0,0.3,0,0.6c0,0.3,0,0.6,0.1,1.2c0,0.5,0.1,1.2,0.1,2.2
		l2.4-0.2c0-0.3,0-0.6,0-1v-1.1c0-0.4,0-0.8,0-1.1s-0.1-0.7-0.1-1L152.7,454.5z M158.7,469.7c-0.3,0-0.5,0-0.8,0
		c-0.3,0-0.5-0.1-0.7-0.2c-0.2-0.1-0.4-0.2-0.5-0.4c-0.1-0.2-0.2-0.3-0.2-0.5l0.3-5.5c0-0.1,0.1-0.2,0.2-0.3s0.2-0.2,0.4-0.2
		c0.2,0,0.3-0.1,0.5-0.1c0.2,0,0.4,0,0.6,0c0.4,0,0.8,0.1,1.1,0.3c0.3,0.1,0.5,0.3,0.5,0.5l-0.2,4.4l4.8-0.2c0.4,0,0.7,0.1,0.9,0.2
		c0.2,0.2,0.3,0.4,0.3,0.7c0,0.2-0.1,0.5-0.3,0.7c-0.2,0.2-0.5,0.3-0.8,0.3l-4.5,0.3L158.7,469.7L158.7,469.7z"/>
	<path class="st2" d="M179.3,453.2c0.7-0.1,1.3,0.1,1.7,0.4s0.6,0.7,0.7,1.2c0.1,0.9,0.1,1.9,0,2.9c-0.1,1-0.1,2-0.1,3
		c0,0.5-0.2,0.9-0.5,1.1c-0.3,0.3-0.7,0.5-1.3,0.7c-0.4,0.1-0.8,0.1-1.3,0.2s-0.9,0.1-1.4,0.1c-0.5,0-0.9,0.1-1.3,0.1
		c-0.4,0-0.7,0-1,0c-0.6,0-1.1-0.1-1.4-0.4s-0.6-0.7-0.6-1.2c0-0.1,0-0.2,0-0.4c0-0.2,0-0.5,0-0.9c0-0.4,0-1-0.1-1.6
		c0-0.7-0.1-1.6-0.1-2.7c0-0.5,0-1,0.2-1.3c0.2-0.3,0.5-0.6,1-0.7L179.3,453.2z M175.8,455.5c0,0.1,0,0.3,0,0.5c0,0.2,0,0.5,0,0.9
		c0,0.4,0,0.9,0.1,1.5c0,0.6,0.1,1.4,0.1,2.4l2.4-0.2c0-0.3,0-0.7,0-1.1v-1.4c0-0.5,0-1,0-1.4s-0.1-0.9-0.1-1.2L175.8,455.5z
		 M183.9,451.9c0-0.2,0.2-0.3,0.5-0.5c0.3-0.1,0.7-0.2,1.1-0.3c0.4,0,0.8,0,1.1,0.1c0.4,0.1,0.5,0.2,0.5,0.5l0.2,14.8
		c0,0.2-0.2,0.3-0.5,0.4c-0.3,0.1-0.7,0.2-1,0.2c-0.4,0-0.8,0-1.1,0c-0.3-0.1-0.5-0.2-0.5-0.5L183.9,451.9z"/>
	<path class="st2" d="M189.5,459.4c-0.1-0.5,0.1-0.9,0.4-1.1c0.3-0.3,0.7-0.4,1.2-0.5l4.1-0.9l0.3-2.1l-3.8,0.1
		c-0.4,0-0.7-0.1-0.9-0.3s-0.3-0.5-0.3-0.8c0-0.3,0.1-0.5,0.3-0.8c0.2-0.2,0.5-0.4,0.9-0.4c0.2,0,0.4,0,0.6,0c0.2,0,0.5,0,0.8,0
		c0.3,0,0.8,0,1.3,0c0.5,0,1.2-0.1,2.1-0.1c0.3,0,0.5,0,0.8,0c0.3,0,0.5,0.1,0.7,0.2c0.3,0.2,0.5,0.4,0.5,0.5
		c0.1,0.2,0.1,0.4,0.1,0.5l-0.4,3.9c0,0.3-0.2,0.6-0.5,0.7c-0.3,0.2-0.7,0.3-1.1,0.5c-0.3,0.1-0.6,0.2-0.9,0.2
		c-0.3,0.1-0.7,0.2-1,0.3s-0.7,0.2-1.1,0.3l-1,0.2l0.5,3.1l4.4-0.5h0c0.4-0.1,0.7,0,1,0.2c0.2,0.2,0.3,0.5,0.3,0.8
		c0,0.2-0.1,0.4-0.2,0.6c-0.1,0.2-0.3,0.4-0.6,0.5c-0.4,0.1-0.8,0.2-1.3,0.2c-0.5,0.1-1,0.1-1.5,0.2c-0.5,0-1,0.1-1.6,0.1
		c-0.5,0-1,0-1.4,0c-0.5,0-0.9-0.1-1.3-0.3c-0.4-0.2-0.6-0.5-0.7-0.9L189.5,459.4z M200.8,451.9c0-0.2,0.2-0.3,0.5-0.5
		c0.3-0.1,0.7-0.2,1.1-0.3c0.4,0,0.8,0,1.1,0.1c0.4,0.1,0.5,0.2,0.5,0.5l0.2,14.8c0,0.2-0.2,0.3-0.5,0.4c-0.3,0.1-0.7,0.2-1,0.2
		c-0.4,0-0.8,0-1.1,0c-0.3-0.1-0.5-0.2-0.5-0.5L200.8,451.9z"/>
	<path class="st2" d="M211.4,465l0.2-5h-0.7c-0.6,0-1.1-0.1-1.5-0.4c-0.4-0.3-0.7-0.7-0.7-1.1c-0.1-1-0.2-2.1-0.3-3.3
		s-0.1-2.3-0.1-3.3c0-0.2,0.2-0.3,0.5-0.4s0.7-0.1,1.1-0.1s0.8,0,1.1,0.1s0.5,0.2,0.5,0.4c0,0,0,0.1,0,0.2c0,0.1,0,0.2,0,0.3
		c0,0.1,0,0.3,0,0.6s0,0.6,0.1,1c0.1,0,0.2,0,0.4,0c0.2,0,0.4,0,0.7-0.1c0.2,0,0.5-0.1,0.8-0.1c0.3,0,0.5-0.1,0.7-0.1
		c0-0.1,0-0.2,0-0.4c0-0.1,0-0.3,0-0.5l0-0.5v-0.4c0-0.2,0.2-0.3,0.5-0.4c0.3-0.1,0.7-0.2,1.1-0.2c0.4,0,0.8,0,1.1,0.1
		c0.3,0.1,0.5,0.2,0.5,0.4l0,5.9c0,0.5-0.2,0.9-0.5,1.1c-0.3,0.3-0.8,0.5-1.4,0.6l-0.5,0.1c0,0,0,0.1,0,0.1l-0.2,5.2l2.9-0.1
		c0.4,0,0.6,0.1,0.8,0.3c0.2,0.2,0.3,0.5,0.3,0.7c0,0.2-0.1,0.5-0.3,0.7c-0.2,0.2-0.5,0.3-0.8,0.4l-9.8,0.3c-0.4,0-0.6-0.1-0.8-0.3
		c-0.2-0.2-0.3-0.5-0.3-0.7c0-0.3,0-0.5,0.2-0.7c0.1-0.2,0.4-0.3,0.7-0.4L211.4,465z M214,455.7c-0.1,0-0.3,0.1-0.5,0.1
		c-0.2,0-0.4,0.1-0.7,0.1s-0.4,0.1-0.7,0.1s-0.4,0.1-0.5,0.1c0,0.1,0,0.2,0,0.4c0,0.2,0,0.4,0,0.6s0,0.4,0,0.5c0,0.2,0,0.3,0,0.3
		c0.4,0,0.8-0.1,1.2-0.1s0.8-0.1,1-0.3V455.7z"/>
	<path class="st2" d="M227.2,452.7c0.6,0,1,0.1,1.4,0.3c0.2,0.1,0.4,0.3,0.5,0.4c0.1,0.2,0.2,0.3,0.2,0.4l-1.7,10.2
		c-0.1,0.3-0.3,0.5-0.7,0.5c-0.4,0.1-0.8,0.1-1.2,0c-0.4,0-0.7-0.1-0.9-0.3s-0.4-0.3-0.4-0.6l1.4-8.9l-4.4,0.2
		c-0.4,0-0.7-0.1-0.9-0.3c-0.2-0.2-0.3-0.5-0.3-0.7c0-0.3,0.1-0.5,0.3-0.7s0.5-0.3,0.9-0.4L227.2,452.7z M231.6,451.9
		c0-0.2,0.2-0.3,0.5-0.5c0.3-0.1,0.7-0.2,1.1-0.3c0.4,0,0.8,0,1.1,0.1c0.4,0.1,0.5,0.2,0.5,0.5l0.2,14.8c0,0.2-0.2,0.3-0.5,0.4
		c-0.3,0.1-0.7,0.2-1,0.2c-0.4,0-0.8,0-1.1,0c-0.3-0.1-0.5-0.2-0.5-0.5L231.6,451.9z"/>
	<path class="st2" d="M252.2,458.9c0,0.4-0.2,0.7-0.6,1c-0.2,0.1-0.4,0.3-0.7,0.4s-0.5,0.3-0.9,0.5l-5.5,3.3c-0.2,0.1-0.5,0.1-0.7,0
		c-0.3-0.2-0.5-0.4-0.6-0.7c-0.2-0.3-0.3-0.6-0.3-0.9c0-0.3,0.1-0.5,0.3-0.7l1.6-0.9c0.7-0.4,1.3-0.8,1.9-1.1c0.6-0.4,1.3-0.7,1.8-1
		c-0.7-0.5-1.5-0.9-2.2-1.3s-1.5-0.8-2.3-1.2c-0.1-0.1-0.3-0.1-0.5-0.2c-0.2-0.1-0.3-0.2-0.5-0.2c-0.3-0.1-0.4-0.3-0.4-0.6
		c0-0.3,0.1-0.6,0.3-0.8c0.2-0.3,0.4-0.5,0.8-0.6c0.3-0.1,0.6-0.1,0.9,0.1c0.5,0.3,1,0.6,1.5,0.9c0.5,0.3,1,0.6,1.5,0.8
		c0.6,0.3,1.2,0.7,1.8,1c0.6,0.4,1.3,0.7,1.9,1.2c0.2,0.2,0.4,0.3,0.5,0.5C252.2,458.6,252.2,458.8,252.2,458.9z"/>
	<path class="st2" d="M263,458.9c0,0.4-0.2,0.7-0.6,1c-0.2,0.1-0.4,0.3-0.7,0.4s-0.5,0.3-0.9,0.5l-5.5,3.3c-0.2,0.1-0.5,0.1-0.7,0
		c-0.3-0.2-0.5-0.4-0.6-0.7s-0.3-0.6-0.3-0.9s0.1-0.5,0.3-0.7l1.6-0.9c0.7-0.4,1.3-0.8,1.9-1.1s1.3-0.7,1.8-1
		c-0.7-0.5-1.5-0.9-2.2-1.3c-0.7-0.4-1.5-0.8-2.3-1.2c-0.1-0.1-0.3-0.1-0.5-0.2c-0.2-0.1-0.3-0.2-0.5-0.2c-0.3-0.1-0.4-0.3-0.4-0.6
		c0-0.3,0.1-0.6,0.3-0.8c0.2-0.3,0.4-0.5,0.8-0.6c0.3-0.1,0.6-0.1,0.9,0.1c0.5,0.3,1,0.6,1.5,0.9c0.5,0.3,1,0.6,1.5,0.8
		c0.6,0.3,1.2,0.7,1.8,1c0.6,0.4,1.3,0.7,1.9,1.2c0.2,0.2,0.4,0.3,0.5,0.5C263,458.6,263,458.8,263,458.9z"/>
</g>
</svg>
