<svg id="레이어_1" data-name="레이어 1" xmlns="http://www.w3.org/2000/svg" viewBox="0 0 360 640"><defs><style>.cls-1{fill:none;stroke:#c2dbff;stroke-miterlimit:10;stroke-dasharray:1;}.cls-2{fill:#b8b8ff;}.cls-3{fill:#3955e2;}.cls-4{fill:#566cdb;}.cls-5,.cls-6{fill:#b9ddf1;}.cls-5{isolation:isolate;opacity:0.5;}.cls-7{fill:#a1b3e3;}.cls-8{fill:#fdc97a;}.cls-9{fill:#f5855a;}.cls-10{fill:#182a85;}.cls-11{opacity:0.49;}.cls-12{fill:#fdfdff;}</style></defs><path class="cls-1" d="M266.88,428.49C215.74,422,216.06,459.12,220,455.4c7.5-7.14,5.94-26.59-6.92-32.27-11.14-4.91-25.25,2.63-34.55,11.15-2.77,2.52-5.3,5.59-6,9.12s1,7.55,4.41,8.48,7.15-1.4,8.84-4.5a13.85,13.85,0,0,0,.82-10c-2.48-9.9-11.85-17.32-22.44-17.79-10.06-.45-19.81,4.73-29.88,6.7C111.52,430.71,88,416,83.62,394.53c-2-9.38,1-21.68,10.5-25.49,8.34-3.31,18,2.58,19.24,10.89s-5,17.26-13.25,20.6a25.93,25.93,0,0,1-24.57-3.36c-6.74-4.94-10.87-12.67-12.78-20.85-4.28-18.34,2.71-39.53,17.56-53.18"/><circle class="cls-2" cx="66.15" cy="135.4" r="15.38"/><polygon class="cls-3" points="66.12 139.98 56.48 131.54 59.29 128.32 65.93 134.12 85.63 114.42 88.66 117.45 66.12 139.98"/><path class="cls-4" d="M119.65,133.23l-.07-2.73-2.94.29a1.57,1.57,0,0,1-1.46-.31,1.68,1.68,0,0,1-.55-1.16,1.59,1.59,0,0,1,.29-1.12,1.38,1.38,0,0,1,1.18-.57l3.41-.32.07-2.59c0-.26.22-.51.67-.74a4.72,4.72,0,0,1,1.56-.44,5.11,5.11,0,0,1,1.7.14q.81.21.81.75l.29,16.44c0,.25-.25.47-.76.67a5.63,5.63,0,0,1-1.57.38,4.7,4.7,0,0,1-1.71-.11c-.52-.14-.77-.41-.77-.79l-.07-4.52-3.2.28a1.85,1.85,0,0,1-.9-.11,1,1,0,0,1-.25.26,2.61,2.61,0,0,1-1.29.46l-12.17.65a1.45,1.45,0,0,1-1.11-.45,1.39,1.39,0,0,1-.43-1,1.55,1.55,0,0,1,.27-1,1.24,1.24,0,0,1,1-.56l1.29-.14-.64-6.17h-.61a1.52,1.52,0,0,1-1.22-.49,1.72,1.72,0,0,1-.47-1.09,1.68,1.68,0,0,1,.34-1.1,1.52,1.52,0,0,1,1.24-.56l12-.86a1.52,1.52,0,0,1,1.36.43,2.24,2.24,0,0,1,.47,1.08,2,2,0,0,1-.29,1.13,1.12,1.12,0,0,1-1,.52h-.79v6.42H115a1.51,1.51,0,0,1,1.18-.58Zm-12.88-4.81a13.45,13.45,0,0,0,.09,1.38q.09.84.12,1.74t.15,1.74a9.37,9.37,0,0,0,.14,1.38l1.54-.07a9.93,9.93,0,0,1,.07-1.25,17.37,17.37,0,0,0,0-1.91V128.2Zm8.07,23.12a3.76,3.76,0,0,1-1.16,0,4.33,4.33,0,0,1-1.06-.32,2.14,2.14,0,0,1-.76-.58,1.12,1.12,0,0,1-.25-.79l.51-8.32a.59.59,0,0,1,.23-.49,1.57,1.57,0,0,1,.59-.3,3.73,3.73,0,0,1,.81-.15h.91a5.14,5.14,0,0,1,1.64.37c.49.21.72.48.7.81l-.36,6.68,7.29-.29a1.52,1.52,0,0,1,1.32.38,1.44,1.44,0,0,1,.44,1,1.5,1.5,0,0,1-.45,1A1.73,1.73,0,0,1,124,151l-6.78.4-2.37.11Z"/><path class="cls-4" d="M135.16,129.32l-6,.46a1.53,1.53,0,0,1-1.44-.28,1.8,1.8,0,0,1-.54-1.08,1.53,1.53,0,0,1,.22-1,1.14,1.14,0,0,1,.89-.56l9.66-.72a2,2,0,0,1,1.17.36,2.28,2.28,0,0,1,.77.86,3.16,3.16,0,0,1,.32,1,1.21,1.21,0,0,1-.14.85L137,133.48a22,22,0,0,0,2,2.32c.69.7,1.4,1.4,2.12,2.1a.73.73,0,0,1,.14.82,2.51,2.51,0,0,1-.61.93,3.06,3.06,0,0,1-1.42.83,1.44,1.44,0,0,1-1.42-.36h0c-.72-.64-1.32-1.22-1.81-1.72s-1-1.06-1.49-1.65l-3.34,4.38a1.2,1.2,0,0,1-1.24.39,3.18,3.18,0,0,1-1.49-.68,3,3,0,0,1-.81-.9.66.66,0,0,1,0-.82Zm9.44-4.53c0-.26.24-.49.7-.68a6.24,6.24,0,0,1,1.6-.39,6.13,6.13,0,0,1,1.71.09c.53.1.8.34.8.69l.29,22.23c0,.24-.24.45-.73.62a6.49,6.49,0,0,1-1.57.35,5,5,0,0,1-1.68-.08c-.51-.12-.76-.37-.76-.75Z"/><path class="cls-4" d="M174.72,135.81a.68.68,0,0,1,.18.77,1.92,1.92,0,0,1-.54.88,3,3,0,0,1-1.38.83,1.58,1.58,0,0,1-1.45-.32,10.17,10.17,0,0,1-1.67-1.47c-.39-.46-.84-1-1.35-1.51a14.6,14.6,0,0,1-1.09,1.27c-.54.59-1.3,1.49-2.28,2.71a1.78,1.78,0,0,1-1.58.59,3.31,3.31,0,0,1-1.54-.62,2.91,2.91,0,0,1-.76-.88.65.65,0,0,1,0-.81c1.29-1.44,2.56-2.9,3.8-4.4a43.62,43.62,0,0,0,3.38-4.61l-5.67.61a1.67,1.67,0,0,1-1.41-.36,1.75,1.75,0,0,1-.53-1,1.7,1.7,0,0,1,.19-1.06,1.11,1.11,0,0,1,.88-.56l9.7-.71a1.83,1.83,0,0,1,1.22.46,4.48,4.48,0,0,1,.93,1.15,1.51,1.51,0,0,1,.18.72,1.12,1.12,0,0,1-.21.68q-.51.72-1.14,1.53c-.42.53-1,1.28-1.74,2.24a16.66,16.66,0,0,0,1.87,2.15C173.37,134.65,174,135.24,174.72,135.81Zm0,15.73a3.83,3.83,0,0,1-1.17,0,4.33,4.33,0,0,1-1.06-.32,2,2,0,0,1-.75-.58,1,1,0,0,1-.25-.79l.5-8.32a.62.62,0,0,1,.23-.49,1.69,1.69,0,0,1,.6-.3,3.73,3.73,0,0,1,.81-.15h.91a5.09,5.09,0,0,1,1.63.37c.49.21.73.48.7.81l-.36,6.68,7.29-.29a1.61,1.61,0,0,1,1.33.38,1.39,1.39,0,0,1,.43,1,1.5,1.5,0,0,1-.45,1,1.72,1.72,0,0,1-1.27.52l-6.79.4-2.37.11Zm4.74-22.22-.07-4.71c0-.28.23-.52.7-.71a5.8,5.8,0,0,1,1.59-.4,4.72,4.72,0,0,1,1.71.23c.51.18.77.43.77.74l.4,16.76c0,.24-.25.45-.74.61a6.88,6.88,0,0,1-1.56.33,4.26,4.26,0,0,1-1.63-.11c-.5-.14-.76-.39-.81-.75l-.29-8.73-3.45.25a1.61,1.61,0,0,1-1.45-.3,1.72,1.72,0,0,1-.56-1.2,1.79,1.79,0,0,1,.29-1.21,1.45,1.45,0,0,1,1.26-.59Z"/><path class="cls-4" d="M190,125.55l9-.54a1.5,1.5,0,0,1,1.73,1.46,1.72,1.72,0,0,1-.38,1.09,1.52,1.52,0,0,1-1.1.56c-1.22.09-2.41.16-3.59.21s-2.19.12-3,.22l.54,5.42h1.46a11.49,11.49,0,0,0,1.54-.07c.54-.07,1-.1,1.49-.18a10.14,10.14,0,0,0,1.33-.28,1.93,1.93,0,0,1,1.42,0,1.2,1.2,0,0,1,.7.89,2.71,2.71,0,0,1,0,.57,2.11,2.11,0,0,1-.65,1.17,1.16,1.16,0,0,1-.63.32,29.13,29.13,0,0,1-3.95.57,28.82,28.82,0,0,1-4.05.07,5,5,0,0,1-2.21-.57,2,2,0,0,1-1.06-1.31c-.14-.59-.26-1.12-.34-1.6s-.16-1-.22-1.46-.1-1-.14-1.54-.07-1.18-.09-1.92a4.7,4.7,0,0,1,0-1.06,2.21,2.21,0,0,1,.28-1,2.41,2.41,0,0,1,.72-.77A2.57,2.57,0,0,1,190,125.55Zm9.19,19.74,6.28-.68.18-2.33-7.58.21a1.49,1.49,0,0,1-1.34-.43,1.62,1.62,0,0,1-.45-1.08,1.62,1.62,0,0,1,1.72-1.65l9.23-.29a3.64,3.64,0,0,1,2.28.47,1.6,1.6,0,0,1,.84,1.47c0,.72-.1,1.48-.16,2.28s-.14,1.6-.23,2.39a1.79,1.79,0,0,1-.83,1.22,5.14,5.14,0,0,1-1.79.57l-.56.08-1,.1-1.7.18-2.75.29a8,8,0,0,0,.18,1.54,7.31,7.31,0,0,0,.36,1.12,14.06,14.06,0,0,0,2.58-.36c.82-.19,1.68-.41,2.59-.65a1.77,1.77,0,0,1,1.4.2,1.65,1.65,0,0,1,.72,1.09,1.67,1.67,0,0,1-.13,1.12,1.42,1.42,0,0,1-1,.75c-1.14.29-2.35.53-3.62.74a29.71,29.71,0,0,1-4,.34c-1.44,0-2.31-.52-2.62-1.54a4.5,4.5,0,0,1-.45-1c-.13-.42-.25-.86-.36-1.33a13.23,13.23,0,0,1-.25-1.4,8.62,8.62,0,0,1-.09-1.24,1.87,1.87,0,0,1,.66-1.45,3.19,3.19,0,0,1,1.91-.73Zm5.88-20.61c0-.26.25-.49.74-.68a6.46,6.46,0,0,1,1.63-.39,5.58,5.58,0,0,1,1.73,0c.52.11.79.35.79.74l.14,5.13,3.88-.32a1.57,1.57,0,0,1,1.2.5,1.68,1.68,0,0,1,.45,1.15,1.8,1.8,0,0,1-.45,1.15,1.63,1.63,0,0,1-1.27.57l-3.77.18v3.63q0,.39-.72.66a5.94,5.94,0,0,1-1.5.34,5.06,5.06,0,0,1-1.69-.07q-.75-.18-.75-.72Z"/><path class="cls-4" d="M230.55,137.25h3.95l.07-2.37a8.06,8.06,0,0,1-1.07-.29,6,6,0,0,1-2.1-1.28,4.69,4.69,0,0,1-1.24-1.95,5.64,5.64,0,0,1-.22-2.55,5.92,5.92,0,0,1,.87-2.55,7.29,7.29,0,0,1,1.75-2,8.55,8.55,0,0,1,2.37-1.25,8.45,8.45,0,0,1,2.73-.45,8.14,8.14,0,0,1,2.64.41,6.21,6.21,0,0,1,2.15,1.22,5,5,0,0,1,1.39,2,5.43,5.43,0,0,1,.32,2.62,5.93,5.93,0,0,1-.86,2.62,6.94,6.94,0,0,1-1.8,1.94,9.1,9.1,0,0,1-2,1.11l-.11,2.62c1.22-.12,2.24-.25,3.05-.39a17.17,17.17,0,0,0,1.69-.36,1.5,1.5,0,0,1,1.36.19,2,2,0,0,1,.72,1.14,1.74,1.74,0,0,1-.18,1,1.34,1.34,0,0,1-.93.72h0a18.27,18.27,0,0,1-3.44.71q-1.87.22-3.81.27H234c-1.26,0-2.41-.08-3.47-.12a1.41,1.41,0,0,1-1.06-.52,1.93,1.93,0,0,1-.41-1,1.86,1.86,0,0,1,.31-1.07,1.26,1.26,0,0,1,1.13-.47Zm6.72-11.6a2.31,2.31,0,0,0-1.71.83,4,4,0,0,0-.84,2.58,4.42,4.42,0,0,0,.14,1.49,2.46,2.46,0,0,0,.49,1,1.89,1.89,0,0,0,.7.52,2.14,2.14,0,0,0,.79.16,1.91,1.91,0,0,0,1.72-.88,5.46,5.46,0,0,0,.75-2.25,3.64,3.64,0,0,0-.43-2.54A1.87,1.87,0,0,0,237.27,125.65Zm5.13,27a4.28,4.28,0,0,1-1.13,0,4.33,4.33,0,0,1-1.06-.32,2,2,0,0,1-.75-.58,1,1,0,0,1-.25-.79l.5-7a.63.63,0,0,1,.23-.48,1.59,1.59,0,0,1,.59-.31,3.71,3.71,0,0,1,.81-.14h.92a5.38,5.38,0,0,1,1.63.38c.49.2.72.47.7.81l-.36,5.35,7.29-.29a1.61,1.61,0,0,1,1.33.38,1.4,1.4,0,0,1,0,2l0,0a1.72,1.72,0,0,1-1.27.52l-6.79.4ZM246.74,125c0-.28.24-.52.72-.7a6.21,6.21,0,0,1,1.65-.34,5.89,5.89,0,0,1,1.67.16c.52.14.78.36.78.67l.1,7.21,3.7-.25a1.53,1.53,0,0,1,1.22.5,1.88,1.88,0,0,1,.47,1.12,1.76,1.76,0,0,1-.42,1.13,1.62,1.62,0,0,1-1.27.56l-3.66.28.14,7c0,.26-.23.48-.7.64a6.6,6.6,0,0,1-1.52.36,5.78,5.78,0,0,1-1.76-.1c-.5-.12-.76-.38-.76-.76Z"/><path class="cls-4" d="M263.26,144.57v-4.51c0-.34.23-.61.7-.82a3.77,3.77,0,0,1,1.56-.3,4.17,4.17,0,0,1,1.56.27.84.84,0,0,1,.63.85v3.28a7,7,0,0,1-.07,1.12h1.65v-1.19a2.14,2.14,0,0,1,0-.62.67.67,0,0,0,0-.32v-2.24a2.34,2.34,0,0,1,.86-.85,3.11,3.11,0,0,1,1.44-.27,4.17,4.17,0,0,1,1.56.27.9.9,0,0,1,.67.84v2.12c0,.74-.06,1.45-.11,2.12l1.29-.08a3.24,3.24,0,0,0,.94-.07,1.48,1.48,0,0,1,1.2.49,1.77,1.77,0,0,1,.45,1.09A1.62,1.62,0,0,1,276,147.3a13.29,13.29,0,0,1-1.54.11l-2.87.09-4.51.11-6.44.12a1.29,1.29,0,0,1-1.2-.42,1.78,1.78,0,0,1-.45-1.07,1.48,1.48,0,0,1,.25-1.08,1.32,1.32,0,0,1,1-.55h1.36C262.24,144.61,262.78,144.6,263.26,144.57Zm1.54-15.07,4.53-.51a7.47,7.47,0,0,1,.05-1,9.13,9.13,0,0,0,0-1.17h-2.57l-3.07.16a1.28,1.28,0,0,1-1.31-.34,1.75,1.75,0,0,1-.13-2.26,1.6,1.6,0,0,1,1.3-.55h.93l1.29-.06,2-.07,3.09-.07a5.57,5.57,0,0,1,1.22.14,4.52,4.52,0,0,1,1.08.4,2.68,2.68,0,0,1,.75.59,1.18,1.18,0,0,1,.29.74l-.36,4.61c-.14,1-1,1.59-2.51,1.66l-4.53.65.51,2.3c.93-.05,1.9-.15,2.92-.3a19.21,19.21,0,0,0,3-.7,1.53,1.53,0,0,1,1.44.25,2.24,2.24,0,0,1,.72,1.18,1.7,1.7,0,0,1-.18,1.13,1.48,1.48,0,0,1-1.11.71q-1.72.33-3.9.57c-1.45.17-2.85.26-4.22.29a4.21,4.21,0,0,1-2-.44,1.91,1.91,0,0,1-1.06-1.29c-.07-.24-.15-.55-.23-1s-.18-.8-.27-1.22-.18-.83-.24-1.22a8.26,8.26,0,0,1-.09-1,1.91,1.91,0,0,1,.78-1.54,3.65,3.65,0,0,1,1.88-.69Z"/><path class="cls-4" d="M280.45,146.44a2,2,0,0,1,.88-1.74,3.4,3.4,0,0,1,2-.59,3.18,3.18,0,0,1,1.88.59,1.8,1.8,0,0,1,.85,1.56,2.28,2.28,0,0,1-.81,1.81,3,3,0,0,1-3,.51,3.77,3.77,0,0,1-.89-.52,2.48,2.48,0,0,1-.63-.74A1.73,1.73,0,0,1,280.45,146.44Zm2.77-4.34a4.06,4.06,0,0,1-1.62-.31,1,1,0,0,1-.75-.88V126.53a12.15,12.15,0,0,1,0-1.59,1,1,0,0,1,.77-.88,4.34,4.34,0,0,1,1.67-.31,3.73,3.73,0,0,1,1.51.29.92.92,0,0,1,.68.86v15.94a1.08,1.08,0,0,1-.72,1A3.78,3.78,0,0,1,283.22,142.1Z"/><path class="cls-5" d="M288.71,440.1c.29.06,9.48-11.46,9.48-11.46l1.58,8.06,1.65-10.21,10.13-6.24-40-6.53,29.32,12.6-1.19,8.39-1.3-6.69-26.83-14Z"/><path class="cls-6" d="M216.75,318.07c2.29-8.62,7.27-23.13,14.12-28.65a8,8,0,0,1,4.94-2c3.22.05,5.88,2.9,6.68,6s.12,6.42-.79,9.51c2.71-5,4.35-10.21,8.37-14.28a10.62,10.62,0,0,1,6.23-2.8,8.43,8.43,0,0,1,8.58,5.87c1,3.56.07,7.39-1.24,10.85a26.65,26.65,0,0,1,8.17-13.11c1.77-1.55,5.49-3.91,8-3.4a5.08,5.08,0,0,1,4.14,3.32c2.26,6-.19,19.17-2,23"/><path class="cls-7" d="M82.23,320.2a63.18,63.18,0,0,1,21.37-37.67c2.58-2.18,6.13-4.24,9.14-2.71a6.26,6.26,0,0,1,3.07,5.07,18.31,18.31,0,0,1-.74,6.11c2-4.59,4.09-9.36,8-12.52s10.08-4.07,13.71-.64,3.1,9.63,2.15,14.73a35,35,0,0,1,4.76,5.48,9.22,9.22,0,0,1,1.53,6.1c-.44,2.93-2.79,5.28-5.47,6.54a27.2,27.2,0,0,1-8.62,1.94"/><path class="cls-8" d="M210.46,220.8s47.14,32.83,48.78,34,0,2.86,0,2.86l-58.39,80.59s-8.1,12-9.87,12.2-68.13-44.42-69-45a1.5,1.5,0,0,1-.48-1.71c4.29-9.87,41.76-59.13,41.76-59.13S184.23,209.49,210.46,220.8Z"/><path class="cls-9" d="M187.47,271.55s-7-3.26-9.81,3.68,1.7,10.15,7,9.81,17.31-.89,19-3.41-.75-11.78-.75-11.78-2-8-5.38-10.42-9.54,1.08-9.54,1.08a6.54,6.54,0,0,0-1.77,6.2C187.13,270.6,187.47,271.55,187.47,271.55Z"/><path class="cls-10" d="M216.75,316.42a1.26,1.26,0,0,1-1-2L235.63,288a1.27,1.27,0,0,1,2,1.52L217.74,316A1.29,1.29,0,0,1,216.75,316.42Z"/><path class="cls-7" d="M266,352.53s2-5.6,2.15-8.42-.89-5.89-3.33-7.31a6,6,0,0,0-8.09,2.56,6.8,6.8,0,0,0-.3.67,3.28,3.28,0,0,0-2.5-3.91h0a5.32,5.32,0,0,0-4.75,1.57,15.55,15.55,0,0,0-2.9,4.31,5.16,5.16,0,0,0-2.37-6.9,4.8,4.8,0,0,0-1-.38c-3.11-.55-5.91,1.9-7.83,4.4a37.75,37.75,0,0,0-7.42,17.73v.28Z"/><g class="cls-11"><circle class="cls-12" cx="125.16" cy="302.96" r="0.61"/><circle class="cls-12" cx="130.99" cy="294.71" r="0.61"/><circle class="cls-12" cx="136.82" cy="286.47" r="0.61"/><circle class="cls-12" cx="142.65" cy="278.22" r="0.61"/><circle class="cls-12" cx="148.48" cy="269.97" r="0.61"/><circle class="cls-12" cx="154.31" cy="261.72" r="0.61"/><circle class="cls-12" cx="160.14" cy="253.47" r="0.61"/><circle class="cls-12" cx="165.97" cy="245.22" r="0.61"/><circle class="cls-12" cx="171.8" cy="236.97" r="0.61"/><circle class="cls-12" cx="177.63" cy="228.73" r="0.61"/><circle class="cls-12" cx="183.46" cy="220.48" r="0.61"/><circle class="cls-12" cx="189.29" cy="212.23" r="0.61"/><circle class="cls-12" cx="131.75" cy="301.31" r="0.61"/><circle class="cls-12" cx="138.16" cy="292.24" r="0.61"/><circle class="cls-12" cx="144.58" cy="283.16" r="0.61"/><circle class="cls-12" cx="150.99" cy="274.09" r="0.61"/><circle class="cls-12" cx="157.4" cy="265.02" r="0.61"/><path class="cls-12" d="M163.82,255.33a.61.61,0,1,1-.61.61A.61.61,0,0,1,163.82,255.33Z"/><circle class="cls-12" cx="170.23" cy="246.87" r="0.61"/><circle class="cls-12" cx="176.64" cy="237.8" r="0.61"/><circle class="cls-12" cx="183.05" cy="228.72" r="0.61"/><circle class="cls-12" cx="189.47" cy="219.65" r="0.61"/><circle class="cls-12" cx="195.88" cy="210.58" r="0.61"/></g><g class="cls-11"><circle class="cls-12" cx="133.6" cy="305.81" r="0.61"/><circle class="cls-12" cx="139.43" cy="297.56" r="0.61"/><circle class="cls-12" cx="145.26" cy="289.31" r="0.61"/><circle class="cls-12" cx="151.09" cy="281.06" r="0.61"/><circle class="cls-12" cx="156.92" cy="272.82" r="0.61"/><circle class="cls-12" cx="162.75" cy="264.57" r="0.61"/><path class="cls-12" d="M168.58,255.71a.61.61,0,1,1-.61.61A.61.61,0,0,1,168.58,255.71Z"/><circle class="cls-12" cx="174.41" cy="248.07" r="0.61"/><circle class="cls-12" cx="180.24" cy="239.82" r="0.61"/><circle class="cls-12" cx="186.07" cy="231.57" r="0.61"/><circle class="cls-12" cx="191.9" cy="223.32" r="0.61"/><circle class="cls-12" cx="197.73" cy="215.07" r="0.61"/><circle class="cls-12" cx="140.19" cy="304.16" r="0.61"/><circle class="cls-12" cx="146.61" cy="295.08" r="0.61"/><circle class="cls-12" cx="153.02" cy="286.01" r="0.61"/><circle class="cls-12" cx="159.43" cy="276.94" r="0.61"/><circle class="cls-12" cx="165.84" cy="267.86" r="0.61"/><circle class="cls-12" cx="172.26" cy="258.79" r="0.61"/><circle class="cls-12" cx="178.67" cy="249.72" r="0.61"/><circle class="cls-12" cx="185.08" cy="240.64" r="0.61"/><circle class="cls-12" cx="191.5" cy="231.57" r="0.61"/><circle class="cls-12" cx="197.91" cy="222.5" r="0.61"/><circle class="cls-12" cx="204.32" cy="213.42" r="0.61"/></g><g class="cls-11"><circle class="cls-12" cx="139.24" cy="309.41" r="0.61"/><circle class="cls-12" cx="145.07" cy="301.16" r="0.61"/><circle class="cls-12" cx="150.9" cy="292.91" r="0.61"/><circle class="cls-12" cx="156.73" cy="284.66" r="0.61"/><circle class="cls-12" cx="162.56" cy="276.41" r="0.61"/><circle class="cls-12" cx="168.39" cy="268.16" r="0.61"/><circle class="cls-12" cx="174.22" cy="259.92" r="0.61"/><circle class="cls-12" cx="180.05" cy="251.67" r="0.61"/><circle class="cls-12" cx="185.88" cy="243.42" r="0.61"/><circle class="cls-12" cx="191.71" cy="235.17" r="0.61"/><circle class="cls-12" cx="197.53" cy="226.92" r="0.61"/><circle class="cls-12" cx="203.36" cy="218.67" r="0.61"/><circle class="cls-12" cx="145.83" cy="307.76" r="0.61"/><circle class="cls-12" cx="152.24" cy="298.68" r="0.61"/><circle class="cls-12" cx="158.65" cy="289.61" r="0.61"/><circle class="cls-12" cx="165.06" cy="280.54" r="0.61"/><circle class="cls-12" cx="171.48" cy="271.46" r="0.61"/><circle class="cls-12" cx="177.89" cy="262.39" r="0.61"/><circle class="cls-12" cx="184.3" cy="253.31" r="0.61"/><circle class="cls-12" cx="190.72" cy="244.24" r="0.61"/><circle class="cls-12" cx="197.13" cy="235.17" r="0.61"/><circle class="cls-12" cx="203.54" cy="226.09" r="0.61"/><circle class="cls-12" cx="209.95" cy="217.02" r="0.61"/></g><g class="cls-11"><circle class="cls-12" cx="145.02" cy="315.03" r="0.61"/><circle class="cls-12" cx="150.85" cy="306.78" r="0.61"/><circle class="cls-12" cx="156.68" cy="298.53" r="0.61"/><circle class="cls-12" cx="162.51" cy="290.28" r="0.61"/><circle class="cls-12" cx="168.34" cy="282.03" r="0.61"/><circle class="cls-12" cx="174.17" cy="273.78" r="0.61"/><circle class="cls-12" cx="180" cy="265.53" r="0.61"/><circle class="cls-12" cx="185.83" cy="257.29" r="0.61"/><circle class="cls-12" cx="191.66" cy="249.04" r="0.61"/><circle class="cls-12" cx="197.49" cy="240.79" r="0.61"/><circle class="cls-12" cx="203.32" cy="232.54" r="0.61"/><circle class="cls-12" cx="209.15" cy="224.29" r="0.61"/><circle class="cls-12" cx="151.61" cy="313.37" r="0.61"/><circle class="cls-12" cx="158.02" cy="304.3" r="0.61"/><circle class="cls-12" cx="164.44" cy="295.23" r="0.61"/><circle class="cls-12" cx="170.85" cy="286.15" r="0.61"/><circle class="cls-12" cx="177.26" cy="277.08" r="0.61"/><circle class="cls-12" cx="183.67" cy="268.01" r="0.61"/><circle class="cls-12" cx="190.09" cy="258.93" r="0.61"/><circle class="cls-12" cx="196.5" cy="249.86" r="0.61"/><circle class="cls-12" cx="202.91" cy="240.79" r="0.61"/><circle class="cls-12" cx="209.33" cy="231.71" r="0.61"/><circle class="cls-12" cx="215.74" cy="222.64" r="0.61"/></g><g class="cls-11"><circle class="cls-12" cx="150.81" cy="320.65" r="0.61"/><circle class="cls-12" cx="156.64" cy="312.4" r="0.61"/><circle class="cls-12" cx="162.47" cy="304.15" r="0.61"/><circle class="cls-12" cx="168.29" cy="295.9" r="0.61"/><circle class="cls-12" cx="174.12" cy="287.65" r="0.61"/><circle class="cls-12" cx="179.95" cy="279.4" r="0.61"/><circle class="cls-12" cx="185.78" cy="271.15" r="0.61"/><circle class="cls-12" cx="191.61" cy="262.9" r="0.61"/><circle class="cls-12" cx="197.44" cy="254.66" r="0.61"/><circle class="cls-12" cx="203.27" cy="246.41" r="0.61"/><circle class="cls-12" cx="209.1" cy="238.16" r="0.61"/><circle class="cls-12" cx="214.93" cy="229.91" r="0.61"/><circle class="cls-12" cx="157.39" cy="318.99" r="0.61"/><circle class="cls-12" cx="163.81" cy="309.92" r="0.61"/><circle class="cls-12" cx="170.22" cy="300.85" r="0.61"/><circle class="cls-12" cx="176.63" cy="291.77" r="0.61"/><circle class="cls-12" cx="183.05" cy="282.7" r="0.61"/><circle class="cls-12" cx="189.46" cy="273.63" r="0.61"/><circle class="cls-12" cx="195.87" cy="264.55" r="0.61"/><circle class="cls-12" cx="202.28" cy="255.48" r="0.61"/><circle class="cls-12" cx="208.7" cy="246.4" r="0.61"/><circle class="cls-12" cx="215.11" cy="237.33" r="0.61"/><circle class="cls-12" cx="221.52" cy="228.26" r="0.61"/></g><g class="cls-11"><circle class="cls-12" cx="162.37" cy="331.88" r="0.61"/><circle class="cls-12" cx="168.2" cy="323.63" r="0.61"/><circle class="cls-12" cx="174.03" cy="315.39" r="0.61"/><circle class="cls-12" cx="179.86" cy="307.14" r="0.61"/><circle class="cls-12" cx="185.69" cy="298.89" r="0.61"/><circle class="cls-12" cx="191.52" cy="290.64" r="0.61"/><circle class="cls-12" cx="197.35" cy="282.39" r="0.61"/><circle class="cls-12" cx="203.18" cy="274.14" r="0.61"/><circle class="cls-12" cx="209.01" cy="265.89" r="0.61"/><circle class="cls-12" cx="214.84" cy="257.64" r="0.61"/><circle class="cls-12" cx="220.67" cy="249.4" r="0.61"/><circle class="cls-12" cx="226.5" cy="241.15" r="0.61"/><circle class="cls-12" cx="168.96" cy="330.23" r="0.61"/><circle class="cls-12" cx="175.38" cy="321.16" r="0.61"/><circle class="cls-12" cx="181.79" cy="312.08" r="0.61"/><circle class="cls-12" cx="188.2" cy="303.01" r="0.61"/><circle class="cls-12" cx="194.61" cy="293.94" r="0.61"/><circle class="cls-12" cx="201.03" cy="284.86" r="0.61"/><circle class="cls-12" cx="207.44" cy="275.79" r="0.61"/><circle class="cls-12" cx="213.85" cy="266.72" r="0.61"/><circle class="cls-12" cx="220.27" cy="257.64" r="0.61"/><circle class="cls-12" cx="226.68" cy="248.57" r="0.61"/><circle class="cls-12" cx="233.09" cy="239.5" r="0.61"/></g><g class="cls-11"><circle class="cls-12" cx="168.16" cy="337.5" r="0.61"/><circle class="cls-12" cx="173.99" cy="329.25" r="0.61"/><circle class="cls-12" cx="179.82" cy="321" r="0.61"/><circle class="cls-12" cx="185.65" cy="312.76" r="0.61"/><circle class="cls-12" cx="191.48" cy="304.51" r="0.61"/><circle class="cls-12" cx="197.31" cy="296.26" r="0.61"/><circle class="cls-12" cx="203.14" cy="288.01" r="0.61"/><circle class="cls-12" cx="208.97" cy="279.76" r="0.61"/><circle class="cls-12" cx="214.8" cy="271.51" r="0.61"/><circle class="cls-12" cx="220.63" cy="263.26" r="0.61"/><circle class="cls-12" cx="226.46" cy="255.01" r="0.61"/><circle class="cls-12" cx="232.29" cy="246.77" r="0.61"/><circle class="cls-12" cx="174.75" cy="335.85" r="0.61"/><circle class="cls-12" cx="181.16" cy="326.78" r="0.61"/><circle class="cls-12" cx="187.57" cy="317.7" r="0.61"/><circle class="cls-12" cx="193.99" cy="308.63" r="0.61"/><circle class="cls-12" cx="200.4" cy="299.56" r="0.61"/><circle class="cls-12" cx="206.81" cy="290.48" r="0.61"/><circle class="cls-12" cx="213.22" cy="281.41" r="0.61"/><circle class="cls-12" cx="219.64" cy="272.33" r="0.61"/><circle class="cls-12" cx="226.05" cy="263.26" r="0.61"/><circle class="cls-12" cx="232.46" cy="254.19" r="0.61"/><circle class="cls-12" cx="238.88" cy="245.11" r="0.61"/></g><g class="cls-11"><ellipse class="cls-12" cx="177.65" cy="340.65" rx="0.58" ry="0.59" transform="translate(-4.92 2.61) rotate(-0.83)"/><ellipse class="cls-12" cx="183.79" cy="331.9" rx="0.58" ry="0.59" transform="translate(-4.79 2.7) rotate(-0.83)"/><ellipse class="cls-12" cx="189.91" cy="323.14" rx="0.58" ry="0.59" transform="translate(-4.66 2.78) rotate(-0.83)"/><ellipse class="cls-12" cx="196.05" cy="314.4" rx="0.58" ry="0.59" transform="translate(-4.53 2.87) rotate(-0.83)"/><ellipse class="cls-12" cx="202.2" cy="305.65" rx="0.58" ry="0.59" transform="translate(-4.41 2.96) rotate(-0.83)"/><ellipse class="cls-12" cx="208.34" cy="296.89" rx="0.58" ry="0.59" transform="translate(-4.28 3.05) rotate(-0.83)"/><ellipse class="cls-12" cx="214.47" cy="288.14" rx="0.58" ry="0.59" transform="translate(-4.15 3.14) rotate(-0.83)"/><ellipse class="cls-12" cx="220.6" cy="279.39" rx="0.58" ry="0.59" transform="translate(-4.02 3.22) rotate(-0.83)"/><ellipse class="cls-12" cx="226.75" cy="270.64" rx="0.58" ry="0.59" transform="translate(-3.9 3.31) rotate(-0.83)"/><ellipse class="cls-12" cx="232.88" cy="261.89" rx="0.58" ry="0.59" transform="translate(-3.77 3.4) rotate(-0.83)"/><ellipse class="cls-12" cx="239.02" cy="253.14" rx="0.58" ry="0.59" transform="translate(-3.64 3.49) rotate(-0.83)"/><ellipse class="cls-12" cx="183.95" cy="339.06" rx="0.58" ry="0.59" transform="translate(-4.89 2.7) rotate(-0.83)"/><ellipse class="cls-12" cx="190.08" cy="330.31" rx="0.58" ry="0.59" transform="translate(-4.76 2.79) rotate(-0.83)"/><ellipse class="cls-12" cx="196.23" cy="321.55" rx="0.58" ry="0.59" transform="translate(-4.64 2.88) rotate(-0.83)"/><ellipse class="cls-12" cx="202.37" cy="312.8" rx="0.58" ry="0.59" transform="translate(-4.51 2.96) rotate(-0.83)"/><ellipse class="cls-12" cx="208.49" cy="304.05" rx="0.58" ry="0.59" transform="translate(-4.38 3.05) rotate(-0.83)"/><ellipse class="cls-12" cx="214.63" cy="295.3" rx="0.58" ry="0.59" transform="translate(-4.26 3.14) rotate(-0.83)"/><ellipse class="cls-12" cx="220.78" cy="286.55" rx="0.58" ry="0.59" transform="translate(-4.13 3.23) rotate(-0.83)"/><ellipse class="cls-12" cx="226.92" cy="277.8" rx="0.58" ry="0.59" transform="translate(-4 3.32) rotate(-0.83)"/><ellipse class="cls-12" cx="233.05" cy="269.05" rx="0.58" ry="0.59" transform="translate(-3.87 3.4) rotate(-0.83)"/><ellipse class="cls-12" cx="239.19" cy="260.3" rx="0.58" ry="0.59" transform="translate(-3.75 3.49) rotate(-0.83)"/><ellipse class="cls-12" cx="245.33" cy="251.55" rx="0.58" ry="0.59" transform="translate(-3.62 3.58) rotate(-0.83)"/></g><g class="cls-11"><circle class="cls-12" cx="185.8" cy="345.93" r="0.61"/><circle class="cls-12" cx="191.63" cy="337.68" r="0.61"/><circle class="cls-12" cx="197.46" cy="329.43" r="0.61"/><circle class="cls-12" cx="203.29" cy="321.19" r="0.61"/><circle class="cls-12" cx="209.12" cy="312.94" r="0.61"/><circle class="cls-12" cx="214.95" cy="304.69" r="0.61"/><circle class="cls-12" cx="220.78" cy="296.44" r="0.61"/><circle class="cls-12" cx="226.61" cy="288.19" r="0.61"/><circle class="cls-12" cx="232.44" cy="279.94" r="0.61"/><circle class="cls-12" cx="238.27" cy="271.69" r="0.61"/><circle class="cls-12" cx="244.1" cy="263.44" r="0.61"/><circle class="cls-12" cx="249.93" cy="255.2" r="0.61"/><circle class="cls-12" cx="192.39" cy="344.28" r="0.61"/><circle class="cls-12" cx="198.81" cy="335.21" r="0.61"/><circle class="cls-12" cx="205.22" cy="326.13" r="0.61"/><circle class="cls-12" cx="211.63" cy="317.06" r="0.61"/><circle class="cls-12" cx="218.04" cy="307.98" r="0.61"/><circle class="cls-12" cx="224.46" cy="298.91" r="0.61"/><circle class="cls-12" cx="230.87" cy="289.84" r="0.61"/><circle class="cls-12" cx="237.28" cy="280.76" r="0.61"/><circle class="cls-12" cx="243.69" cy="271.69" r="0.61"/><circle class="cls-12" cx="250.11" cy="262.62" r="0.61"/><path class="cls-12" d="M256.52,252.93a.61.61,0,1,1-.61.61A.61.61,0,0,1,256.52,252.93Z"/></g><path class="cls-10" d="M136.55,299.2a1.27,1.27,0,0,1-.4-2.48l42.78-13.9a1.27,1.27,0,1,1,.79,2.42l-42.78,13.89A1,1,0,0,1,136.55,299.2Z"/><path class="cls-10" d="M205,275.68a1.27,1.27,0,0,1-.42-2.47l39.78-13.9a1.27,1.27,0,1,1,.84,2.4L205.45,275.6A1.38,1.38,0,0,1,205,275.68Z"/><path class="cls-10" d="M190.86,329h-.07a1.26,1.26,0,0,1-1.2-1.32h0l2.18-42.51a1.27,1.27,0,0,1,2.54.13l-2.18,42.51A1.28,1.28,0,0,1,190.86,329Z"/><path class="cls-10" d="M195.22,259.62a1.27,1.27,0,0,1-1.27-1.27V242a1.27,1.27,0,0,1,2.54,0v16.35A1.27,1.27,0,0,1,195.22,259.62Z"/><path class="cls-10" d="M188.17,272.75a1.28,1.28,0,0,1-1.09-.61c-.12-.2-2.9-4.86-1.56-9.17a8.2,8.2,0,0,1,4.82-5,8,8,0,0,1,6.95-.19c3.92,1.9,5.24,7,5.29,7.22a1.27,1.27,0,1,1-2.43.74l0-.12s-1.1-4.18-4-5.56a5.51,5.51,0,0,0-4.8.23,5.66,5.66,0,0,0-3.42,3.46c-1,3.18,1.28,7,1.3,7.09a1.28,1.28,0,0,1-.43,1.75,1.22,1.22,0,0,1-.65.18Z"/><g class="cls-11"><circle class="cls-12" cx="156.59" cy="326.26" r="0.61"/><circle class="cls-12" cx="162.42" cy="318.02" r="0.61"/><circle class="cls-12" cx="168.25" cy="309.77" r="0.61"/><circle class="cls-12" cx="174.08" cy="301.52" r="0.61"/><circle class="cls-12" cx="179.91" cy="293.27" r="0.61"/><circle class="cls-12" cx="185.74" cy="285.02" r="0.61"/><circle class="cls-12" cx="191.57" cy="276.77" r="0.61"/><circle class="cls-12" cx="197.4" cy="268.52" r="0.61"/><circle class="cls-12" cx="203.23" cy="260.27" r="0.61"/><circle class="cls-12" cx="209.06" cy="252.03" r="0.61"/><circle class="cls-12" cx="214.89" cy="243.78" r="0.61"/><circle class="cls-12" cx="220.72" cy="235.53" r="0.61"/><circle class="cls-12" cx="163.18" cy="324.61" r="0.61"/><circle class="cls-12" cx="169.59" cy="315.54" r="0.61"/><circle class="cls-12" cx="176" cy="306.47" r="0.61"/><circle class="cls-12" cx="182.42" cy="297.39" r="0.61"/><circle class="cls-12" cx="188.83" cy="288.32" r="0.61"/><circle class="cls-12" cx="195.24" cy="279.24" r="0.61"/><circle class="cls-12" cx="201.66" cy="270.17" r="0.61"/><circle class="cls-12" cx="208.07" cy="261.1" r="0.61"/><circle class="cls-12" cx="214.48" cy="252.02" r="0.61"/><circle class="cls-12" cx="220.89" cy="242.95" r="0.61"/><circle class="cls-12" cx="227.31" cy="233.88" r="0.61"/></g><path class="cls-10" d="M189,286.44c-5.52,0-10.26-1.19-11.84-3.52-3-4.42-.14-9,0-9.2a1.27,1.27,0,0,1,2.15,1.36h0c-.09.15-2.06,3.4,0,6.41,1.85,2.75,14.41,3.64,23.43-.16a42.5,42.5,0,0,0-.09-10.69,1.27,1.27,0,0,1,2.51-.39v0a43.31,43.31,0,0,1,0,12.14l-.11.67-.62.28A38.94,38.94,0,0,1,189,286.44Z"/><path class="cls-6" d="M129.56,246.46c3.86-14.56,12.27-39.08,23.85-48.4,2.39-1.93,5.28-3.46,8.36-3.42,5.44.09,9.92,4.9,11.27,10.18s.22,10.85-1.32,16.07c4.58-8.53,7.34-17.27,14.14-24.15A17.87,17.87,0,0,1,196.39,192c6.22-.73,12.76,3.91,14.5,9.93s.11,12.47-2.09,18.33a45.12,45.12,0,0,1,13.79-22.16c3-2.63,9.28-6.62,13.48-5.75,3.85.8,5.91,2.74,7,5.61,3.82,10.12-.32,32.41-3.43,38.82"/><path class="cls-10" d="M171.65,221.83a1.34,1.34,0,0,1-.4-.06,1.27,1.27,0,0,1-.81-1.6l2.2-6.69a1.27,1.27,0,0,1,2.42.8l-2.2,6.68A1.28,1.28,0,0,1,171.65,221.83Z"/><path class="cls-10" d="M211.09,219h-.25a1.27,1.27,0,0,1-1-1.5l1.53-7.76a1.27,1.27,0,0,1,2.49.49L212.33,218A1.25,1.25,0,0,1,211.09,219Z"/><path class="cls-10" d="M165.65,244.44a1.27,1.27,0,0,1-.09-2.54L216,238.36a1.27,1.27,0,0,1,.17,2.53l-50.41,3.54Z"/><path class="cls-6" d="M122.62,353c-3.62-.42.22-7.35,1.89-10.6a28.55,28.55,0,0,1,6.88-8.42,14.79,14.79,0,0,1,5.5-3.32,6.45,6.45,0,0,1,6.08,1.18c1.58,1.48,1.9,4.27.37,5.79a12.73,12.73,0,0,1,8-9.27,8.44,8.44,0,0,1,4.77-.43,5.11,5.11,0,0,1,3.62,2.95,3.72,3.72,0,0,1-1.2,4.34,16,16,0,0,1,2.87-5.87,7.66,7.66,0,0,1,5.65-2.93c3.31,0,6.11,2.77,7.19,5.9s.83,6.54.56,9.84c0,0,.08,1.67-6,2.9S124.19,353,124.19,353,124.13,353.17,122.62,353Z"/><path class="cls-10" d="M174.39,339.62a1.25,1.25,0,0,1-1.27-1.25h0c0-1.37-.05-2.18-.08-3s0-1.64-.08-3-.1-2.57-.82-3.39c-1-1.14-3.3-1.65-5.5-1.22a1.27,1.27,0,0,1-1.53-.94,1.26,1.26,0,0,1,.94-1.53l.1,0c2.61-.51,6.07-.09,7.91,2a7.4,7.4,0,0,1,1.44,5c0,1.37.05,2.18.08,3s0,1.65.08,3a1.27,1.27,0,0,1-1.25,1.29h0Z"/><path class="cls-10" d="M143.6,340.56a1,1,0,0,1-.35,0,1.7,1.7,0,0,1-1.31-2h0l.91-4.31a1.69,1.69,0,0,1,3.31.7h0l-.91,4.31A1.69,1.69,0,0,1,143.6,340.56Z"/><path class="cls-10" d="M159.05,337.75h-.26a1.26,1.26,0,0,1-1-1.49h0l.91-4.32a1.27,1.27,0,0,1,2.48.52l-.9,4.32A1.28,1.28,0,0,1,159.05,337.75Z"/></svg>