<svg id="레이어_1" data-name="레이어 1" xmlns="http://www.w3.org/2000/svg" viewBox="0 0 216 46"><defs><style>.cls-1{fill:#566cdb;}.cls-2{fill:#fff;}.cls-3{fill:#d1d1e5;}.cls-4{fill:#3955e2;}</style></defs><path class="cls-1" d="M22,0H194a21.94,21.94,0,0,1,22,22v2a21.94,21.94,0,0,1-22,22H22A21.94,21.94,0,0,1,0,24V22A21.94,21.94,0,0,1,22,0Z"/><path class="cls-2" d="M60.67,24.9a5.9,5.9,0,0,1-.2-1.4c0-.5-.1-1-.1-1.5s-.1-1-.1-1.5V19.1c0-.2.2-.4.5-.5a3.4,3.4,0,0,1,1-.1,3.55,3.55,0,0,1,1,.2.51.51,0,0,1,.4.5,10.45,10.45,0,0,0,0,2.5,20.24,20.24,0,0,0,.4,2.6c0,.1.1.1.1.2a.37.37,0,0,0,.3.1h.7l.8-.1.8-.1.7-.1a.75.75,0,0,1,.8.1.82.82,0,0,1,.4.6.66.66,0,0,1-.1.6,1.47,1.47,0,0,1-.6.5l-1.2.2c-.4.1-.8.1-1.3.2a5.7,5.7,0,0,1-1.3.1h-1.2A2.2,2.2,0,0,1,61,26,6.15,6.15,0,0,0,60.67,24.9Zm8.9-7.4c0-.2.1-.3.4-.4a3.55,3.55,0,0,1,1-.2,3.4,3.4,0,0,1,1,.1c.3.1.4.2.4.4l.1,3.8,2.2-.1a.91.91,0,0,1,.7.3.86.86,0,0,1,.3.6,1.08,1.08,0,0,1-.3.7,1.14,1.14,0,0,1-.8.3h-2.1l.1,7c0,.1-.1.3-.4.4a3.09,3.09,0,0,1-.8.2,3.4,3.4,0,0,1-1-.1c-.3-.1-.4-.2-.4-.4Z"/><path class="cls-2" d="M81,28.6l.2-4.6c0-.1,0-.1.1-.2h-1.1a3.08,3.08,0,0,1-1.3-.3,1.24,1.24,0,0,1-.6-.8,5.07,5.07,0,0,1-.2-.9c0-.2-.1-.5-.1-.8s-.1-.6-.1-.9V18.4a.76.76,0,0,1,.2-.5,1.76,1.76,0,0,1,.4-.5,1.85,1.85,0,0,1,.7-.2l5.2-.3a1.14,1.14,0,0,1,.8.3,1.42,1.42,0,0,1,.2.6,1.07,1.07,0,0,1-.2.6.86.86,0,0,1-.6.3l-2.1.1c-.7,0-1.2.1-1.8.1l.2,3.1h2c.3,0,.7-.1,1-.1a1.88,1.88,0,0,0,.8-.2,1.1,1.1,0,0,1,.8,0,.66.66,0,0,1,.4.5v.3c0,.1-.1.2-.1.4s-.1.2-.2.3a.52.52,0,0,1-.4.2,5,5,0,0,1-1.2.2h-.3a.76.76,0,0,1,.2.4l-.2,4.4,2.5-.1a.91.91,0,0,1,.7.3c.2.2.2.4.3.6a.9.9,0,0,1-.9.9h-.1l-8.3.3a1.45,1.45,0,0,1-.7-.2.91.91,0,0,1-.3-.7,1.27,1.27,0,0,1,.1-.6.71.71,0,0,1,.6-.3Z"/><path class="cls-2" d="M93.87,23a11.53,11.53,0,0,1-.3-2.6c0-.9-.1-1.7-.1-2.6a.66.66,0,0,1,.4-.5,3.4,3.4,0,0,1,1-.1,3.55,3.55,0,0,1,1,.2.51.51,0,0,1,.4.5c0,.4-.1.8-.1,1.2v1c0,.3.1.7.1,1.1a7.89,7.89,0,0,0,.3,1.3c0,.1.1.1.1.2a.37.37,0,0,0,.3.1,5.7,5.7,0,0,0,1.3-.1c.4-.1.9-.1,1.3-.2a.75.75,0,0,1,.8.1.82.82,0,0,1,.4.6.66.66,0,0,1-.1.6,1.47,1.47,0,0,1-.6.5c-.7.1-1.4.3-2.2.4a8.1,8.1,0,0,1-2.2,0,2.11,2.11,0,0,1-1.3-.5A6.12,6.12,0,0,1,93.87,23Zm9.9,3.4a1.46,1.46,0,0,1,1.9,1,1.09,1.09,0,0,1,.1.5v3a1.78,1.78,0,0,1-.4,1,1.66,1.66,0,0,1-1.2.5c-.4.1-.8.1-1.2.2s-1,.1-1.5.1h-3.1c-.2,0-.4-.1-.6-.1a1.38,1.38,0,0,1-.4-.3.76.76,0,0,1-.2-.5c-.1-.5-.1-.9-.2-1.2a3.4,3.4,0,0,1-.1-1,3.4,3.4,0,0,0-.1-1,4,4,0,0,1,0-1.1v-.2c0-.2.2-.4.3-.6a.37.37,0,0,1,.3-.1Zm-.7,1.8-3.5.1v.9a5.7,5.7,0,0,0,.1,1.3.52.52,0,0,0,.2.4.85.85,0,0,0,.7,0l2.5-.1Zm-.3-10.9c0-.1.1-.3.4-.4a2.92,2.92,0,0,1,.9-.2,1.7,1.7,0,0,1,1,0c.3.1.4.2.4.4l.1,3.4,2.2-.2a.91.91,0,0,1,.7.3c.2.2.3.4.2.6a.85.85,0,0,1-.9.9l-2.2.1V25c0,.1-.1.3-.4.4a2.92,2.92,0,0,1-.9.2,1.7,1.7,0,0,1-1,0c-.3-.1-.4-.2-.4-.4Z"/><path class="cls-2" d="M115.77,18a2.54,2.54,0,0,1,1.2.2,1.76,1.76,0,0,1,.5.4.52.52,0,0,1,.2.4l-1.4,8.8a.79.79,0,0,1-.6.5,1.7,1.7,0,0,1-1,0,2.35,2.35,0,0,1-.8-.2.55.55,0,0,1-.3-.5l1.2-7.7-3.9.1a1.45,1.45,0,0,1-.7-.2.91.91,0,0,1,0-1.2,1.14,1.14,0,0,1,.8-.3Zm3.8-.7c0-.1.1-.3.4-.4a2.92,2.92,0,0,1,.9-.2h1c.3.1.5.2.5.4l.2,12.7c0,.1-.1.3-.4.4a2.92,2.92,0,0,1-.9.2,1.7,1.7,0,0,1-1,0c-.3-.1-.4-.2-.4-.4Z"/><path class="cls-2" d="M124.37,23.8a.91.91,0,0,1,.3-1,1.78,1.78,0,0,1,1-.4l3.5-.8.2-1.9-3.3.1a1.08,1.08,0,0,1-.8-.2.86.86,0,0,1-.3-.6,1.07,1.07,0,0,1,.2-.6,1.14,1.14,0,0,1,.8-.3h2.3l1.8-.1h.7a1.42,1.42,0,0,1,.6.2,1.21,1.21,0,0,1,.5.5.6.6,0,0,1,.1.4l-.3,3.3a.68.68,0,0,1-.4.6,4.18,4.18,0,0,1-1,.4l-.8.2-.9.2-.7.2-.8.2.5,2.7,3.8-.4h0a.78.78,0,0,1,.8.2.91.91,0,0,1,.3.7,4.33,4.33,0,0,1-.1.5.66.66,0,0,1-.5.4c-.3.1-.7.1-1.1.2l-1.3.1-1.3.1H127a2,2,0,0,1-1.1-.3,1.56,1.56,0,0,1-.6-.8Zm10.5-1.9V17.6c0-.2.1-.3.4-.4a2.92,2.92,0,0,1,.9-.2,3.4,3.4,0,0,1,1,.1c.3.1.4.2.4.4l.2,12.7c0,.1-.1.3-.4.4a2.92,2.92,0,0,1-.9.2,2.77,2.77,0,0,1-.9-.1.64.64,0,0,1-.5-.5l-.2-6.2-1.8.1a1.08,1.08,0,0,1-.8-.2.91.91,0,0,1-.3-.7,1.27,1.27,0,0,1,.1-.6,1,1,0,0,1,.7-.4Z"/><path class="cls-2" d="M149.57,18a2.54,2.54,0,0,1,1.2.2,1.76,1.76,0,0,1,.5.4c.1.1.1.2.1.4L150,27.8a.79.79,0,0,1-.6.5,1.7,1.7,0,0,1-1,0,2.35,2.35,0,0,1-.8-.2.55.55,0,0,1-.3-.5l1.2-7.7-3.8.2a1.45,1.45,0,0,1-.7-.2.92.92,0,0,1-.1-1.2,1.14,1.14,0,0,1,.8-.3Zm3.7-.5c0-.2.1-.3.4-.4a3.55,3.55,0,0,1,1-.2,3.4,3.4,0,0,1,1,.1c.3.1.4.2.4.4l.1,3.8,2.2-.1a.91.91,0,0,1,.7.3.86.86,0,0,1,.3.6,1.08,1.08,0,0,1-.3.7,1.14,1.14,0,0,1-.8.3l-2.1.2.1,7c0,.1-.1.3-.4.4a2.92,2.92,0,0,1-.9.2,3.4,3.4,0,0,1-1-.1c-.3-.1-.4-.2-.4-.4Z"/><path class="cls-2" d="M166.27,18a2.54,2.54,0,0,1,1.2.2,1.76,1.76,0,0,1,.5.4.52.52,0,0,1,.2.4l-1.4,8.8c-.1.3-.3.4-.6.5a1.7,1.7,0,0,1-1,0,2.35,2.35,0,0,1-.8-.2.55.55,0,0,1-.3-.5l1.2-7.7-3.8.2a1.45,1.45,0,0,1-.7-.2.86.86,0,0,1-.3-.6,1.07,1.07,0,0,1,.2-.6,1.14,1.14,0,0,1,.8-.3Zm3.8-.7c0-.1.1-.3.4-.4a2.92,2.92,0,0,1,.9-.2h1c.3.1.5.2.5.4l.2,12.7c0,.1-.1.3-.4.4a2.92,2.92,0,0,1-.9.2,1.7,1.7,0,0,1-1,0c-.3-.1-.4-.2-.4-.4Z"/><path class="cls-2" d="M175.27,29.8a1.23,1.23,0,0,1,.5-1,2.17,2.17,0,0,1,2.2,0,1.05,1.05,0,0,1,.5.9,1.23,1.23,0,0,1-.5,1,1.5,1.5,0,0,1-1.1.4,1.27,1.27,0,0,1-.6-.1,2.19,2.19,0,0,1-.5-.3c-.2-.1-.3-.3-.4-.4A4.33,4.33,0,0,0,175.27,29.8Zm1.6-2.6a1.49,1.49,0,0,1-.9-.2.51.51,0,0,1-.4-.5V17.3a.66.66,0,0,1,.4-.5,3.55,3.55,0,0,1,1-.2,1.49,1.49,0,0,1,.9.2.66.66,0,0,1,.4.5v9.1a.68.68,0,0,1-.4.6A1.3,1.3,0,0,1,176.87,27.2Z"/><circle class="cls-3" cx="44.93" cy="23.3" r="8.6"/><polygon class="cls-4" points="44.83 25.5 40.23 21.5 41.63 19.9 44.73 22.7 54.23 13.2 55.63 14.7 44.83 25.5"/></svg>