<svg id="레이어_1" data-name="레이어 1" xmlns="http://www.w3.org/2000/svg" viewBox="0 0 216 46"><defs><style>.cls-1{fill:#566cdb;}.cls-2{fill:#fff;}.cls-3{fill:#d1d1e5;}.cls-4{fill:#3955e2;}</style></defs><rect class="cls-1" width="216" height="46" rx="22"/><path class="cls-2" d="M65.17,24.93C65.09,24.5,65,24,65,23.54s-.1-1-.13-1.52-.06-1-.08-1.52,0-.95,0-1.38c0-.22.16-.37.46-.45a3.14,3.14,0,0,1,1-.1,4,4,0,0,1,1,.22c.29.11.44.27.44.46a17.82,17.82,0,0,0,0,2.53,17.76,17.76,0,0,0,.4,2.65.45.45,0,0,0,.11.19.35.35,0,0,0,.26.08l.73,0,.81-.07.81-.11.71-.14a1,1,0,0,1,.84.1,1,1,0,0,1,.42.62.83.83,0,0,1-.07.6,1.12,1.12,0,0,1-.63.45l-1.15.21c-.42.07-.83.12-1.26.16s-.85.07-1.27.09a7.55,7.55,0,0,1-1.18,0A2,2,0,0,1,65.77,26,1.85,1.85,0,0,1,65.17,24.93ZM74,17.48c0-.17.14-.3.42-.4a3.4,3.4,0,0,1,1-.2,3.72,3.72,0,0,1,1,.09c.3.08.45.2.45.38l.06,3.77L79.08,21a.88.88,0,0,1,.69.28,1,1,0,0,1,.26.64,1,1,0,0,1-.26.66.91.91,0,0,1-.75.31L76.88,23l.1,7c0,.15-.13.28-.4.37a3.92,3.92,0,0,1-.85.21,3.1,3.1,0,0,1-1-.06c-.3-.07-.44-.22-.44-.44Z"/><path class="cls-2" d="M85.42,28.59,85.63,24a.28.28,0,0,1,.06-.18c-.4,0-.75,0-1.07,0a2.93,2.93,0,0,1-1.27-.33,1.17,1.17,0,0,1-.6-.76c-.09-.35-.15-.66-.2-.93s-.09-.55-.12-.83-.06-.58-.09-.89,0-.68,0-1.1a4.19,4.19,0,0,1,0-.61,1.31,1.31,0,0,1,.17-.55,1.25,1.25,0,0,1,.41-.45,1.46,1.46,0,0,1,.72-.22l5.19-.31a1,1,0,0,1,.76.27.92.92,0,0,1,.23.6,1,1,0,0,1-.22.63.88.88,0,0,1-.63.32l-2.06.12c-.67,0-1.25.07-1.75.12L85.4,22l.9,0c.33,0,.68,0,1-.05s.68-.06,1-.1a5.42,5.42,0,0,0,.82-.16,1.07,1.07,0,0,1,.81,0,.67.67,0,0,1,.4.51.88.88,0,0,1,0,.32,1.09,1.09,0,0,1-.12.36,1.07,1.07,0,0,1-.25.32.77.77,0,0,1-.36.18,10.48,10.48,0,0,1-1.15.2l-.27,0a.53.53,0,0,1,.23.44l-.17,4.44,2.54-.12a.81.81,0,0,1,.68.28,1,1,0,0,1,.26.62.92.92,0,0,1-1,.91l-8.42.25a.76.76,0,0,1-.69-.25,1,1,0,0,1-.26-.62.92.92,0,0,1,.14-.63.77.77,0,0,1,.6-.31Z"/><path class="cls-2" d="M98.37,23c-.15-.86-.26-1.72-.34-2.56s-.11-1.7-.11-2.56q0-.33.45-.45a3.14,3.14,0,0,1,1-.11,3.94,3.94,0,0,1,1,.23c.28.11.43.26.43.45,0,.43-.06.81-.06,1.16s0,.7,0,1,.07.69.13,1.06.15.79.26,1.26a.54.54,0,0,0,.11.18.33.33,0,0,0,.26.09,8.86,8.86,0,0,0,1.34-.11c.45-.07.89-.15,1.31-.24a1,1,0,0,1,.84.09.91.91,0,0,1,.42.63.77.77,0,0,1-.07.59,1,1,0,0,1-.63.46c-.71.15-1.45.27-2.2.37a10.59,10.59,0,0,1-2.25,0,2,2,0,0,1-1.28-.5A1.82,1.82,0,0,1,98.37,23Zm9.84,3.4a1.53,1.53,0,0,1,2,1.52l0,3a1.53,1.53,0,0,1-.42,1,2.28,2.28,0,0,1-1.17.53,10,10,0,0,1-1.15.15c-.48,0-1,.07-1.48.09l-1.42,0-1,0c-.26,0-.51,0-.73,0a2.45,2.45,0,0,1-.6-.12,1.19,1.19,0,0,1-.43-.28.89.89,0,0,1-.22-.52c-.08-.46-.14-.88-.18-1.24s-.08-.71-.1-1,0-.66-.05-1,0-.68,0-1.08a1.54,1.54,0,0,1,0-.16,1.15,1.15,0,0,1,.32-.58.43.43,0,0,1,.31-.12Zm-.7,1.77-3.54.12v.87a10.7,10.7,0,0,0,.1,1.34.56.56,0,0,0,.21.44,1.36,1.36,0,0,0,.7,0l2.53-.15Zm-.33-10.87q0-.22.42-.39a3.81,3.81,0,0,1,.94-.23,3.23,3.23,0,0,1,1,0c.3.07.45.21.45.43l.06,3.43,2.25-.18a.91.91,0,0,1,.69.29.92.92,0,0,1,.25.64.94.94,0,0,1-.25.64,1,1,0,0,1-.74.32l-2.18.15,0,2.82c0,.15-.13.27-.41.37a3.46,3.46,0,0,1-.86.18,2.8,2.8,0,0,1-1,0c-.29-.07-.43-.21-.43-.43Z"/><path class="cls-2" d="M120.19,18a2,2,0,0,1,1.17.23,1.42,1.42,0,0,1,.47.38A.68.68,0,0,1,122,19l-1.44,8.77c-.05.23-.25.39-.58.46a2.53,2.53,0,0,1-1,0,2,2,0,0,1-.78-.25.58.58,0,0,1-.33-.49l1.24-7.68-3.77.19a.86.86,0,0,1-.74-.25.92.92,0,0,1,0-1.25.94.94,0,0,1,.75-.31Zm3.81-.68c0-.15.13-.28.4-.39a3.45,3.45,0,0,1,.92-.22,3.1,3.1,0,0,1,1,.05c.31.06.47.19.47.4l.16,12.74q0,.21-.42.36a3.69,3.69,0,0,1-.9.2,2.74,2.74,0,0,1-1,0c-.29-.06-.44-.21-.44-.43Z"/><path class="cls-2" d="M128.86,23.8a1,1,0,0,1,.34-1,2,2,0,0,1,1-.43l3.51-.79.25-1.85-3.27.12a.9.9,0,0,1-.77-.23.94.94,0,0,1-.26-.65,1,1,0,0,1,.24-.65,1,1,0,0,1,.75-.32h.52l.72,0,1.15,0,1.81-.09a3.36,3.36,0,0,1,.71,0,1,1,0,0,1,.58.21,1.35,1.35,0,0,1,.48.47.81.81,0,0,1,.1.44l-.33,3.33a.85.85,0,0,1-.43.64,3.92,3.92,0,0,1-1,.39l-.78.21-.9.21-.93.22-.83.19.48,2.67,3.8-.39h0a.93.93,0,0,1,.84.17.88.88,0,0,1,.3.7,1.26,1.26,0,0,1-.15.53.74.74,0,0,1-.53.41c-.33.07-.71.13-1.13.19l-1.29.14-1.34.11c-.45,0-.86,0-1.25,0a2.28,2.28,0,0,1-1.13-.27,1.31,1.31,0,0,1-.62-.8Zm10.43-1.94,0-4.34c0-.17.14-.3.4-.41a3.54,3.54,0,0,1,.92-.23,4.44,4.44,0,0,1,1,.07q.45.09.45.36L142.22,30c0,.14-.14.26-.43.37a3.3,3.3,0,0,1-.89.21,2.21,2.21,0,0,1-.94-.08c-.28-.1-.43-.25-.46-.46l-.17-6.25-1.79.14a1,1,0,0,1-.8-.22.89.89,0,0,1-.33-.66,1,1,0,0,1,.14-.63.92.92,0,0,1,.66-.38Z"/><path class="cls-2" d="M154,18a2,2,0,0,1,1.17.23,1.42,1.42,0,0,1,.47.38.68.68,0,0,1,.15.38l-1.44,8.77c-.05.23-.25.39-.58.46a2.53,2.53,0,0,1-1,0A2,2,0,0,1,152,28a.58.58,0,0,1-.33-.49l1.24-7.68-3.77.19a.86.86,0,0,1-.74-.25.92.92,0,0,1-.05-1.25.94.94,0,0,1,.75-.31Zm3.73-.53c0-.17.14-.3.42-.4a3.4,3.4,0,0,1,1-.2,3.72,3.72,0,0,1,1,.09c.3.08.45.2.45.38l.06,3.77,2.24-.14a.88.88,0,0,1,.69.28,1,1,0,0,1,.26.64,1,1,0,0,1-.26.66.91.91,0,0,1-.75.31l-2.14.17.1,7c0,.15-.13.28-.4.37a3.92,3.92,0,0,1-.85.21,3.1,3.1,0,0,1-1-.06c-.3-.07-.44-.22-.44-.44Z"/><path class="cls-2" d="M170.75,18a2,2,0,0,1,1.17.23,1.28,1.28,0,0,1,.46.38.64.64,0,0,1,.16.38l-1.44,8.77a.67.67,0,0,1-.58.46,2.54,2.54,0,0,1-1,0,2,2,0,0,1-.78-.25.58.58,0,0,1-.33-.49l1.23-7.68-3.76.19a.84.84,0,0,1-.74-.25.89.89,0,0,1-.27-.62.88.88,0,0,1,.21-.63,1,1,0,0,1,.76-.31Zm3.8-.68c0-.15.14-.28.41-.39a3.37,3.37,0,0,1,.91-.22,3.18,3.18,0,0,1,1,.05c.31.06.46.19.46.4l.17,12.74c0,.14-.14.26-.43.36a3.61,3.61,0,0,1-.89.2,2.79,2.79,0,0,1-1,0c-.29-.06-.43-.21-.43-.43Z"/><path class="cls-2" d="M179.72,29.75a1.12,1.12,0,0,1,.51-1,1.92,1.92,0,0,1,1.12-.34,1.8,1.8,0,0,1,1.08.34,1,1,0,0,1,.48.89,1.3,1.3,0,0,1-.46,1,1.64,1.64,0,0,1-1.12.4,1.52,1.52,0,0,1-.6-.11,1.63,1.63,0,0,1-.51-.3,1.34,1.34,0,0,1-.37-.42A1.13,1.13,0,0,1,179.72,29.75Zm1.59-2.5a2.27,2.27,0,0,1-.93-.17c-.27-.12-.42-.28-.43-.5s0-.54,0-1,0-1,0-1.69,0-1.31,0-2,0-1.36,0-2,0-1.11,0-1.56a9,9,0,0,1,0-.91c0-.22.16-.39.44-.51a2.42,2.42,0,0,1,1-.17,2.2,2.2,0,0,1,.86.16.53.53,0,0,1,.39.5v3.68c0,.48,0,1,0,1.44s0,.94,0,1.38c0,.63,0,1.18,0,1.65s0,.79,0,1a.6.6,0,0,1-.41.56A2.13,2.13,0,0,1,181.31,27.25Z"/><circle class="cls-3" cx="48.39" cy="23.3" r="8.6"/><polygon class="cls-4" points="48.38 25.5 43.75 21.45 45.1 19.91 48.28 22.69 57.72 13.25 59.17 14.7 48.38 25.5"/></svg>