<svg id="레이어_1" data-name="레이어 1" xmlns="http://www.w3.org/2000/svg" viewBox="0 0 280 440"><defs><style>.cls-1{fill:#c2dbff;}.cls-2{fill:#fff;}.cls-3{fill:#231815;}.cls-4{fill:#70d191;}.cls-17,.cls-5,.cls-9{isolation:isolate;}.cls-6{fill:#664008;}.cls-7{fill:#c96;}.cls-8{fill:none;stroke:#c2dbff;stroke-miterlimit:10;stroke-dasharray:1;}.cls-17,.cls-18,.cls-9{fill:#88adff;}.cls-9{opacity:0.53;}.cls-10{fill:#b9ddf1;}.cls-11{fill:#a1b3e3;}.cls-12{fill:#fdc97a;}.cls-13{fill:#f5855a;}.cls-14{fill:#182a85;}.cls-15{opacity:0.49;}.cls-16{fill:#fdfdff;}.cls-17{opacity:0.6;}</style></defs><path class="cls-1" d="M261.8,36.9h-.2a14.77,14.77,0,0,0-2.1-.1H173.2a25.49,25.49,0,0,0,.2-3.9,33.76,33.76,0,0,0-67.5,0c0,1.3.1,2.6.2,3.9H19.9a16.41,16.41,0,0,0-2.3.2A18.13,18.13,0,0,0,0,55.1V421.9A18.18,18.18,0,0,0,18.2,440H261.8A18.18,18.18,0,0,0,280,421.9V55.1a18.2,18.2,0,0,0-18.2-18.2Z"/><path class="cls-2" d="M145.2,18a5.89,5.89,0,0,1,5,6.7h0a5,5,0,0,1-.9,2.3"/><path class="cls-3" d="M149.8,27.3l-.9-.6a5.37,5.37,0,0,0-3.7-8.2l.1-1a6.43,6.43,0,0,1,5.4,7.3,5.81,5.81,0,0,1-.9,2.5Z"/><path class="cls-2" d="M144.5,13.8,152,30.7a.63.63,0,0,1-.3.8h0c-.1,0-.2.1-.3.1a52.49,52.49,0,0,0-25,4.8.63.63,0,0,1-.8-.3L122.5,29a.63.63,0,0,1,.3-.8,75.34,75.34,0,0,0,20.7-14.6.75.75,0,0,1,.9,0C144.4,13.7,144.5,13.7,144.5,13.8Z"/><path class="cls-3" d="M151.9,32a.9.9,0,0,1-.5.1,52.36,52.36,0,0,0-24.3,4.5l-.5.2a1.1,1.1,0,0,1-1.5-.6h0l-3.2-7.1a1.18,1.18,0,0,1,.6-1.5h0a78.28,78.28,0,0,0,20.6-14.5,1.12,1.12,0,0,1,1.6,0h0a.52.52,0,0,1,.2.4l7.5,16.9a1.07,1.07,0,0,1-.1,1.1C152.3,31.8,152.1,31.9,151.9,32Zm-25.1,3.7A53.68,53.68,0,0,1,151.5,31h.1v-.1h0L144,14v-.1h-.1A76.65,76.65,0,0,1,123,28.6v.1l3,7.1h.1Z"/><path class="cls-4" d="M123.5,28.1l3.6-1.6a1,1,0,0,1,1.3.5l2.6,5.8a1,1,0,0,1-.5,1.3l-3.6,1.6a1,1,0,0,1-1.3-.5L123,29.4A1,1,0,0,1,123.5,28.1Z"/><path class="cls-2" d="M131.5,34.3s5.7,9.9,6.2,10,3.5-2.3,3.5-2.3l-5.6-9Z"/><path class="cls-3" d="M138.4,44.7a1.06,1.06,0,0,1-.8.1c-.1,0-.8-.2-6.6-10.3a.57.57,0,0,1,.2-.7h.1l4.2-1.2a.48.48,0,0,1,.6.2l5.6,8.9a.62.62,0,0,1-.1.7A17.19,17.19,0,0,1,138.4,44.7Zm-.5-.9h0a15.72,15.72,0,0,0,2.6-1.9l-5.1-8.2-3.1.9c2.3,4,4.9,8.3,5.6,9.2Z"/><rect class="cls-3" x="129.11" y="25.4" width="1.1" height="9.5" transform="translate(-1.03 55.45) rotate(-24.05)"/><rect class="cls-3" x="125.82" y="26.9" width="1.1" height="9.3" transform="translate(-1.89 54.23) rotate(-24.05)"/><path class="cls-3" d="M131.4,26.5a.66.66,0,0,1-.7-.2c-.1-.2-.1-.6.2-.7h0l1.5-.9a.5.5,0,1,1,.6.8h-.1l-1.5,1Z"/><path class="cls-3" d="M134.5,24.6a.51.51,0,0,1-.5-.9,28,28,0,0,0,5.7-4.6.48.48,0,0,1,.7,0h0a.48.48,0,0,1,0,.7h0a24.84,24.84,0,0,1-5.9,4.8Z"/><path class="cls-2" d="M149.1,14l.9-2.1"/><path class="cls-3" d="M149.3,14.5a.3.3,0,0,1-.4,0,.52.52,0,0,1-.3-.7h0l1-2.1a.44.44,0,0,1,.7-.2.55.55,0,0,1,.3.5l-.1.1-1,2.1A.77.77,0,0,1,149.3,14.5Z"/><path class="cls-2" d="M157,27.7l-2.2-.7"/><path class="cls-3" d="M157.3,28.1h-.4l-2.2-.7c-.3-.1-.5-.4-.4-.6s.4-.5.6-.4h.1l2.2.7a.67.67,0,0,1,.4.7h0Q157.45,28.1,157.3,28.1Z"/><path class="cls-2" d="M157.5,22.7l-2.4.3"/><path class="cls-3" d="M157.7,23.2l-.1.1-2.4.2a.56.56,0,0,1-.6-.5.63.63,0,0,1,.5-.6h0l2.4-.2a.63.63,0,0,1,.6.5h0A1,1,0,0,1,157.7,23.2Z"/><path class="cls-2" d="M156.7,18.4l-2.2,1"/><path class="cls-3" d="M156.9,18.8l-2.2,1a.52.52,0,0,1-.7-.3h0a.52.52,0,0,1,.3-.7h0l2.2-1a.54.54,0,0,1,.4,1Z"/><path class="cls-2" d="M152.2,16.5l1.8-1.6"/><path class="cls-3" d="M152.4,17a.52.52,0,0,1-.7-.3.66.66,0,0,1,.1-.6l1.8-1.6a.48.48,0,0,1,.7,0h0a.48.48,0,0,1,0,.7h0l-1.8,1.6C152.5,16.9,152.5,17,152.4,17Z"/><path class="cls-2" d="M30.5,50.6h219a18.05,18.05,0,0,1,18,18v342a18.05,18.05,0,0,1-18,18H30.5a18.05,18.05,0,0,1-18-18V68.6A18.05,18.05,0,0,1,30.5,50.6Z"/><g class="cls-5"><path class="cls-6" d="M74.59,279c.07.07.08.2,0,.37a1.36,1.36,0,0,1-.31.52l-.35.32a1.16,1.16,0,0,1-.37.21.71.71,0,0,1-.38,0,.85.85,0,0,1-.38-.21q-.51-.36-1.08-.81a5.9,5.9,0,0,1-1-1L68.68,281a.8.8,0,0,1-.77.25,1.71,1.71,0,0,1-.86-.45,1.47,1.47,0,0,1-.43-.51.42.42,0,0,1,0-.48l1.1-1.25,1.17-1.41c.39-.48.75-1,1.1-1.41s.64-.88.88-1.25l-3.4.38a1,1,0,0,1-.83-.23,1,1,0,0,1-.31-.61,1,1,0,0,1,.12-.65A.65.65,0,0,1,67,273l5.68-.38a1,1,0,0,1,.7.26,2.77,2.77,0,0,1,.5.62A1.71,1.71,0,0,1,74,274a.6.6,0,0,1-.11.44l-1.78,2.3Zm3.19,3.06a2.15,2.15,0,0,1,1.29.21,1,1,0,0,1,.52.81l0,4.52c0,.19-.14.36-.42.49a3.06,3.06,0,0,1-.89.27,2.49,2.49,0,0,1-1,0c-.29-.07-.44-.23-.44-.47l0-3.95-4.41.15a1,1,0,0,1-.79-.22.93.93,0,0,1-.29-.63.88.88,0,0,1,.22-.62,1,1,0,0,1,.77-.3Zm-1.27-9.45c0-.16.15-.29.43-.41a4.45,4.45,0,0,1,1-.23,3.37,3.37,0,0,1,1,0c.31.07.46.21.46.44l.07,3.52,2.3-.19a.91.91,0,0,1,.71.3,1,1,0,0,1,.26.65,1,1,0,0,1-1,1l-2.24.14,0,2.9c0,.15-.14.28-.42.38a4.26,4.26,0,0,1-.89.19,2.89,2.89,0,0,1-1-.05c-.3-.07-.44-.21-.44-.44Z"/><path class="cls-6" d="M86.67,272.84c.07-.21.27-.33.6-.35a2.5,2.5,0,0,1,1,.14A2.35,2.35,0,0,1,89,273c.21.15.28.31.21.46l-.65,1.73c.2.28.39.53.58.75l.54.6c.34.36.66.68,1,1s.59.57.85.81a.47.47,0,0,1,.16.52,1.39,1.39,0,0,1-.28.6,2.65,2.65,0,0,1-.38.37,1.32,1.32,0,0,1-.45.21,1.19,1.19,0,0,1-.46,0,.94.94,0,0,1-.44-.27,11.34,11.34,0,0,1-1.06-.94c-.35-.34-.69-.7-1-1.08v0l-1.21,2.8a.68.68,0,0,1-.64.26,2.65,2.65,0,0,1-1-.19,2.77,2.77,0,0,1-.68-.4c-.18-.16-.24-.31-.17-.47.27-.64.52-1.25.75-1.82s.46-1.13.68-1.67.43-1.09.64-1.65S86.44,273.47,86.67,272.84Zm5.42,16a5.37,5.37,0,0,1-1.72-.25,3.35,3.35,0,0,1-1.24-.72,2.81,2.81,0,0,1-.72-1.09,2.9,2.9,0,0,1-.12-1.39,3.49,3.49,0,0,1,.52-1.46,4,4,0,0,1,1-1.08,4.62,4.62,0,0,1,1.39-.68,5.61,5.61,0,0,1,1.59-.23,5,5,0,0,1,1.62.25,3.53,3.53,0,0,1,1.26.72A3.11,3.11,0,0,1,96.5,284a2.67,2.67,0,0,1,.15,1.39,3.36,3.36,0,0,1-.52,1.46A4.19,4.19,0,0,1,95.07,288a4.92,4.92,0,0,1-1.4.68A5.64,5.64,0,0,1,92.09,288.86Zm2.12-14.08,0-2.2c0-.16.14-.31.41-.42a3.7,3.7,0,0,1,.94-.23,2.75,2.75,0,0,1,1,.14c.3.1.45.25.45.43l.23,8.3c0,.14-.14.26-.43.36a4.41,4.41,0,0,1-.92.19,2.33,2.33,0,0,1-1-.07c-.29-.08-.45-.23-.47-.44l-.17-4.14-2,.15a.92.92,0,0,1-.85-.18A1,1,0,0,1,91,276a1.06,1.06,0,0,1,.17-.71.85.85,0,0,1,.74-.34Zm-1.61,9a1.44,1.44,0,0,0-1,.43,1.83,1.83,0,0,0-.5,1.33,2.06,2.06,0,0,0,.09.74,1.32,1.32,0,0,0,.28.48,1.11,1.11,0,0,0,.41.28,1.55,1.55,0,0,0,.47.08,1.22,1.22,0,0,0,1-.48,1.93,1.93,0,0,0,.41-1.1,2,2,0,0,0-.28-1.27A1.07,1.07,0,0,0,92.6,283.79Z"/><path class="cls-6" d="M101.55,274.8l-.38-3.31c0-.19.16-.35.42-.5a2.94,2.94,0,0,1,.89-.31,4.58,4.58,0,0,1,.53,0,1.93,1.93,0,0,1,.5.09,1.29,1.29,0,0,1,.37.19.43.43,0,0,1,.16.3l.38,3.53,1.61,0a.85.85,0,0,1,.71.28,1,1,0,0,1,.2.63,1.12,1.12,0,0,1-.3.63,1,1,0,0,1-.74.27l-6.16.21a1.1,1.1,0,0,1-.84-.29,1.08,1.08,0,0,1-.32-.68.92.92,0,0,1,.17-.66.84.84,0,0,1,.73-.31Zm1,9.59a3.82,3.82,0,0,1-1.42-.26,2.89,2.89,0,0,1-1.08-.7,2.63,2.63,0,0,1-.63-1.09,3.21,3.21,0,0,1-.12-1.36,3.5,3.5,0,0,1,.44-1.38,4.14,4.14,0,0,1,.86-1.08,3.71,3.71,0,0,1,1.19-.69,4.24,4.24,0,0,1,1.42-.24,3.61,3.61,0,0,1,1.3.24,3.4,3.4,0,0,1,1.09.68,2.81,2.81,0,0,1,.72,1.07,2.9,2.9,0,0,1,.16,1.4,3.81,3.81,0,0,1-.43,1.41,3.68,3.68,0,0,1-.88,1.07,4.15,4.15,0,0,1-2.62.93Zm.43-5.11a.88.88,0,0,0-.72.43,2.6,2.6,0,0,0-.36,1.38,2,2,0,0,0,.25,1.3.88.88,0,0,0,.66.35.8.8,0,0,0,.76-.45,3.18,3.18,0,0,0,.27-1.2,2.64,2.64,0,0,0-.17-1.36A.73.73,0,0,0,103,279.28Zm4.85-5.89c0-.17.14-.32.41-.44a3.27,3.27,0,0,1,.92-.24,4,4,0,0,1,1,0c.31.06.47.19.47.38l.08,4.25,1.48-.13-.08-4.37c0-.17.13-.31.4-.42a3.41,3.41,0,0,1,.93-.24,4.51,4.51,0,0,1,1,.08c.3.06.45.19.45.37l.3,13c0,.16-.13.29-.4.38a4.61,4.61,0,0,1-.87.22,2.87,2.87,0,0,1-1-.09c-.29-.08-.43-.24-.43-.46l-.26-6.61-1.47.15.12,5.27c0,.16-.13.29-.4.38a4,4,0,0,1-.86.21,3.25,3.25,0,0,1-1-.06c-.29-.07-.43-.22-.43-.44Z"/><path class="cls-6" d="M121.21,283.14l-3.55.08A.78.78,0,0,1,117,283a1.07,1.07,0,0,1-.26-.66,1,1,0,0,1,.13-.65.81.81,0,0,1,.57-.39l9-.25a.87.87,0,0,1,.71.3,1.06,1.06,0,0,1,.26.65,1.21,1.21,0,0,1-.24.7.92.92,0,0,1-.79.33l-2.28.09-.47,5c0,.2-.21.34-.52.42a2.69,2.69,0,0,1-1,.09,3.76,3.76,0,0,1-.92-.22c-.26-.11-.37-.25-.35-.41ZM122.5,274l-3.55.4a1,1,0,0,1-.82-.24,1,1,0,0,1-.32-.61.89.89,0,0,1,.15-.64.73.73,0,0,1,.55-.33l5.84-.42a1.38,1.38,0,0,1,.7.18,1.28,1.28,0,0,1,.49.49,1.35,1.35,0,0,1,.17.66.71.71,0,0,1-.15.51l-1.61,1.6c.13.14.29.29.47.45s.37.32.57.48.39.3.58.42.36.23.52.32a.61.61,0,0,1,.22.23.68.68,0,0,1,.08.31.82.82,0,0,1,0,.31.86.86,0,0,1-.1.25,1.74,1.74,0,0,1-.87.56,1.06,1.06,0,0,1-.91-.22L122.39,277l-1,.95-1.4,1.27a.76.76,0,0,1-.76.13,1.93,1.93,0,0,1-.8-.49,1.56,1.56,0,0,1-.34-.52.41.41,0,0,1,.11-.48c.31-.25.66-.55,1-.89l1.2-1.06,1.15-1.06Z"/><path class="cls-6" d="M131.58,273.39c.07-.22.27-.34.6-.37a2.31,2.31,0,0,1,1,.11,2.6,2.6,0,0,1,.76.4c.21.17.28.34.21.49l-.65,1.77a7,7,0,0,0,.58.75l.54.6c.33.36.65.68,1,1s.58.56.85.8a.48.48,0,0,1,.16.53,1.4,1.4,0,0,1-.28.59,2.28,2.28,0,0,1-.39.37,1.27,1.27,0,0,1-.44.21,1.19,1.19,0,0,1-.46,0,1,1,0,0,1-.45-.27,12.7,12.7,0,0,1-1-.94c-.35-.34-.69-.7-1-1.06l-1.2,2.81c-.1.17-.31.25-.64.25a2.45,2.45,0,0,1-1-.19,2.6,2.6,0,0,1-.68-.4c-.18-.16-.24-.31-.17-.47.27-.64.52-1.25.75-1.82l.68-1.69c.22-.56.43-1.11.64-1.67Zm4.75,15a2.28,2.28,0,0,1-.69,0,2.66,2.66,0,0,1-.62-.19,1.31,1.31,0,0,1-.45-.34.62.62,0,0,1-.14-.46l.29-4.9a.37.37,0,0,1,.14-.29,1,1,0,0,1,.35-.18,2.19,2.19,0,0,1,.47-.08,4.87,4.87,0,0,1,.54,0,3.21,3.21,0,0,1,1,.22c.29.12.43.28.41.47l-.21,3.93,4.29-.17a.94.94,0,0,1,.78.22.85.85,0,0,1,.25.61.9.9,0,0,1-.26.6,1,1,0,0,1-.75.3l-4,.24-1.39.06Zm2.49-15.79c0-.16.13-.29.41-.41a4,4,0,0,1,.94-.23,3.31,3.31,0,0,1,1,.06c.32.06.48.2.48.41l.17,9.75c0,.14-.15.27-.44.37a3.42,3.42,0,0,1-.92.2,2.93,2.93,0,0,1-1,0c-.29-.07-.44-.22-.44-.44Z"/><path class="cls-6" d="M157.63,278.37l-1.67,0c0,.66,0,1.34,0,2a1.49,1.49,0,0,1-.4,1,2.6,2.6,0,0,1-1.12.59,8.84,8.84,0,0,1-1.05.16l-1,.1-1,.05h-.81a2,2,0,0,1-1.25-.36,1.57,1.57,0,0,1-.56-1,2.77,2.77,0,0,1,0-.39c0-.16,0-.43,0-.79s0-.84-.06-1.44-.06-1.4-.1-2.39a2.08,2.08,0,0,1,.14-1.13,1.22,1.22,0,0,1,.87-.6l4.43-.38a2.06,2.06,0,0,1,1.5.34,1.49,1.49,0,0,1,.61,1.1c0,.43.05.87.05,1.3l1.56-.08-.09-3.1c0-.17.13-.32.4-.44a2.85,2.85,0,0,1,.87-.24l.51,0a2,2,0,0,1,.45.05,1.2,1.2,0,0,1,.34.15.28.28,0,0,1,.14.24l.29,11.4c0,.16-.14.29-.42.38a4.23,4.23,0,0,1-.93.21,2.59,2.59,0,0,1-.95-.07c-.27-.08-.41-.22-.44-.43Zm-6.4-2.51c0,.11,0,.26,0,.44s0,.44,0,.78,0,.78.07,1.32.06,1.24.1,2.08l1.69-.21c0-.27,0-.61,0-1V278c0-.44,0-.86,0-1.27s0-.75-.07-1Zm10-3c0-.17.13-.31.4-.42a3.51,3.51,0,0,1,.93-.24,4.51,4.51,0,0,1,1,.08c.3.06.46.19.46.37l.21,13c0,.16-.14.29-.41.38a4.33,4.33,0,0,1-.86.22,3.46,3.46,0,0,1-1-.07c-.29-.07-.44-.22-.44-.44Z"/><path class="cls-6" d="M168.8,273.68a.49.49,0,0,1,.22-.23,1.07,1.07,0,0,1,.37-.11,1.48,1.48,0,0,1,.46,0,2.13,2.13,0,0,1,.49.15,3.39,3.39,0,0,1,.73.41c.2.15.29.31.26.46l-.88,2.32a6.79,6.79,0,0,0,.61.9c.29.39.62.78,1,1.19s.69.79,1,1.14a6.15,6.15,0,0,0,.77.72c.06.06.05.18,0,.37a1.92,1.92,0,0,1-.38.56,2.65,2.65,0,0,1-.42.33,1.48,1.48,0,0,1-.48.18,1,1,0,0,1-.46,0,.72.72,0,0,1-.39-.29c-.42-.42-.82-.84-1.2-1.25a12.47,12.47,0,0,1-.93-1.09c-.2.67-.39,1.28-.58,1.82a9.14,9.14,0,0,1-.63,1.43.74.74,0,0,1-.65.26,2.89,2.89,0,0,1-.95-.2,3.07,3.07,0,0,1-.72-.4c-.2-.15-.27-.3-.23-.44.55-1.33,1.09-2.71,1.61-4.16S168.38,275,168.8,273.68Zm5.74,4.67-1.33,0a.91.91,0,0,1-.8-.24,1,1,0,0,1-.28-.62.84.84,0,0,1,.17-.61,1,1,0,0,1,.64-.37l1.58,0,0-3.08c0-.17.14-.32.41-.44a3.49,3.49,0,0,1,.9-.24,4.17,4.17,0,0,1,.5,0,2.11,2.11,0,0,1,.46.07,1.69,1.69,0,0,1,.33.16.29.29,0,0,1,.14.25l.21,11.33c0,.16-.13.29-.39.38a3.7,3.7,0,0,1-.87.21,3.25,3.25,0,0,1-1-.06c-.28-.07-.42-.22-.42-.44Zm4.08-5.47c0-.17.13-.31.4-.42a3.32,3.32,0,0,1,.93-.24,4.51,4.51,0,0,1,1,.08c.3.06.45.19.45.37l.21,13c0,.16-.13.29-.4.38a4.33,4.33,0,0,1-.86.22,3.56,3.56,0,0,1-1-.07c-.28-.07-.43-.22-.43-.44Z"/><path class="cls-6" d="M187.38,275.35l-3.53.27a.88.88,0,0,1-.84-.16,1.06,1.06,0,0,1-.32-.64.92.92,0,0,1,.13-.6.67.67,0,0,1,.53-.33l5.67-.42a1.17,1.17,0,0,1,.69.21,1.31,1.31,0,0,1,.46.51,2.32,2.32,0,0,1,.19.6.73.73,0,0,1-.09.5l-1.81,2.51a11.85,11.85,0,0,0,1.16,1.36c.4.42.82.83,1.24,1.24a.41.41,0,0,1,.09.48,1.46,1.46,0,0,1-.36.55,1.89,1.89,0,0,1-.84.49.85.85,0,0,1-.83-.21h0c-.42-.38-.78-.72-1.07-1s-.58-.62-.87-1l-2,2.58a.7.7,0,0,1-.72.23,2,2,0,0,1-.88-.4,1.8,1.8,0,0,1-.47-.53.38.38,0,0,1,0-.49Zm5.55-2.66c0-.15.14-.29.41-.4a3.7,3.7,0,0,1,.94-.23,3.75,3.75,0,0,1,1,.05c.31.06.47.2.47.41l.17,13.07c0,.14-.15.26-.43.37a4,4,0,0,1-.92.2,3,3,0,0,1-1,0c-.29-.07-.44-.22-.44-.45Z"/><path class="cls-6" d="M199,280.56l8.89-.21a.93.93,0,0,1,.71.28,1,1,0,0,1,.26.61.94.94,0,0,1-.24.61,1,1,0,0,1-.75.32l-8.64.25a.76.76,0,0,1-.71-.25,1.08,1.08,0,0,1-.26-.63,1,1,0,0,1,.14-.64A.77.77,0,0,1,199,280.56Zm2.62-2.19a1.86,1.86,0,0,1-.66,0,2.74,2.74,0,0,1-.61-.21,1.57,1.57,0,0,1-.45-.34.63.63,0,0,1-.18-.43l.25-4.69c0-.18.2-.32.52-.4a3.37,3.37,0,0,1,1-.11,4.21,4.21,0,0,1,.53.08,2.41,2.41,0,0,1,.45.13,1.18,1.18,0,0,1,.32.2.37.37,0,0,1,.12.27l-.26,3.59,4-.21a.92.92,0,0,1,.73.28.89.89,0,0,1,.24.64,1.07,1.07,0,0,1-.26.68,1,1,0,0,1-.78.34l-5,.21Zm.4,11.51a2.3,2.3,0,0,1-.69,0,2.66,2.66,0,0,1-.62-.18,1.27,1.27,0,0,1-.44-.34.6.6,0,0,1-.15-.47l.29-4.2a.35.35,0,0,1,.14-.28.89.89,0,0,1,.35-.18,2.18,2.18,0,0,1,.47-.09l.54,0a3.08,3.08,0,0,1,1,.22q.43.18.42.48L203,288l4.29-.17a.91.91,0,0,1,.78.22.81.81,0,0,1,0,1.2,1,1,0,0,1-.75.31l-4,.23-1.39.07Z"/></g><g class="cls-5"><path class="cls-6" d="M63.18,310.19c0-.42.08-.8.11-1.13s0-.67.06-1,0-.74,0-1.14,0-.91,0-1.48c0-.2.15-.35.44-.47a2.87,2.87,0,0,1,1-.17,3.11,3.11,0,0,1,1,.16c.29.11.44.28.44.52s0,.47,0,.7,0,.5,0,.83,0,.75,0,1.25,0,1.13-.1,1.91l2.6-.13a.91.91,0,0,1,.71.28,1.09,1.09,0,0,1,.26.65,1,1,0,0,1-.24.61,1,1,0,0,1-.75.32,6.92,6.92,0,0,1-.78.06c-.33,0-.69,0-1.09,0l-1.26,0-1.26,0-4.25.1a.74.74,0,0,1-.7-.25,1.1,1.1,0,0,1-.27-.64.89.89,0,0,1,.15-.64.79.79,0,0,1,.61-.33ZM64,298a.79.79,0,0,1,.72-.3,2.32,2.32,0,0,1,1.06.27,2.38,2.38,0,0,1,.56.43.42.42,0,0,1,.13.48l-1,1.69A9.13,9.13,0,0,0,67,302.11c.48.4,1,.83,1.66,1.28.07.07.07.2,0,.38a2.17,2.17,0,0,1-.3.53,1.91,1.91,0,0,1-.78.53.9.9,0,0,1-.87-.21c-.42-.29-.81-.57-1.18-.86a14.71,14.71,0,0,1-1.18-1.05l-1.39,2.5a.66.66,0,0,1-.7.24,3.21,3.21,0,0,1-1.51-.81c-.15-.17-.18-.32-.1-.45.27-.46.55-1,.85-1.49s.59-1.06.88-1.61l.88-1.62Z"/><path class="cls-6" d="M76.63,316.21a4.28,4.28,0,0,1-3-.94,2.71,2.71,0,0,1-.82-2.46,3.36,3.36,0,0,1,.52-1.46,3.75,3.75,0,0,1,1-1.07,4.71,4.71,0,0,1,1.38-.64l.36-.11a.58.58,0,0,1,0-.1l.17-2-3.86.17a.76.76,0,0,1-.7-.24,1.21,1.21,0,0,1-.27-.67,1.11,1.11,0,0,1,.14-.65.72.72,0,0,1,.6-.34l8.82-.25a1,1,0,0,1,.75.27.88.88,0,0,1,0,1.25,1.12,1.12,0,0,1-.75.34l-2,.08-.21,2.11a1.31,1.31,0,0,1-.05.15l.15,0a3.75,3.75,0,0,1,1.28.7,2.92,2.92,0,0,1,.78,1.06,2.57,2.57,0,0,1,.16,1.39,3.33,3.33,0,0,1-.53,1.45,3.82,3.82,0,0,1-1,1.07,4.65,4.65,0,0,1-1.41.65A5.57,5.57,0,0,1,76.63,316.21Zm2.13-15.94a7,7,0,0,0,1,.9,7.82,7.82,0,0,0,1.08.7.45.45,0,0,1,.23.45,1,1,0,0,1-.21.54,1.66,1.66,0,0,1-.77.57.91.91,0,0,1-.87-.12c-.37-.23-.71-.47-1-.71a10.69,10.69,0,0,1-1-1l-1.28,1.07-1.21,1a.68.68,0,0,1-.79.19,2.21,2.21,0,0,1-.8-.55,1.08,1.08,0,0,1-.3-.51.4.4,0,0,1,.07-.42l4.43-3.59-3.59.4a1,1,0,0,1-.82-.23,1.07,1.07,0,0,1-.32-.61,1,1,0,0,1,.16-.65.74.74,0,0,1,.54-.32l5.93-.38a1.15,1.15,0,0,1,.68.22,1.65,1.65,0,0,1,.48.51,1.6,1.6,0,0,1,.21.6.5.5,0,0,1-.14.44h0Zm-1.62,11a1.54,1.54,0,0,0-1,.4,1.78,1.78,0,0,0-.49,1.31,1.82,1.82,0,0,0,.08.74,1.26,1.26,0,0,0,.29.48,1,1,0,0,0,.41.25,1.47,1.47,0,0,0,.46.07,1.27,1.27,0,0,0,1.05-.46,2,2,0,0,0,.41-1.08,1.9,1.9,0,0,0-.29-1.24A1,1,0,0,0,77.14,311.22Z"/><path class="cls-6" d="M86.76,300.75l-.38-2.89c0-.18.16-.35.43-.5a2.55,2.55,0,0,1,.88-.3,3.08,3.08,0,0,1,.53,0,1.93,1.93,0,0,1,.5.09,1.29,1.29,0,0,1,.37.19.45.45,0,0,1,.16.31l.38,3.1,1.82,0a.85.85,0,0,1,.71.28.92.92,0,0,1,.2.63,1.12,1.12,0,0,1-.3.63,1,1,0,0,1-.74.27l-6.58.21a1.1,1.1,0,0,1-.84-.29,1.15,1.15,0,0,1-.33-.68,1,1,0,0,1,.18-.66.84.84,0,0,1,.73-.31Zm1,9.59a4.36,4.36,0,0,1-1.54-.26,3.13,3.13,0,0,1-1.14-.7,2.49,2.49,0,0,1-.66-1.09,3.42,3.42,0,0,1,.35-2.74,4.08,4.08,0,0,1,2.2-1.77,4.5,4.5,0,0,1,1.45-.24,4.11,4.11,0,0,1,1.42.24,3.37,3.37,0,0,1,1.15.68,2.86,2.86,0,0,1,.74,1.07,2.78,2.78,0,0,1,.17,1.4,3.23,3.23,0,0,1-.47,1.41,3.94,3.94,0,0,1-1,1.07,4.25,4.25,0,0,1-1.28.68A4.18,4.18,0,0,1,87.73,310.34Zm.45-5.11a1.15,1.15,0,0,0-.88.43,2.2,2.2,0,0,0-.43,1.38,1.74,1.74,0,0,0,.3,1.29,1.1,1.1,0,0,0,.8.36,1,1,0,0,0,.91-.45,3,3,0,0,0,.13-2.56A.93.93,0,0,0,88.18,305.23Zm6.14-6.59c0-.15.14-.29.41-.4a3.7,3.7,0,0,1,.94-.23,3.75,3.75,0,0,1,1,.05c.31.06.47.2.47.41l.17,13.07c0,.14-.14.26-.43.37a4,4,0,0,1-.92.2,2.9,2.9,0,0,1-1,0q-.45-.1-.45-.45Z"/><path class="cls-6" d="M112,305.12a.42.42,0,0,1,.1.46,1.16,1.16,0,0,1-.32.51,1.9,1.9,0,0,1-.81.49.92.92,0,0,1-.85-.19,6,6,0,0,1-1-.87c-.23-.26-.49-.56-.79-.88-.11.15-.32.4-.64.75s-.76.87-1.34,1.59a1.06,1.06,0,0,1-.93.35,2,2,0,0,1-.91-.37,1.63,1.63,0,0,1-.44-.52.38.38,0,0,1,0-.47c.76-.85,1.51-1.71,2.24-2.59a26.37,26.37,0,0,0,2-2.71L105,301a1,1,0,0,1-.83-.22,1,1,0,0,1-.31-.61,1,1,0,0,1,.11-.62.66.66,0,0,1,.52-.33l5.7-.42a1.08,1.08,0,0,1,.72.27,2.87,2.87,0,0,1,.55.68.87.87,0,0,1,.1.42.65.65,0,0,1-.12.4c-.2.28-.42.58-.67.9l-1,1.32a10.23,10.23,0,0,0,1.09,1.27C111.24,304.44,111.63,304.78,112,305.12Zm0,9.25a2.28,2.28,0,0,1-.69,0,2.66,2.66,0,0,1-.62-.19,1.31,1.31,0,0,1-.45-.34.62.62,0,0,1-.14-.46l.29-4.9a.37.37,0,0,1,.14-.29,1.27,1.27,0,0,1,.35-.18,2.19,2.19,0,0,1,.47-.08,4.87,4.87,0,0,1,.54,0,3.21,3.21,0,0,1,1,.22c.29.12.43.28.41.47l-.21,3.93,4.29-.17a.94.94,0,0,1,.78.22.85.85,0,0,1,.25.61.9.9,0,0,1-.26.6,1,1,0,0,1-.75.3l-4,.24-1.39.06Zm2.78-13.07,0-2.77c0-.16.14-.31.41-.42a3.7,3.7,0,0,1,.94-.23,2.75,2.75,0,0,1,1,.14c.3.1.45.25.45.43l.23,9.86c0,.14-.14.26-.43.36a4,4,0,0,1-.92.19,2.33,2.33,0,0,1-1-.07c-.29-.08-.45-.23-.48-.44l-.16-5.13-2,.15a.94.94,0,0,1-.86-.18,1,1,0,0,1-.32-.71,1,1,0,0,1,.17-.7.83.83,0,0,1,.73-.35Z"/><path class="cls-6" d="M121,299.08l5.32-.31a1,1,0,0,1,.78.27.9.9,0,0,1,.23.61,1,1,0,0,1-.22.65.85.85,0,0,1-.64.32c-.72.06-1.42.1-2.11.13s-1.29.07-1.8.13l.32,3.19.85,0a9.08,9.08,0,0,0,.91,0c.3,0,.6-.06.88-.1a5.62,5.62,0,0,0,.78-.17,1.12,1.12,0,0,1,.83,0,.67.67,0,0,1,.41.53.75.75,0,0,1,0,.33,1.23,1.23,0,0,1-.12.37,1.52,1.52,0,0,1-.26.32.69.69,0,0,1-.37.19,18.23,18.23,0,0,1-2.32.33,16,16,0,0,1-2.38,0,2.89,2.89,0,0,1-1.3-.33,1.16,1.16,0,0,1-.62-.77c-.09-.35-.16-.67-.21-.95s-.09-.56-.12-.85-.07-.59-.09-.91,0-.69,0-1.13a3.24,3.24,0,0,1,0-.62,1.32,1.32,0,0,1,.59-1A1.51,1.51,0,0,1,121,299.08Zm5.4,11.62,3.7-.41.11-1.37-4.46.13a.88.88,0,0,1-.79-.26.9.9,0,0,1-.27-.63,1,1,0,0,1,.25-.65,1,1,0,0,1,.77-.32l5.42-.17a2.08,2.08,0,0,1,1.34.28.94.94,0,0,1,.5.86c0,.42-.06.87-.09,1.34s-.09.94-.14,1.41a1,1,0,0,1-.49.71,2.75,2.75,0,0,1-1.05.34l-.33,0-.58.07-1,.1-1.62.17a5,5,0,0,0,.11.91,2.92,2.92,0,0,0,.21.65,7.43,7.43,0,0,0,1.52-.21l1.52-.38a1,1,0,0,1,.82.12.92.92,0,0,1,.42.64.9.9,0,0,1-.07.66.84.84,0,0,1-.58.44c-.68.17-1.39.31-2.13.43a16.22,16.22,0,0,1-2.37.2c-.84,0-1.36-.3-1.54-.9a2.33,2.33,0,0,1-.26-.61,7.32,7.32,0,0,1-.21-.78,5.89,5.89,0,0,1-.15-.82,5,5,0,0,1,0-.73,1.09,1.09,0,0,1,.39-.85A1.86,1.86,0,0,1,126.43,310.7Zm3.47-12.12c0-.16.14-.29.43-.41a4.5,4.5,0,0,1,1-.23,3.36,3.36,0,0,1,1,0c.31.07.47.21.47.44l.08,3,2.28-.19a.89.89,0,0,1,.71.29,1,1,0,0,1,.26.68,1,1,0,0,1-.26.67,1,1,0,0,1-.75.34l-2.22.11,0,2.13c0,.15-.15.28-.43.39a3.22,3.22,0,0,1-.88.2,3,3,0,0,1-1,0c-.29-.07-.44-.21-.44-.42Z"/><path class="cls-6" d="M140.39,300.75l-.38-2.89c0-.18.16-.35.42-.5a2.68,2.68,0,0,1,.89-.3,3,3,0,0,1,.53,0,1.78,1.78,0,0,1,.49.09,1.17,1.17,0,0,1,.37.19.42.42,0,0,1,.17.31l.38,3.1,1.82,0a.85.85,0,0,1,.71.28,1,1,0,0,1,.2.63,1.12,1.12,0,0,1-.3.63,1,1,0,0,1-.74.27l-6.59.21a1.09,1.09,0,0,1-.83-.29,1.15,1.15,0,0,1-.33-.68.88.88,0,0,1,.18-.66.83.83,0,0,1,.73-.31Zm1,9.59a4.32,4.32,0,0,1-1.54-.26,3.13,3.13,0,0,1-1.14-.7,2.49,2.49,0,0,1-.66-1.09,3.06,3.06,0,0,1-.12-1.36,3.37,3.37,0,0,1,.46-1.38,4.43,4.43,0,0,1,.94-1.08,4.23,4.23,0,0,1,1.27-.69,4.45,4.45,0,0,1,1.45-.24,4.15,4.15,0,0,1,1.42.24,3.47,3.47,0,0,1,1.15.68,2.86,2.86,0,0,1,.74,1.07,2.78,2.78,0,0,1,.17,1.4,3.37,3.37,0,0,1-.47,1.41,4.15,4.15,0,0,1-1,1.07,4.56,4.56,0,0,1-2.7.93Zm.45-5.11a1.15,1.15,0,0,0-.88.43,2.14,2.14,0,0,0-.43,1.38,1.74,1.74,0,0,0,.3,1.29,1.09,1.09,0,0,0,.79.36,1,1,0,0,0,.92-.45,2.33,2.33,0,0,0,.35-1.2,2.31,2.31,0,0,0-.22-1.36A.93.93,0,0,0,141.81,305.23Zm6.06-6.44c0-.17.14-.31.43-.41a3.54,3.54,0,0,1,1-.21,3.5,3.5,0,0,1,1,.1c.3.08.46.21.46.39l.06,3.86,2.3-.14a.93.93,0,0,1,.71.29,1,1,0,0,1,.26.66,1,1,0,0,1-.26.67,1,1,0,0,1-.77.32l-2.2.17.11,7.13c0,.16-.14.29-.41.38a4.93,4.93,0,0,1-.88.22,3.55,3.55,0,0,1-1-.07c-.31-.07-.46-.22-.46-.44Z"/><path class="cls-6" d="M164.12,303.43l-1.5.09-.23,0,.09,1.88c0,.19-.15.36-.43.5a3.36,3.36,0,0,1-.91.3,2.24,2.24,0,0,1-1,0,.57.57,0,0,1-.48-.48l-.34-5.13-3.1.15a.91.91,0,0,1-.77-.24,1,1,0,0,1-.31-.63.78.78,0,0,1,.2-.62,1.06,1.06,0,0,1,.75-.33l4.29-.12a2,2,0,0,1,1.21.16,1.08,1.08,0,0,1,.64.81l.07,1.94h0l1.71-.15v-2.21c0-.17.14-.32.41-.44a3.29,3.29,0,0,1,.91-.24l.51,0a2.16,2.16,0,0,1,.46.05,1.34,1.34,0,0,1,.34.15.28.28,0,0,1,.14.24l.12,7.14c0,.15-.14.28-.42.38a3.79,3.79,0,0,1-.9.19,3,3,0,0,1-1,0c-.29-.07-.44-.22-.44-.45Zm-.46,10.33L162,312.07l-1.22,2.4a.87.87,0,0,1-.76.36,2.08,2.08,0,0,1-1-.25,2.37,2.37,0,0,1-.59-.46c-.14-.17-.19-.32-.13-.45l2.8-5.63c.09-.22.3-.32.64-.31a2.26,2.26,0,0,1,1,.28,2.61,2.61,0,0,1,.69.43c.19.17.25.31.18.44l-.55,1.14,1.52,1.63,1.54-3.36a.37.37,0,0,1,.21-.27,1.13,1.13,0,0,1,.39-.07,2,2,0,0,1,.47.06,5.08,5.08,0,0,1,.51.17,2.31,2.31,0,0,1,.64.43.4.4,0,0,1,.16.48l-.59,1.25a.34.34,0,0,0,0,.28.62.62,0,0,0,.21.22l2.49,2.3a.4.4,0,0,1,.07.46,1.32,1.32,0,0,1-.38.52,2.51,2.51,0,0,1-.79.42.85.85,0,0,1-.84-.25l-1.77-1.74-.92,1.9a1,1,0,0,1-.69.48,1.44,1.44,0,0,1-.94-.14,2,2,0,0,1-.59-.39c-.16-.15-.21-.27-.15-.37Zm4.39-14.93c0-.17.13-.31.38-.42a3.17,3.17,0,0,1,.91-.24,4.51,4.51,0,0,1,1,.08c.3.06.45.19.45.37l.13,8.23c0,.16-.13.29-.4.4a3.49,3.49,0,0,1-.87.24,3.15,3.15,0,0,1-1-.08c-.29-.08-.43-.22-.43-.43Z"/><path class="cls-6" d="M173.35,305.88l8.89-.21a.86.86,0,0,1,.7.28.86.86,0,0,1,0,1.22,1,1,0,0,1-.75.32l-8.64.25a.79.79,0,0,1-.71-.25,1.09,1.09,0,0,1-.26-.64,1,1,0,0,1,.14-.63A.74.74,0,0,1,173.35,305.88Zm4.58-8.87a.74.74,0,0,1,.73-.29,2.42,2.42,0,0,1,1,.29,2.07,2.07,0,0,1,.56.48.39.39,0,0,1,0,.5h0l-1,1.45a9.33,9.33,0,0,0,1.2,1.24,10.93,10.93,0,0,0,1.48,1.06.52.52,0,0,1,.22.48,1,1,0,0,1-.2.56,1.67,1.67,0,0,1-.77.58,1,1,0,0,1-.94-.18h0l-1.17-.82a7.35,7.35,0,0,1-1.11-1l-1.6,2.43a.72.72,0,0,1-.71.25,2.38,2.38,0,0,1-1-.35,2.11,2.11,0,0,1-.57-.47c-.14-.17-.16-.31,0-.44.67-1,1.35-2,2-3S177.39,297.86,177.93,297Zm2,12.76q0-.25.39-.39a2.62,2.62,0,0,1,.94-.14,3.1,3.1,0,0,1,.92.13c.28.08.44.21.45.4l0,4.32a2.73,2.73,0,0,1-.09.56.88.88,0,0,1-.24.43,1.59,1.59,0,0,1-.48.31,3.75,3.75,0,0,1-.82.23,13.26,13.26,0,0,1-1.92.28c-.76.06-1.53.1-2.32.1a2.55,2.55,0,0,1-1.35-.34,1.34,1.34,0,0,1-.64-1c-.11-.71-.2-1.5-.27-2.35s-.11-1.67-.11-2.44c0-.15.15-.28.43-.38a2.93,2.93,0,0,1,1-.15,3,3,0,0,1,1,.16c.29.11.43.24.43.41l0,1.4,2.73-.38Zm0,2.93-2.62.32.11,1.24a1.67,1.67,0,0,0,.58.05l.71-.07a6.78,6.78,0,0,0,.7-.12L180,314Z"/><path class="cls-6" d="M185.51,306.43a13.78,13.78,0,0,1-.21-1.42c-.06-.52-.1-1-.14-1.57s-.06-1-.08-1.55,0-1,0-1.41c0-.23.16-.38.47-.47a3.3,3.3,0,0,1,1-.1,4.19,4.19,0,0,1,1,.23c.29.11.44.27.44.46a17.42,17.42,0,0,0,.38,5.32.62.62,0,0,0,.12.19.3.3,0,0,0,.26.09l.75,0,.83-.08c.28,0,.56-.06.84-.11l.72-.14a1.08,1.08,0,0,1,.86.09,1,1,0,0,1,.43.65.81.81,0,0,1-.07.61,1.13,1.13,0,0,1-.65.47l-1.18.21c-.42.07-.85.12-1.29.17s-.87.07-1.29.08a9.62,9.62,0,0,1-1.22,0,2.11,2.11,0,0,1-1.32-.51A1.9,1.9,0,0,1,185.51,306.43Zm9.12-7.79c0-.15.14-.29.41-.4A3.7,3.7,0,0,1,196,298a3.65,3.65,0,0,1,1,.05c.32.06.48.2.48.41l.17,13.07c0,.14-.15.26-.43.37a4,4,0,0,1-.92.2,2.9,2.9,0,0,1-1,0q-.45-.1-.45-.45Z"/><path class="cls-6" d="M201.24,300.14l5.32-.32a1,1,0,0,1,.78.28.88.88,0,0,1,.23.61,1,1,0,0,1-.22.64.89.89,0,0,1-.64.33c-.72.06-1.42.1-2.11.13s-1.29.07-1.8.12l.32,4.44.92,0c.34,0,.69,0,1.05,0l1-.11a5.39,5.39,0,0,0,.84-.17,1.12,1.12,0,0,1,.83,0,.72.72,0,0,1,.42.53,1.25,1.25,0,0,1,0,.33,1.63,1.63,0,0,1-.13.37,1.26,1.26,0,0,1-.25.32.77.77,0,0,1-.37.19c-.36.08-.75.15-1.19.21s-.88.09-1.35.12l-1.37.07a11.74,11.74,0,0,1-1.22,0,2.86,2.86,0,0,1-1.3-.33,1.16,1.16,0,0,1-.63-.77,17.37,17.37,0,0,1-.32-2.42c-.07-.9-.11-1.79-.14-2.66a2.59,2.59,0,0,1,0-.62,1.23,1.23,0,0,1,.17-.57,1.41,1.41,0,0,1,.42-.46A1.51,1.51,0,0,1,201.24,300.14Zm8.89-1.35c0-.17.14-.31.43-.41a3.62,3.62,0,0,1,1-.21,3.5,3.5,0,0,1,1,.1c.31.08.46.21.46.39l.06,3.86,2.3-.14a.93.93,0,0,1,.71.29,1,1,0,0,1,.27.66,1,1,0,0,1-.27.67,1,1,0,0,1-.77.32l-2.19.17.1,7.13c0,.16-.14.29-.41.38a4.93,4.93,0,0,1-.88.22,3.58,3.58,0,0,1-1-.07c-.3-.07-.46-.22-.46-.44Z"/><path class="cls-6" d="M217.81,311.37a1.16,1.16,0,0,1,.52-1,2,2,0,0,1,1.15-.35,1.9,1.9,0,0,1,1.11.35,1.08,1.08,0,0,1,.5.92,1.33,1.33,0,0,1-.48,1.06,1.67,1.67,0,0,1-1.15.41,1.57,1.57,0,0,1-.61-.11,1.85,1.85,0,0,1-.53-.31,1.66,1.66,0,0,1-.37-.43A1.07,1.07,0,0,1,217.81,311.37Zm1.63-2.55a2.4,2.4,0,0,1-.95-.18.62.62,0,0,1-.44-.52c0-.2,0-.55,0-1.05s0-1.07,0-1.73,0-1.34,0-2,0-1.4,0-2,0-1.14,0-1.6,0-.77,0-.94.17-.39.46-.51a2.52,2.52,0,0,1,1-.18,2.17,2.17,0,0,1,.89.17.55.55,0,0,1,.4.5v3.78c0,.5,0,1,0,1.48s0,1,0,1.42c0,.64,0,1.21,0,1.68s0,.82,0,1a.64.64,0,0,1-.43.57A2.2,2.2,0,0,1,219.44,308.82Z"/></g><g class="cls-5"><path class="cls-6" d="M57.43,346.46a.42.42,0,0,1,.1.46,1.08,1.08,0,0,1-.32.51,1.85,1.85,0,0,1-.81.49.92.92,0,0,1-.85-.19,6,6,0,0,1-1-.87c-.23-.26-.49-.56-.79-.88-.11.15-.32.4-.64.75s-.76.87-1.34,1.59a1.06,1.06,0,0,1-.93.35,2,2,0,0,1-.91-.37,1.63,1.63,0,0,1-.44-.52.38.38,0,0,1,0-.47c.76-.85,1.51-1.71,2.24-2.59a26.37,26.37,0,0,0,2-2.71l-3.33.36a1,1,0,0,1-.83-.22,1,1,0,0,1-.31-.61,1,1,0,0,1,.11-.62.66.66,0,0,1,.52-.33l5.7-.42a1.08,1.08,0,0,1,.72.27,2.87,2.87,0,0,1,.55.68.87.87,0,0,1,.1.42.65.65,0,0,1-.12.4c-.2.28-.42.58-.67.9l-1,1.32a10.23,10.23,0,0,0,1.09,1.27C56.63,345.78,57,346.12,57.43,346.46Zm0,9.25a2.28,2.28,0,0,1-.69,0,2.66,2.66,0,0,1-.62-.19,1.41,1.41,0,0,1-.45-.34.62.62,0,0,1-.14-.46l.29-4.9a.37.37,0,0,1,.14-.29,1.27,1.27,0,0,1,.35-.18,2.19,2.19,0,0,1,.47-.08,4.87,4.87,0,0,1,.54,0,3.21,3.21,0,0,1,1,.22c.29.12.43.28.41.47l-.21,3.93,4.29-.17a.94.94,0,0,1,.78.22.85.85,0,0,1,.25.61.9.9,0,0,1-.26.6,1,1,0,0,1-.75.3l-4,.24-1.39.06Zm2.78-13.07,0-2.77c0-.16.14-.31.41-.42a3.7,3.7,0,0,1,.94-.23,2.75,2.75,0,0,1,1,.14c.3.1.45.25.45.43l.23,9.86c0,.14-.14.26-.43.36a4,4,0,0,1-.92.19,2.33,2.33,0,0,1-1-.07c-.29-.08-.45-.23-.48-.44l-.16-5.13-2,.15a.94.94,0,0,1-.86-.18,1,1,0,0,1-.32-.71,1,1,0,0,1,.17-.7.83.83,0,0,1,.73-.35Z"/><path class="cls-6" d="M66.42,340.42l5.32-.31a1,1,0,0,1,.78.27.9.9,0,0,1,.23.61,1,1,0,0,1-.22.65.85.85,0,0,1-.64.32c-.72.06-1.42.1-2.11.13s-1.29.07-1.8.13l.32,3.19.85,0a9.08,9.08,0,0,0,.91-.05c.3,0,.6-.06.88-.1a5.62,5.62,0,0,0,.78-.17,1.12,1.12,0,0,1,.83,0,.67.67,0,0,1,.41.53.75.75,0,0,1,0,.33,1.23,1.23,0,0,1-.12.37,1.52,1.52,0,0,1-.26.32.7.7,0,0,1-.36.19,18.66,18.66,0,0,1-2.33.33,16,16,0,0,1-2.38,0,3,3,0,0,1-1.3-.33,1.16,1.16,0,0,1-.62-.77,9.08,9.08,0,0,1-.2-.95c0-.28-.1-.56-.13-.85s-.07-.59-.09-.91,0-.69,0-1.13a3.24,3.24,0,0,1,0-.62,1.32,1.32,0,0,1,.59-1A1.51,1.51,0,0,1,66.42,340.42ZM71.82,352l3.7-.41.11-1.37-4.46.13a.88.88,0,0,1-.79-.26.9.9,0,0,1-.27-.63,1,1,0,0,1,.25-.65,1,1,0,0,1,.77-.32l5.42-.17a2.12,2.12,0,0,1,1.35.28,1,1,0,0,1,.49.86c0,.42-.06.87-.09,1.34s-.09.94-.14,1.41a1,1,0,0,1-.49.71,2.75,2.75,0,0,1-1,.34l-.33,0-.58.07-1,.1-1.62.17a5,5,0,0,0,.11.91,2.92,2.92,0,0,0,.21.65,7.43,7.43,0,0,0,1.52-.21c.48-.11,1-.24,1.52-.38a1,1,0,0,1,.82.12.92.92,0,0,1,.42.64.91.91,0,0,1-.07.66.81.81,0,0,1-.58.44c-.68.17-1.39.31-2.13.43a16.22,16.22,0,0,1-2.37.2c-.84,0-1.36-.3-1.54-.9a2.33,2.33,0,0,1-.26-.61,7.32,7.32,0,0,1-.21-.78,5.89,5.89,0,0,1-.15-.82,5,5,0,0,1,0-.73,1.09,1.09,0,0,1,.39-.85A1.8,1.8,0,0,1,71.82,352Zm3.47-12.12c0-.16.14-.29.43-.41a4.5,4.5,0,0,1,1-.23,3.36,3.36,0,0,1,1,0c.31.07.47.21.47.44l.08,3,2.28-.19a.89.89,0,0,1,.71.29,1,1,0,0,1,.26.68,1,1,0,0,1-.26.67,1,1,0,0,1-.75.34l-2.22.11,0,2.13c0,.15-.15.28-.43.39a3.64,3.64,0,0,1-.88.2,3,3,0,0,1-1,0c-.29-.07-.44-.21-.44-.42Z"/><path class="cls-6" d="M92.05,350.85l-3.55.09a.76.76,0,0,1-.7-.25,1.14,1.14,0,0,1-.27-.66,1,1,0,0,1,.13-.64.76.76,0,0,1,.57-.39l9-.26a.86.86,0,0,1,.71.3,1.06,1.06,0,0,1,.26.65,1.21,1.21,0,0,1-.24.7.92.92,0,0,1-.79.34l-2.28.08-.47,4.58q-.06.3-.51.42a2.76,2.76,0,0,1-1,.09,3.68,3.68,0,0,1-.91-.22c-.27-.11-.38-.25-.35-.41Zm-.38-10.51-.29-2.16c0-.16.13-.32.39-.47a2.73,2.73,0,0,1,.87-.31,2.35,2.35,0,0,1,1,0,.59.59,0,0,1,.49.53l.25,2.35,2.2,0a.83.83,0,0,1,.71.3,1,1,0,0,1,.2.63,1.18,1.18,0,0,1-.3.65.93.93,0,0,1-.74.28l-6.92.17a1.06,1.06,0,0,1-.8-.29,1,1,0,0,1-.1-1.35.89.89,0,0,1,.77-.3Zm1.08,8a4,4,0,0,1-2.6-.73,2.17,2.17,0,0,1-.76-2.06,2.34,2.34,0,0,1,.43-1.14,3.63,3.63,0,0,1,.92-.87,4,4,0,0,1,1.25-.56,5.16,5.16,0,0,1,1.41-.19,5.53,5.53,0,0,1,1.37.16,3.37,3.37,0,0,1,1.13.52,2.13,2.13,0,0,1,.88,2.08,2.69,2.69,0,0,1-.46,1.23,3.39,3.39,0,0,1-.94.87,4.34,4.34,0,0,1-1.25.52A5.92,5.92,0,0,1,92.75,348.3Zm.4-3.87a1.31,1.31,0,0,0-.86.32,1.28,1.28,0,0,0-.41.88.82.82,0,0,0,.31.78,1.34,1.34,0,0,0,.79.24,1.29,1.29,0,0,0,.89-.29,1.07,1.07,0,0,0,.38-.73,1.11,1.11,0,0,0-.26-.88A1.08,1.08,0,0,0,93.15,344.43Z"/><path class="cls-6" d="M105.61,340.68a2.1,2.1,0,0,1,1.2.23,1.37,1.37,0,0,1,.48.39.74.74,0,0,1,.15.39l-1.47,9a.71.71,0,0,1-.6.48,2.64,2.64,0,0,1-1.05,0,2.1,2.1,0,0,1-.8-.26.58.58,0,0,1-.34-.5l1.27-7.87-3.87.19a.89.89,0,0,1-.76-.26.93.93,0,0,1-.27-.63.91.91,0,0,1,.22-.66,1,1,0,0,1,.77-.31Zm3.9-.7c0-.15.14-.29.41-.4a3.43,3.43,0,0,1,2-.18c.31.06.47.2.47.41l.17,13.07c0,.14-.14.26-.43.37a4,4,0,0,1-.92.2,2.9,2.9,0,0,1-1,0q-.45-.11-.45-.45Z"/><path class="cls-6" d="M120.47,340.68a2.1,2.1,0,0,1,1.2.23,1.37,1.37,0,0,1,.48.39.77.77,0,0,1,.16.39l-1.48,9a.69.69,0,0,1-.59.48,2.69,2.69,0,0,1-1.06,0,2.1,2.1,0,0,1-.8-.26.58.58,0,0,1-.34-.5l1.27-7.87-3.87.19a.9.9,0,0,1-.76-.26.93.93,0,0,1-.27-.63,1,1,0,0,1,.22-.66,1,1,0,0,1,.77-.31Zm3.82-.55c0-.17.15-.31.43-.41a3.61,3.61,0,0,1,1-.21,3.54,3.54,0,0,1,1,.1q.45.12.45.39l.07,3.86,2.3-.14a.9.9,0,0,1,.7.29,1,1,0,0,1,.27.66,1,1,0,0,1-.27.67.94.94,0,0,1-.77.32l-2.19.17.1,7.13c0,.16-.13.29-.41.38a4.61,4.61,0,0,1-.87.22,3.65,3.65,0,0,1-1-.07c-.3-.07-.45-.22-.45-.44Z"/><path class="cls-6" d="M141.79,357.55a4.25,4.25,0,0,1-3-.94,2.72,2.72,0,0,1-.83-2.46,3.49,3.49,0,0,1,.52-1.46,3.92,3.92,0,0,1,1-1.07,4.36,4.36,0,0,1,1.38-.64l.36-.11a.22.22,0,0,1,0-.1l.17-2-3.87.17a.73.73,0,0,1-.69-.24,1.22,1.22,0,0,1-.28-.67,1.2,1.2,0,0,1,.15-.65.71.71,0,0,1,.59-.34l8.83-.25a1,1,0,0,1,.75.27.92.92,0,0,1,.26.64.94.94,0,0,1-.26.61,1.15,1.15,0,0,1-.75.34l-2,.08-.21,2.11a1.55,1.55,0,0,1,0,.15l.15,0a3.84,3.84,0,0,1,1.28.7,2.92,2.92,0,0,1,.78,1.06,2.67,2.67,0,0,1,.15,1.39,3.32,3.32,0,0,1-.52,1.45,4,4,0,0,1-1.06,1.07,4.6,4.6,0,0,1-1.4.65A5.64,5.64,0,0,1,141.79,357.55Zm1.71-19a2.49,2.49,0,0,1,1.23.23,1,1,0,0,1,.61.74l.17,5.16q0,.28-.39.48a2.3,2.3,0,0,1-.9.23,1.35,1.35,0,0,1-.49,0,2.07,2.07,0,0,1-.46-.1,1,1,0,0,1-.34-.2.44.44,0,0,1-.12-.3l-.21-4.52-3.66.17a1,1,0,0,1-.78-.19.77.77,0,0,1-.29-.59.81.81,0,0,1,.22-.6,1,1,0,0,1,.77-.31Zm-1.2,14a1.5,1.5,0,0,0-1,.4,1.82,1.82,0,0,0-.5,1.31,2,2,0,0,0,.09.74,1.24,1.24,0,0,0,.28.48,1,1,0,0,0,.41.25,1.53,1.53,0,0,0,.47.07,1.24,1.24,0,0,0,1-.46,1.82,1.82,0,0,0,.41-1.08,1.9,1.9,0,0,0-.28-1.24A1.06,1.06,0,0,0,142.3,352.56Z"/><path class="cls-6" d="M149.82,347.22l8.89-.21a.86.86,0,0,1,.7.28,1,1,0,0,1,.27.61.93.93,0,0,1-.25.61,1,1,0,0,1-.74.32l-8.64.25a.78.78,0,0,1-.71-.25,1.09,1.09,0,0,1-.26-.64,1,1,0,0,1,.14-.63A.72.72,0,0,1,149.82,347.22Zm7.47,3.72a1.85,1.85,0,0,1,1.56.38,1.82,1.82,0,0,1,.47,1.18l0,3.08a1.55,1.55,0,0,1-.43,1,2.4,2.4,0,0,1-1.2.55c-.3.05-.68.1-1.15.14s-.95.08-1.45.1l-1.38,0c-.43,0-.76,0-1,0s-.52,0-.75,0a2.12,2.12,0,0,1-.61-.13,1,1,0,0,1-.45-.28.92.92,0,0,1-.22-.53c-.08-.48-.15-.9-.19-1.28s-.07-.72-.09-1.06l-.06-1c0-.34,0-.71,0-1.11a1.5,1.5,0,0,1,0-.17,1.51,1.51,0,0,1,.12-.31,1.46,1.46,0,0,1,.21-.28.42.42,0,0,1,.32-.13ZM156,338.52a2.51,2.51,0,0,1,1.23.23,1,1,0,0,1,.61.74l.17,5.16q0,.28-.39.48a2.3,2.3,0,0,1-.9.23,1.35,1.35,0,0,1-.49,0,2.07,2.07,0,0,1-.46-.1,1,1,0,0,1-.34-.2.44.44,0,0,1-.12-.3l-.21-4.52-3.66.17a1,1,0,0,1-.78-.19.74.74,0,0,1-.29-.59.81.81,0,0,1,.22-.6,1,1,0,0,1,.77-.31Zm.57,14.23-3.42.13v.89a11.42,11.42,0,0,0,.11,1.37q0,.36.21.45a1.23,1.23,0,0,0,.72,0l2.38-.14Z"/><path class="cls-6" d="M164.43,342.09l-.38-2.89c0-.18.15-.35.42-.5a2.6,2.6,0,0,1,.89-.3,3,3,0,0,1,.52,0,1.86,1.86,0,0,1,.5.09,1.17,1.17,0,0,1,.37.19.42.42,0,0,1,.17.31l.38,3.1,1.82,0a.83.83,0,0,1,.7.28.87.87,0,0,1,.2.63,1,1,0,0,1-.29.63,1,1,0,0,1-.74.27l-6.59.21a1.09,1.09,0,0,1-.83-.29,1.15,1.15,0,0,1-.33-.68.88.88,0,0,1,.18-.66.83.83,0,0,1,.73-.31Zm1,9.59a4.32,4.32,0,0,1-1.54-.26,3.13,3.13,0,0,1-1.14-.7,2.6,2.6,0,0,1-.67-1.09,3.53,3.53,0,0,1,.35-2.74,4.43,4.43,0,0,1,.94-1.08,4.11,4.11,0,0,1,1.27-.69,4.44,4.44,0,0,1,1.44-.24,4.17,4.17,0,0,1,1.43.24,3.47,3.47,0,0,1,1.15.68,3,3,0,0,1,.74,1.07,2.9,2.9,0,0,1,.17,1.4,3.38,3.38,0,0,1-.48,1.41,3.94,3.94,0,0,1-1,1.07,4.36,4.36,0,0,1-1.28.68A4.13,4.13,0,0,1,165.4,351.68Zm.44-5.11a1.15,1.15,0,0,0-.87.43,2.19,2.19,0,0,0-.44,1.38,1.78,1.78,0,0,0,.31,1.29,1.08,1.08,0,0,0,.79.36,1,1,0,0,0,.92-.45,2.43,2.43,0,0,0,.35-1.2,2.31,2.31,0,0,0-.22-1.36A.93.93,0,0,0,165.84,346.57Zm6.06-6.44c0-.17.15-.31.43-.41a3.61,3.61,0,0,1,1-.21,3.54,3.54,0,0,1,1,.1q.45.12.45.39l.07,3.86,2.3-.14a.94.94,0,0,1,.71.29,1,1,0,0,1,.26.66,1,1,0,0,1-.26.67,1,1,0,0,1-.77.32l-2.2.17L175,353c0,.16-.14.29-.42.38a4.61,4.61,0,0,1-.87.22,3.65,3.65,0,0,1-1-.07c-.3-.07-.45-.22-.45-.44Z"/><path class="cls-6" d="M182.5,341.06c.07-.21.28-.33.61-.35a2.57,2.57,0,0,1,1,.14,2,2,0,0,1,.4.16l.33.22a.82.82,0,0,1,.2.22.29.29,0,0,1,0,.24l-.87,2.22a12.68,12.68,0,0,0,1.51,2,24,24,0,0,0,2,1.9.62.62,0,0,1,.09.52,1.12,1.12,0,0,1-.29.62,1.35,1.35,0,0,1-.86.53,1,1,0,0,1-.93-.34l-.5-.39c-.21-.17-.45-.38-.69-.61s-.49-.48-.72-.73a4.37,4.37,0,0,1-.56-.74c-.23.56-.45,1.12-.69,1.67s-.46,1.1-.7,1.65a.74.74,0,0,1-.66.31,1.9,1.9,0,0,1-1-.21,3.33,3.33,0,0,1-.7-.42c-.21-.17-.28-.33-.21-.49Zm6.65-1.08c0-.15.14-.29.41-.4a3.7,3.7,0,0,1,.94-.23,3.75,3.75,0,0,1,1,0c.31.06.47.2.47.41l.17,13.07c0,.14-.14.26-.43.37a4,4,0,0,1-.92.2,2.9,2.9,0,0,1-1,0q-.45-.11-.45-.45Z"/><path class="cls-6" d="M195.76,341.48l5.32-.32a.94.94,0,0,1,.78.28.88.88,0,0,1,.23.61,1,1,0,0,1-.22.64.89.89,0,0,1-.64.33c-.72.06-1.42.1-2.11.13s-1.29.07-1.8.12l.32,4.44.92,0c.34,0,.69,0,1.05,0l1-.11a5.39,5.39,0,0,0,.84-.17,1.14,1.14,0,0,1,.84,0,.71.71,0,0,1,.41.53,1.18,1.18,0,0,1-.14.7,1.26,1.26,0,0,1-.25.32.77.77,0,0,1-.37.19c-.35.08-.75.15-1.18.21s-.89.09-1.36.12l-1.37.07a11.74,11.74,0,0,1-1.22,0,2.89,2.89,0,0,1-1.3-.33,1.14,1.14,0,0,1-.62-.77,15.92,15.92,0,0,1-.33-2.42c-.06-.9-.11-1.79-.14-2.66a3.24,3.24,0,0,1,0-.62,1.23,1.23,0,0,1,.17-.57,1.41,1.41,0,0,1,.42-.46A1.51,1.51,0,0,1,195.76,341.48Zm8.89-1.35c0-.17.14-.31.43-.41a3.27,3.27,0,0,1,2-.11q.45.12.45.39l.06,3.86,2.3-.14a.91.91,0,0,1,.71.29,1,1,0,0,1,.27.66,1,1,0,0,1-.27.67.94.94,0,0,1-.77.32l-2.19.17.1,7.13c0,.16-.14.29-.41.38a4.93,4.93,0,0,1-.88.22,3.58,3.58,0,0,1-1-.07c-.3-.07-.45-.22-.45-.44Z"/><path class="cls-6" d="M223.38,344.94l0-1.6-1.73.17a1,1,0,0,1-.86-.17,1.25,1.25,0,0,1-.3-.47c0,.33,0,.64,0,.95s0,.66,0,1,0,.75,0,1.2a1.5,1.5,0,0,1-.41,1,2.56,2.56,0,0,1-1.11.59,8.7,8.7,0,0,1-1.11.16l-1.21.1-1.13.05h-.86a2,2,0,0,1-1.26-.36,1.57,1.57,0,0,1-.56-1c0-.09,0-.17,0-.25s0-.24,0-.49,0-.64-.07-1.16-.06-1.28-.1-2.26a2.16,2.16,0,0,1,.15-1.13,1.22,1.22,0,0,1,.86-.6l4.86-.38a2.08,2.08,0,0,1,1.5.33,1.52,1.52,0,0,1,.61,1.1c0,.2,0,.38,0,.55a1.06,1.06,0,0,1,.15-.27.79.79,0,0,1,.7-.34l2-.19,0-1.52c0-.16.13-.3.39-.44a2.76,2.76,0,0,1,.92-.26,2.83,2.83,0,0,1,1,.09c.31.08.47.23.47.44l.17,9.67c0,.14-.15.27-.44.39a3.32,3.32,0,0,1-.93.22,2.79,2.79,0,0,1-1-.06c-.3-.09-.45-.24-.45-.47l0-2.66-1.88.17a.93.93,0,0,1-.8-.25,1,1,0,0,1-.32-.64.87.87,0,0,1,.17-.63.89.89,0,0,1,.7-.34Zm-8.15-2.64c0,.12,0,.22,0,.32s0,.26,0,.5,0,.57.06,1,.07,1.1.11,1.94l2.11-.21c0-.27,0-.56,0-.87v-1q0-.5,0-1c0-.32,0-.62-.08-.91Zm5.32,13.41a2.28,2.28,0,0,1-.69,0,2.66,2.66,0,0,1-.62-.19,1.31,1.31,0,0,1-.45-.34.62.62,0,0,1-.14-.46l.29-4.9a.37.37,0,0,1,.14-.29,1.27,1.27,0,0,1,.35-.18,2.19,2.19,0,0,1,.47-.08,4.87,4.87,0,0,1,.54,0,3.21,3.21,0,0,1,1,.22c.29.12.43.28.41.47l-.21,3.93,4.29-.17a.94.94,0,0,1,.78.22.85.85,0,0,1,.25.61.9.9,0,0,1-.26.6,1,1,0,0,1-.75.3l-4,.24-1.39.06Z"/><path class="cls-6" d="M230.07,354.57a1.2,1.2,0,0,1-.5.7,1.42,1.42,0,0,1-.75.21,1.37,1.37,0,0,1-.93-.37.93.93,0,0,1-.23-1l.55-2.12h0a.73.73,0,0,1,.4-.5,1.72,1.72,0,0,1,.74-.15,1.62,1.62,0,0,1,.56.1,1.56,1.56,0,0,1,.5.25,1,1,0,0,1,.31.38.64.64,0,0,1,0,.49Z"/></g><g class="cls-5"><path class="cls-7" d="M105.69,376.44a1.79,1.79,0,0,1-.15.75.61.61,0,0,1-.61.32h-2.17c-.31,0-.67,0-1.06,0H99.76q-.45,0-.78,0a1.61,1.61,0,0,1-.7-.18,1.78,1.78,0,0,1-.54-.39,1.73,1.73,0,0,1-.34-.49,1,1,0,0,1-.07-.52,3.59,3.59,0,0,1,.41-1.19,7.76,7.76,0,0,1,.79-1.17,12.8,12.8,0,0,1,1-1.09c.34-.35.66-.66,1-.94h0l.22-.21.73-.72a7.91,7.91,0,0,0,.69-.76,4.39,4.39,0,0,0,.5-.77,1.87,1.87,0,0,0,.19-.79,1.34,1.34,0,0,0-.39-1.05,1.59,1.59,0,0,0-1-.37,1.19,1.19,0,0,0-1,.51,2.14,2.14,0,0,0-.34,1.48c0,.25-.1.43-.39.55a2.62,2.62,0,0,1-.94.17,2.54,2.54,0,0,1-.94-.17.57.57,0,0,1-.41-.53,4.34,4.34,0,0,1,.3-1.75,3.61,3.61,0,0,1,.86-1.27,3.48,3.48,0,0,1,1.29-.75,5.08,5.08,0,0,1,1.58-.24,5.42,5.42,0,0,1,1.66.23,3.61,3.61,0,0,1,1.29.68,2.9,2.9,0,0,1,.83,1.07,3.37,3.37,0,0,1,.3,1.46,3.24,3.24,0,0,1-.23,1.2,5.67,5.67,0,0,1-.61,1.1,7.14,7.14,0,0,1-.84,1c-.32.33-.64.63-1,.91s-.56.49-.83.76-.53.53-.75.78a6.88,6.88,0,0,0-.58.74,3,3,0,0,0-.35.63h2.82c.65,0,1.24,0,1.78-.06a.8.8,0,0,1,.39.06.56.56,0,0,1,.24.24.92.92,0,0,1,.12.34A2.5,2.5,0,0,1,105.69,376.44Z"/><path class="cls-7" d="M109,377.79a.68.68,0,0,1-.43.46,1.8,1.8,0,0,1-.69.13,1.45,1.45,0,0,1-.55-.1,1,1,0,0,1-.45-.28.89.89,0,0,1-.23-.44.93.93,0,0,1,.09-.57h0l4.92-12.46a.69.69,0,0,1,.38-.39,1.62,1.62,0,0,1,.64-.12,1.4,1.4,0,0,1,.53.11,1.61,1.61,0,0,1,.47.29,1,1,0,0,1,.28.44.7.7,0,0,1,0,.51Z"/><path class="cls-7" d="M115.45,368.43a.54.54,0,0,1-.34-.14,2.16,2.16,0,0,1-.37-.37,2.29,2.29,0,0,1-.3-.5,1.24,1.24,0,0,1-.11-.51.75.75,0,0,1,.06-.33c0-.09.15-.16.34-.21a6.81,6.81,0,0,0,1-.36l.81-.4.72-.4A1.77,1.77,0,0,1,118,365a1.88,1.88,0,0,1,.57.09,2.06,2.06,0,0,1,.55.23,1.37,1.37,0,0,1,.42.37.84.84,0,0,1,.19.5c0,.24,0,.55,0,.95v2.95c0,.65,0,1.3,0,1.94v2.79c0,.54,0,1,0,1.44s0,.67,0,.74a.63.63,0,0,1-.41.61,2.18,2.18,0,0,1-.89.19,2.47,2.47,0,0,1-.95-.18q-.45-.18-.45-.54v-5.13c0-.8,0-1.55,0-2.23s0-1.34,0-2c-.2.11-.42.23-.69.35s-.51.22-.74.3A.63.63,0,0,1,115.45,368.43Z"/><path class="cls-7" d="M122.31,373.82a3.72,3.72,0,0,1,.46-1.86,4.21,4.21,0,0,1,1.15-1.31,3.44,3.44,0,0,1-.86-1,2.32,2.32,0,0,1-.33-1.15,3.54,3.54,0,0,1,.34-1.63,3.07,3.07,0,0,1,.9-1.11,3.9,3.9,0,0,1,1.29-.64,5.45,5.45,0,0,1,1.51-.21,4.69,4.69,0,0,1,1.46.22,3.63,3.63,0,0,1,1.24.67,3.14,3.14,0,0,1,.86,1.08,3.37,3.37,0,0,1,.32,1.49,2.73,2.73,0,0,1-.32,1.25,3.28,3.28,0,0,1-.85,1,3.51,3.51,0,0,1,1.16,1.26,3.55,3.55,0,0,1,.43,1.78,4.33,4.33,0,0,1-.3,1.65,3.55,3.55,0,0,1-.85,1.27,3.94,3.94,0,0,1-1.36.81,5.26,5.26,0,0,1-1.79.28,5.78,5.78,0,0,1-1.81-.26,4,4,0,0,1-1.4-.77,3.52,3.52,0,0,1-.93-1.23A4,4,0,0,1,122.31,373.82Zm6.06-.13a2.52,2.52,0,0,0-.42-1.51,1.41,1.41,0,0,0-1.22-.58,1.49,1.49,0,0,0-1.3.59,2.55,2.55,0,0,0-.42,1.5,2.45,2.45,0,0,0,.38,1.39,1.51,1.51,0,0,0,1.36.58,1.47,1.47,0,0,0,1.2-.51A2.23,2.23,0,0,0,128.37,373.69Zm-.43-5.32a1.59,1.59,0,0,0-.33-1.1,1.15,1.15,0,0,0-.88-.36,1.28,1.28,0,0,0-.92.36,1.47,1.47,0,0,0-.38,1.1,1.37,1.37,0,0,0,.37,1,1.23,1.23,0,0,0,1,.38,1.11,1.11,0,0,0,.86-.35A1.49,1.49,0,0,0,127.94,368.37Z"/><path class="cls-7" d="M136,372.24a4.73,4.73,0,0,1-1.7-.29,3.39,3.39,0,0,1-1.25-.79,3,3,0,0,1-.72-1.22,4,4,0,0,1-.13-1.57,3.85,3.85,0,0,1,.49-1.58,4.42,4.42,0,0,1,1-1.23,4.67,4.67,0,0,1,1.4-.78,4.9,4.9,0,0,1,1.61-.27,4.67,4.67,0,0,1,1.55.26,3.73,3.73,0,0,1,1.26.76,3.25,3.25,0,0,1,.82,1.22,3.68,3.68,0,0,1,.19,1.62A4,4,0,0,1,140,370,4.56,4.56,0,0,1,139,371.2a4.93,4.93,0,0,1-3,1Zm.5-6a1.29,1.29,0,0,0-1,.55,2.72,2.72,0,0,0-.49,1.67,2.33,2.33,0,0,0,.35,1.58,1.19,1.19,0,0,0,.89.47,1.12,1.12,0,0,0,1-.59,3.35,3.35,0,0,0,.44-1.46,2.62,2.62,0,0,0-.26-1.65A1.08,1.08,0,0,0,136.47,366.28ZM138.88,377l3.7-.41.1-1.37-4.45.13a.91.91,0,0,1-.8-.26.93.93,0,0,1-.26-.63,1,1,0,0,1,.24-.65,1,1,0,0,1,.77-.32l5.43-.17a2.08,2.08,0,0,1,1.34.28.94.94,0,0,1,.5.86c0,.42-.06.87-.1,1.34s-.08.94-.14,1.41a1,1,0,0,1-.48.71,2.81,2.81,0,0,1-1.06.34l-.32,0-.58.07-1,.1-1.61.17a5.13,5.13,0,0,0,.1.91,4.52,4.52,0,0,0,.21.65A7.43,7.43,0,0,0,142,380l1.51-.38a1.05,1.05,0,0,1,.83.12,1,1,0,0,1,.42.64,1,1,0,0,1-.07.66.84.84,0,0,1-.58.44c-.68.17-1.39.31-2.14.43a16,16,0,0,1-2.36.2c-.85,0-1.36-.3-1.54-.9a2.7,2.7,0,0,1-.27-.61q-.1-.36-.21-.78c-.06-.27-.11-.55-.15-.82a6.89,6.89,0,0,1-.05-.73,1.09,1.09,0,0,1,.39-.85A1.87,1.87,0,0,1,138.88,377Zm4-12.12c0-.16.14-.29.41-.41a4.17,4.17,0,0,1,.94-.23,3.74,3.74,0,0,1,1,.06c.31.06.47.2.47.41l.17,7.07c0,.14-.15.26-.43.37a3.51,3.51,0,0,1-.92.2,3,3,0,0,1-1,0c-.29-.07-.44-.22-.44-.45Z"/><path class="cls-7" d="M155.67,375.3A4.08,4.08,0,0,1,154,375a3.22,3.22,0,0,1-1.24-1,4,4,0,0,1-.72-1.52,6.63,6.63,0,0,1-.15-2,5.59,5.59,0,0,1,.47-2,5.08,5.08,0,0,1,1-1.52,4.42,4.42,0,0,1,1.41-1,4,4,0,0,1,1.61-.34A3.75,3.75,0,0,1,158,366a3.47,3.47,0,0,1,1.25.94,4.12,4.12,0,0,1,.81,1.51,6,6,0,0,1,.21,2,5.56,5.56,0,0,1-.49,2,5.27,5.27,0,0,1-1.05,1.52,4.64,4.64,0,0,1-1.43,1A4.12,4.12,0,0,1,155.67,375.3Zm.5-7.82c-.36,0-.7.27-1,.81a5.13,5.13,0,0,0-.5,2.32,6.41,6.41,0,0,0,.09,1.31,3.86,3.86,0,0,0,.28.92,1.54,1.54,0,0,0,.42.55.72.72,0,0,0,.46.18.86.86,0,0,0,.6-.24,1.89,1.89,0,0,0,.46-.62,4.08,4.08,0,0,0,.29-.93,6.12,6.12,0,0,0,.11-1.17,6.53,6.53,0,0,0-.3-2.27C156.87,367.77,156.57,367.48,156.17,367.48Zm6-2.55c0-.15.13-.29.41-.4a3.6,3.6,0,0,1,.94-.23,3.67,3.67,0,0,1,1,.05c.32.06.48.2.48.41l.16,13.07c0,.14-.14.26-.43.37a3.86,3.86,0,0,1-.92.2,2.93,2.93,0,0,1-1,0c-.29-.07-.44-.22-.44-.45Z"/><path class="cls-7" d="M171.86,375.8l-3.55.09a.76.76,0,0,1-.7-.25,1.06,1.06,0,0,1-.27-.66,1,1,0,0,1,.13-.64A.76.76,0,0,1,168,374l9-.26a.86.86,0,0,1,.71.3,1.06,1.06,0,0,1,.26.65,1.21,1.21,0,0,1-.24.7.92.92,0,0,1-.79.34l-2.28.08-.47,4.58q-.06.3-.51.42a2.76,2.76,0,0,1-1,.09,3.76,3.76,0,0,1-.92-.22c-.26-.11-.37-.25-.34-.41Zm-.38-10.51-.3-2.16c0-.16.13-.32.4-.47a2.73,2.73,0,0,1,.87-.31,2.35,2.35,0,0,1,1,0,.59.59,0,0,1,.49.53l.25,2.35,2.2,0a.83.83,0,0,1,.71.3,1,1,0,0,1,.2.63,1.18,1.18,0,0,1-.3.65.93.93,0,0,1-.74.28l-6.92.17a1.08,1.08,0,0,1-.81-.29,1.07,1.07,0,0,1-.29-.68,1,1,0,0,1,.2-.67.89.89,0,0,1,.77-.3Zm1.08,8a4,4,0,0,1-2.6-.73,2.14,2.14,0,0,1-.76-2.06,2.34,2.34,0,0,1,.43-1.14,3.47,3.47,0,0,1,.92-.87,4,4,0,0,1,1.25-.56,5.16,5.16,0,0,1,1.41-.19,5.53,5.53,0,0,1,1.37.16,3.37,3.37,0,0,1,1.13.52,2.13,2.13,0,0,1,.88,2.08,2.6,2.6,0,0,1-.47,1.23,3.22,3.22,0,0,1-.93.87,4.34,4.34,0,0,1-1.25.52A5.92,5.92,0,0,1,172.56,373.25Zm.4-3.87a1.24,1.24,0,0,0-1.27,1.2.82.82,0,0,0,.31.78,1.34,1.34,0,0,0,.79.24,1.29,1.29,0,0,0,.89-.29,1.07,1.07,0,0,0,.38-.73,1.15,1.15,0,0,0-.26-.88A1.09,1.09,0,0,0,173,369.38Z"/></g><g class="cls-5"><path class="cls-6" d="M74,391.38l5.32-.32a.94.94,0,0,1,.78.28.88.88,0,0,1,.23.61,1,1,0,0,1-.22.64.89.89,0,0,1-.64.33c-.72.06-1.42.1-2.11.13s-1.29.07-1.8.12l.32,4.44.92,0c.34,0,.69,0,1,0l1-.11a5.39,5.39,0,0,0,.84-.17,1.14,1.14,0,0,1,.84,0,.73.73,0,0,1,.41.53,1.24,1.24,0,0,1,0,.33,1.23,1.23,0,0,1-.38.69.77.77,0,0,1-.37.19c-.36.08-.75.15-1.19.21s-.88.1-1.35.12l-1.37.07a11.74,11.74,0,0,1-1.22,0,2.89,2.89,0,0,1-1.3-.33,1.14,1.14,0,0,1-.62-.77,15.92,15.92,0,0,1-.33-2.42c-.07-.9-.11-1.79-.14-2.66a3.24,3.24,0,0,1,0-.62,1.23,1.23,0,0,1,.17-.57,1.41,1.41,0,0,1,.42-.46A1.51,1.51,0,0,1,74,391.38ZM82.89,390c0-.17.14-.31.43-.41a3.48,3.48,0,0,1,2-.11q.45.12.45.39l.06,3.86,2.3-.14a.91.91,0,0,1,.71.29,1,1,0,0,1,.27.66,1,1,0,0,1-.27.67.94.94,0,0,1-.77.32l-2.19.17.1,7.13c0,.16-.14.29-.41.39a6,6,0,0,1-.88.21,3.58,3.58,0,0,1-1-.07c-.3-.07-.45-.22-.45-.44Z"/><path class="cls-6" d="M93.49,391c.07-.21.27-.33.61-.35a2.5,2.5,0,0,1,1,.14,1.76,1.76,0,0,1,.4.16l.33.22a.68.68,0,0,1,.2.22.29.29,0,0,1,0,.24l-.86,2.22a12.68,12.68,0,0,0,1.51,2,23.82,23.82,0,0,0,2,1.9.61.61,0,0,1,.1.52,1.12,1.12,0,0,1-.29.62,1.4,1.4,0,0,1-.86.53,1,1,0,0,1-.93-.34c-.12-.08-.28-.21-.5-.39s-.45-.38-.7-.61-.48-.48-.71-.73a3.9,3.9,0,0,1-.56-.74c-.23.57-.46,1.12-.69,1.67s-.47,1.1-.71,1.65a.72.72,0,0,1-.65.31,1.88,1.88,0,0,1-1-.21,2.89,2.89,0,0,1-.7-.42c-.21-.17-.28-.33-.21-.49Zm6.65-1.08c0-.15.14-.29.41-.4a3.6,3.6,0,0,1,.94-.23,3.65,3.65,0,0,1,1,.05c.32.06.48.2.48.41l.17,13.07c0,.14-.15.26-.44.37a3.86,3.86,0,0,1-.92.2,2.93,2.93,0,0,1-1,0c-.29-.07-.44-.22-.44-.45Z"/><path class="cls-6" d="M114.66,392.77l-3.84.38h0a.81.81,0,0,1-.78-.18,1,1,0,0,1-.32-.64.88.88,0,0,1,.14-.58.83.83,0,0,1,.48-.37l2.17-.15-.06-2.79c0-.15.12-.28.36-.4a2.89,2.89,0,0,1,.88-.23,3,3,0,0,1,1,0c.28.07.42.21.42.44l0,2.78.43,0a2.66,2.66,0,0,1,1.26,0,1.77,1.77,0,0,1,1,.91.93.93,0,0,1,.12.41.49.49,0,0,1-.16.39L116,394.5a4.94,4.94,0,0,0,.82,1,8.33,8.33,0,0,0,1.22,1,.43.43,0,0,1,.21.5,1.19,1.19,0,0,1-.29.57,1.6,1.6,0,0,1-.9.49,1.34,1.34,0,0,1-1.11-.36c-.36-.31-.67-.56-.93-.76a4.41,4.41,0,0,1-.71-.72l-2.41,2.43a.71.71,0,0,1-.37.18,1.21,1.21,0,0,1-.42,0,2,2,0,0,1-.44-.18,2.18,2.18,0,0,1-.38-.3,1.34,1.34,0,0,1-.39-.51.38.38,0,0,1,.14-.48l.67-.62.85-.83,1.25-1.22C113.32,394.13,113.93,393.52,114.66,392.77Zm4.4,8.83-3.32.23a1,1,0,0,1-.82-.19.85.85,0,0,1-.3-.57.76.76,0,0,1,.16-.57.78.78,0,0,1,.56-.32l5.47-.19a1.79,1.79,0,0,1,.86.19,1,1,0,0,1,.54,1,.72.72,0,0,1-.2.44h0l-1.1,1,2.5,1.48a.57.57,0,0,1,.13.59,1.25,1.25,0,0,1-.32.59,1.17,1.17,0,0,1-.8.38,1.35,1.35,0,0,1-.91-.25c-.22-.14-.47-.3-.77-.47s-.76-.48-1.37-.9l-2.32,1.84a1.44,1.44,0,0,1-1.73-.11l-.22-.2a1.1,1.1,0,0,1-.19-.25.78.78,0,0,1-.09-.27.32.32,0,0,1,.1-.23Zm.86-11.83c0-.16.15-.3.43-.41a4,4,0,0,1,1-.2,3.54,3.54,0,0,1,1,.1q.45.11.45.39l.07,3.57,2.17-.15a.93.93,0,0,1,.71.29,1,1,0,0,1,.26.66,1,1,0,0,1-.26.67.92.92,0,0,1-.77.32l-2.07.17.1,3.25c0,.16-.13.28-.41.38a4,4,0,0,1-.87.21,3.31,3.31,0,0,1-1-.06c-.3-.07-.45-.22-.45-.44Z"/><path class="cls-6" d="M131,400.25a4.08,4.08,0,0,1-1.69-.34,3.22,3.22,0,0,1-1.24-1,4,4,0,0,1-.72-1.52,6.63,6.63,0,0,1-.15-2,5.59,5.59,0,0,1,.47-2,4.9,4.9,0,0,1,1-1.52,4.42,4.42,0,0,1,1.41-1,3.93,3.93,0,0,1,1.6-.34,3.77,3.77,0,0,1,1.56.33,3.47,3.47,0,0,1,1.25.94,4.11,4.11,0,0,1,.8,1.51,5.74,5.74,0,0,1,.22,2,5.56,5.56,0,0,1-.49,2A5.1,5.1,0,0,1,134,399a4.48,4.48,0,0,1-1.42.95A4.12,4.12,0,0,1,131,400.25Zm.5-7.82c-.36,0-.7.27-1,.81a5.13,5.13,0,0,0-.5,2.32,6.41,6.41,0,0,0,.09,1.31,3.86,3.86,0,0,0,.28.92,1.64,1.64,0,0,0,.41.55.77.77,0,0,0,.47.18.88.88,0,0,0,.6-.24,1.75,1.75,0,0,0,.45-.62,3.63,3.63,0,0,0,.3-.93,6.12,6.12,0,0,0,.11-1.17,6.53,6.53,0,0,0-.3-2.27C132.21,392.72,131.91,392.43,131.51,392.43Zm5.87-2.4c0-.17.15-.31.43-.41a3.28,3.28,0,0,1,1-.2,3.22,3.22,0,0,1,1,.09q.45.12.45.39l.07,3.86,2.3-.14a.94.94,0,0,1,.71.29,1,1,0,0,1,.26.66,1,1,0,0,1-.26.67,1,1,0,0,1-.78.32l-2.19.17.1,7.13c0,.16-.13.29-.41.39a5.54,5.54,0,0,1-.87.21,3.65,3.65,0,0,1-1-.07c-.3-.07-.45-.22-.45-.44Z"/><path class="cls-6" d="M147.79,400l.09-2.31a4,4,0,0,1-.55-.17,3.4,3.4,0,0,1-1.24-.82,3.3,3.3,0,0,1-.73-1.28,4.58,4.58,0,0,1-.15-1.69,4.43,4.43,0,0,1,.5-1.71,4.36,4.36,0,0,1,1-1.28,4.72,4.72,0,0,1,1.4-.8,4.65,4.65,0,0,1,1.6-.28,4.73,4.73,0,0,1,1.56.26,3.46,3.46,0,0,1,1.25.79,3.57,3.57,0,0,1,.82,1.29,4,4,0,0,1,.2,1.73,4.36,4.36,0,0,1-1.57,3,5.25,5.25,0,0,1-1.37.78.33.33,0,0,1,.07.21L150.6,400a9.19,9.19,0,0,0,1.49-.06l1.44-.19h0a1.13,1.13,0,0,1,.88.16,1,1,0,0,1,.41.58.86.86,0,0,1-.1.6.9.9,0,0,1-.6.41,2.88,2.88,0,0,1-.93.24,14.48,14.48,0,0,1-1.51.14c-.58,0-1.19,0-1.83,0s-1.25,0-1.82,0l-1.53,0-.95,0a.82.82,0,0,1-.64-.32,1,1,0,0,1-.22-.62.94.94,0,0,1,.18-.65.74.74,0,0,1,.66-.29Zm1.73-8.5a1.26,1.26,0,0,0-1,.59,3.13,3.13,0,0,0-.5,1.79,2.74,2.74,0,0,0,.36,1.7,1.13,1.13,0,0,0,.89.52,1.18,1.18,0,0,0,1.06-.64,3.23,3.23,0,0,0,.4-1.58,3.64,3.64,0,0,0-.29-1.74A1,1,0,0,0,149.52,391.51Zm5.79-1.48c0-.17.14-.31.42-.41a3.36,3.36,0,0,1,2-.11c.31.08.46.21.46.39l.1,5.09,2.14-.15a.79.79,0,0,1,.71.24,1.12,1.12,0,0,1,.28.67,1,1,0,0,1-.26.67.94.94,0,0,1-.73.36l-2.12.17.13,5.91c0,.16-.14.29-.41.39a5.93,5.93,0,0,1-.9.21,3.68,3.68,0,0,1-1-.07c-.3-.07-.45-.22-.45-.44Z"/><path class="cls-6" d="M167,400.33l-3.55.09a.8.8,0,0,1-.71-.25,1.07,1.07,0,0,1-.26-.66,1.06,1.06,0,0,1,.12-.65.85.85,0,0,1,.57-.39l9-.25a.85.85,0,0,1,.7.3,1.14,1.14,0,0,1,.27.65,1.15,1.15,0,0,1-.25.7.91.91,0,0,1-.79.33l-2.28.09-.46,5c0,.2-.22.34-.52.42a2.71,2.71,0,0,1-1,.09,3.76,3.76,0,0,1-.92-.22c-.26-.11-.38-.25-.35-.41Zm1.28-9.18-3.54.4a1,1,0,0,1-1.14-.85.94.94,0,0,1,.14-.64.74.74,0,0,1,.55-.33l5.85-.42a1.4,1.4,0,0,1,.7.18,1.16,1.16,0,0,1,.48.5,1.19,1.19,0,0,1,.17.65.76.76,0,0,1-.14.51l-1.61,1.6c.13.14.28.29.46.46l.57.47c.2.15.4.3.58.42l.52.32a.54.54,0,0,1,.22.23.85.85,0,0,1,.09.31.82.82,0,0,1,0,.31.84.84,0,0,1-.11.25,1.68,1.68,0,0,1-.86.56,1,1,0,0,1-.91-.22l-2.09-1.63-1,.95-1.39,1.27a.76.76,0,0,1-.76.13,1.87,1.87,0,0,1-.8-.49,1.42,1.42,0,0,1-.34-.52.4.4,0,0,1,.11-.48l1-.89,1.19-1.06c.4-.36.79-.71,1.15-1.06S168.06,391.41,168.31,391.15Z"/><path class="cls-6" d="M177.65,390.87a.45.45,0,0,1,.22-.23,1,1,0,0,1,.37-.11,1.51,1.51,0,0,1,.46,0,2.13,2.13,0,0,1,.49.15,3.39,3.39,0,0,1,.73.41c.2.15.29.31.26.46l-.89,2.32a8,8,0,0,0,.61.9c.3.39.62.78,1,1.19s.69.79,1,1.14a5.46,5.46,0,0,0,.77.72c.06.06,0,.18,0,.37a2.14,2.14,0,0,1-.38.56,2.18,2.18,0,0,1-.42.33,1.57,1.57,0,0,1-.48.18,1,1,0,0,1-.46,0,.8.8,0,0,1-.39-.3c-.43-.42-.83-.84-1.21-1.25a12.47,12.47,0,0,1-.93-1.09c-.19.67-.39,1.28-.58,1.82a10.21,10.21,0,0,1-.62,1.43.75.75,0,0,1-.66.26,2.94,2.94,0,0,1-.95-.2,2.53,2.53,0,0,1-.71-.4c-.2-.15-.28-.3-.24-.44.55-1.33,1.09-2.71,1.62-4.16S177.22,392.14,177.65,390.87Zm5.74,4.67-1.33,0a.9.9,0,0,1-.8-.24,1,1,0,0,1-.28-.62.81.81,0,0,1,.17-.61,1,1,0,0,1,.63-.37l1.59,0-.05-3.08c0-.17.14-.31.42-.43a3.16,3.16,0,0,1,.89-.25,4.34,4.34,0,0,1,.51,0,1.51,1.51,0,0,1,.45.08,1.2,1.2,0,0,1,.34.15.31.31,0,0,1,.14.25l.21,11.33c0,.16-.13.29-.39.38a4.19,4.19,0,0,1-.88.22,3.51,3.51,0,0,1-1-.07c-.28-.07-.42-.22-.42-.44Zm4.07-5.47c0-.17.14-.31.4-.42a3.52,3.52,0,0,1,.93-.23,4.08,4.08,0,0,1,1,.07c.3.06.45.19.45.37l.21,13c0,.16-.13.29-.4.39a5.54,5.54,0,0,1-.87.21,3.49,3.49,0,0,1-1-.07c-.29-.07-.43-.22-.43-.44Z"/><path class="cls-6" d="M192.64,401.51l1.49,0c0-.84,0-1.7,0-2.56s0-1.7.09-2.53a.31.31,0,0,1,.06-.19L194,396a3.41,3.41,0,0,1-.72-1.28,4.64,4.64,0,0,1-.15-1.7,4.37,4.37,0,0,1,.5-1.71,4.21,4.21,0,0,1,1-1.28,4.71,4.71,0,0,1,1.41-.81,4.73,4.73,0,0,1,3.15,0,3.31,3.31,0,0,1,1.26.8,3.55,3.55,0,0,1,.81,1.29,3.85,3.85,0,0,1,.2,1.73,4.16,4.16,0,0,1-.5,1.73,4.3,4.3,0,0,1-.87,1.13,1.15,1.15,0,0,0,.17.06.55.55,0,0,1,.4.53c0,.22,0,.46,0,.7s0,.53,0,.88,0,.79-.05,1.32-.07,1.17-.11,2l1.14,0a.91.91,0,0,1,.71.28,1.09,1.09,0,0,1,.26.65,1,1,0,0,1-.24.61,1,1,0,0,1-.75.32c-1.53.07-3,.12-4.53.16l-4.29.09a.76.76,0,0,1-.71-.25,1.17,1.17,0,0,1-.27-.64,1,1,0,0,1,.15-.64.79.79,0,0,1,.61-.33Zm4.83-10.76a1.24,1.24,0,0,0-1,.59,3.13,3.13,0,0,0-.5,1.79,2.61,2.61,0,0,0,.36,1.7,1.12,1.12,0,0,0,.89.52,1.16,1.16,0,0,0,1.05-.64,3.06,3.06,0,0,0,.4-1.58,3.53,3.53,0,0,0-.28-1.74A1,1,0,0,0,197.47,390.75Zm-.51,6.33h-.08l0,4.35,1,0c.06-.71.09-1.45.11-2.22s0-1.37,0-2.22A5.1,5.1,0,0,1,197,397.08Z"/><path class="cls-6" d="M204.25,402.61a1.15,1.15,0,0,1,.51-1,2.06,2.06,0,0,1,1.16-.35,1.89,1.89,0,0,1,1.1.35,1.08,1.08,0,0,1,.5.92,1.33,1.33,0,0,1-.48,1.06,1.66,1.66,0,0,1-1.15.41,1.61,1.61,0,0,1-.61-.11,2,2,0,0,1-.53-.31,1.88,1.88,0,0,1-.37-.43A1.06,1.06,0,0,1,204.25,402.61Zm1.62-2.55a2.44,2.44,0,0,1-1-.18.62.62,0,0,1-.44-.52c0-.2,0-.55,0-1.05s0-1.07,0-1.73,0-1.34,0-2.05,0-1.4,0-2,0-1.14,0-1.6,0-.77,0-.94.16-.39.45-.51a2.55,2.55,0,0,1,1-.18,2.14,2.14,0,0,1,.89.17.54.54,0,0,1,.4.5v3.78c0,.5,0,1,0,1.48s0,1,0,1.42c0,.64,0,1.21,0,1.68s0,.82,0,1a.62.62,0,0,1-.42.57A2.29,2.29,0,0,1,205.87,400.06Z"/></g><path class="cls-8" d="M181.6,217.4c-27.1-3.5-27,16.2-24.9,14.3,4-3.8,3.1-14.1-3.7-17.2-5.9-2.6-13.4,1.4-18.3,5.9a9.32,9.32,0,0,0-3.2,4.8c-.4,1.9.5,4,2.3,4.5a4.43,4.43,0,0,0,4.7-2.4,7,7,0,0,0,.4-5.3,12.82,12.82,0,0,0-11.9-9.4c-5.3-.2-10.5,2.5-15.9,3.6-12.1,2.4-24.5-5.5-26.9-16.9-1-5,.5-11.5,5.6-13.5a7.71,7.71,0,0,1,9.9,4.6l.3,1.2c.7,4.4-2.6,9.2-7,11a13.76,13.76,0,0,1-13-1.8,19.07,19.07,0,0,1-6.8-11.1c-2.3-9.7,1.4-21,9.3-28.2"/><path class="cls-9" d="M195.9,231.8c.1,0,5.2-6.3,5.2-6.3l.9,4.5.9-5.6,5.6-3.5-22.2-3.6,16.2,7-.7,4.6-.7-3.7-14.9-7.8Z"/><path class="cls-10" d="M154.9,166.6c1.2-4.6,3.9-12.3,7.5-15.2a4.71,4.71,0,0,1,2.6-1.1,3.93,3.93,0,0,1,3.5,3.2,9.89,9.89,0,0,1-.4,5.1c1.4-2.7,2.3-5.4,4.4-7.6a5.9,5.9,0,0,1,3.3-1.5,4.66,4.66,0,0,1,4.6,3.1,9.64,9.64,0,0,1-.6,5.8,13.55,13.55,0,0,1,4.3-6.9c.9-.8,2.9-2.1,4.2-1.8a2.58,2.58,0,0,1,2.2,1.8c1.2,3.2-.1,10.2-1.1,12.2"/><path class="cls-11" d="M83.6,167.7a33.47,33.47,0,0,1,11.3-20c1.4-1.2,3.2-2.2,4.8-1.4a3.15,3.15,0,0,1,1.6,2.7,8.55,8.55,0,0,1-.4,3.2c1.1-2.4,2.2-5,4.2-6.6s5.3-2.2,7.3-.3,1.7,5.1,1.1,7.8A22.58,22.58,0,0,1,116,156a4.42,4.42,0,0,1-.9,6.1,3.38,3.38,0,0,1-1.2.6,14.58,14.58,0,0,1-4.6,1"/><path class="cls-12" d="M151.6,115l25.9,18c.9.6,0,1.5,0,1.5l-31,42.7s-4.3,6.4-5.2,6.5-36.1-23.6-36.6-23.8-.2-.9-.2-.9c2.3-5.2,22.1-31.3,22.1-31.3S137.7,109,151.6,115Z"/><path class="cls-13" d="M139.4,141.9s-3.7-1.7-5.2,2,.9,5.4,3.7,5.2,9.2-.5,10.1-1.8-.4-6.2-.4-6.2-1.1-4.2-2.9-5.5-5.1.6-5.1.6a3.39,3.39,0,0,0-.9,3.3C138.9,140.2,139.2,141.1,139.4,141.9Z"/><path class="cls-14" d="M154.9,165.7a.6.6,0,0,1-.4-.1.56.56,0,0,1-.1-.9h0l10.6-14a.56.56,0,0,1,.9-.1c.3.3.4.6.1.9l-10.6,14C155.4,165.6,155.2,165.7,154.9,165.7Z"/><path class="cls-11" d="M181.1,184.9a21.16,21.16,0,0,0,1.1-4.5,4.11,4.11,0,0,0-1.8-3.9,3.17,3.17,0,0,0-4.3,1.4h0a.37.37,0,0,0-.1.3,1.8,1.8,0,0,0-1.3-2.1h0a2.85,2.85,0,0,0-2.5.8,7,7,0,0,0-1.5,2.3,2.78,2.78,0,0,0-1.2-3.7,1.42,1.42,0,0,0-.6-.2c-1.7-.3-3.1,1-4.1,2.3a19.12,19.12,0,0,0-3.9,9.4v.1Z"/><g class="cls-15"><circle class="cls-16" cx="106.4" cy="158.6" r="0.3"/><circle class="cls-16" cx="109.8" cy="153.8" r="0.3"/><circle class="cls-16" cx="113.2" cy="149" r="0.3"/><circle class="cls-16" cx="116.6" cy="144.2" r="0.3"/><circle class="cls-16" cx="120" cy="139.4" r="0.3"/><circle class="cls-16" cx="123.4" cy="134.5" r="0.3"/><circle class="cls-16" cx="126.8" cy="129.7" r="0.3"/><circle class="cls-16" cx="130.2" cy="124.9" r="0.3"/><circle class="cls-16" cx="133.6" cy="120.1" r="0.3"/><circle class="cls-16" cx="137" cy="115.3" r="0.3"/><circle class="cls-16" cx="140.4" cy="110.5" r="0.3"/><circle class="cls-16" cx="109.9" cy="157.7" r="0.3"/><circle class="cls-16" cx="113.3" cy="152.9" r="0.3"/><circle class="cls-16" cx="116.7" cy="148.1" r="0.3"/><circle class="cls-16" cx="120.1" cy="143.3" r="0.3"/><circle class="cls-16" cx="123.5" cy="138.5" r="0.3"/><circle class="cls-16" cx="126.9" cy="133.7" r="0.3"/><circle class="cls-16" cx="130.3" cy="128.9" r="0.3"/><circle class="cls-16" cx="133.7" cy="124" r="0.3"/><circle class="cls-16" cx="137.1" cy="119.2" r="0.3"/><circle class="cls-16" cx="140.5" cy="114.4" r="0.3"/><circle class="cls-16" cx="143.9" cy="109.6" r="0.3"/></g><g class="cls-15"><circle class="cls-16" cx="110.9" cy="160.1" r="0.3"/><circle class="cls-16" cx="114.3" cy="155.3" r="0.3"/><circle class="cls-16" cx="117.7" cy="150.5" r="0.3"/><circle class="cls-16" cx="121.1" cy="145.7" r="0.3"/><circle class="cls-16" cx="124.5" cy="140.9" r="0.3"/><path class="cls-16" d="M127.9,135.8a.3.3,0,1,1-.3.3A.29.29,0,0,1,127.9,135.8Z"/><circle class="cls-16" cx="131.3" cy="131.2" r="0.3"/><circle class="cls-16" cx="134.7" cy="126.4" r="0.3"/><path class="cls-16" d="M138.1,121.3a.3.3,0,1,1-.3.3c-.1-.2.1-.3.3-.3Z"/><circle class="cls-16" cx="141.5" cy="116.8" r="0.3"/><circle class="cls-16" cx="144.9" cy="112" r="0.3"/><circle class="cls-16" cx="114.4" cy="159.2" r="0.3"/><circle class="cls-16" cx="117.8" cy="154.4" r="0.3"/><circle class="cls-16" cx="121.2" cy="149.6" r="0.3"/><circle class="cls-16" cx="124.6" cy="144.8" r="0.3"/><path class="cls-16" d="M128,139.7a.3.3,0,1,1-.3.3A.27.27,0,0,1,128,139.7Z"/><circle class="cls-16" cx="131.4" cy="135.2" r="0.3"/><circle class="cls-16" cx="134.8" cy="130.4" r="0.3"/><circle class="cls-16" cx="138.2" cy="125.6" r="0.3"/><circle class="cls-16" cx="141.6" cy="120.7" r="0.3"/><circle class="cls-16" cx="145" cy="115.9" r="0.3"/><circle class="cls-16" cx="148.4" cy="111.1" r="0.3"/></g><g class="cls-15"><circle class="cls-16" cx="113.8" cy="162" r="0.3"/><circle class="cls-16" cx="117.2" cy="157.2" r="0.3"/><circle class="cls-16" cx="120.6" cy="152.4" r="0.3"/><circle class="cls-16" cx="124.1" cy="147.6" r="0.3"/><circle class="cls-16" cx="127.4" cy="142.8" r="0.3"/><circle class="cls-16" cx="130.8" cy="138" r="0.3"/><circle class="cls-16" cx="134.3" cy="133.1" r="0.3"/><circle class="cls-16" cx="137.7" cy="128.3" r="0.3"/><circle class="cls-16" cx="141" cy="123.5" r="0.3"/><circle class="cls-16" cx="144.4" cy="118.7" r="0.3"/><circle class="cls-16" cx="147.9" cy="113.9" r="0.3"/><circle class="cls-16" cx="117.3" cy="161.1" r="0.3"/><circle class="cls-16" cx="120.7" cy="156.3" r="0.3"/><circle class="cls-16" cx="124.1" cy="151.5" r="0.3"/><circle class="cls-16" cx="127.5" cy="146.7" r="0.3"/><circle class="cls-16" cx="130.9" cy="141.9" r="0.3"/><circle class="cls-16" cx="134.3" cy="137.1" r="0.3"/><circle class="cls-16" cx="137.7" cy="132.3" r="0.3"/><circle class="cls-16" cx="141.1" cy="127.5" r="0.3"/><circle class="cls-16" cx="144.5" cy="122.7" r="0.3"/><circle class="cls-16" cx="147.9" cy="117.8" r="0.3"/><circle class="cls-16" cx="151.3" cy="113" r="0.3"/></g><g class="cls-15"><circle class="cls-16" cx="116.9" cy="165" r="0.3"/><circle class="cls-16" cx="120.3" cy="160.2" r="0.3"/><circle class="cls-16" cx="123.7" cy="155.4" r="0.3"/><circle class="cls-16" cx="127.1" cy="150.6" r="0.3"/><circle class="cls-16" cx="130.5" cy="145.8" r="0.3"/><circle class="cls-16" cx="133.9" cy="140.9" r="0.3"/><circle class="cls-16" cx="137.3" cy="136.1" r="0.3"/><circle class="cls-16" cx="140.7" cy="131.3" r="0.3"/><circle class="cls-16" cx="144.1" cy="126.5" r="0.3"/><path class="cls-16" d="M147.5,121.4a.3.3,0,1,1-.3.3.27.27,0,0,1,.3-.3Z"/><circle class="cls-16" cx="150.9" cy="116.9" r="0.3"/><circle class="cls-16" cx="120.4" cy="164.1" r="0.3"/><circle class="cls-16" cx="123.8" cy="159.3" r="0.3"/><circle class="cls-16" cx="127.2" cy="154.5" r="0.3"/><circle class="cls-16" cx="130.6" cy="149.7" r="0.3"/><circle class="cls-16" cx="134" cy="144.9" r="0.3"/><circle class="cls-16" cx="137.4" cy="140.1" r="0.3"/><circle class="cls-16" cx="140.8" cy="135.2" r="0.3"/><circle class="cls-16" cx="144.2" cy="130.4" r="0.3"/><circle class="cls-16" cx="147.6" cy="125.6" r="0.3"/><circle class="cls-16" cx="151" cy="120.8" r="0.3"/><circle class="cls-16" cx="154.4" cy="116" r="0.3"/></g><g class="cls-15"><circle class="cls-16" cx="120" cy="168" r="0.3"/><circle class="cls-16" cx="123.4" cy="163.2" r="0.3"/><circle class="cls-16" cx="126.8" cy="158.4" r="0.3"/><circle class="cls-16" cx="130.2" cy="153.5" r="0.3"/><circle class="cls-16" cx="133.6" cy="148.7" r="0.3"/><circle class="cls-16" cx="137" cy="143.9" r="0.3"/><circle class="cls-16" cx="140.4" cy="139.1" r="0.3"/><circle class="cls-16" cx="143.8" cy="134.3" r="0.3"/><circle class="cls-16" cx="147.2" cy="129.5" r="0.3"/><circle class="cls-16" cx="150.6" cy="124.7" r="0.3"/><circle class="cls-16" cx="154" cy="119.9" r="0.3"/><circle class="cls-16" cx="123.5" cy="167.1" r="0.3"/><circle class="cls-16" cx="126.9" cy="162.3" r="0.3"/><circle class="cls-16" cx="130.3" cy="157.5" r="0.3"/><circle class="cls-16" cx="133.7" cy="152.7" r="0.3"/><circle class="cls-16" cx="137.1" cy="147.9" r="0.3"/><circle class="cls-16" cx="140.5" cy="143" r="0.3"/><circle class="cls-16" cx="143.9" cy="138.2" r="0.3"/><circle class="cls-16" cx="147.3" cy="133.4" r="0.3"/><circle class="cls-16" cx="150.7" cy="128.6" r="0.3"/><circle class="cls-16" cx="154.1" cy="123.8" r="0.3"/><circle class="cls-16" cx="157.5" cy="119" r="0.3"/></g><g class="cls-15"><circle class="cls-16" cx="126.1" cy="173.9" r="0.3"/><circle class="cls-16" cx="129.5" cy="169.1" r="0.3"/><circle class="cls-16" cx="132.9" cy="164.3" r="0.3"/><circle class="cls-16" cx="136.3" cy="159.5" r="0.3"/><circle class="cls-16" cx="139.7" cy="154.7" r="0.3"/><circle class="cls-16" cx="143.1" cy="149.9" r="0.3"/><circle class="cls-16" cx="146.5" cy="145.1" r="0.3"/><circle class="cls-16" cx="149.9" cy="140.2" r="0.3"/><circle class="cls-16" cx="153.3" cy="135.4" r="0.3"/><circle class="cls-16" cx="156.7" cy="130.6" r="0.3"/><circle class="cls-16" cx="160.1" cy="125.8" r="0.3"/><circle class="cls-16" cx="129.6" cy="173.1" r="0.3"/><circle class="cls-16" cx="133" cy="168.2" r="0.3"/><circle class="cls-16" cx="136.4" cy="163.4" r="0.3"/><circle class="cls-16" cx="139.8" cy="158.6" r="0.3"/><circle class="cls-16" cx="143.2" cy="153.8" r="0.3"/><circle class="cls-16" cx="146.6" cy="149" r="0.3"/><circle class="cls-16" cx="150" cy="144.2" r="0.3"/><circle class="cls-16" cx="153.4" cy="139.4" r="0.3"/><circle class="cls-16" cx="156.8" cy="134.6" r="0.3"/><circle class="cls-16" cx="160.2" cy="129.8" r="0.3"/><circle class="cls-16" cx="163.6" cy="124.9" r="0.3"/></g><g class="cls-15"><circle class="cls-16" cx="129.2" cy="176.9" r="0.3"/><circle class="cls-16" cx="132.6" cy="172.1" r="0.3"/><circle class="cls-16" cx="136" cy="167.3" r="0.3"/><circle class="cls-16" cx="139.4" cy="162.5" r="0.3"/><circle class="cls-16" cx="142.8" cy="157.7" r="0.3"/><circle class="cls-16" cx="146.2" cy="152.9" r="0.3"/><circle class="cls-16" cx="149.6" cy="148" r="0.3"/><circle class="cls-16" cx="153" cy="143.2" r="0.3"/><circle class="cls-16" cx="156.4" cy="138.4" r="0.3"/><circle class="cls-16" cx="159.8" cy="133.6" r="0.3"/><circle class="cls-16" cx="163.2" cy="128.8" r="0.3"/><circle class="cls-16" cx="132.7" cy="176" r="0.3"/><circle class="cls-16" cx="136.1" cy="171.2" r="0.3"/><circle class="cls-16" cx="139.5" cy="166.4" r="0.3"/><circle class="cls-16" cx="142.9" cy="161.6" r="0.3"/><circle class="cls-16" cx="146.3" cy="156.8" r="0.3"/><circle class="cls-16" cx="149.7" cy="152" r="0.3"/><circle class="cls-16" cx="153.1" cy="147.2" r="0.3"/><circle class="cls-16" cx="156.5" cy="142.4" r="0.3"/><circle class="cls-16" cx="159.9" cy="137.5" r="0.3"/><circle class="cls-16" cx="163.3" cy="132.7" r="0.3"/><path class="cls-16" d="M166.7,127.6a.3.3,0,1,1-.3.3A.27.27,0,0,1,166.7,127.6Z"/></g><g class="cls-15"><circle class="cls-16" cx="134.2" cy="178.6" r="0.3"/><circle class="cls-16" cx="137.5" cy="173.9" r="0.3"/><circle class="cls-16" cx="140.7" cy="169.3" r="0.3"/><circle class="cls-16" cx="144" cy="164.6" r="0.3"/><circle class="cls-16" cx="147.2" cy="160" r="0.3"/><circle class="cls-16" cx="150.5" cy="155.4" r="0.3"/><circle class="cls-16" cx="153.7" cy="150.7" r="0.3"/><circle class="cls-16" cx="157" cy="146.1" r="0.3"/><circle class="cls-16" cx="160.2" cy="141.4" r="0.3"/><circle class="cls-16" cx="163.5" cy="136.8" r="0.3"/><circle class="cls-16" cx="166.8" cy="132.2" r="0.3"/><circle class="cls-16" cx="137.6" cy="177.7" r="0.3"/><circle class="cls-16" cx="141.2" cy="172.6" r="0.3"/><circle class="cls-16" cx="144.8" cy="167.4" r="0.3"/><circle class="cls-16" cx="148.4" cy="162.3" r="0.3"/><circle class="cls-16" cx="152" cy="157.1" r="0.3"/><circle class="cls-16" cx="155.6" cy="151.9" r="0.3"/><circle class="cls-16" cx="159.3" cy="146.8" r="0.3"/><circle class="cls-16" cx="162.9" cy="141.6" r="0.3"/><circle class="cls-16" cx="166.5" cy="136.5" r="0.3"/><circle class="cls-16" cx="170.1" cy="131.3" r="0.3"/></g><g class="cls-15"><circle class="cls-16" cx="138.5" cy="181.4" r="0.3"/><circle class="cls-16" cx="141.9" cy="176.6" r="0.3"/><circle class="cls-16" cx="145.3" cy="171.8" r="0.3"/><circle class="cls-16" cx="148.7" cy="166.9" r="0.3"/><circle class="cls-16" cx="152.1" cy="162.1" r="0.3"/><circle class="cls-16" cx="155.5" cy="157.3" r="0.3"/><circle class="cls-16" cx="158.9" cy="152.5" r="0.3"/><circle class="cls-16" cx="162.3" cy="147.7" r="0.3"/><circle class="cls-16" cx="165.7" cy="142.9" r="0.3"/><circle class="cls-16" cx="169.1" cy="138.1" r="0.3"/><circle class="cls-16" cx="172.5" cy="133.3" r="0.3"/><circle class="cls-16" cx="142" cy="180.5" r="0.3"/><circle class="cls-16" cx="145.4" cy="175.7" r="0.3"/><circle class="cls-16" cx="148.8" cy="170.9" r="0.3"/><circle class="cls-16" cx="152.2" cy="166.1" r="0.3"/><circle class="cls-16" cx="155.6" cy="161.2" r="0.3"/><circle class="cls-16" cx="159" cy="156.4" r="0.3"/><circle class="cls-16" cx="162.4" cy="151.6" r="0.3"/><circle class="cls-16" cx="165.8" cy="146.8" r="0.3"/><circle class="cls-16" cx="169.2" cy="142" r="0.3"/><circle class="cls-16" cx="172.6" cy="137.2" r="0.3"/><circle class="cls-16" cx="176" cy="132.4" r="0.3"/></g><path class="cls-14" d="M112.4,156.6a.68.68,0,0,1-.7-.7.75.75,0,0,1,.5-.7l22.7-7.4a.81.81,0,0,1,.9.4.63.63,0,0,1-.4.8h0l-22.7,7.4C112.6,156.6,112.5,156.6,112.4,156.6Z"/><path class="cls-14" d="M148.7,144.1a.67.67,0,0,1-.7-.6.75.75,0,0,1,.5-.7l21.1-7.4a.7.7,0,0,1,.5,1.3L149,144.1Z"/><path class="cls-14" d="M141.2,172.4h0a.56.56,0,0,1-.6-.7l1.2-22.5a.56.56,0,0,1,.7-.6c.4.1.7.3.6.7L142,171.8a.87.87,0,0,1-.8.6Z"/><path class="cls-14" d="M143.5,135.6a.68.68,0,0,1-.7-.7v-8.7a.66.66,0,0,1,.7-.6.65.65,0,0,1,.6.6v8.7a.56.56,0,0,1-.6.7Z"/><path class="cls-14" d="M139.8,142.6a.86.86,0,0,1-.6-.3,6.76,6.76,0,0,1-.8-4.9,4.92,4.92,0,0,1,6.3-2.8,6.05,6.05,0,0,1,2.8,3.8.69.69,0,0,1-.5.8h0a.68.68,0,0,1-.8-.4,5.42,5.42,0,0,0-2.1-3,3.1,3.1,0,0,0-2.5.1,2.92,2.92,0,0,0-1.8,1.8c-.5,1.7.7,3.7.7,3.8a.65.65,0,0,1-.2.9h0A1.69,1.69,0,0,1,139.8,142.6Z"/><g class="cls-15"><circle class="cls-16" cx="123" cy="170.9" r="0.3"/><circle class="cls-16" cx="126.4" cy="166.1" r="0.3"/><circle class="cls-16" cx="129.9" cy="161.3" r="0.3"/><circle class="cls-16" cx="133.2" cy="156.5" r="0.3"/><circle class="cls-16" cx="136.6" cy="151.7" r="0.3"/><circle class="cls-16" cx="140.1" cy="146.9" r="0.3"/><circle class="cls-16" cx="143.5" cy="142.1" r="0.3"/><circle class="cls-16" cx="146.8" cy="137.3" r="0.3"/><circle class="cls-16" cx="150.2" cy="132.5" r="0.3"/><circle class="cls-16" cx="153.7" cy="127.7" r="0.3"/><circle class="cls-16" cx="157.1" cy="122.8" r="0.3"/><circle class="cls-16" cx="126.5" cy="170.1" r="0.3"/><circle class="cls-16" cx="129.9" cy="165.3" r="0.3"/><circle class="cls-16" cx="133.3" cy="160.4" r="0.3"/><circle class="cls-16" cx="136.7" cy="155.6" r="0.3"/><circle class="cls-16" cx="140.1" cy="150.8" r="0.3"/><circle class="cls-16" cx="143.5" cy="146" r="0.3"/><circle class="cls-16" cx="146.9" cy="141.2" r="0.3"/><circle class="cls-16" cx="150.3" cy="136.4" r="0.3"/><circle class="cls-16" cx="153.7" cy="131.6" r="0.3"/><circle class="cls-16" cx="157.1" cy="126.8" r="0.3"/><circle class="cls-16" cx="160.5" cy="122" r="0.3"/></g><path class="cls-14" d="M140.3,149.8c-2.9,0-5.4-.6-6.3-1.9a4.78,4.78,0,0,1,0-4.9.56.56,0,0,1,.9,0h0a.62.62,0,0,1,.1.7,3.44,3.44,0,0,0,0,3.4c1,1.5,7.6,1.9,12.4-.1a21.76,21.76,0,0,0-.1-5.7c-.1-.4.2-.7.6-.8s.7.2.8.6a22.87,22.87,0,0,1,0,6.4l-.1.4-.3.1A15.92,15.92,0,0,1,140.3,149.8Z"/><path class="cls-10" d="M108.7,128.6c2-7.7,6.5-20.7,12.6-25.7a7.2,7.2,0,0,1,4.4-1.8c2.9,0,5.3,2.6,6,5.4s.1,5.8-.7,8.5c2.4-4.5,3.9-9.2,7.5-12.8a9.6,9.6,0,0,1,5.6-2.5,7.47,7.47,0,0,1,7.7,5.3c.9,3.2.1,6.6-1.1,9.7a24.06,24.06,0,0,1,7.3-11.8c1.6-1.4,4.9-3.5,7.1-3a4.58,4.58,0,0,1,3.7,3c2,5.4-.2,17.2-1.8,20.6"/><path class="cls-14" d="M131,115.6h-.2c-.4-.1-.5-.5-.4-.9h0l1.2-3.5a.67.67,0,0,1,1.3.3h0v.1l-1.2,3.5A.75.75,0,0,1,131,115.6Z"/><path class="cls-14" d="M151.9,114.1h-.1a.76.76,0,0,1-.6-.8h0l.8-4.1a.66.66,0,0,1,.8-.5.75.75,0,0,1,.5.7v.1l-.8,4.1A.56.56,0,0,1,151.9,114.1Z"/><path class="cls-14" d="M127.9,127.6a.7.7,0,1,1,0-1.4l26.7-1.9a.67.67,0,0,1,.7.6c0,.4-.2.7-.6.7h0l-26.8,2Z"/><path class="cls-10" d="M105,185.1c-1.9-.2.1-3.9,1-5.6a15.9,15.9,0,0,1,3.7-4.5,7.89,7.89,0,0,1,2.9-1.8,3.37,3.37,0,0,1,3.2.6,2.21,2.21,0,0,1,.2,3.1,6.93,6.93,0,0,1,4.2-4.9,4.3,4.3,0,0,1,2.5-.2,2.59,2.59,0,0,1,1.9,1.6,2,2,0,0,1-.6,2.3,8.92,8.92,0,0,1,1.5-3.1,4.27,4.27,0,0,1,3-1.6,4.41,4.41,0,0,1,3.8,3.1,11.47,11.47,0,0,1,.3,5.2s0,.9-3.2,1.5-23.6,4.2-23.6,4.2S105.8,185.2,105,185.1Z"/><path class="cls-14" d="M132.5,178a.67.67,0,0,1-.7-.6h0v-3.2a2.83,2.83,0,0,0-.4-1.8,3.06,3.06,0,0,0-2.9-.6.76.76,0,0,1-.8-.6.89.89,0,0,1,.5-.8,3.67,3.67,0,0,1,5,3.8v3.2a.67.67,0,0,1-.7.6Z"/><path class="cls-14" d="M116.2,178.5H116a.92.92,0,0,1-.7-1.1h0l.5-2.3a.92.92,0,0,1,1.8.4h0l-.5,2.3A1.07,1.07,0,0,1,116.2,178.5Z"/><path class="cls-14" d="M124.4,177h-.1a.62.62,0,0,1-.5-.8h0l.5-2.3c.1-.4.5-.5.9-.4a.75.75,0,0,1,.5.7l-.5,2.3C124.9,176.8,124.7,177,124.4,177Z"/><path class="cls-17" d="M72.9,149.8l.1.1-.3-.4.4.4-.5-.5-.1-.1c-1.1-1.3-3.2-4.7.6-8.6l-.2.1.2-.2-.6.6c-1.3,1.1-4.8,3.4-8.7-.6l.8.8a5,5,0,0,1-.8-.7l.1.1-.2-.2.5.5c1.1,1.3,3.3,4.6-.2,8.4l-.4.4.3-.2-.2.2.3-.3c3.8-3.4,7.1-1.3,8.4-.2l.6.6Z"/><path class="cls-17" d="M216.9,149.8l.1.1a1.38,1.38,0,0,1-.3-.4l.4.4-.5-.5-.1-.1c-1.1-1.3-3.2-4.7.6-8.6l-.1.1.2-.2-.6.6c-1.3,1.1-4.8,3.4-8.7-.6l.8.8c-.2-.2-.5-.4-.8-.7l.1.1-.2-.2.5.5c1.1,1.3,3.3,4.6-.2,8.4l-.4.4.2-.2-.2.2.3-.3c3.8-3.4,7.1-1.3,8.4-.2l.6.6C217.1,149.9,217,149.8,216.9,149.8Z"/><path class="cls-18" d="M138.8,87.8V87c.2-2.4,1.5-7.9,9.1-7.9H147c-2.4-.2-8.1-1.4-8.1-9.1v1.5c0-.5-.1-1-.1-1.4v1c-.1,2.3-1.3,7.8-8.4,8.1h-.1c7.1.3,8.3,5.7,8.4,8.1v1.1A1.76,1.76,0,0,0,138.8,87.8Z"/></svg>