<svg id="레이어_1" data-name="레이어 1" xmlns="http://www.w3.org/2000/svg" viewBox="0 0 96 112"><defs><style>.cls-1{fill:#4d3034;}.cls-2,.cls-3{fill:none;stroke-miterlimit:10;}.cls-2{stroke:#4d3034;}.cls-3{stroke:#fff;}</style></defs><path class="cls-1" d="M15.07,83l-9,17a.86.86,0,0,0,.76,1.27H89.22A.87.87,0,0,0,90,100L81.87,83a.87.87,0,0,0-.78-.49H15.83A.86.86,0,0,0,15.07,83Z"/><path class="cls-2" d="M89.67,101H6.34s-.87,3.57,2.19,3.57h79C90.54,104.52,89.67,101,89.67,101Z"/><path class="cls-2" d="M82.8,104.52H13.25s-.95,8,1.84,8H81C83.75,112.56,82.8,104.52,82.8,104.52Z"/><line class="cls-3" x1="18.69" y1="82.03" x2="76.76" y2="82.03"/></svg>