<svg id="레이어_1" data-name="레이어 1" xmlns="http://www.w3.org/2000/svg" viewBox="0 0 96 112"><defs><style>.cls-1{fill:#fffbed;}.cls-2{fill:#513539;}.cls-3{fill:none;}.cls-3,.cls-4{stroke:#513539;stroke-linecap:round;stroke-linejoin:round;stroke-width:1.5px;}.cls-4{fill:#fff;}.cls-5{fill:#4c3235;}.cls-6{opacity:0.5;}.cls-7{fill:#ff003d;opacity:0.3;}</style></defs><rect class="cls-1" x="-0.21" width="96" height="112" rx="10"/><path class="cls-2" d="M58.81,12.5a11.18,11.18,0,0,1,10.77,5.37c.88,1.58,1.32,3.37,2.13,5a5.83,5.83,0,0,0,3.94,3.43A3.93,3.93,0,0,0,80,22.7a6.84,6.84,0,0,1-.9,10.24,5,5,0,0,1-3.91,1,7.86,7.86,0,0,1-3.55-2.31C68,28.22,64.21,24.86,59.57,23.1a40.45,40.45,0,0,0-5.33-1.49c-1.27-.3-3.81-.36-4.56-1.6s.34-2.53,1.14-3.39A12.54,12.54,0,0,1,58.81,12.5Z"/><path class="cls-3" d="M41.42,43.58A1.82,1.82,0,0,1,44,43.26"/><path class="cls-3" d="M41.42,43.87A1.83,1.83,0,0,1,44,43.55"/><path class="cls-4" d="M71.53,51.34c-1.26-.44-1.68.73-1.8.47C68.87,38.12,60.25,26.74,49,26.49l-1,.05-1-.05c-11.26.25-19.88,11.63-20.74,25.32-.12.26-.54-.91-1.8-.47-1.93.67-2.8,3.16-2.33,6.54s2.24,4.56,3.85,5c1.07.31,1.67-.14,1.86.16,2.26,7.27,4.58,12.09,12.68,14.37v7.88H55.47V77.45c8.1-2.28,10.42-7.1,12.68-14.37.19-.3.79.15,1.86-.16,1.61-.48,3.38-1.66,3.85-5S73.46,52,71.53,51.34Z"/><path class="cls-3" d="M43.89,65.74a5.81,5.81,0,0,0,8.22,0"/><path class="cls-3" d="M48.61,61.41a.86.86,0,0,0-1.22,0"/><path class="cls-2" d="M49.08,19.75c-13.32,0-28.14,11.38-22.76,28.49.5.93,10.7-9.15,12.43-15.46a30,30,0,0,0,13.48,2.5s2.9,2.95,9.52,4c1.3,3.37,6,6.91,7.51,6.49.88-.25.49,4.23,1.27-.59C69.82,29.76,62.4,19.75,49.08,19.75Z"/><path class="cls-4" d="M48,19.39A25.41,25.41,0,0,0,22.82,45c0,3.75.79,5.64,2.21,6.94a1.07,1.07,0,0,0,1.78-.92c0-.25,0-.53,0-.82a21.21,21.21,0,1,1,42.42,0c0,.29,0,.57,0,.82A1.07,1.07,0,0,0,71,52c1.42-1.3,2.21-3.19,2.21-6.94A25.41,25.41,0,0,0,48,19.39Z"/><circle class="cls-2" cx="56.17" cy="53.94" r="2.41"/><path class="cls-3" d="M57.46,49.65a1.83,1.83,0,0,0-2.57-.32"/><circle class="cls-2" cx="39.83" cy="53.94" r="2.41"/><path class="cls-3" d="M38.54,49.65a1.83,1.83,0,0,1,2.57-.32"/><path class="cls-4" d="M84.39,96.59A16.52,16.52,0,0,0,80.18,89a25.59,25.59,0,0,0-7.5-4.54L64.12,80.5c-.5-.23-7.49,2.17-11.84,4.1a9.21,9.21,0,0,1-7.67-.07c-4.42-2.07-12.23-4.26-12.73-4l-8.56,3.92A25.59,25.59,0,0,0,15.82,89a16.52,16.52,0,0,0-4.21,7.63c-.75,2.84-.94,11.71-1,14.65H85.36C85.33,108.3,85.14,99.43,84.39,96.59Z"/><path class="cls-3" d="M30.72,81a5.67,5.67,0,0,0-1.27,5.85,26.13,26.13,0,0,0,4,6.58c1.17,1.33,5.91,5,10,2.12,1.77-1.21,3.55-2.6,4-4.69a6.28,6.28,0,0,0-1.4-5.76"/><path class="cls-3" d="M65,81a5.7,5.7,0,0,1,1.28,5.85,26.43,26.43,0,0,1-4,6.58c-1.18,1.33-5.92,5-10.05,2.12-1.76-1.21-3.55-2.6-4-4.69a5.64,5.64,0,0,1,1.39-5.45"/><path class="cls-3" d="M47.34,85.88a3.71,3.71,0,0,0,.85.29,1.39,1.39,0,0,0-.2.71,1.45,1.45,0,0,1-.3-.47.46.46,0,0,1,.12-.51"/><circle class="cls-5" cx="47.93" cy="96.88" r="1.67"/><circle class="cls-5" cx="47.93" cy="104.05" r="1.67"/><g class="cls-6"><circle class="cls-7" cx="59.34" cy="61.41" r="2.91"/></g><g class="cls-6"><circle class="cls-7" cx="36.66" cy="61.41" r="2.91"/></g></svg>