<svg id="레이어_1" data-name="레이어 1" xmlns="http://www.w3.org/2000/svg" viewBox="0 0 320 496"><defs><style>.cls-1{fill:#9bb7ff;}.cls-2{fill:#c2dbff;}.cls-3{fill:#fffbed;}.cls-4{fill:#fff;}</style></defs><path class="cls-1" d="M97.76,467.92,2.49,282.18,150.37,151.05a14.77,14.77,0,0,1,19.26,0L317.49,282.17l-98.8,185.75Z"/><path class="cls-2" d="M160,149.48a12.44,12.44,0,0,1,8.3,3.07L315,282.62l-97.5,183.3H99L5,282.65,151.7,152.55a12.46,12.46,0,0,1,8.3-3.07m0-4a16.54,16.54,0,0,0-11,4.07L0,281.72l96.54,188.2H219.89L320,281.72,171,149.55a16.52,16.52,0,0,0-11-4.07Z"/><rect class="cls-3" x="29.95" y="1.5" width="260.09" height="493" rx="17.61"/><path class="cls-2" d="M272.44,3a16.13,16.13,0,0,1,16.11,16.11V476.89A16.13,16.13,0,0,1,272.44,493H47.56a16.13,16.13,0,0,1-16.11-16.11V19.11A16.13,16.13,0,0,1,47.56,3H272.44m0-3H47.56A19.12,19.12,0,0,0,28.45,19.11V476.89A19.12,19.12,0,0,0,47.56,496H272.44a19.12,19.12,0,0,0,19.11-19.11V19.11A19.12,19.12,0,0,0,272.44,0Z"/><path class="cls-4" d="M2,494V286.93L147.72,416.14a18.77,18.77,0,0,0,24.57,0L318,286.93V494Z"/><path class="cls-2" d="M316,291.38V492H4V291.38L146.39,417.64a20.77,20.77,0,0,0,27.22,0L316,291.38m4-8.89L171,414.65a16.79,16.79,0,0,1-21.92,0L0,282.49V496H320V282.49Z"/><path class="cls-4" d="M6.19,494l112.93-81.43a69.86,69.86,0,0,1,81.76,0L313.81,494Z"/><path class="cls-2" d="M160,401.36a67.52,67.52,0,0,1,39.71,12.83L307.61,492H12.39l107.9-77.81A67.52,67.52,0,0,1,160,401.36m0-4A71.77,71.77,0,0,0,118,411L0,496H320L202.05,411A71.79,71.79,0,0,0,160,397.36Z"/></svg>