<svg id="레이어_1" data-name="레이어 1" xmlns="http://www.w3.org/2000/svg" viewBox="0 0 360 640"><defs><style>.cls-1{fill:none;stroke:#c2dbff;stroke-miterlimit:10;stroke-dasharray:1;}.cls-13,.cls-14,.cls-2{fill:#88adff;}.cls-2{opacity:0.53;}.cls-3{fill:#b9ddf1;}.cls-4{fill:#a1b3e3;}.cls-5{fill:#fdc97a;}.cls-6{fill:#f5855a;}.cls-7{fill:#182a85;}.cls-8{opacity:0.49;}.cls-9{fill:#fdfdff;}.cls-10{fill:#c2dbff;}.cls-11{fill:#693f08;}.cls-12{fill:#c96;}.cls-13{isolation:isolate;opacity:0.6;}</style></defs><path class="cls-1" d="M257.59,429.36c-49.06-6.29-48.74,29.36-45,25.8,7.19-6.85,5.69-25.51-6.64-31-10.67-4.71-24.21,2.52-33.14,10.69-2.65,2.42-5.07,5.36-5.75,8.75s.91,7.24,4.23,8.13,6.85-1.34,8.48-4.32a13.34,13.34,0,0,0,.77-9.61c-2.36-9.48-11.36-16.61-21.52-17.06-9.64-.42-19,4.55-28.66,6.43-21.78,4.26-44.3-9.86-48.54-30.44-1.86-9,.94-20.8,10.08-24.45,7.95-3.18,17.24,2.47,18.45,10.44s-4.76,16.56-12.71,19.77a24.88,24.88,0,0,1-23.56-3.23c-6.46-4.74-10.42-12.14-12.25-20-4.11-17.59,2.6-37.91,16.83-51"/><path class="cls-2" d="M283.51,455.41c.28.06,9.47-11.46,9.47-11.46l1.59,8.06,1.65-10.21,10.15-6.24L266.32,429l29.33,12.59-1.19,8.4-1.31-6.69-26.83-14Z"/><path class="cls-3" d="M209.48,337.6c2.2-8.25,7-22.15,13.52-27.44a7.59,7.59,0,0,1,4.74-1.93c3.08,0,5.63,2.78,6.39,5.76s.12,6.15-.75,9.11c2.6-4.83,4.16-9.78,8-13.68a10.13,10.13,0,0,1,6-2.68,8.07,8.07,0,0,1,8.22,5.63c1,3.41.07,7.07-1.18,10.39a25.5,25.5,0,0,1,7.82-12.56c1.7-1.49,5.26-3.75,7.64-3.26a4.85,4.85,0,0,1,4,3.18c2.16,5.73-.18,18.37-1.95,22"/><path class="cls-4" d="M80.62,339.64a60.53,60.53,0,0,1,20.47-36.08c2.47-2.09,5.88-4.06,8.76-2.59a6,6,0,0,1,2.94,4.85,17.63,17.63,0,0,1-.71,5.85c1.89-4.39,3.92-9,7.63-12s9.65-3.9,13.12-.61,3,9.22,2.07,14.1a33,33,0,0,1,4.55,5.26,8.77,8.77,0,0,1,1.47,5.84c-.42,2.8-2.67,5.06-5.23,6.27a26.11,26.11,0,0,1-8.26,1.85"/><path class="cls-5" d="M203.45,244.43s45.16,31.45,46.73,32.56,0,2.74,0,2.74l-55.93,77.2s-7.76,11.48-9.46,11.68-65.26-42.55-66.1-43.07-.46-1.63-.46-1.63c4.11-9.46,40-56.64,40-56.64S178.33,233.59,203.45,244.43Z"/><path class="cls-6" d="M181.43,293s-6.72-3.12-9.4,3.53,1.63,9.72,6.72,9.39,16.58-.84,18.21-3.26-.72-11.29-.72-11.29-2-7.63-5.15-10-9.14,1-9.14,1a6.27,6.27,0,0,0-1.7,5.94C181.1,292.13,181.43,293,181.43,293Z"/><path class="cls-7" d="M209.48,336a1.18,1.18,0,0,1-.73-.24,1.21,1.21,0,0,1-.24-1.7l19.06-25.32a1.21,1.21,0,1,1,1.94,1.46l-19.06,25.32A1.18,1.18,0,0,1,209.48,336Z"/><path class="cls-4" d="M256.66,370.61s1.9-5.36,2.07-8.06-.86-5.64-3.2-7a5.77,5.77,0,0,0-8,3.1,3.15,3.15,0,0,0-2.39-3.75,5.12,5.12,0,0,0-4.56,1.5,15.42,15.42,0,0,0-2.78,4.14,4.94,4.94,0,0,0-3.26-7c-3-.53-5.66,1.83-7.5,4.22a36.14,36.14,0,0,0-7.11,17V375Z"/><g class="cls-8"><circle class="cls-9" cx="121.75" cy="323.13" r="0.58"/><circle class="cls-9" cx="127.89" cy="314.44" r="0.58"/><circle class="cls-9" cx="134.03" cy="305.75" r="0.58"/><circle class="cls-9" cx="140.18" cy="297.06" r="0.58"/><circle class="cls-9" cx="146.32" cy="288.37" r="0.58"/><circle class="cls-9" cx="152.46" cy="279.67" r="0.58"/><circle class="cls-9" cx="158.6" cy="270.98" r="0.58"/><circle class="cls-9" cx="164.75" cy="262.29" r="0.58"/><circle class="cls-9" cx="170.89" cy="253.6" r="0.58"/><circle class="cls-9" cx="177.03" cy="244.91" r="0.58"/><circle class="cls-9" cx="183.18" cy="236.22" r="0.58"/><circle class="cls-9" cx="128.06" cy="321.55" r="0.58"/><circle class="cls-9" cx="134.2" cy="312.86" r="0.58"/><circle class="cls-9" cx="140.34" cy="304.17" r="0.58"/><circle class="cls-9" cx="146.49" cy="295.48" r="0.58"/><circle class="cls-9" cx="152.63" cy="286.78" r="0.58"/><circle class="cls-9" cx="158.77" cy="278.09" r="0.58"/><circle class="cls-9" cx="164.92" cy="269.4" r="0.58"/><circle class="cls-9" cx="171.06" cy="260.71" r="0.58"/><circle class="cls-9" cx="177.2" cy="252.02" r="0.58"/><circle class="cls-9" cx="183.34" cy="243.33" r="0.58"/><circle class="cls-9" cx="189.49" cy="234.63" r="0.58"/></g><g class="cls-8"><circle class="cls-9" cx="129.83" cy="325.86" r="0.58"/><circle class="cls-9" cx="135.98" cy="317.17" r="0.58"/><circle class="cls-9" cx="142.12" cy="308.48" r="0.58"/><circle class="cls-9" cx="148.26" cy="299.78" r="0.58"/><circle class="cls-9" cx="154.4" cy="291.09" r="0.58"/><circle class="cls-9" cx="160.55" cy="282.4" r="0.58"/><circle class="cls-9" cx="166.69" cy="273.71" r="0.58"/><circle class="cls-9" cx="172.83" cy="265.02" r="0.58"/><circle class="cls-9" cx="178.98" cy="256.33" r="0.58"/><circle class="cls-9" cx="185.12" cy="247.63" r="0.58"/><circle class="cls-9" cx="191.26" cy="238.94" r="0.58"/><circle class="cls-9" cx="136.14" cy="324.28" r="0.58"/><circle class="cls-9" cx="142.29" cy="315.58" r="0.58"/><circle class="cls-9" cx="148.43" cy="306.89" r="0.58"/><circle class="cls-9" cx="154.57" cy="298.2" r="0.58"/><circle class="cls-9" cx="160.72" cy="289.51" r="0.58"/><circle class="cls-9" cx="166.86" cy="280.82" r="0.58"/><circle class="cls-9" cx="173" cy="272.13" r="0.58"/><circle class="cls-9" cx="179.14" cy="263.44" r="0.58"/><circle class="cls-9" cx="185.29" cy="254.74" r="0.58"/><circle class="cls-9" cx="191.43" cy="246.05" r="0.58"/><circle class="cls-9" cx="197.57" cy="237.36" r="0.58"/></g><g class="cls-8"><circle class="cls-9" cx="135.23" cy="329.31" r="0.58"/><circle class="cls-9" cx="141.37" cy="320.61" r="0.58"/><circle class="cls-9" cx="147.51" cy="311.92" r="0.58"/><circle class="cls-9" cx="153.66" cy="303.23" r="0.58"/><circle class="cls-9" cx="159.8" cy="294.54" r="0.58"/><circle class="cls-9" cx="165.94" cy="285.85" r="0.58"/><circle class="cls-9" cx="172.09" cy="277.16" r="0.58"/><circle class="cls-9" cx="178.23" cy="268.46" r="0.58"/><circle class="cls-9" cx="184.37" cy="259.77" r="0.58"/><circle class="cls-9" cx="190.51" cy="251.08" r="0.58"/><circle class="cls-9" cx="196.66" cy="242.39" r="0.58"/><circle class="cls-9" cx="141.54" cy="327.72" r="0.58"/><circle class="cls-9" cx="147.68" cy="319.03" r="0.58"/><circle class="cls-9" cx="153.83" cy="310.34" r="0.58"/><circle class="cls-9" cx="159.97" cy="301.65" r="0.58"/><circle class="cls-9" cx="166.11" cy="292.96" r="0.58"/><circle class="cls-9" cx="172.25" cy="284.27" r="0.58"/><circle class="cls-9" cx="178.4" cy="275.57" r="0.58"/><circle class="cls-9" cx="184.54" cy="266.88" r="0.58"/><circle class="cls-9" cx="190.68" cy="258.19" r="0.58"/><circle class="cls-9" cx="196.83" cy="249.5" r="0.58"/><circle class="cls-9" cx="202.97" cy="240.81" r="0.58"/></g><g class="cls-8"><circle class="cls-9" cx="140.77" cy="334.69" r="0.58"/><circle class="cls-9" cx="146.91" cy="326" r="0.58"/><circle class="cls-9" cx="153.06" cy="317.31" r="0.58"/><circle class="cls-9" cx="159.2" cy="308.61" r="0.58"/><circle class="cls-9" cx="165.34" cy="299.92" r="0.58"/><circle class="cls-9" cx="171.48" cy="291.23" r="0.58"/><circle class="cls-9" cx="177.63" cy="282.54" r="0.58"/><circle class="cls-9" cx="183.77" cy="273.85" r="0.58"/><circle class="cls-9" cx="189.91" cy="265.16" r="0.58"/><circle class="cls-9" cx="196.06" cy="256.46" r="0.58"/><circle class="cls-9" cx="202.2" cy="247.77" r="0.58"/><circle class="cls-9" cx="147.08" cy="333.11" r="0.58"/><circle class="cls-9" cx="153.22" cy="324.41" r="0.58"/><circle class="cls-9" cx="159.37" cy="315.72" r="0.58"/><circle class="cls-9" cx="165.51" cy="307.03" r="0.58"/><circle class="cls-9" cx="171.65" cy="298.34" r="0.58"/><circle class="cls-9" cx="177.8" cy="289.65" r="0.58"/><circle class="cls-9" cx="183.94" cy="280.96" r="0.58"/><circle class="cls-9" cx="190.08" cy="272.26" r="0.58"/><circle class="cls-9" cx="196.22" cy="263.57" r="0.58"/><circle class="cls-9" cx="202.37" cy="254.88" r="0.58"/><circle class="cls-9" cx="208.51" cy="246.19" r="0.58"/></g><g class="cls-8"><circle class="cls-9" cx="146.31" cy="340.07" r="0.58"/><circle class="cls-9" cx="152.45" cy="331.38" r="0.58"/><circle class="cls-9" cx="158.6" cy="322.69" r="0.58"/><circle class="cls-9" cx="164.74" cy="314" r="0.58"/><circle class="cls-9" cx="170.88" cy="305.3" r="0.58"/><circle class="cls-9" cx="177.02" cy="296.61" r="0.58"/><circle class="cls-9" cx="183.17" cy="287.92" r="0.58"/><circle class="cls-9" cx="189.31" cy="279.23" r="0.58"/><circle class="cls-9" cx="195.45" cy="270.54" r="0.58"/><circle class="cls-9" cx="201.6" cy="261.85" r="0.58"/><circle class="cls-9" cx="207.74" cy="253.15" r="0.58"/><circle class="cls-9" cx="152.62" cy="338.49" r="0.58"/><circle class="cls-9" cx="158.76" cy="329.8" r="0.58"/><circle class="cls-9" cx="164.91" cy="321.1" r="0.58"/><circle class="cls-9" cx="171.05" cy="312.41" r="0.58"/><circle class="cls-9" cx="177.19" cy="303.72" r="0.58"/><circle class="cls-9" cx="183.34" cy="295.03" r="0.58"/><circle class="cls-9" cx="189.48" cy="286.34" r="0.58"/><circle class="cls-9" cx="195.62" cy="277.65" r="0.58"/><circle class="cls-9" cx="201.76" cy="268.96" r="0.58"/><circle class="cls-9" cx="207.91" cy="260.26" r="0.58"/><circle class="cls-9" cx="214.05" cy="251.57" r="0.58"/></g><g class="cls-8"><circle class="cls-9" cx="157.39" cy="350.84" r="0.58"/><circle class="cls-9" cx="163.54" cy="342.14" r="0.58"/><circle class="cls-9" cx="169.68" cy="333.45" r="0.58"/><circle class="cls-9" cx="175.82" cy="324.76" r="0.58"/><circle class="cls-9" cx="181.96" cy="316.07" r="0.58"/><circle class="cls-9" cx="188.11" cy="307.38" r="0.58"/><circle class="cls-9" cx="194.25" cy="298.69" r="0.58"/><circle class="cls-9" cx="200.39" cy="289.99" r="0.58"/><circle class="cls-9" cx="206.54" cy="281.3" r="0.58"/><circle class="cls-9" cx="212.68" cy="272.61" r="0.58"/><circle class="cls-9" cx="218.82" cy="263.92" r="0.58"/><circle class="cls-9" cx="163.7" cy="349.25" r="0.58"/><circle class="cls-9" cx="169.85" cy="340.56" r="0.58"/><circle class="cls-9" cx="175.99" cy="331.87" r="0.58"/><circle class="cls-9" cx="182.13" cy="323.18" r="0.58"/><circle class="cls-9" cx="188.27" cy="314.49" r="0.58"/><circle class="cls-9" cx="194.42" cy="305.79" r="0.58"/><circle class="cls-9" cx="200.56" cy="297.1" r="0.58"/><circle class="cls-9" cx="206.7" cy="288.41" r="0.58"/><circle class="cls-9" cx="212.85" cy="279.72" r="0.58"/><circle class="cls-9" cx="218.99" cy="271.03" r="0.58"/><circle class="cls-9" cx="225.13" cy="262.34" r="0.58"/></g><g class="cls-8"><circle class="cls-9" cx="162.93" cy="356.22" r="0.58"/><circle class="cls-9" cx="169.08" cy="347.53" r="0.58"/><circle class="cls-9" cx="175.22" cy="338.83" r="0.58"/><circle class="cls-9" cx="181.36" cy="330.14" r="0.58"/><circle class="cls-9" cx="187.5" cy="321.45" r="0.58"/><circle class="cls-9" cx="193.65" cy="312.76" r="0.58"/><circle class="cls-9" cx="199.79" cy="304.07" r="0.58"/><circle class="cls-9" cx="205.93" cy="295.38" r="0.58"/><circle class="cls-9" cx="212.08" cy="286.68" r="0.58"/><circle class="cls-9" cx="218.22" cy="277.99" r="0.58"/><circle class="cls-9" cx="224.36" cy="269.3" r="0.58"/><circle class="cls-9" cx="169.24" cy="354.63" r="0.58"/><circle class="cls-9" cx="175.39" cy="345.94" r="0.58"/><circle class="cls-9" cx="181.53" cy="337.25" r="0.58"/><circle class="cls-9" cx="187.67" cy="328.56" r="0.58"/><circle class="cls-9" cx="193.82" cy="319.87" r="0.58"/><circle class="cls-9" cx="199.96" cy="311.18" r="0.58"/><circle class="cls-9" cx="206.1" cy="302.48" r="0.58"/><circle class="cls-9" cx="212.24" cy="293.79" r="0.58"/><circle class="cls-9" cx="218.39" cy="285.1" r="0.58"/><circle class="cls-9" cx="224.53" cy="276.41" r="0.58"/><circle class="cls-9" cx="230.67" cy="267.72" r="0.58"/></g><g class="cls-8"><ellipse class="cls-9" cx="172.03" cy="359.22" rx="0.56" ry="0.56" transform="translate(-5.2 2.54) rotate(-0.83)"/><ellipse class="cls-9" cx="177.91" cy="350.84" rx="0.56" ry="0.56" transform="translate(-5.08 2.62) rotate(-0.83)"/><ellipse class="cls-9" cx="183.79" cy="342.46" rx="0.56" ry="0.56" transform="translate(-4.96 2.71) rotate(-0.83)"/><ellipse class="cls-9" cx="189.67" cy="334.07" rx="0.56" ry="0.56" transform="translate(-4.83 2.79) rotate(-0.83)"/><ellipse class="cls-9" cx="195.55" cy="325.69" rx="0.56" ry="0.56" transform="translate(-4.71 2.88) rotate(-0.83)"/><ellipse class="cls-9" cx="201.43" cy="317.31" rx="0.56" ry="0.56" transform="translate(-4.59 2.96) rotate(-0.83)"/><ellipse class="cls-9" cx="207.31" cy="308.93" rx="0.56" ry="0.56" transform="translate(-4.47 3.04) rotate(-0.83)"/><ellipse class="cls-9" cx="213.19" cy="300.54" rx="0.56" ry="0.56" transform="translate(-4.34 3.13) rotate(-0.83)"/><ellipse class="cls-9" cx="219.06" cy="292.16" rx="0.56" ry="0.56" transform="translate(-4.22 3.21) rotate(-0.83)"/><ellipse class="cls-9" cx="224.94" cy="283.78" rx="0.56" ry="0.56" transform="translate(-4.1 3.3) rotate(-0.83)"/><ellipse class="cls-9" cx="230.82" cy="275.4" rx="0.56" ry="0.56" transform="translate(-3.98 3.38) rotate(-0.83)"/><ellipse class="cls-9" cx="178.07" cy="357.7" rx="0.56" ry="0.56" transform="translate(-5.18 2.63) rotate(-0.83)"/><ellipse class="cls-9" cx="184.61" cy="348.38" rx="0.56" ry="0.56" transform="translate(-5.04 2.72) rotate(-0.83)"/><ellipse class="cls-9" cx="191.14" cy="339.07" rx="0.56" ry="0.56" transform="translate(-4.91 2.81) rotate(-0.83)"/><ellipse class="cls-9" cx="197.67" cy="329.75" rx="0.56" ry="0.56" transform="translate(-4.77 2.91) rotate(-0.83)"/><ellipse class="cls-9" cx="204.2" cy="320.44" rx="0.56" ry="0.56" transform="translate(-4.63 3) rotate(-0.83)"/><ellipse class="cls-9" cx="210.73" cy="311.13" rx="0.56" ry="0.56" transform="translate(-4.5 3.09) rotate(-0.83)"/><ellipse class="cls-9" cx="217.27" cy="301.81" rx="0.56" ry="0.56" transform="translate(-4.36 3.19) rotate(-0.83)"/><ellipse class="cls-9" cx="223.8" cy="292.5" rx="0.56" ry="0.56" transform="translate(-4.23 3.28) rotate(-0.83)"/><ellipse class="cls-9" cx="230.33" cy="283.18" rx="0.56" ry="0.56" transform="translate(-4.09 3.38) rotate(-0.83)"/><ellipse class="cls-9" cx="236.86" cy="273.87" rx="0.56" ry="0.56" transform="translate(-3.95 3.47) rotate(-0.83)"/></g><g class="cls-8"><circle class="cls-9" cx="179.84" cy="364.29" r="0.58"/><circle class="cls-9" cx="185.98" cy="355.6" r="0.58"/><circle class="cls-9" cx="192.12" cy="346.91" r="0.58"/><circle class="cls-9" cx="198.26" cy="338.22" r="0.58"/><circle class="cls-9" cx="204.41" cy="329.53" r="0.58"/><circle class="cls-9" cx="210.55" cy="320.83" r="0.58"/><circle class="cls-9" cx="216.69" cy="312.14" r="0.58"/><circle class="cls-9" cx="222.84" cy="303.45" r="0.58"/><circle class="cls-9" cx="228.98" cy="294.76" r="0.58"/><circle class="cls-9" cx="235.12" cy="286.07" r="0.58"/><circle class="cls-9" cx="241.26" cy="277.38" r="0.58"/><circle class="cls-9" cx="186.15" cy="362.71" r="0.58"/><circle class="cls-9" cx="192.29" cy="354.02" r="0.58"/><circle class="cls-9" cx="198.43" cy="345.33" r="0.58"/><circle class="cls-9" cx="204.58" cy="336.63" r="0.58"/><circle class="cls-9" cx="210.72" cy="327.94" r="0.58"/><circle class="cls-9" cx="216.86" cy="319.25" r="0.58"/><circle class="cls-9" cx="223" cy="310.56" r="0.58"/><circle class="cls-9" cx="229.15" cy="301.87" r="0.58"/><circle class="cls-9" cx="235.29" cy="293.18" r="0.58"/><circle class="cls-9" cx="241.43" cy="284.48" r="0.58"/><circle class="cls-9" cx="247.58" cy="275.79" r="0.58"/></g><path class="cls-7" d="M132.65,319.52a1.21,1.21,0,0,1-.38-2.37l41-13.31a1.21,1.21,0,1,1,.75,2.31l-41,13.31A1,1,0,0,1,132.65,319.52Z"/><path class="cls-7" d="M198.25,297a1.21,1.21,0,0,1-.4-2.36L236,281.32a1.21,1.21,0,1,1,.8,2.29l-38.11,13.32A1.39,1.39,0,0,1,198.25,297Z"/><path class="cls-7" d="M184.68,348h-.07a1.22,1.22,0,0,1-1.15-1.28L185.55,306a1.22,1.22,0,0,1,2.43.13l-2.09,40.72A1.21,1.21,0,0,1,184.68,348Z"/><path class="cls-7" d="M188.85,281.61a1.22,1.22,0,0,1-1.21-1.22V264.73a1.22,1.22,0,0,1,2.43,0v15.66A1.22,1.22,0,0,1,188.85,281.61Z"/><path class="cls-7" d="M182.1,294.19a1.21,1.21,0,0,1-1-.59c-.11-.19-2.78-4.64-1.49-8.77a7.77,7.77,0,0,1,4.61-4.81,7.63,7.63,0,0,1,6.66-.19c3.75,1.83,5,6.72,5.07,6.92a1.22,1.22,0,0,1-2.36.6s-1.06-4-3.79-5.34a5.27,5.27,0,0,0-4.59.23,5.4,5.4,0,0,0-3.28,3.31c-.95,3,1.23,6.75,1.25,6.79a1.21,1.21,0,0,1-.41,1.67A1.18,1.18,0,0,1,182.1,294.19Z"/><g class="cls-8"><circle class="cls-9" cx="151.85" cy="345.45" r="0.58"/><circle class="cls-9" cx="157.99" cy="336.76" r="0.58"/><circle class="cls-9" cx="164.14" cy="328.07" r="0.58"/><circle class="cls-9" cx="170.28" cy="319.38" r="0.58"/><circle class="cls-9" cx="176.42" cy="310.69" r="0.58"/><circle class="cls-9" cx="182.57" cy="301.99" r="0.58"/><circle class="cls-9" cx="188.71" cy="293.3" r="0.58"/><circle class="cls-9" cx="194.85" cy="284.61" r="0.58"/><circle class="cls-9" cx="200.99" cy="275.92" r="0.58"/><circle class="cls-9" cx="207.14" cy="267.23" r="0.58"/><circle class="cls-9" cx="213.28" cy="258.54" r="0.58"/><circle class="cls-9" cx="158.16" cy="343.87" r="0.58"/><circle class="cls-9" cx="164.31" cy="335.18" r="0.58"/><circle class="cls-9" cx="170.45" cy="326.49" r="0.58"/><circle class="cls-9" cx="176.59" cy="317.8" r="0.58"/><circle class="cls-9" cx="182.73" cy="309.1" r="0.58"/><circle class="cls-9" cx="188.88" cy="300.41" r="0.58"/><circle class="cls-9" cx="195.02" cy="291.72" r="0.58"/><circle class="cls-9" cx="201.16" cy="283.03" r="0.58"/><circle class="cls-9" cx="207.31" cy="274.34" r="0.58"/><circle class="cls-9" cx="213.45" cy="265.65" r="0.58"/><circle class="cls-9" cx="219.59" cy="256.95" r="0.58"/></g><path class="cls-7" d="M182.93,307.3c-5.28,0-9.82-1.13-11.33-3.37-2.86-4.23-.14-8.62,0-8.81a1.22,1.22,0,0,1,2,1.31c-.08.14-2,3.25,0,6.14,1.78,2.63,13.81,3.48,22.45-.16a40.11,40.11,0,0,0-.09-10.24,1.22,1.22,0,0,1,2.41-.36,41.19,41.19,0,0,1,0,11.64l-.1.64-.59.27A37.35,37.35,0,0,1,182.93,307.3Z"/><path class="cls-3" d="M126,269c3.7-13.95,11.75-37.43,22.84-46.36,2.3-1.85,5.06-3.32,8-3.28,5.21.09,9.51,4.7,10.8,9.75s.21,10.39-1.26,15.39c4.38-8.17,7-16.53,13.54-23.13A17.19,17.19,0,0,1,190,216.86c6-.7,12.22,3.74,13.88,9.51s.11,11.95-2,17.56a43.21,43.21,0,0,1,13.22-21.23c2.87-2.51,8.89-6.33,12.9-5.5,3.69.76,5.67,2.62,6.71,5.37,3.65,9.69-.32,31-3.29,37.19"/><path class="cls-7" d="M166.28,245.42a1.21,1.21,0,0,1-.38-.06,1.22,1.22,0,0,1-.78-1.54l2.11-6.4a1.22,1.22,0,1,1,2.31.76l-2.11,6.4A1.22,1.22,0,0,1,166.28,245.42Z"/><path class="cls-7" d="M204.06,242.73a1,1,0,0,1-.24,0,1.22,1.22,0,0,1-1-1.43l1.46-7.43a1.22,1.22,0,1,1,2.39.47l-1.46,7.43A1.21,1.21,0,0,1,204.06,242.73Z"/><path class="cls-7" d="M160.53,267.07a1.22,1.22,0,0,1-.08-2.43l48.29-3.39a1.21,1.21,0,1,1,.17,2.42l-48.29,3.4Z"/><path class="cls-3" d="M119.32,371.06c-3.48-.4.21-7,1.8-10.15a27.7,27.7,0,0,1,6.59-8.07,14.15,14.15,0,0,1,5.27-3.17,6.16,6.16,0,0,1,5.83,1.13c1.5,1.41,1.82,4.09.35,5.54a12.2,12.2,0,0,1,7.65-8.88,8,8,0,0,1,4.57-.41,4.9,4.9,0,0,1,3.47,2.83A3.54,3.54,0,0,1,153.7,354a15.52,15.52,0,0,1,2.75-5.62,7.33,7.33,0,0,1,5.42-2.81c3.17,0,5.85,2.66,6.88,5.65s.8,6.27.54,9.43c0,0,.07,1.6-5.8,2.78s-42.68,7.6-42.68,7.6S120.76,371.23,119.32,371.06Z"/><path class="cls-7" d="M168.9,358.24a1.22,1.22,0,0,1-1.22-1.19c0-1.31-.05-2.09-.07-2.87s-.05-1.58-.07-2.91a4.93,4.93,0,0,0-.79-3.25c-.95-1.09-3.16-1.58-5.27-1.16a1.22,1.22,0,0,1-.47-2.39c2.5-.49,5.81-.08,7.58,2a7.1,7.1,0,0,1,1.38,4.8c0,1.31.05,2.09.07,2.87s.05,1.58.08,2.91a1.22,1.22,0,0,1-1.2,1.23Z"/><path class="cls-7" d="M139.41,359.14a2,2,0,0,1-.34,0,1.62,1.62,0,0,1-1.25-1.92l.87-4.14a1.62,1.62,0,1,1,3.17.67l-.87,4.14A1.61,1.61,0,0,1,139.41,359.14Z"/><path class="cls-7" d="M154.21,356.45l-.25,0A1.22,1.22,0,0,1,153,355l.87-4.14a1.22,1.22,0,0,1,2.38.5l-.87,4.14A1.22,1.22,0,0,1,154.21,356.45Z"/><rect class="cls-10" x="0.05" y="0.05" width="360" height="16"/><rect class="cls-10" x="0.05" y="624.05" width="360" height="16"/><path class="cls-11" d="M56.33,99.87a2,2,0,0,1-2.17-2.18l-.4-18a2,2,0,0,1,.56-1.6,2.26,2.26,0,0,1,1.62-.58L66,77.39a2.13,2.13,0,0,1,1.59.58,2.06,2.06,0,0,1,.55,1.6l-.08,6.32h2.22l-.11-8.17c0-.73.35-1.09,1-1.09h4.07a.92.92,0,0,1,1,1.09l-.43,25.34a1,1,0,0,1-1.09,1.09h-3.2a1,1,0,0,1-1.09-1.09l-.18-11.51H68l-.07,6a2.29,2.29,0,0,1-.6,1.6,2.09,2.09,0,0,1-1.58.58Zm3.06-5.74h3.12l-.07-11h-3Zm19.46,10a1,1,0,0,1-1.09-1.09V77.35a1,1,0,0,1,1-1.09h4.07a.93.93,0,0,1,1.05,1.09l-.79,25.71a1,1,0,0,1-1.09,1.09Z"/><path class="cls-11" d="M85.42,96.78c-.31-.48-.19-1,.37-1.52a15.7,15.7,0,0,0,2.83-3.42,16.78,16.78,0,0,0,1.76-4,22.41,22.41,0,0,0,.84-4.43,38.5,38.5,0,0,0,.09-4.83,1.36,1.36,0,0,1,.38-1.23,1.55,1.55,0,0,1,1.07-.4h3.7a1.31,1.31,0,0,1,1.09.45,1.74,1.74,0,0,1,.33,1.18c0,1.6-.16,3.16-.35,4.69a28.89,28.89,0,0,1-.89,4.5,18.41,18.41,0,0,0,2.53,3.43,24.39,24.39,0,0,0,3.32,3,1,1,0,0,1,.44.84,1,1,0,0,1-.33.72L100,98.52a1,1,0,0,1-.78.31,1.42,1.42,0,0,1-.86-.34,19.9,19.9,0,0,1-2.21-2.13,23.23,23.23,0,0,1-2-2.63,19.13,19.13,0,0,1-2.33,2.92,22,22,0,0,1-3.08,2.67,1.09,1.09,0,0,1-1,.22,1.46,1.46,0,0,1-.78-.54Zm19.25,7.37a1,1,0,0,1-1.09-1.09l-.22-14.41h-3a1.24,1.24,0,0,1-.92-.35,1.25,1.25,0,0,1-.35-.92V84.25a1.25,1.25,0,0,1,.35-.92,1.24,1.24,0,0,1,.92-.35h3l-.07-5.26c0-.73.35-1.09,1-1.09h4.07a.93.93,0,0,1,1,1.09L109,103.06a1,1,0,0,1-1.09,1.09Zm7.23,0a1,1,0,0,1-1.09-1.09V77.35a1,1,0,0,1,1-1.09h4.07a.93.93,0,0,1,1,1.09l-.8,25.71a1,1,0,0,1-1.09,1.09Z"/><path class="cls-11" d="M119.89,97.62a1.18,1.18,0,0,1-.28-1,1,1,0,0,1,.6-.74,21.63,21.63,0,0,0,7-6,17.41,17.41,0,0,0,2.14-3.61,14,14,0,0,0,1.07-3.72l-8.35.22a1,1,0,0,1-.8-.28,1.13,1.13,0,0,1-.29-.81V78.19a1.09,1.09,0,0,1,.29-.8,1.11,1.11,0,0,1,.8-.29L135.76,77a1.73,1.73,0,0,1,1.25.43,1.55,1.55,0,0,1,.42,1.24,22.93,22.93,0,0,1-.8,5.46,23.38,23.38,0,0,1-2,5,18.7,18.7,0,0,0,2.67,3.25,25.42,25.42,0,0,0,3,2.45,1,1,0,0,1,.49.75,1.16,1.16,0,0,1-.27.78L138,99.07a1.08,1.08,0,0,1-.73.31,1.28,1.28,0,0,1-.8-.24,17.12,17.12,0,0,1-5-5.45,24.91,24.91,0,0,1-8.13,6.07,1.57,1.57,0,0,1-2-.33Zm22.87,6.53a1,1,0,0,1-1.09-1.09V77.35a1,1,0,0,1,1.06-1.09h4.43a.93.93,0,0,1,1.05,1.09l-.8,25.71a1,1,0,0,1-1.09,1.09Z"/><path class="cls-11" d="M159.94,97.25a1.4,1.4,0,0,1-.18-1,1.21,1.21,0,0,1,.62-.78,21.38,21.38,0,0,0,3.72-2.61,21,21,0,0,0,3-3.18,19.47,19.47,0,0,0,2.11-3.48,14,14,0,0,0,1.12-3.58l-8.42.22a1,1,0,0,1-.8-.28,1.09,1.09,0,0,1-.29-.81V78.19a1.05,1.05,0,0,1,.29-.8,1.09,1.09,0,0,1,.8-.29L175.34,77a1.69,1.69,0,0,1,1.25.45,1.6,1.6,0,0,1,.42,1.25,25.44,25.44,0,0,1-1,6.27,21.15,21.15,0,0,1-2.6,5.64,17.08,17.08,0,0,0,5.08,3.45,1.07,1.07,0,0,1,.62.66,1,1,0,0,1-.11.8l-1.74,3a1,1,0,0,1-.65.45,1.35,1.35,0,0,1-.84-.09,17,17,0,0,1-5.66-4.21A24.18,24.18,0,0,1,167,97.53a23.31,23.31,0,0,1-3.83,2.23A2.59,2.59,0,0,1,162,100a.92.92,0,0,1-.81-.56Zm22.95,6.9a1,1,0,0,1-1.09-1.09V90.72l-4,.07a1.25,1.25,0,0,1-.92-.35,1.24,1.24,0,0,1-.35-.92v-3.2a1.2,1.2,0,0,1,1.27-1.27l4,.07V77.35a1,1,0,0,1,1.06-1.09h4.43a.93.93,0,0,1,1.05,1.09l-.8,25.71a1,1,0,0,1-1.09,1.09Z"/><path class="cls-11" d="M192.08,91.15a1,1,0,0,1-.09-1,1.69,1.69,0,0,1,.82-.78,25.49,25.49,0,0,0,5.24-3.58,13.15,13.15,0,0,0,3.33-4.56h-7.59a1.36,1.36,0,0,1-1.46-1.45V77.35a1.46,1.46,0,0,1,.4-1,1.42,1.42,0,0,1,1.06-.4h13.4a2.13,2.13,0,0,1,1.69.64,1.9,1.9,0,0,1,.3,1.76A16.59,16.59,0,0,1,208,81.82a21.63,21.63,0,0,1-2,3.34,18.49,18.49,0,0,0,2.29,1.56q1.2.69,2.58,1.35a1.1,1.1,0,0,1,.67.7,1.19,1.19,0,0,1-.27.93l-1.74,2.51a1.09,1.09,0,0,1-.78.52,1.57,1.57,0,0,1-.86-.23,20.06,20.06,0,0,1-5-3.89,24,24,0,0,1-3.63,2.74,23.49,23.49,0,0,1-4.18,2.05,1.5,1.5,0,0,1-1.19.09,1.6,1.6,0,0,1-.77-.67Zm10.39,16.34a6.9,6.9,0,0,1-1.8-2.39,7,7,0,0,1-.64-3,7.35,7.35,0,0,1,2.44-5.48A8.54,8.54,0,0,1,205.24,95a9.79,9.79,0,0,1,3.58-.62,9.68,9.68,0,0,1,3.54.62,8.29,8.29,0,0,1,2.76,1.67,7.4,7.4,0,0,1,1.78,2.47,7.29,7.29,0,0,1,.64,3,6.84,6.84,0,0,1-.66,3,6.91,6.91,0,0,1-1.76,2.39,8.32,8.32,0,0,1-2.76,1.6,10.35,10.35,0,0,1-3.54.58,10.46,10.46,0,0,1-3.58-.58A8.57,8.57,0,0,1,202.47,107.49Zm3-5.37a2.76,2.76,0,0,0,1,2.14,3.73,3.73,0,0,0,2.58.87,3.68,3.68,0,0,0,2.54-.87,2.76,2.76,0,0,0,1-2.14,2.81,2.81,0,0,0-1-2.16,3.64,3.64,0,0,0-2.54-.89,3.68,3.68,0,0,0-2.62.89A2.84,2.84,0,0,0,205.48,102.12Zm8.24-8.32a1,1,0,0,1-1.09-1.09l-.21-16.45a1,1,0,0,1,1.05-1.09h4.43a.93.93,0,0,1,1,1.09l-.14,5.7h3a1.2,1.2,0,0,1,1.27,1.28v3a1.26,1.26,0,0,1-.35.93,1.25,1.25,0,0,1-.92.34H218.7l-.11,5.23c-.05.73-.41,1.09-1.09,1.09Z"/><path class="cls-11" d="M232.9,92.5A1,1,0,0,1,234,91.41h5.84l0-1.13-.73-.22a8.47,8.47,0,0,1-2.67-1.58,7.31,7.31,0,0,1-1.8-2.36,6.89,6.89,0,0,1-.65-3,7.21,7.21,0,0,1,.65-3,7.7,7.7,0,0,1,1.8-2.43A8.57,8.57,0,0,1,239.09,76a9.1,9.1,0,0,1,3.32-.6,9,9,0,0,1,3.31.6,8.49,8.49,0,0,1,2.65,1.63,7.79,7.79,0,0,1,1.78,2.43,7.21,7.21,0,0,1,.65,3,7,7,0,0,1-.65,3,7.42,7.42,0,0,1-1.78,2.34,8.37,8.37,0,0,1-2.65,1.58V91.3l2.88-.15c1-.05,1.92-.12,2.89-.22q.94-.11,1,1l.22,2.17a.71.71,0,0,1-.23.73,1.81,1.81,0,0,1-.78.29c-2.89.36-5.77.62-8.65.76s-5.92.23-9.11.26a1.09,1.09,0,0,1-.8-.29,1.07,1.07,0,0,1-.29-.8Zm8.49,15.07a2.4,2.4,0,0,1-1.87-.62,2.78,2.78,0,0,1-.67-1.89l-.22-6.46c0-.73.31-1.09,1.06-1.09h4a1,1,0,0,1,1.06,1.09l-.08,3.81H258.9c.7,0,1.05.31,1.05.94v2.84c0,.75-.33,1.12-1,1.12Zm-1.7-24.44a2.77,2.77,0,0,0,.91,2.16,3.14,3.14,0,0,0,2.17.81,3.18,3.18,0,0,0,2.18-.79,2.82,2.82,0,0,0,.91-2.18A2.74,2.74,0,0,0,245,81a3.29,3.29,0,0,0-4.35,0A2.74,2.74,0,0,0,239.69,83.13Zm15.5,15.21a1,1,0,0,1-1.08-1.09l-.3-21a1,1,0,0,1,1.06-1.09h4.43a.93.93,0,0,1,1.05,1.09l-.18,7.52h3a1.26,1.26,0,0,1,.93.35,1.24,1.24,0,0,1,.35.92v3a1.19,1.19,0,0,1-1.28,1.27H260l-.18,8a1,1,0,0,1-1.09,1.09Z"/><path class="cls-11" d="M266.67,104a.94.94,0,0,1-.8-.27,1.17,1.17,0,0,1-.29-.82v-3a1.08,1.08,0,0,1,.29-.79,1.06,1.06,0,0,1,.8-.3h4.43l0-3.3h-.54A2.23,2.23,0,0,1,268,93l0-7.26a2.48,2.48,0,0,1,.69-1.91,2.6,2.6,0,0,1,1.82-.63l13.65,0V81.27H269A1.18,1.18,0,0,1,267.69,80V77.17a1.27,1.27,0,0,1,.34-.93,1.29,1.29,0,0,1,.93-.34L288,76a2.64,2.64,0,0,1,1.84.64,2.35,2.35,0,0,1,.67,1.9l-.18,7a2.79,2.79,0,0,1-.66,1.86,2.64,2.64,0,0,1-1.89.69l-13.61.1v2l15,0a1.55,1.55,0,0,1,.86.08.8.8,0,0,1,.34.65v2.65c.12.73-.13,1.15-.76,1.27l-2.07.08,0,3.77h4.14a1.09,1.09,0,0,1,.8.29,1.07,1.07,0,0,1,.29.8v2.58a1,1,0,0,1-.29.78,1.24,1.24,0,0,1-.8.31Zm10.46-5.19h4.28l0-3.6-4.21.11Z"/><path class="cls-11" d="M297.14,96.09A1,1,0,0,1,296.05,95l-1.16-17.25a1,1,0,0,1,1.05-1.09h5.88a.94.94,0,0,1,1.06,1.09L301.79,95a1,1,0,0,1-1.09,1.09Zm1.6,8.83a3.23,3.23,0,0,1-2.35-1,3.33,3.33,0,0,1,0-4.68,3.22,3.22,0,0,1,2.35-1,3.31,3.31,0,1,1,0,6.61Z"/><path class="cls-12" d="M70.38,129.83a1.07,1.07,0,0,1,.17-.52.87.87,0,0,1,.45-.37,3,3,0,0,0,1.53-.78A1.84,1.84,0,0,0,73,126.9a1.51,1.51,0,0,0-.33-1,1.42,1.42,0,0,0-.41-.28,1.38,1.38,0,0,0-.49-.1,1.29,1.29,0,0,0-.52.08,1.23,1.23,0,0,0-.44.3,1.69,1.69,0,0,0-.33,1.2.67.67,0,0,1-.14.36.73.73,0,0,1-.31.24,2.11,2.11,0,0,1-1,.23,2.55,2.55,0,0,1-1-.22.71.71,0,0,1-.32-.22.73.73,0,0,1-.14-.37,3.77,3.77,0,0,1,.3-1.66,3.37,3.37,0,0,1,.89-1.16,3.43,3.43,0,0,1,1.26-.68,6.39,6.39,0,0,1,1.63-.21,4.81,4.81,0,0,1,1.64.26,3.85,3.85,0,0,1,1.27.7,3.44,3.44,0,0,1,.83,1.1,3.23,3.23,0,0,1,.3,1.43,2.78,2.78,0,0,1-.44,1.53,3.6,3.6,0,0,1-1.44,1.18,3.74,3.74,0,0,1,1.77,1.26,3.35,3.35,0,0,1,.7,2.22,3.54,3.54,0,0,1-.36,1.57A3.86,3.86,0,0,1,75,136a4.59,4.59,0,0,1-1.5.79,6.43,6.43,0,0,1-1.9.28,5.41,5.41,0,0,1-1.69-.34,4.33,4.33,0,0,1-1.43-.82,3.54,3.54,0,0,1-.93-1.27,4,4,0,0,1-.32-1.78.65.65,0,0,1,.47-.58,2.43,2.43,0,0,1,1-.22,2,2,0,0,1,.93.23.64.64,0,0,1,.3.24.67.67,0,0,1,.14.36,2.18,2.18,0,0,0,.42,1.46,1.39,1.39,0,0,0,.55.47,1.35,1.35,0,0,0,.71.14,1.94,1.94,0,0,0,1.37-.49,1.58,1.58,0,0,0,.41-.58,1.6,1.6,0,0,0,.12-.69,2.22,2.22,0,0,0-.16-.88,2.27,2.27,0,0,0-.51-.75,3.52,3.52,0,0,0-1.84-.83.75.75,0,0,1-.29-.09.8.8,0,0,1-.21-.2.94.94,0,0,1-.24-.57Z"/><path class="cls-12" d="M82.28,135.68l.21-4.27c0-.2.16-.37.47-.48a3.15,3.15,0,0,1,2.1,0,.63.63,0,0,1,.33.2.62.62,0,0,1,.13.37l-.19,4.13,2.75-.13a1.12,1.12,0,0,1,.4.07,1.11,1.11,0,0,1,.34.22,1.27,1.27,0,0,1,.28.69.91.91,0,0,1-.27.64,1,1,0,0,1-.35.25,1.06,1.06,0,0,1-.43.08l-9.09.26a.82.82,0,0,1-.41,0,.78.78,0,0,1-.33-.24,1.18,1.18,0,0,1-.28-.66,1,1,0,0,1,.15-.68,1,1,0,0,1,.28-.25.81.81,0,0,1,.37-.09Zm1.7-9-3.79.38a1,1,0,0,1-.45,0,1,1,0,0,1-.4-.22,1.09,1.09,0,0,1-.3-.66.74.74,0,0,1,0-.33,1,1,0,0,1,.14-.3.78.78,0,0,1,.25-.23.76.76,0,0,1,.32-.11l2-.13-.09-3.47c0-.17.13-.31.38-.42a2.91,2.91,0,0,1,.92-.24,2.86,2.86,0,0,1,1,0,.44.44,0,0,1,.45.46v3.45l1.5-.12a1.42,1.42,0,0,1,.73.19,1.3,1.3,0,0,1,.52.52,5,5,0,0,1,.29.62c.08.19.08.33,0,.4l-1.63,1.44,1.92,1.64a.43.43,0,0,1,.22.2.53.53,0,0,1,.05.3,1.34,1.34,0,0,1-.23.58,2.25,2.25,0,0,1-.83.57,1,1,0,0,1-.47.07,1,1,0,0,1-.43-.17L84,129.45l-2.67,2.2a.89.89,0,0,1-.41.24.94.94,0,0,1-.47,0,2.07,2.07,0,0,1-.9-.51.93.93,0,0,1-.29-.56.5.5,0,0,1,0-.27.48.48,0,0,1,.16-.22Z"/><path class="cls-12" d="M95.65,135l-3.73.09a.81.81,0,0,1-.41,0,.77.77,0,0,1-.34-.22,1.12,1.12,0,0,1-.28-.7,1.24,1.24,0,0,1,.13-.68,1,1,0,0,1,.26-.27.89.89,0,0,1,.35-.14l9.41-.26a1,1,0,0,1,.41.06,1,1,0,0,1,.34.24,1.2,1.2,0,0,1,.28.7,1.3,1.3,0,0,1-.26.73.87.87,0,0,1-.37.28.89.89,0,0,1-.46.07l-2.4.09-.49,4.82c0,.21-.22.36-.55.45a3.08,3.08,0,0,1-1.05.09,4.05,4.05,0,0,1-1-.24c-.26-.11-.39-.25-.37-.43Zm-.41-11.07-.3-2.26c0-.18.14-.34.4-.51a2.76,2.76,0,0,1,.93-.31,2.33,2.33,0,0,1,1,0,.58.58,0,0,1,.34.19.62.62,0,0,1,.16.36l.27,2.47h2.31a.83.83,0,0,1,.74.31,1,1,0,0,1,.22.66,1.17,1.17,0,0,1-.32.68.79.79,0,0,1-.35.24.85.85,0,0,1-.42.07L93,126a.86.86,0,0,1-.42,0,1,1,0,0,1-.37-.21,1.06,1.06,0,0,1-.26-.34,1,1,0,0,1-.1-.42,1.12,1.12,0,0,1,.2-.69,1,1,0,0,1,.37-.27.88.88,0,0,1,.45-.06Zm1.14,8.38a4.22,4.22,0,0,1-2.73-.77,2.19,2.19,0,0,1-.7-1,2.29,2.29,0,0,1-.1-1.19,2.36,2.36,0,0,1,.46-1.2,3.5,3.5,0,0,1,1-.92,4.29,4.29,0,0,1,1.26-.6,5.8,5.8,0,0,1,1.49-.19,5.88,5.88,0,0,1,1.45.18,3.25,3.25,0,0,1,1.18.54,2.22,2.22,0,0,1,.93,2.18,2.81,2.81,0,0,1-.5,1.26,3.44,3.44,0,0,1-1,.92,4.94,4.94,0,0,1-1.27.55,6.58,6.58,0,0,1-1.4.21Zm.43-4.07a1.37,1.37,0,0,0-.91.34,1.27,1.27,0,0,0-.31.42,1.11,1.11,0,0,0-.12.5.81.81,0,0,0,0,.46.8.8,0,0,0,.28.35,1.45,1.45,0,0,0,.88.29,1.5,1.5,0,0,0,.88-.29,1.16,1.16,0,0,0,.28-.34,1.06,1.06,0,0,0,.12-.43,1.17,1.17,0,0,0,0-.49,1.06,1.06,0,0,0-.23-.43,1.18,1.18,0,0,0-.4-.29,1.28,1.28,0,0,0-.48-.09Z"/><path class="cls-12" d="M118.33,129.5h-1.75v2.12a1.52,1.52,0,0,1-.42,1,2.8,2.8,0,0,1-1.18.62,10.07,10.07,0,0,1-1.1.17l-1.11.1a5.71,5.71,0,0,0-1,.06h-.85a2.07,2.07,0,0,1-1.27-.38,1.69,1.69,0,0,1-.59-1.09V129.4a23,23,0,0,0-.11-2.53,2.42,2.42,0,0,1,.15-1.19,1.21,1.21,0,0,1,.39-.42,1.28,1.28,0,0,1,.53-.21l4.67-.4a2.17,2.17,0,0,1,1.56.35,1.57,1.57,0,0,1,.45.51,1.5,1.5,0,0,1,.2.65v1.38l1.64-.09-.09-3.27c0-.18.14-.33.42-.46a3.58,3.58,0,0,1,.92-.25h.53a1.84,1.84,0,0,1,.47.06,1.73,1.73,0,0,1,.37.16.32.32,0,0,1,.1.1.83.83,0,0,1,0,.15l.31,12c0,.17-.15.31-.45.41a5.55,5.55,0,0,1-1,.22,2.61,2.61,0,0,1-1-.08c-.27-.08-.44-.23-.46-.46Zm-6.73-2.64v2.68a17,17,0,0,0,.11,2.18l1.77-.22v-3.73a3.93,3.93,0,0,0-.09-1.09Zm10.49-3.14c0-.17.14-.32.41-.44a4.21,4.21,0,0,1,1-.24,3.39,3.39,0,0,1,1.05.08c.31.06.48.19.48.38l.23,13.68c0,.17-.16.31-.43.41a5.78,5.78,0,0,1-.91.23,3.37,3.37,0,0,1-1-.08c-.31-.08-.46-.23-.46-.47Z"/><path class="cls-12" d="M130.77,132.13a4.88,4.88,0,0,1-1.77-.3,3.44,3.44,0,0,1-1.3-.86,3.34,3.34,0,0,1-.77-1.34,4.58,4.58,0,0,1-.15-1.8,4.43,4.43,0,0,1,.51-1.81,4.61,4.61,0,0,1,2.57-2.19,4.64,4.64,0,0,1,1.69-.31,4.74,4.74,0,0,1,1.63.29,3.48,3.48,0,0,1,1.27.84,3.71,3.71,0,0,1,.84,1.35,4.07,4.07,0,0,1,.22,1.83,4.61,4.61,0,0,1-.53,1.82,4.68,4.68,0,0,1-2.61,2.19A5.09,5.09,0,0,1,130.77,132.13Zm.53-6.67a1.27,1.27,0,0,0-.6.18,1.38,1.38,0,0,0-.45.45,3.28,3.28,0,0,0-.52,1.88,2.84,2.84,0,0,0,.37,1.8,1.22,1.22,0,0,0,.46.41,1.12,1.12,0,0,0,.6.12,1.09,1.09,0,0,0,.58-.2,1.07,1.07,0,0,0,.41-.46,3.49,3.49,0,0,0,.43-1.67,3.81,3.81,0,0,0-.31-1.83,1.11,1.11,0,0,0-.37-.51,1.19,1.19,0,0,0-.6-.2Zm4.09,14.64a2.17,2.17,0,0,1-.72,0,2.22,2.22,0,0,1-.65-.2,1.35,1.35,0,0,1-.47-.35.76.76,0,0,1-.13-.23.82.82,0,0,1,0-.27l.3-5.14a.33.33,0,0,1,0-.17.47.47,0,0,1,.11-.13.77.77,0,0,1,.37-.19,2,2,0,0,1,.49-.09h.57a3.47,3.47,0,0,1,1,.24c.31.13.44.29.43.49l-.21,4.14L141,138a.94.94,0,0,1,.44,0,1.11,1.11,0,0,1,.38.22.84.84,0,0,1,.2.29,1,1,0,0,1,.07.34,1,1,0,0,1-.28.63,1,1,0,0,1-.37.24,1,1,0,0,1-.43.08l-4.19.25-1.47.06ZM138,123.48c0-.16.15-.3.44-.41a3.81,3.81,0,0,1,1-.26,3.38,3.38,0,0,1,1.05.07c.34,0,.5.2.5.43l.18,10.26q0,.23-.45.39a3.71,3.71,0,0,1-1,.2,2.55,2.55,0,0,1-1,0c-.32-.07-.47-.22-.47-.46Z"/><path class="cls-12" d="M153.05,129.5h-1.82a1.33,1.33,0,0,1-.71-.11v2h.74c.38,0,.63.08.74.32a1.86,1.86,0,0,1,.17.73.87.87,0,0,1-.09.36.68.68,0,0,1-.26.27,1.34,1.34,0,0,1-.79.31l-7.27.4a.94.94,0,0,1-.37-.07.81.81,0,0,1-.31-.21.91.91,0,0,1-.27-.64,1,1,0,0,1,.17-.61.78.78,0,0,1,.6-.34l.8-.09-.43-4.79h-.38a1,1,0,0,1-.41-.06,1.21,1.21,0,0,1-.35-.24,1.1,1.1,0,0,1-.29-.67,1,1,0,0,1,.22-.68.73.73,0,0,1,.34-.26.85.85,0,0,1,.42-.08l7.14-.53a.86.86,0,0,1,.45,0,.9.9,0,0,1,.38.25,1.27,1.27,0,0,1,.29.67,1,1,0,0,1-.18.7.67.67,0,0,1-.26.24.61.61,0,0,1-.35.07h-.5v1.27a1.21,1.21,0,0,1,.46-.12l2.11-.11-.1-3.28c0-.17.14-.32.41-.45a3.37,3.37,0,0,1,.93-.25h.53a2,2,0,0,1,.48.06,1.19,1.19,0,0,1,.35.15.29.29,0,0,1,.11.11.32.32,0,0,1,0,.14l.32,12c0,.17-.15.31-.45.41a5.27,5.27,0,0,1-1,.23,2.83,2.83,0,0,1-1-.09c-.29-.08-.44-.23-.46-.46Zm-6.39-2.62v1c0,.46.06.93.1,1.43s.07,1,.11,1.43.08.8.1,1h1v-5Zm10.11-3.16c0-.17.14-.32.43-.44a3.63,3.63,0,0,1,1-.24,3.43,3.43,0,0,1,1.06.08c.32.06.47.19.47.38l.23,13.68c0,.17-.14.31-.42.41a5.9,5.9,0,0,1-.92.23,3.7,3.7,0,0,1-1.05-.08c-.31-.08-.46-.23-.46-.47Z"/><path class="cls-12" d="M165.5,134.43a4.2,4.2,0,0,1-1.78-.36,3.4,3.4,0,0,1-1.27-1,4.35,4.35,0,0,1-.75-1.6,7.36,7.36,0,0,1-.17-2.09,5.94,5.94,0,0,1,.51-2.11,5.36,5.36,0,0,1,1.1-1.61,5.1,5.1,0,0,1,1.49-1,4.21,4.21,0,0,1,1.68-.35,4,4,0,0,1,1.63.34,3.73,3.73,0,0,1,1.26,1,4.45,4.45,0,0,1,.85,1.59,6,6,0,0,1,.21,2.15,5.68,5.68,0,0,1-.5,2.14,6.06,6.06,0,0,1-1.11,1.59,4.91,4.91,0,0,1-1.51,1,4.41,4.41,0,0,1-1.64.34Zm.53-8.22c-.39,0-.73.28-1.06.85a5.29,5.29,0,0,0-.52,2.44,6.41,6.41,0,0,0,.09,1.38,4.19,4.19,0,0,0,.3,1,1.72,1.72,0,0,0,.43.57.81.81,0,0,0,.5.19.94.94,0,0,0,.63-.24,2.24,2.24,0,0,0,.48-.66,4.19,4.19,0,0,0,.3-1,6,6,0,0,0,.11-1.27,6.64,6.64,0,0,0-.31-2.38C166.76,126.52,166.45,126.21,166,126.21Zm6.32-2.69c0-.16.14-.3.43-.42a3.34,3.34,0,0,1,1-.24,3.76,3.76,0,0,1,1.06,0c.33.07.49.22.49.43L175.5,137c0,.16-.15.28-.46.4a3.92,3.92,0,0,1-1,.21,3.08,3.08,0,0,1-1.05,0c-.31-.07-.47-.23-.47-.47Z"/><path class="cls-12" d="M182.37,126.33l-3.7.29a1.06,1.06,0,0,1-.47,0,1,1,0,0,1-.43-.2,1.13,1.13,0,0,1-.33-.67.94.94,0,0,1,.14-.63.69.69,0,0,1,.24-.24.59.59,0,0,1,.32-.11l6-.45a1.3,1.3,0,0,1,.74.23,1.37,1.37,0,0,1,.46.53,1.8,1.8,0,0,1,.21.63.62.62,0,0,1,0,.27.54.54,0,0,1-.09.25l-1.91,2.66a14.2,14.2,0,0,0,1.26,1.42L186,131.6a.47.47,0,0,1,.13.24.46.46,0,0,1,0,.26,1.48,1.48,0,0,1-.37.58,2,2,0,0,1-.89.51.9.9,0,0,1-.46,0A.88.88,0,0,1,184,133h0c-.44-.41-.81-.76-1.11-1.08s-.62-.64-.92-1l-2.08,2.7a.6.6,0,0,1-.34.24.64.64,0,0,1-.41,0,1.91,1.91,0,0,1-.93-.41,2.06,2.06,0,0,1-.5-.56.39.39,0,0,1,0-.5Zm5.85-2.81c0-.16.14-.3.43-.42a3.41,3.41,0,0,1,1-.24,3.76,3.76,0,0,1,1.06,0c.33.07.49.22.49.43l.18,13.75c0,.16-.15.28-.45.4a4,4,0,0,1-1,.21,3.08,3.08,0,0,1-1.05,0c-.31-.07-.47-.23-.47-.47Z"/><path class="cls-12" d="M198.08,135.68l.2-4h-.41a2.79,2.79,0,0,1-1.27-.27,1.2,1.2,0,0,1-.41-.33,1.09,1.09,0,0,1-.24-.48,4.64,4.64,0,0,0-.14-.58c-.05-.24-.12-.49-.17-.76s-.11-.5-.15-.76a3,3,0,0,1,0-.6,1.21,1.21,0,0,1,.48-1,2.26,2.26,0,0,1,1.16-.46l2.81-.31v-1.34h-1.59l-1.9.1a.79.79,0,0,1-.43,0,.7.7,0,0,1-.38-.22,1,1,0,0,1-.22-.32.91.91,0,0,1-.08-.37,1,1,0,0,1,.58-1,1,1,0,0,1,.44-.08h4.57a3.06,3.06,0,0,1,.74.09,2.07,2.07,0,0,1,.67.24,1.51,1.51,0,0,1,.47.36.78.78,0,0,1,.18.46l-.22,2.84c-.1.65-.62,1-1.57,1l-2.79.4.32,1.42a18,18,0,0,0,1.8-.19,12.62,12.62,0,0,0,1.84-.43.89.89,0,0,1,.46,0,.94.94,0,0,1,.42.19,1.35,1.35,0,0,1,.44.73,1,1,0,0,1-.1.71.92.92,0,0,1-.29.3,1,1,0,0,1-.4.15l-1.58.27v.13l-.18,4.13,2.73-.13a.89.89,0,0,1,.4.06,1,1,0,0,1,.35.23,1.08,1.08,0,0,1,.27.68,1,1,0,0,1-.25.65,1,1,0,0,1-.36.25,1.09,1.09,0,0,1-.43.08l-9.09.26a.71.71,0,0,1-.41,0,.82.82,0,0,1-.33-.23,1.08,1.08,0,0,1-.27-.66.91.91,0,0,1,.15-.68.75.75,0,0,1,.28-.25.77.77,0,0,1,.36-.09Z"/><path class="cls-12" d="M215.23,134.43a4.16,4.16,0,0,1-1.77-.36,3.37,3.37,0,0,1-1.26-1,4,4,0,0,1-.76-1.6,6.69,6.69,0,0,1-.16-2.09,5.92,5.92,0,0,1,.5-2.11,5.05,5.05,0,0,1,2.53-2.62,4.26,4.26,0,0,1,1.69-.35,3.82,3.82,0,0,1,1.63.34,3.74,3.74,0,0,1,1.33,1,4.62,4.62,0,0,1,.85,1.59,6,6,0,0,1,.21,2.15,5.43,5.43,0,0,1-1.62,3.73,4.75,4.75,0,0,1-1.5,1A4.33,4.33,0,0,1,215.23,134.43Zm.55-8.22c-.4,0-.75.28-1.07.85a5.28,5.28,0,0,0-.51,2.44,7.11,7.11,0,0,0,.08,1.38,4.22,4.22,0,0,0,.31,1,1.59,1.59,0,0,0,.43.57.82.82,0,0,0,.48.19.93.93,0,0,0,.64-.24,2,2,0,0,0,.47-.66,4.09,4.09,0,0,0,.32-1,6.74,6.74,0,0,0,.11-1.27,6.65,6.65,0,0,0-.32-2.38C216.5,126.52,216.18,126.21,215.78,126.21Zm6.25-2.69c0-.16.15-.3.44-.42a3.41,3.41,0,0,1,1-.24,3.69,3.69,0,0,1,1,0c.34.07.5.22.5.43l.18,13.75c0,.16-.15.28-.45.4a4.18,4.18,0,0,1-1,.21,3,3,0,0,1-1,0c-.32-.07-.47-.23-.47-.47Z"/><path class="cls-12" d="M232.43,131.28l.18-2.11H232a9,9,0,0,1-1.27,0,3.38,3.38,0,0,1-1.36-.35,1.17,1.17,0,0,1-.42-.34,1.15,1.15,0,0,1-.24-.48c-.09-.38-.15-.7-.22-1s-.08-.54-.12-.82a5.36,5.36,0,0,0-.09-.87c-.09-.3,0-.7-.06-1.16a3.64,3.64,0,0,1,0-.66,1.34,1.34,0,0,1,.17-.59,1.41,1.41,0,0,1,.45-.49,1.7,1.7,0,0,1,.77-.24l5.6-.34a1.09,1.09,0,0,1,.44.06,1.14,1.14,0,0,1,.38.23,1,1,0,0,1,.25.66,1,1,0,0,1-.24.67.91.91,0,0,1-.3.25.94.94,0,0,1-.37.11c-.76,0-1.5.1-2.22.12s-1.36.08-1.89.14l.33,3.15h2.07a7.13,7.13,0,0,0,1.08-.12,5.7,5.7,0,0,0,.9-.17,1.19,1.19,0,0,1,.87,0,.68.68,0,0,1,.29.22.71.71,0,0,1,.15.33,1.93,1.93,0,0,1,0,.34,1.47,1.47,0,0,1-.14.4,1.23,1.23,0,0,1-.26.34.83.83,0,0,1-.4.19l-.39.09-.25,2.37,2.38-.13a1.12,1.12,0,0,1,.4.07.89.89,0,0,1,.34.23,1.07,1.07,0,0,1,.28.68,1,1,0,0,1-.08.38,1.3,1.3,0,0,1-.23.33.9.9,0,0,1-.34.2.84.84,0,0,1-.39.06l-9.08.27a.76.76,0,0,1-.42,0,.78.78,0,0,1-.33-.24,1.13,1.13,0,0,1-.28-.66,1,1,0,0,1,.15-.68.9.9,0,0,1,.65-.34Zm.62,10.73a4.4,4.4,0,0,1-3.13-1,2.79,2.79,0,0,1-.86-2.52,3.73,3.73,0,0,1,.54-1.55,4.15,4.15,0,0,1,1.09-1.12,4.69,4.69,0,0,1,1.47-.68,5.3,5.3,0,0,1,1.68-.24,5.14,5.14,0,0,1,1.69.26,4.1,4.1,0,0,1,1.34.74,3.25,3.25,0,0,1,.82,1.12,3,3,0,0,1,.17,1.47,3.77,3.77,0,0,1-.56,1.54,4.38,4.38,0,0,1-1.11,1.12,5.12,5.12,0,0,1-1.48.69,5.46,5.46,0,0,1-1.66.17Zm.53-5.24a1.57,1.57,0,0,0-1.05.41,1.84,1.84,0,0,0-.39.64,1.89,1.89,0,0,0-.12.74,1.92,1.92,0,0,0,.08.79,1.25,1.25,0,0,0,.3.49,1,1,0,0,0,.44.26,1.6,1.6,0,0,0,1.09,0,1.33,1.33,0,0,0,.49-.39,2.2,2.2,0,0,0,.14-2.44,1.09,1.09,0,0,0-.43-.37,1.06,1.06,0,0,0-.55-.12Z"/><path class="cls-12" d="M243.54,123.9l-.31-2.93c0-.18.14-.34.41-.49a3.09,3.09,0,0,1,2-.33.62.62,0,0,1,.38.18.66.66,0,0,1,.19.37l.31,3.14h1.82a.86.86,0,0,1,.42.06.9.9,0,0,1,.33.25,1,1,0,0,1,.21.66,1.22,1.22,0,0,1-.31.68.92.92,0,0,1-.35.24,1,1,0,0,1-.42.07l-6.76.17a.9.9,0,0,1-.43,0,1,1,0,0,1-.37-.21,1,1,0,0,1-.36-.76,1.11,1.11,0,0,1,.21-.7,1,1,0,0,1,.37-.26.87.87,0,0,1,.45-.06Zm1.11,9a4.3,4.3,0,0,1-2.81-.83,2.54,2.54,0,0,1-.84-2.32,2.72,2.72,0,0,1,.47-1.26,3.77,3.77,0,0,1,1-1,4.76,4.76,0,0,1,1.35-.63,5.18,5.18,0,0,1,1.52-.23,5.43,5.43,0,0,1,1.5.21,3.51,3.51,0,0,1,1.27.59,2.42,2.42,0,0,1,.94,2.33,2.82,2.82,0,0,1-.48,1.36,3.63,3.63,0,0,1-1,1,4.46,4.46,0,0,1-1.36.59,5.47,5.47,0,0,1-1.56.19Zm.42-4.49a1.27,1.27,0,0,0-.9.36,1.42,1.42,0,0,0-.32.51,1.52,1.52,0,0,0-.11.6,1.06,1.06,0,0,0,0,.53,1,1,0,0,0,.28.45,1.45,1.45,0,0,0,1.35.24,1.17,1.17,0,0,0,.46-.26,1.48,1.48,0,0,0,.36-1,1.45,1.45,0,0,0-.27-1.09,1.12,1.12,0,0,0-.89-.38Zm7,6c0-.18.14-.32.41-.41a2.82,2.82,0,0,1,1-.15,3.54,3.54,0,0,1,1,.14q.45.13.48.42v3.89a2.91,2.91,0,0,1-.09.58.92.92,0,0,1-.25.44,1.75,1.75,0,0,1-.51.34,3.64,3.64,0,0,1-.86.23,5.35,5.35,0,0,1-1,.18l-1.27.12a6.46,6.46,0,0,0-1.26.08h-1.26a2.8,2.8,0,0,1-1.42-.35,1.35,1.35,0,0,1-.46-.46,1.39,1.39,0,0,1-.21-.62c-.11-.74-.21-1.45-.29-2.12a18,18,0,0,1-.11-2.2c0-.16.15-.3.45-.41a3.55,3.55,0,0,1,1-.15,3,3,0,0,1,1,.17c.3.11.45.25.45.43v1l3.2-.35Zm0,2.64-3.08.34.1,1.09a3.75,3.75,0,0,0,.67,0h.87a8.17,8.17,0,0,0,.84-.14,4.08,4.08,0,0,0,.6-.16Zm-.78-13.6c0-.18.15-.32.46-.43a4,4,0,0,1,1-.22,4.19,4.19,0,0,1,1.06.1c.32.09.47.23.47.42l.08,3.79,2.28-.15a1,1,0,0,1,1,1,1.17,1.17,0,0,1-.28.71,1.08,1.08,0,0,1-.37.26,1,1,0,0,1-.45.07l-2.18.17.12,3.43c0,.16-.14.3-.43.4a4.25,4.25,0,0,1-.92.22,3.21,3.21,0,0,1-1.07-.07c-.31-.07-.48-.22-.48-.46Z"/><path class="cls-12" d="M259.78,131.72c-.09-.45-.16-1-.22-1.5s-.11-1.09-.14-1.64-.07-1.1-.09-1.63,0-1,0-1.49c0-.24.16-.4.49-.5a3.81,3.81,0,0,1,1.06-.1,4.71,4.71,0,0,1,1.05.24c.3.12.47.28.47.49a17.77,17.77,0,0,0,0,2.73,19.66,19.66,0,0,0,.42,2.87.88.88,0,0,0,.12.21l.13.07a.38.38,0,0,0,.15,0H264l.89-.07.87-.13.77-.14a1.21,1.21,0,0,1,.46,0,1.1,1.1,0,0,1,.44.15,1.18,1.18,0,0,1,.3.29,1,1,0,0,1,.15.38.62.62,0,0,1,0,.33.92.92,0,0,1-.1.32,1.16,1.16,0,0,1-.68.49c-.38.08-.8.15-1.27.22s-.9.14-1.35.17-.92.08-1.37.09a8.83,8.83,0,0,1-1.26,0,2.09,2.09,0,0,1-1.39-.53,2,2,0,0,1-.71-1.28Zm9.6-8.2c0-.16.15-.3.42-.42a3.48,3.48,0,0,1,1-.24,3.69,3.69,0,0,1,1.05,0c.34.07.51.22.51.43l.18,13.75c0,.16-.16.28-.46.4a4,4,0,0,1-1,.21,3,3,0,0,1-1,0c-.32-.07-.47-.23-.47-.47Z"/><path class="cls-12" d="M276.33,125.1l5.6-.33a1,1,0,0,1,.39,0,.94.94,0,0,1,.35.2.82.82,0,0,1,.24.32.86.86,0,0,1,.09.39,1,1,0,0,1-.24.67.89.89,0,0,1-.3.24.93.93,0,0,1-.37.1c-.76,0-1.5.11-2.22.14s-1.36.07-1.9.12l.34,4.68h2.07a7.31,7.31,0,0,0,1.08-.11,5.74,5.74,0,0,0,.9-.18,1,1,0,0,1,.43-.09,1.12,1.12,0,0,1,.44.09.74.74,0,0,1,.28.21.71.71,0,0,1,.15.33,1.09,1.09,0,0,1,0,.36,1.82,1.82,0,0,1-.14.39,1.27,1.27,0,0,1-.27.34.72.72,0,0,1-.39.19c-.37.09-.78.16-1.26.23s-.94.1-1.43.12l-1.44.07h-1.27a3.24,3.24,0,0,1-1.36-.36,1.15,1.15,0,0,1-.42-.34,1.35,1.35,0,0,1-.24-.48,17.89,17.89,0,0,1-.34-2.53C275,129,275,128,275,127.1a2.36,2.36,0,0,1,0-.65,1.27,1.27,0,0,1,.18-.6,1.45,1.45,0,0,1,.44-.48,1.74,1.74,0,0,1,.76-.27Zm9.35-1.41c0-.19.15-.33.45-.45a4.16,4.16,0,0,1,1-.2,3.77,3.77,0,0,1,1.06.09c.32.09.47.23.47.42l.08,4.07,2.41-.17a1,1,0,0,1,.41.08.78.78,0,0,1,.33.24,1,1,0,0,1,.28.68,1.07,1.07,0,0,1-.28.72,1,1,0,0,1-.36.26,1,1,0,0,1-.44.07l-2.32.18.12,7.5c0,.17-.14.31-.43.41a5.75,5.75,0,0,1-.93.23,3.8,3.8,0,0,1-1.06-.08c-.31-.08-.46-.23-.46-.47Z"/><path class="cls-12" d="M293.77,136.92a1.29,1.29,0,0,1,.13-.61,1.33,1.33,0,0,1,.41-.47,2.18,2.18,0,0,1,1.26-.36,2,2,0,0,1,1.17.36,1.21,1.21,0,0,1,.39.42,1.11,1.11,0,0,1,.14.54,1.51,1.51,0,0,1-.12.63,1.45,1.45,0,0,1-.39.5,1.76,1.76,0,0,1-1.26.43,2.06,2.06,0,0,1-.65-.11,2.77,2.77,0,0,1-.55-.33,1.4,1.4,0,0,1-.38-.46,1,1,0,0,1-.15-.54Zm1.72-2.68a2.62,2.62,0,0,1-1-.19.64.64,0,0,1-.32-.21.58.58,0,0,1-.15-.35v-9.88a.69.69,0,0,1,.48-.54,2.57,2.57,0,0,1,1-.19,2.74,2.74,0,0,1,.94.17.63.63,0,0,1,.3.21.59.59,0,0,1,.13.34v9.86a.59.59,0,0,1-.13.36.64.64,0,0,1-.31.23,2.29,2.29,0,0,1-1,.19Z"/><path class="cls-13" d="M61.16,307.18l.25.26c-.21-.21-.41-.43-.6-.64l.71.71-.91-.93a.69.69,0,0,1-.11-.13c-2-2.39-5.87-8.55,1.15-15.57l-.26.26.35-.37-1,1c-2.37,2.06-8.67,6.15-15.76-1l1.38,1.37c-.46-.38-.92-.79-1.38-1.25l.25.25a4.69,4.69,0,0,0-.37-.34l.94.92c2,2.28,5.89,8.27-.34,15.11l-.72.72.47-.45-.41.41.59-.59c6.84-6.23,12.83-2.33,15.11-.34l1,1A4.12,4.12,0,0,0,61.16,307.18Z"/><path class="cls-13" d="M321.44,307.18l.26.26c-.21-.21-.42-.43-.61-.64l.72.71-.92-.93a.64.64,0,0,1-.1-.13c-2.05-2.39-5.88-8.55,1.15-15.57l-.27.26c.23-.23.35-.37.35-.37l-1,1c-2.36,2.06-8.66,6.15-15.75-1l1.37,1.37c-.45-.38-.91-.79-1.38-1.25l.26.25a4.69,4.69,0,0,0-.37-.34l.94.92c2,2.28,5.89,8.27-.35,15.11l-.71.72.46-.45-.4.41.59-.59c6.84-6.23,12.83-2.33,15.1-.34l1,1A2.44,2.44,0,0,0,321.44,307.18Z"/><path class="cls-14" d="M180.24,195.19v-1.43c.34-4.39,2.64-14.25,16.51-14.25h-1.61c-4.36-.29-14.62-2.48-14.62-16.5v2.71a25,25,0,0,1-.13-2.6v1.72c-.28,4.22-2.35,14-15.26,14.58H165c12.91.6,15,10.36,15.26,14.58v1.92A6,6,0,0,1,180.24,195.19Z"/><path class="cls-12" d="M134.9,575.05a2.29,2.29,0,0,1-1.49-.73l-.6-.56c-.51-.47-1-1-1.56-1.49a12.16,12.16,0,0,1-1.44-1.68,9.09,9.09,0,0,1-1.05-2,6.35,6.35,0,0,1-.4-2.3V566a1.72,1.72,0,0,1,0-.33,3,3,0,0,1,.22-1.06,2.79,2.79,0,0,1,.57-.91,2.83,2.83,0,0,1,.93-.63,3.33,3.33,0,0,1,1.31-.24,2.6,2.6,0,0,1,1,.2,4.45,4.45,0,0,1,.91.54,4.79,4.79,0,0,1,.79.77,7.54,7.54,0,0,1,.6.87,4.54,4.54,0,0,1,1.39-1.73,3.19,3.19,0,0,1,1.91-.63,3.51,3.51,0,0,1,1.17.2,2.83,2.83,0,0,1,1,.6,2.92,2.92,0,0,1,.67.94,2.72,2.72,0,0,1,.26,1.24,8.44,8.44,0,0,1-.31,2.43,10.41,10.41,0,0,1-.94,2.2,13,13,0,0,1-1.43,2,18.61,18.61,0,0,1-1.79,1.76,4.17,4.17,0,0,1-.85.6A1.86,1.86,0,0,1,134.9,575.05Z"/><path class="cls-12" d="M148.91,563.55l.19,5.15c0,.18-.13.33-.38.46a3.22,3.22,0,0,1-.83.26,2,2,0,0,1-.88,0,.52.52,0,0,1-.44-.44l-.27-4.66-3.28.14a.84.84,0,0,1-.7-.23.86.86,0,0,1-.28-.56.72.72,0,0,1,.18-.57,1,1,0,0,1,.68-.29h.43l.73,0,.9,0,.93,0,.81,0h.56a3.75,3.75,0,0,1,.56.05,2.36,2.36,0,0,1,.51.14,1,1,0,0,1,.39.27A.81.81,0,0,1,148.91,563.55Zm3.15,7.41a1.68,1.68,0,0,1,1.42.35,1.74,1.74,0,0,1,.42,1.07l0,2.8a1.37,1.37,0,0,1-.38.94,2.13,2.13,0,0,1-1.1.5c-.26,0-.62.1-1.07.14l-1.38.08-1.33,0-.92,0c-.24,0-.47,0-.68,0a2.21,2.21,0,0,1-.56-.12,1,1,0,0,1-.4-.25.88.88,0,0,1-.2-.48c-.08-.44-.13-.83-.17-1.16s-.07-.67-.09-1,0-.61-.05-.92,0-.63,0-1a1.16,1.16,0,0,1,0-.16,1.24,1.24,0,0,1,.11-.28.92.92,0,0,1,.19-.25.38.38,0,0,1,.29-.12Zm-.65,1.65-3.31.12v.8a11.22,11.22,0,0,0,.1,1.25c0,.22.09.35.19.41a1.19,1.19,0,0,0,.65,0l2.37-.13Zm-.31-10.13c0-.14.13-.26.39-.37a3.78,3.78,0,0,1,.88-.21,2.81,2.81,0,0,1,.92,0q.42.09.42.39l.06,3.21,2.09-.17a.84.84,0,0,1,.64.26.9.9,0,0,1-.68,1.5l-2,.14,0,2.63c0,.14-.12.25-.38.34a3.07,3.07,0,0,1-.81.17,2.66,2.66,0,0,1-.9,0c-.27-.07-.4-.2-.4-.41Z"/><path class="cls-12" d="M160.73,563.51c.07-.19.25-.29.56-.31a2.43,2.43,0,0,1,.92.12,1.46,1.46,0,0,1,.36.16,1.41,1.41,0,0,1,.3.19.48.48,0,0,1,.18.2.24.24,0,0,1,0,.22l-.78,2a11.2,11.2,0,0,0,1.37,1.81,22.75,22.75,0,0,0,1.79,1.73.54.54,0,0,1,.09.47,1,1,0,0,1-.26.56,1.26,1.26,0,0,1-.79.48.93.93,0,0,1-.84-.31l-.45-.35c-.2-.16-.41-.35-.63-.56s-.45-.43-.66-.66a4.1,4.1,0,0,1-.51-.67c-.2.51-.41,1-.62,1.52s-.43,1-.64,1.49a.65.65,0,0,1-.6.29,1.87,1.87,0,0,1-.88-.19,2.55,2.55,0,0,1-.63-.39c-.2-.15-.26-.3-.2-.44Zm6-.84c0-.15.13-.28.39-.37a3.41,3.41,0,0,1,.9-.19,3.31,3.31,0,0,1,.91.09c.27.07.41.19.41.35l.06,3.52,2.09-.14a.81.81,0,0,1,.64.27.88.88,0,0,1,.24.6.94.94,0,0,1-.24.61.86.86,0,0,1-.7.29l-2,.15.09,6.49c0,.14-.12.25-.37.34a4.07,4.07,0,0,1-.8.2,3.35,3.35,0,0,1-.91-.06c-.28-.07-.41-.2-.41-.41Z"/><path class="cls-12" d="M176.09,562.86l-.27-2.53c0-.16.12-.3.35-.43a2.3,2.3,0,0,1,.8-.28,2.22,2.22,0,0,1,1,0,.56.56,0,0,1,.5.48l.26,2.7h1.58a.74.74,0,0,1,.64.26.79.79,0,0,1,.18.58,1,1,0,0,1-.26.58.85.85,0,0,1-.68.26l-5.83.16a.93.93,0,0,1-1-.89,1,1,0,0,1,.18-.6.81.81,0,0,1,.7-.28Zm.95,7.77a3.71,3.71,0,0,1-2.42-.71,2.15,2.15,0,0,1-.72-2,2.29,2.29,0,0,1,.4-1.11,3.31,3.31,0,0,1,.86-.85,4.27,4.27,0,0,1,1.16-.55,4.9,4.9,0,0,1,1.32-.19,5,5,0,0,1,1.3.17,3.26,3.26,0,0,1,1,.51,2.12,2.12,0,0,1,.67.84,2.16,2.16,0,0,1,.16,1.18,2.66,2.66,0,0,1-.43,1.17,3.06,3.06,0,0,1-.86.86,4,4,0,0,1-1.17.51A4.91,4.91,0,0,1,177,570.63Zm.37-3.87a1.14,1.14,0,0,0-.78.3,1.37,1.37,0,0,0-.37,1,.93.93,0,0,0,.28.86,1.23,1.23,0,0,0,1.55,0,1.28,1.28,0,0,0,.32-.83,1.33,1.33,0,0,0-.23-.94A1,1,0,0,0,177.41,566.76Zm6,5.14q0-.23.36-.36a2.68,2.68,0,0,1,.85-.12,2.84,2.84,0,0,1,.84.12c.26.07.4.19.41.36l0,3.36a3.49,3.49,0,0,1-.07.51.89.89,0,0,1-.23.38,1.25,1.25,0,0,1-.44.29,3.09,3.09,0,0,1-.74.2,5.13,5.13,0,0,1-.84.15l-1.06.11-1.13.07-1.11,0a2.34,2.34,0,0,1-1.23-.31,1.2,1.2,0,0,1-.57-.92c-.11-.65-.19-1.27-.25-1.84a15.59,15.59,0,0,1-.1-1.9c0-.14.13-.26.39-.35a2.65,2.65,0,0,1,.89-.13,2.5,2.5,0,0,1,.88.14c.26.1.39.22.39.37l0,.85,2.76-.31Zm0,2.28-2.66.29.09.94a2,2,0,0,0,.58,0l.75-.06a5.57,5.57,0,0,0,.73-.11,4.1,4.1,0,0,0,.51-.14Zm-.67-11.74c0-.15.13-.28.4-.37a3,3,0,0,1,1.8-.1c.28.07.41.19.41.35l.06,3.25,2-.14a.81.81,0,0,1,.64.27.88.88,0,0,1,.24.6.94.94,0,0,1-.24.61.86.86,0,0,1-.7.29l-1.88.15.09,3c0,.14-.12.25-.37.34a3.46,3.46,0,0,1-.8.19,3,3,0,0,1-.91-.05c-.27-.07-.41-.2-.41-.41Z"/><path class="cls-12" d="M190.11,569.62c-.07-.4-.14-.83-.19-1.3s-.09-.94-.12-1.42-.06-.95-.08-1.41,0-.89,0-1.28c0-.21.14-.35.42-.43a3,3,0,0,1,.92-.09,3.92,3.92,0,0,1,.91.21c.26.1.4.24.4.42a15.56,15.56,0,0,0,.35,4.84.59.59,0,0,0,.1.17.3.3,0,0,0,.24.08l.68,0,.76-.07c.26,0,.51-.06.76-.11l.66-.12a.93.93,0,0,1,.78.09.85.85,0,0,1,.39.58.74.74,0,0,1-.07.56,1,1,0,0,1-.58.42l-1.08.19c-.38.07-.77.12-1.17.16s-.79.06-1.18.07a6.54,6.54,0,0,1-1.1,0,1.85,1.85,0,0,1-1.2-.46A1.74,1.74,0,0,1,190.11,569.62Zm8.29-7.08c0-.15.13-.27.38-.37a3.41,3.41,0,0,1,.85-.21,3,3,0,0,1,.91,0c.29.06.44.18.44.37l.15,11.88c0,.13-.13.24-.4.34a3.71,3.71,0,0,1-.83.18,2.65,2.65,0,0,1-.9,0c-.27-.06-.4-.2-.4-.4Z"/><path class="cls-12" d="M204.41,563.9l4.84-.29a.88.88,0,0,1,.71.25.85.85,0,0,1,.21.56,1,1,0,0,1-.2.58.85.85,0,0,1-.59.3c-.65.05-1.29.09-1.92.11s-1.17.07-1.63.12l.29,4,.83,0c.32,0,.64,0,1,0l.93-.1a4.57,4.57,0,0,0,.77-.15,1,1,0,0,1,.76,0,.63.63,0,0,1,.37.48.77.77,0,0,1,0,.3,1,1,0,0,1-.11.33,1.33,1.33,0,0,1-.23.3.73.73,0,0,1-.34.17c-.32.07-.68.14-1.07.19s-.81.09-1.23.11l-1.25.06c-.41,0-.78,0-1.11,0a2.69,2.69,0,0,1-1.18-.31,1.06,1.06,0,0,1-.57-.7,14.53,14.53,0,0,1-.29-2.2c-.06-.81-.1-1.62-.13-2.41a2.74,2.74,0,0,1,0-.57,1.31,1.31,0,0,1,.15-.52,1.17,1.17,0,0,1,.39-.41A1.27,1.27,0,0,1,204.41,563.9Zm8.08-1.23c0-.15.13-.28.39-.37a3,3,0,0,1,1.81-.1c.27.07.41.19.41.35l.06,3.52,2.09-.14a.81.81,0,0,1,.64.27.88.88,0,0,1,.24.6.94.94,0,0,1-.24.61.86.86,0,0,1-.7.29l-2,.15.09,6.49c0,.14-.12.25-.37.34a4.07,4.07,0,0,1-.8.2,3.32,3.32,0,0,1-.91-.06c-.28-.07-.41-.2-.41-.41Z"/><path class="cls-12" d="M225.48,575.05a2.33,2.33,0,0,1-1.5-.73l-.59-.56c-.51-.47-1-1-1.56-1.49a10.93,10.93,0,0,1-1.44-1.68,9.09,9.09,0,0,1-1-2,6.35,6.35,0,0,1-.4-2.3V566a1.72,1.72,0,0,1,0-.33,3,3,0,0,1,.22-1.06,2.79,2.79,0,0,1,.57-.91,2.83,2.83,0,0,1,.93-.63,3.29,3.29,0,0,1,1.31-.24,2.6,2.6,0,0,1,1,.2,4.45,4.45,0,0,1,.91.54,4.79,4.79,0,0,1,.79.77,7.54,7.54,0,0,1,.6.87,4.54,4.54,0,0,1,1.39-1.73,3.19,3.19,0,0,1,1.91-.63,3.51,3.51,0,0,1,1.17.2,2.83,2.83,0,0,1,1,.6,2.92,2.92,0,0,1,.67.94,2.72,2.72,0,0,1,.26,1.24,8.11,8.11,0,0,1-.32,2.43,9.47,9.47,0,0,1-.94,2.2,12.34,12.34,0,0,1-1.43,2,18.5,18.5,0,0,1-1.78,1.76,4.17,4.17,0,0,1-.85.6A1.86,1.86,0,0,1,225.48,575.05Z"/><path class="cls-11" d="M99,513.29c-.14-.83-.25-1.64-.32-2.44s-.11-1.61-.11-2.43c0-.21.15-.35.43-.43a3.16,3.16,0,0,1,.94-.1,3.55,3.55,0,0,1,.92.22c.27.1.41.25.41.43,0,.4-.06.77-.06,1.1s0,.66,0,1,.07.65.13,1,.14.75.24,1.2a.62.62,0,0,0,.11.17.31.31,0,0,0,.24.08,7.85,7.85,0,0,0,1.27-.1c.43-.06.85-.14,1.25-.23a1,1,0,0,1,.79.09.83.83,0,0,1,.4.59.75.75,0,0,1-.06.57,1.06,1.06,0,0,1-.6.43c-.68.14-1.37.26-2.09.35a10.14,10.14,0,0,1-2.13,0,1.93,1.93,0,0,1-1.22-.47A1.78,1.78,0,0,1,99,513.29Zm9.34,3.22a1.75,1.75,0,0,1,1.45.35,1.69,1.69,0,0,1,.42,1.09l0,2.85a1.46,1.46,0,0,1-.39,1,2.13,2.13,0,0,1-1.12.51c-.27.05-.64.1-1.09.14s-.93.06-1.41.08l-1.35,0c-.41,0-.73,0-.93,0s-.48,0-.7,0a2.78,2.78,0,0,1-.56-.11,1,1,0,0,1-.41-.27.85.85,0,0,1-.21-.49c-.08-.44-.13-.83-.17-1.18s-.07-.67-.09-1,0-.63,0-.93,0-.65,0-1l0-.15a1,1,0,0,1,.11-.29,1.15,1.15,0,0,1,.19-.26.4.4,0,0,1,.29-.12Zm-.66,1.68-3.36.11v.82a11,11,0,0,0,.09,1.27c0,.23.09.37.2.42a1.12,1.12,0,0,0,.66,0l2.41-.13Zm-.32-10.31c0-.15.14-.27.4-.38a4,4,0,0,1,.89-.21,2.92,2.92,0,0,1,.94,0c.29.06.43.19.43.4l.06,3.26,2.13-.18a.84.84,0,0,1,.65.28.89.89,0,0,1,.25.6.94.94,0,0,1-.25.62.89.89,0,0,1-.69.3l-2.07.14,0,2.67c0,.15-.13.26-.39.36a3.23,3.23,0,0,1-.82.17,2.52,2.52,0,0,1-.92,0c-.28-.06-.41-.2-.41-.41Z"/><path class="cls-11" d="M119.71,508.58a1.91,1.91,0,0,1,1.11.21,1.37,1.37,0,0,1,.44.36.66.66,0,0,1,.15.37L120,517.84c-.05.22-.24.36-.55.44a2.43,2.43,0,0,1-1,0,1.89,1.89,0,0,1-.75-.24.53.53,0,0,1-.31-.46l1.17-7.28-3.57.17a.79.79,0,0,1-.7-.23.87.87,0,0,1,0-1.19.91.91,0,0,1,.71-.3Zm4.35,5.58,0-1.83-1.66.12a1,1,0,0,1-.76-.22.82.82,0,0,1-.31-.57.8.8,0,0,1,.15-.6.76.76,0,0,1,.65-.29l1.89-.18,0-2.48c0-.16.12-.29.38-.39a3.08,3.08,0,0,1,.87-.22,4,4,0,0,1,.93.07c.29.06.43.18.43.34l.2,12c0,.13-.14.25-.4.36a2.71,2.71,0,0,1-.85.2,1.86,1.86,0,0,1-.89-.09.56.56,0,0,1-.44-.44l-.1-4.06-1.72.12a1,1,0,0,1-.76-.22.78.78,0,0,1-.31-.56.84.84,0,0,1,.14-.6.81.81,0,0,1,.64-.3Z"/><path class="cls-11" d="M132.52,517.6l-3.28.08a.73.73,0,0,1-.66-.22,1,1,0,0,1-.24-.62.91.91,0,0,1,.12-.6.75.75,0,0,1,.52-.36l8.29-.23a.8.8,0,0,1,.65.27,1,1,0,0,1,.24.61,1.08,1.08,0,0,1-.22.64.83.83,0,0,1-.73.31l-2.11.08-.43,4.63q-.06.27-.48.39a2.55,2.55,0,0,1-.93.08,3.79,3.79,0,0,1-.85-.2c-.24-.1-.35-.23-.32-.39Zm1.19-8.49-3.28.37a.94.94,0,0,1-.76-.22.93.93,0,0,1-.29-.56.83.83,0,0,1,.13-.6.65.65,0,0,1,.51-.3l5.41-.39a1.27,1.27,0,0,1,.64.16,1.11,1.11,0,0,1,.45.46,1.16,1.16,0,0,1,.16.61.68.68,0,0,1-.14.47l-1.48,1.48a5.82,5.82,0,0,0,.43.42c.17.15.34.3.53.44l.53.39c.18.12.34.21.48.29a.56.56,0,0,1,.21.22.68.68,0,0,1,.07.28.93.93,0,0,1,0,.29.71.71,0,0,1-.1.23,1.61,1.61,0,0,1-.8.52.94.94,0,0,1-.84-.21l-1.94-1.5-1,.88L131.37,514a.69.69,0,0,1-.71.12,1.74,1.74,0,0,1-.74-.45,1.41,1.41,0,0,1-.31-.48.36.36,0,0,1,.1-.44c.28-.24.61-.51,1-.83l1.11-1c.37-.33.72-.66,1.06-1S133.48,509.35,133.71,509.11Z"/><path class="cls-11" d="M142.11,508.58c.06-.2.25-.31.56-.34a2.09,2.09,0,0,1,.92.1,2.38,2.38,0,0,1,.71.37c.19.16.26.31.19.45l-.6,1.64a7.48,7.48,0,0,0,.53.7l.5.55c.31.33.61.63.89.9s.54.52.79.75a.46.46,0,0,1,.15.48,1.35,1.35,0,0,1-.27.55,1.88,1.88,0,0,1-.35.34,1,1,0,0,1-.41.2,1,1,0,0,1-.43,0,.86.86,0,0,1-.41-.25,12.67,12.67,0,0,1-1-.87c-.33-.32-.64-.64-.94-1l-1.11,2.6a.66.66,0,0,1-.6.23,2.28,2.28,0,0,1-.89-.18,2.08,2.08,0,0,1-.62-.37c-.17-.14-.23-.28-.16-.43.25-.6.48-1.16.69-1.69s.43-1,.63-1.56.4-1,.59-1.54S141.9,509.16,142.11,508.58Zm4.39,13.9a1.91,1.91,0,0,1-.63,0,2,2,0,0,1-.58-.17,1.17,1.17,0,0,1-.41-.31.58.58,0,0,1-.13-.43L145,517a.32.32,0,0,1,.13-.27.74.74,0,0,1,.32-.16,1.91,1.91,0,0,1,.44-.08l.5,0a2.7,2.7,0,0,1,.88.2c.27.11.4.26.39.44l-.2,3.64,4-.16a.86.86,0,0,1,.72.2.78.78,0,0,1,0,1.12,1,1,0,0,1-.7.28l-3.69.22-1.29.05Zm2.31-14.6c0-.15.13-.27.38-.38a3.47,3.47,0,0,1,.87-.21,3.2,3.2,0,0,1,.93,0c.29.06.44.18.44.38l.15,9c0,.13-.13.25-.4.34a3.39,3.39,0,0,1-.85.19,2.53,2.53,0,0,1-.92,0c-.27-.06-.41-.2-.41-.41Z"/><path class="cls-11" d="M161.62,518.62c0-.39.07-.74.1-1s0-.62.06-1,0-.67,0-1,0-.83,0-1.37c0-.18.13-.32.41-.43a2.63,2.63,0,0,1,.91-.15,2.91,2.91,0,0,1,.92.14c.28.1.41.26.41.48s0,.44,0,.65,0,.46,0,.77,0,.69,0,1.15,0,1.05-.08,1.77l2.4-.12a.83.83,0,0,1,.65.26,1.07,1.07,0,0,1,.25.6.91.91,0,0,1-.23.57.89.89,0,0,1-.69.29,5.74,5.74,0,0,1-.72.06l-1,0-1.16,0-1.17,0-3.93.09a.69.69,0,0,1-.65-.23,1.07,1.07,0,0,1-.25-.59A.86.86,0,0,1,158,519a.69.69,0,0,1,.57-.3Zm.78-11.29a.75.75,0,0,1,.67-.28,2.08,2.08,0,0,1,1,.26,1.82,1.82,0,0,1,.52.39.4.4,0,0,1,.13.45l-.92,1.56a8.21,8.21,0,0,0,1.34,1.44c.45.37,1,.76,1.53,1.18.07.06.07.18,0,.35a2.15,2.15,0,0,1-.27.49,1.69,1.69,0,0,1-.73.49.8.8,0,0,1-.8-.2c-.39-.26-.75-.52-1.09-.79a14.47,14.47,0,0,1-1.09-1L161.37,514a.61.61,0,0,1-.65.22,2.1,2.1,0,0,1-.86-.34,1.74,1.74,0,0,1-.53-.41c-.14-.16-.17-.29-.09-.41q.38-.65.78-1.38c.27-.48.55-1,.82-1.49s.54-1,.81-1.49Z"/><path class="cls-11" d="M174.06,524.18a3.9,3.9,0,0,1-2.75-.87,2.46,2.46,0,0,1-.76-2.27,3,3,0,0,1,.48-1.35,3.41,3.41,0,0,1,.95-1,4.17,4.17,0,0,1,1.28-.6l.33-.1a.58.58,0,0,1,0-.1l.16-1.87-3.57.16a.71.71,0,0,1-.65-.23,1.14,1.14,0,0,1-.25-.61,1,1,0,0,1,.13-.61.66.66,0,0,1,.55-.31l8.16-.24a.94.94,0,0,1,.7.26.82.82,0,0,1,.24.58.85.85,0,0,1-.24.57,1,1,0,0,1-.7.31l-1.81.08-.2,2a.57.57,0,0,1,0,.14l.14,0a3.6,3.6,0,0,1,1.18.64,2.69,2.69,0,0,1,.72,1,2.27,2.27,0,0,1,.15,1.28,3,3,0,0,1-.49,1.35,3.48,3.48,0,0,1-1,1,4.56,4.56,0,0,1-1.3.61A5.15,5.15,0,0,1,174.06,524.18Zm2-14.74a5.91,5.91,0,0,0,.94.84,9.65,9.65,0,0,0,1,.64.44.44,0,0,1,.21.42,1,1,0,0,1-.19.5,1.69,1.69,0,0,1-.72.53.85.85,0,0,1-.81-.12c-.33-.21-.65-.43-.95-.65a9.29,9.29,0,0,1-1-.89l-1.18,1-1.12.94a.64.64,0,0,1-.73.18,2.14,2.14,0,0,1-.74-.51,1,1,0,0,1-.28-.47.37.37,0,0,1,.07-.39l4.1-3.32-3.32.37a.93.93,0,0,1-.76-.21,1,1,0,0,1-.3-.57.9.9,0,0,1,.15-.6.71.71,0,0,1,.5-.3l5.49-.35a1.09,1.09,0,0,1,.62.2,1.45,1.45,0,0,1,.45.48,1.51,1.51,0,0,1,.19.55.46.46,0,0,1-.13.41h0Zm-1.51,10.13a1.37,1.37,0,0,0-.93.38,1.65,1.65,0,0,0-.46,1.21,2,2,0,0,0,.08.68,1.27,1.27,0,0,0,.27.44.83.83,0,0,0,.38.23,1.25,1.25,0,0,0,.43.07,1.14,1.14,0,0,0,1-.43,1.68,1.68,0,0,0,.38-1,1.79,1.79,0,0,0-.26-1.16A1,1,0,0,0,174.53,519.57Z"/><path class="cls-11" d="M183.28,508.46l-.27-2.58c0-.15.12-.3.36-.44a2.59,2.59,0,0,1,.81-.28,2.31,2.31,0,0,1,1,0,.57.57,0,0,1,.5.49l.28,2.75,1.6,0a.73.73,0,0,1,.65.28.85.85,0,0,1,.19.58,1.17,1.17,0,0,1-.27.6.9.9,0,0,1-.69.26l-5.94.16a.94.94,0,0,1-1-.9,1,1,0,0,1,.18-.62.86.86,0,0,1,.72-.28Zm1,7.91a3.71,3.71,0,0,1-2.47-.73,2.18,2.18,0,0,1-.74-2,2.38,2.38,0,0,1,.41-1.13,3.47,3.47,0,0,1,.88-.87,4.32,4.32,0,0,1,1.19-.55,4.61,4.61,0,0,1,1.33-.2,4.68,4.68,0,0,1,1.32.18,3.43,3.43,0,0,1,1.07.51,2.28,2.28,0,0,1,.68.86,2.22,2.22,0,0,1,.16,1.2,2.62,2.62,0,0,1-.43,1.19,3.17,3.17,0,0,1-.88.87,4.15,4.15,0,0,1-1.19.53A5.58,5.58,0,0,1,184.26,516.37Zm.37-3.94a1.13,1.13,0,0,0-.79.31,1.34,1.34,0,0,0-.38,1,1,1,0,0,0,.28.87,1.24,1.24,0,0,0,1.58,0,1.24,1.24,0,0,0,.32-.84,1.31,1.31,0,0,0-.23-1A1,1,0,0,0,184.63,512.43Zm3.55,10.05a2.32,2.32,0,0,1-.59,0,1.33,1.33,0,0,1-.52-.17c-.42-.26-.61-.51-.59-.74l.24-3.95c0-.21.15-.35.45-.43a3.3,3.3,0,0,1,1-.1,2.26,2.26,0,0,1,.84.21c.27.12.4.27.42.44l-.16,3,4.26-.16a.82.82,0,0,1,.69.21.8.8,0,0,1,.24.55.83.83,0,0,1-.24.56,1,1,0,0,1-.69.28Zm1.92-14.62c0-.16.13-.29.4-.39a4,4,0,0,1,.91-.18,3.34,3.34,0,0,1,.92.09c.29.07.42.19.42.36l.06,3.1,2-.13a.84.84,0,0,1,.66.27.88.88,0,0,1,.24.6,1,1,0,0,1-.24.62.88.88,0,0,1-.71.28l-1.92.16.1,3.79c0,.14-.13.26-.38.35a4.36,4.36,0,0,1-.81.2,3.47,3.47,0,0,1-.93-.06c-.28-.07-.42-.2-.42-.41Z"/><path class="cls-11" d="M209.86,513.19l-1.54,0c0,.61,0,1.23,0,1.87a1.41,1.41,0,0,1-.37.92,2.6,2.6,0,0,1-1,.55c-.32.06-.64.11-1,.14l-1,.09c-.32,0-.62,0-.91.05h-.74a1.84,1.84,0,0,1-1.16-.33,1.47,1.47,0,0,1-.52-1c0-.08,0-.19,0-.35s0-.4,0-.73,0-.78-.06-1.34-.05-1.3-.09-2.21a1.94,1.94,0,0,1,.13-1,1.13,1.13,0,0,1,.8-.56l4.11-.35a1.93,1.93,0,0,1,1.38.31,1.4,1.4,0,0,1,.57,1c0,.4,0,.8,0,1.21l1.44-.08-.07-2.87c0-.16.12-.29.36-.4a2.84,2.84,0,0,1,.81-.23l.47,0a1.86,1.86,0,0,1,.42.05,1,1,0,0,1,.31.14.27.27,0,0,1,.13.22l.27,10.55c0,.14-.13.26-.39.35a4.34,4.34,0,0,1-.86.2,2.69,2.69,0,0,1-.88-.07.5.5,0,0,1-.41-.4ZM204,510.86c0,.11,0,.24,0,.41l0,.73c0,.31,0,.72.06,1.22s.06,1.14.1,1.92l1.56-.19c0-.25,0-.56,0-.94v-1.17c0-.41,0-.8,0-1.18s0-.69-.07-1Zm9.21-2.75c0-.16.13-.29.38-.39a2.94,2.94,0,0,1,.85-.22,3.91,3.91,0,0,1,.93.07c.28.06.42.18.42.34l.2,12c0,.14-.13.26-.37.35a4.06,4.06,0,0,1-.8.19,2.73,2.73,0,0,1-.93-.06c-.27-.06-.4-.2-.4-.41Z"/><path class="cls-11" d="M220.2,508.85a.37.37,0,0,1,.2-.21.75.75,0,0,1,.34-.1,1.61,1.61,0,0,1,.43,0,2.15,2.15,0,0,1,.45.14,2.67,2.67,0,0,1,.67.38c.19.14.28.28.25.43l-.82,2.14a5.19,5.19,0,0,0,.57.83c.27.36.57.73.89,1.11s.65.73.95,1a5.42,5.42,0,0,0,.71.67c.06,0,0,.16,0,.34a1.76,1.76,0,0,1-.35.52,2,2,0,0,1-.39.3,1.23,1.23,0,0,1-.44.16.89.89,0,0,1-.43,0,.64.64,0,0,1-.36-.27c-.39-.39-.76-.77-1.11-1.15a12.33,12.33,0,0,1-.86-1c-.18.63-.36,1.19-.54,1.69a9.16,9.16,0,0,1-.57,1.32.72.72,0,0,1-.61.25,2.74,2.74,0,0,1-.88-.19,2.59,2.59,0,0,1-.66-.37c-.18-.14-.26-.28-.22-.41.51-1.22,1-2.51,1.5-3.85S219.8,510,220.2,508.85Zm5.31,4.32-1.23,0a.87.87,0,0,1-.74-.22.93.93,0,0,1-.26-.57.74.74,0,0,1,.16-.57.88.88,0,0,1,.58-.34l1.47,0,0-2.85c0-.16.13-.29.38-.4a3.07,3.07,0,0,1,.83-.23h.47a1.75,1.75,0,0,1,.42.07,1.12,1.12,0,0,1,.31.15.25.25,0,0,1,.13.22l.19,10.49c0,.14-.12.26-.36.35a3.69,3.69,0,0,1-.81.2,3.43,3.43,0,0,1-.94-.06c-.26-.07-.39-.2-.39-.41Zm3.77-5.06c0-.16.12-.29.37-.39a3,3,0,0,1,.86-.22,3.91,3.91,0,0,1,.93.07c.28.06.42.18.42.34l.19,12c0,.14-.12.26-.37.35a3.9,3.9,0,0,1-.8.19,2.77,2.77,0,0,1-.93-.06c-.27-.06-.4-.2-.4-.41Z"/><path class="cls-11" d="M237.38,510.39l-3.26.26a.85.85,0,0,1-.78-.16.92.92,0,0,1-.29-.58.85.85,0,0,1,.11-.56.6.6,0,0,1,.49-.3l5.26-.39a1.09,1.09,0,0,1,.63.19,1.25,1.25,0,0,1,.42.47,1.93,1.93,0,0,1,.18.56.67.67,0,0,1-.08.46l-1.68,2.32a12.21,12.21,0,0,0,1.07,1.26c.38.38.76.76,1.16,1.14a.4.4,0,0,1,.07.45,1.31,1.31,0,0,1-.33.51,1.73,1.73,0,0,1-.77.45.76.76,0,0,1-.77-.2h0q-.59-.53-1-.93c-.26-.28-.54-.58-.81-.9l-1.82,2.38a.64.64,0,0,1-.67.22,1.88,1.88,0,0,1-.81-.38,1.81,1.81,0,0,1-.44-.48c-.11-.19-.11-.34,0-.45Zm5.14-2.46c0-.14.13-.26.38-.37a3.47,3.47,0,0,1,.87-.21,3.2,3.2,0,0,1,.93,0c.29.06.44.18.44.38l.15,12.09c0,.13-.13.24-.4.34a2.92,2.92,0,0,1-.85.18,2.78,2.78,0,0,1-.92,0c-.27-.07-.41-.21-.41-.41Z"/><path class="cls-11" d="M248.11,515.22l8.22-.2a.83.83,0,0,1,.65.26,1,1,0,0,1,.25.56.89.89,0,0,1-.92.86l-8,.24a.7.7,0,0,1-.65-.24,1,1,0,0,1-.25-.58.94.94,0,0,1,.13-.59A.69.69,0,0,1,248.11,515.22Zm2.42-2a2.1,2.1,0,0,1-.61,0,2.17,2.17,0,0,1-.56-.2,1.35,1.35,0,0,1-.42-.31.6.6,0,0,1-.17-.4l.23-4.34c0-.16.19-.29.48-.37a3,3,0,0,1,1-.09,3.86,3.86,0,0,1,.49.06l.42.13a.77.77,0,0,1,.29.19.34.34,0,0,1,.11.24l-.24,3.32,3.71-.19a.87.87,0,0,1,.69.26.77.77,0,0,1,.21.59,1,1,0,0,1-.23.63.9.9,0,0,1-.72.31l-4.65.2Zm.37,10.64a2,2,0,0,1-.64,0,2.94,2.94,0,0,1-.57-.17,1.11,1.11,0,0,1-.41-.32.58.58,0,0,1-.14-.43l.27-3.88a.37.37,0,0,1,.13-.27,1,1,0,0,1,.32-.16,1.91,1.91,0,0,1,.44-.08l.5,0a3.06,3.06,0,0,1,.89.21c.27.11.39.25.38.43l-.19,3,4-.15a.84.84,0,0,1,.72.2.79.79,0,0,1,.24.56.81.81,0,0,1-.25.56,1,1,0,0,1-.69.28l-3.69.21-1.29.06Z"/><path class="cls-11" d="M106.05,532.46c0-.18.14-.32.42-.43a2.71,2.71,0,0,1,.91-.15,2.19,2.19,0,0,1,.63.07l.52-.06h.69a6.87,6.87,0,0,1,2.48.43,5.79,5.79,0,0,1,1.94,1.23,5.47,5.47,0,0,1,1.26,1.86,6.07,6.07,0,0,1,.45,2.35,6.43,6.43,0,0,1-.43,2.39,5.38,5.38,0,0,1-3.09,3.11,6.67,6.67,0,0,1-2.45.44,4.7,4.7,0,0,1-.62,0,5.73,5.73,0,0,1-.64-.1,2.24,2.24,0,0,1-1,.18,2,2,0,0,1-.77-.14.45.45,0,0,1-.33-.43V538c0-.64,0-1.27,0-1.9s0-1.19,0-1.7Zm2.5,1.29v8a2.58,2.58,0,0,0,.4,0h.41a3.37,3.37,0,0,0,1.38-.28,3.16,3.16,0,0,0,1.12-.8,3.86,3.86,0,0,0,.74-1.29,5.13,5.13,0,0,0,.27-1.74,4.53,4.53,0,0,0-.28-1.65,3.89,3.89,0,0,0-.78-1.25,3.64,3.64,0,0,0-1.17-.8,3.71,3.71,0,0,0-1.42-.28h-.35Z"/><path class="cls-11" d="M116.68,538.61a.62.62,0,0,1-.57-.32,1.37,1.37,0,0,1-.19-.73,1.33,1.33,0,0,1,.18-.68.64.64,0,0,1,.58-.3h2.53l1.35,0c.43,0,.81,0,1.14,0a.7.7,0,0,1,.62.32,1.14,1.14,0,0,1,.22.7,1.24,1.24,0,0,1-.2.69.68.68,0,0,1-.62.31h-2.49l-1.33,0-1.2,0Z"/><path class="cls-11" d="M122.91,539.24a5.23,5.23,0,0,1,.33-1.88,4.43,4.43,0,0,1,.93-1.48,4.28,4.28,0,0,1,1.44-1,4.77,4.77,0,0,1,1.83-.35,5.1,5.1,0,0,1,1.19.14,3.86,3.86,0,0,1,1,.39c0-.22,0-.46,0-.7v-1.24c0-.18,0-.39,0-.62a.54.54,0,0,1,.38-.42,1.89,1.89,0,0,1,.77-.15,2.34,2.34,0,0,1,.88.17.55.55,0,0,1,.41.5c0,.8,0,1.63,0,2.49s0,1.72,0,2.6c0,.41,0,.84,0,1.3s0,.94,0,1.42v2.64c0,.22-.14.39-.42.5a2.27,2.27,0,0,1-.91.18,2.2,2.2,0,0,1-.76-.12c-.22-.08-.35-.2-.37-.37a3.32,3.32,0,0,1-1,.39,5.55,5.55,0,0,1-1.18.12,5,5,0,0,1-1.9-.35,4.15,4.15,0,0,1-2.35-2.39A5,5,0,0,1,122.91,539.24Zm6.88,0a3.67,3.67,0,0,0-.19-1.19,2.5,2.5,0,0,0-.51-.89,2.2,2.2,0,0,0-.74-.55,2.27,2.27,0,0,0-.91-.18,1.79,1.79,0,0,0-1.48.74,3.25,3.25,0,0,0-.59,2.07,3.08,3.08,0,0,0,.57,2,1.88,1.88,0,0,0,1.56.7,2.1,2.1,0,0,0,1.67-.7A2.93,2.93,0,0,0,129.79,539.2Z"/><path class="cls-11" d="M132.89,539.24a5.23,5.23,0,0,1,.33-1.88,4.43,4.43,0,0,1,.93-1.48,4.28,4.28,0,0,1,1.44-1,4.77,4.77,0,0,1,1.83-.35,4.6,4.6,0,0,1,1.18.15,4.16,4.16,0,0,1,1,.38v0c0-.18.12-.32.35-.42a2,2,0,0,1,.8-.15,2.34,2.34,0,0,1,.88.17.55.55,0,0,1,.41.5c0,.8,0,1.51,0,2.11s0,1.18,0,1.75,0,1.14,0,1.86v2.21c0,.22-.14.39-.42.5a2.27,2.27,0,0,1-.91.18,2.2,2.2,0,0,1-.76-.12c-.22-.08-.35-.2-.37-.37a3.32,3.32,0,0,1-1,.39,5.55,5.55,0,0,1-1.18.12,5,5,0,0,1-1.9-.35,4.15,4.15,0,0,1-2.35-2.39A5,5,0,0,1,132.89,539.24Zm6.88,0a3.67,3.67,0,0,0-.19-1.19,2.5,2.5,0,0,0-.51-.89,2.2,2.2,0,0,0-.74-.55,2.27,2.27,0,0,0-.91-.18,1.79,1.79,0,0,0-1.48.74,3.25,3.25,0,0,0-.59,2.07,3.08,3.08,0,0,0,.57,2,1.89,1.89,0,0,0,1.56.7,2.1,2.1,0,0,0,1.67-.7A2.93,2.93,0,0,0,139.77,539.2Z"/><path class="cls-11" d="M145,545.39l.45-1.2c.15-.42.32-.88.49-1.38l-.69-1.58L144,538.14c-.41-1-.77-1.87-1.07-2.65a.46.46,0,0,1,.05-.38.86.86,0,0,1,.31-.32,1.51,1.51,0,0,1,.48-.22,2,2,0,0,1,.55-.08,1.55,1.55,0,0,1,.59.1.53.53,0,0,1,.34.31l.47,1.21c.15.38.29.75.44,1.11l.47,1.1q.24.57.54,1.23c.34-.92.65-1.8.93-2.63s.51-1.52.71-2.08c.05-.15.21-.23.47-.22a2.8,2.8,0,0,1,.82.15,2.45,2.45,0,0,1,.74.37c.21.15.28.31.22.47-.16.41-.35.91-.56,1.49s-.44,1.2-.69,1.86-.48,1.35-.74,2.06-.5,1.38-.73,2.05-.46,1.29-.66,1.87-.39,1.09-.53,1.51c-.07.11-.23.17-.49.17a2.94,2.94,0,0,1-.81-.12,2.36,2.36,0,0,1-.72-.3c-.2-.12-.29-.24-.25-.36Z"/><path class="cls-11" d="M160.39,537.19l-1.37,0a4.94,4.94,0,0,1-.43,1.72,4.74,4.74,0,0,1-.92,1.39,4,4,0,0,1-1.24.88,3.37,3.37,0,0,1-1.35.3,3.21,3.21,0,0,1-1.44-.31,2.87,2.87,0,0,1-1.06-.9,3.8,3.8,0,0,1-.63-1.41,6.36,6.36,0,0,1-.13-1.84,5.23,5.23,0,0,1,.43-1.85,5,5,0,0,1,.91-1.41,4.2,4.2,0,0,1,1.23-.89,3.28,3.28,0,0,1,1.37-.31,3,3,0,0,1,1.31.3,3.16,3.16,0,0,1,1.08.88,3.89,3.89,0,0,1,.7,1.41,3.37,3.37,0,0,1,.1.34l1.42-.08-.08-2.87c0-.16.12-.29.36-.4a3,3,0,0,1,.81-.23l.47,0a1.73,1.73,0,0,1,.42.05.94.94,0,0,1,.32.14.26.26,0,0,1,.12.22l.28,10.55c0,.14-.13.26-.39.35a4.34,4.34,0,0,1-.86.2,2.66,2.66,0,0,1-.88-.07c-.25-.07-.39-.21-.41-.4Zm-4.84-2.89c-.29,0-.55.24-.79.74a5.13,5.13,0,0,0-.4,2.15,4.75,4.75,0,0,0,.27,2.06c.21.45.43.67.68.67a.66.66,0,0,0,.48-.21,1.9,1.9,0,0,0,.35-.58,4.23,4.23,0,0,0,.24-.86,6.09,6.09,0,0,0,.08-1.08,6.92,6.92,0,0,0-.21-2.1C156.09,534.56,155.86,534.3,155.55,534.3Zm8.14-2.19c0-.16.12-.29.37-.39a3.09,3.09,0,0,1,.86-.22,3.91,3.91,0,0,1,.93.07c.28.06.42.18.42.34l.19,12c0,.14-.12.26-.37.35a3.75,3.75,0,0,1-.8.19,2.69,2.69,0,0,1-.92-.06c-.27-.06-.41-.2-.41-.41Z"/><path class="cls-11" d="M179.69,537.93a.39.39,0,0,1,.1.42,1.17,1.17,0,0,1-.3.48,1.72,1.72,0,0,1-.75.45.83.83,0,0,1-.79-.18,5.43,5.43,0,0,1-.91-.8c-.21-.25-.46-.52-.73-.82-.11.14-.3.37-.6.69s-.7.81-1.24,1.48a1,1,0,0,1-.86.32,1.94,1.94,0,0,1-.84-.34,1.42,1.42,0,0,1-.41-.48.37.37,0,0,1,0-.44c.71-.78,1.4-1.58,2.07-2.39a25.15,25.15,0,0,0,1.84-2.51l-3.09.33a.9.9,0,0,1-.76-.19.93.93,0,0,1-.29-.57.9.9,0,0,1,.11-.58.59.59,0,0,1,.47-.3l5.28-.39a1,1,0,0,1,.66.25,2.28,2.28,0,0,1,.51.63.87.87,0,0,1,.1.39.59.59,0,0,1-.12.37c-.18.26-.39.54-.62.83l-.94,1.22a8.7,8.7,0,0,0,1,1.17Q179.12,537.46,179.69,537.93Zm0,8.55a2,2,0,0,1-.64,0,2,2,0,0,1-.57-.17,1.09,1.09,0,0,1-.41-.31.59.59,0,0,1-.14-.43l.27-4.53a.32.32,0,0,1,.13-.27.74.74,0,0,1,.32-.16,1.91,1.91,0,0,1,.44-.08l.5,0a2.83,2.83,0,0,1,.89.2c.26.11.39.26.38.44l-.2,3.64,4-.16a.86.86,0,0,1,.72.2.76.76,0,0,1,0,1.12,1,1,0,0,1-.69.28l-3.69.22-1.29.05Zm2.58-12.09,0-2.55c0-.16.12-.29.38-.39a3.08,3.08,0,0,1,.87-.22,2.47,2.47,0,0,1,.92.13c.29.1.42.23.42.4l.22,9.12c0,.13-.13.24-.4.33a3.89,3.89,0,0,1-.85.18,2.16,2.16,0,0,1-.89-.06c-.27-.08-.41-.22-.44-.41l-.16-4.75-1.87.14a.86.86,0,0,1-.79-.17.89.89,0,0,1-.3-.65,1,1,0,0,1,.15-.66.79.79,0,0,1,.69-.32Z"/><path class="cls-11" d="M188,532.34l4.92-.29a.92.92,0,0,1,.72.25.83.83,0,0,1,.22.57,1,1,0,0,1-.21.6.83.83,0,0,1-.59.3l-2,.12c-.63,0-1.19.06-1.66.11l.3,3c.24,0,.51,0,.79,0a7.87,7.87,0,0,0,.84,0q.42,0,.81-.09a4.78,4.78,0,0,0,.72-.16,1,1,0,0,1,.77,0,.62.62,0,0,1,.38.48.82.82,0,0,1,0,.31,1.35,1.35,0,0,1-.11.34,1.13,1.13,0,0,1-.24.3.65.65,0,0,1-.34.17,14.61,14.61,0,0,1-2.15.31,15,15,0,0,1-2.21,0,2.65,2.65,0,0,1-1.2-.31,1.06,1.06,0,0,1-.57-.71c-.08-.32-.14-.61-.19-.87l-.12-.79c0-.27,0-.55-.07-.84s0-.64,0-1a2.19,2.19,0,0,1,0-.57,1.2,1.2,0,0,1,.15-.53,1.41,1.41,0,0,1,.39-.42A1.44,1.44,0,0,1,188,532.34Zm5,10.75,3.42-.38.09-1.26-4.12.11a.83.83,0,0,1-.73-.23.88.88,0,0,1-.24-.59.91.91,0,0,1,.22-.6.92.92,0,0,1,.71-.3l5-.15a1.93,1.93,0,0,1,1.24.25.89.89,0,0,1,.46.8c0,.39-.05.81-.09,1.24s-.07.87-.12,1.3a1,1,0,0,1-.45.67,2.9,2.9,0,0,1-1,.31l-.3,0-.54.06-.93.09-1.49.16a4.39,4.39,0,0,0,.1.84,3.25,3.25,0,0,0,.19.6,7.74,7.74,0,0,0,1.41-.19l1.41-.35a.94.94,0,0,1,.76.11,1,1,0,0,1,.32,1.2.8.8,0,0,1-.54.41c-.62.15-1.28.29-2,.4a15.16,15.16,0,0,1-2.19.18c-.78,0-1.25-.28-1.42-.84a2.37,2.37,0,0,1-.25-.55c-.07-.23-.13-.47-.19-.73a6.36,6.36,0,0,1-.14-.76,5.89,5.89,0,0,1,0-.67,1,1,0,0,1,.36-.79A1.66,1.66,0,0,1,193,543.09Zm3.2-11.21c0-.15.13-.27.4-.38a3.87,3.87,0,0,1,.89-.21,2.92,2.92,0,0,1,.94,0c.28.06.43.19.43.4l.08,2.79,2.1-.17a.84.84,0,0,1,.66.27.91.91,0,0,1,.24.62,1,1,0,0,1-.24.63.9.9,0,0,1-.69.31l-2.06.1,0,2q0,.22-.39.36a3.16,3.16,0,0,1-.82.19,2.46,2.46,0,0,1-.91,0c-.28-.07-.41-.2-.41-.39Z"/><path class="cls-11" d="M203.93,538.69l2.14,0,0-1.62a5.27,5.27,0,0,1-.7,0,2.65,2.65,0,0,1-1.2-.31,1.1,1.1,0,0,1-.58-.72c-.08-.32-.14-.6-.18-.82s-.09-.43-.12-.65-.06-.45-.08-.7,0-.58-.05-1a3.79,3.79,0,0,1,0-.58,1.32,1.32,0,0,1,.16-.52,1.12,1.12,0,0,1,.39-.42,1.44,1.44,0,0,1,.68-.22l4.75-.29a.89.89,0,0,1,.72.25.83.83,0,0,1,.22.57.91.91,0,0,1-.21.59.8.8,0,0,1-.6.3q-1,.09-1.86.12c-.58,0-1.1.07-1.57.12l.29,2.55.82,0c.3,0,.61,0,.91,0l.88-.1a6.2,6.2,0,0,0,.75-.15,1,1,0,0,1,.77,0,.62.62,0,0,1,.38.48.88.88,0,0,1,0,.32,1,1,0,0,1-.35.64.61.61,0,0,1-.34.17,9.32,9.32,0,0,1-1.07.2l-.14,0v0l0,1.65c.57-.06,1.1-.13,1.59-.2a7.87,7.87,0,0,0,1-.19.81.81,0,0,1,.74.11,1,1,0,0,1,.39.62.88.88,0,0,1-.1.56.74.74,0,0,1-.48.39,5.3,5.3,0,0,1-1,.22c-.41.06-.87.11-1.37.15l-1.57.1c-.55,0-1.07,0-1.57,0H205l-1,0a.81.81,0,0,1-.58-.3,1,1,0,0,1-.23-.55,1.07,1.07,0,0,1,.17-.59.69.69,0,0,1,.62-.26Zm9.1,3.13q0-.24.36-.36a2.49,2.49,0,0,1,.87-.13,3,3,0,0,1,.85.12c.26.07.4.2.42.37l0,3.67a2.58,2.58,0,0,1-.08.52.84.84,0,0,1-.22.39,1.75,1.75,0,0,1-.45.29,3.29,3.29,0,0,1-.76.2,5.11,5.11,0,0,1-.86.16l-1.1.11-1.17.07-1.15,0a2.41,2.41,0,0,1-1.26-.32,1.22,1.22,0,0,1-.59-.93c-.1-.67-.19-1.36-.25-2.09s-.1-1.46-.1-2.17c0-.15.13-.26.39-.35a2.85,2.85,0,0,1,.91-.14,2.52,2.52,0,0,1,.89.15c.27.09.41.22.41.38l0,1.13,2.89-.37Zm0,2.38-2.78.29.1,1.15a1.78,1.78,0,0,0,.6,0l.78-.06a5.79,5.79,0,0,0,.76-.11,5,5,0,0,0,.54-.14Zm-.1-12.13c0-.16.13-.28.39-.38a3.32,3.32,0,0,1,.9-.19,3.28,3.28,0,0,1,.9.09c.27.07.41.19.41.36l.17,8.4c0,.15-.12.26-.38.35a4,4,0,0,1-.83.2,3.17,3.17,0,0,1-.95-.06c-.28-.07-.41-.2-.41-.41Z"/><path class="cls-11" d="M217.46,539.14c-.08-.4-.14-.84-.19-1.32s-.1-1-.13-1.44-.06-1-.08-1.44,0-.9,0-1.31c0-.21.14-.35.43-.43a2.87,2.87,0,0,1,.94-.09,3.65,3.65,0,0,1,.92.21c.27.1.41.25.41.43a16,16,0,0,0,0,2.4,15.82,15.82,0,0,0,.37,2.52.42.42,0,0,0,.11.18.3.3,0,0,0,.24.08l.69,0,.77-.07c.27,0,.52-.06.78-.11l.67-.13a1,1,0,0,1,.79.09.87.87,0,0,1,.4.6.74.74,0,0,1-.07.56.93.93,0,0,1-.59.43l-1.1.2c-.39.06-.78.12-1.19.15s-.8.07-1.2.08a6.79,6.79,0,0,1-1.12,0,1.9,1.9,0,0,1-1.22-.46A1.78,1.78,0,0,1,217.46,539.14Zm8.44-7.21c0-.14.13-.26.38-.37a3.47,3.47,0,0,1,.87-.21,3.2,3.2,0,0,1,.93,0c.29.06.44.18.44.38l.15,12.09c0,.13-.13.24-.4.34a3,3,0,0,1-.85.18,2.78,2.78,0,0,1-.92,0c-.27-.07-.41-.21-.41-.41Z"/><path class="cls-11" d="M232,533.32l4.92-.29a.92.92,0,0,1,.73.25.87.87,0,0,1,.21.57,1,1,0,0,1-.2.59.84.84,0,0,1-.6.31c-.66,0-1.32.09-1.95.11s-1.19.07-1.66.12l.29,4.1.85,0c.32,0,.64,0,1,0s.64-.06.94-.1a4.7,4.7,0,0,0,.78-.15,1,1,0,0,1,.78,0,.64.64,0,0,1,.38.48,1.1,1.1,0,0,1,0,.31,1.06,1.06,0,0,1-.12.34,1.33,1.33,0,0,1-.23.3.68.68,0,0,1-.35.17,9.3,9.3,0,0,1-1.09.2c-.4,0-.82.09-1.25.11l-1.27.06a10.26,10.26,0,0,1-1.13,0,2.65,2.65,0,0,1-1.2-.31,1.11,1.11,0,0,1-.58-.71,16.69,16.69,0,0,1-.3-2.24c-.06-.83-.1-1.65-.13-2.46a2.84,2.84,0,0,1,0-.58,1.17,1.17,0,0,1,.16-.52,1.12,1.12,0,0,1,.39-.42A1.44,1.44,0,0,1,232,533.32Zm8.22-1.25c0-.16.14-.28.4-.38a3.49,3.49,0,0,1,.91-.19,3.42,3.42,0,0,1,.93.09q.42.1.42.36l.06,3.58,2.13-.14a.83.83,0,0,1,.65.27.89.89,0,0,1,.25.61.91.91,0,0,1-.25.62.86.86,0,0,1-.71.3l-2,.15.1,6.61c0,.14-.13.26-.38.35a4.27,4.27,0,0,1-.82.19,2.77,2.77,0,0,1-.92-.06c-.28-.06-.42-.2-.42-.41Z"/><path class="cls-11" d="M246.82,543.71a1.07,1.07,0,0,1,.47-1,1.83,1.83,0,0,1,1.05-.32,1.79,1.79,0,0,1,1,.32,1,1,0,0,1,.45.85,1.22,1.22,0,0,1-.44,1,1.57,1.57,0,0,1-1.06.38,1.58,1.58,0,0,1-.55-.11,1.64,1.64,0,0,1-.48-.28,1.46,1.46,0,0,1-.35-.4A1,1,0,0,1,246.82,543.71Z"/></svg>