<svg width="135" height="71" viewBox="0 0 135 71" fill="none" xmlns="http://www.w3.org/2000/svg">
<g clip-path="url(#clip0_108_1886)">
<path d="M38.23 29.74C37.44 29.47 37.23 30.18 37.11 30.03C36.58 21.82 31.24 15.03 24.28 14.84C24.0769 14.8251 23.8731 14.8251 23.67 14.84H23.46V14.78H22.64C15.64 14.93 10.35 21.78 9.82 29.97C9.74 30.12 9.48 29.41 8.7 29.68C7.49 30.08 6.98 31.58 7.26 33.6C7.54 35.62 11.08 36.24 11.19 36.43C11.99 39.33 13.62 43.97 18.64 45.34V53.34H28.3V45.34C33.3 43.97 34.94 39.34 35.74 36.43C35.86 36.24 39.39 35.63 39.67 33.6C39.95 31.57 39.42 30.14 38.23 29.74Z" fill="white" stroke="#513539" stroke-width="1.5" stroke-linecap="round" stroke-linejoin="round"/>
<path d="M18.94 32.7699C19.7298 32.7699 20.37 32.1297 20.37 31.3399C20.37 30.5501 19.7298 29.9099 18.94 29.9099C18.1502 29.9099 17.51 30.5501 17.51 31.3399C17.51 32.1297 18.1502 32.7699 18.94 32.7699Z" fill="#513539"/>
<path d="M21 39.3401C21.6449 39.9837 22.5189 40.3452 23.43 40.3452C24.3411 40.3452 25.2151 39.9837 25.86 39.3401" stroke="#513539" stroke-linecap="round" stroke-linejoin="round"/>
<path d="M24.23 36.78C24.0244 36.5785 23.7479 36.4656 23.46 36.4656C23.1721 36.4656 22.8956 36.5785 22.69 36.78" stroke="#513539" stroke-linecap="round" stroke-linejoin="round"/>
<path d="M18.47 35.1C20.6239 35.1 22.37 33.5643 22.37 31.67C22.37 29.7757 20.6239 28.24 18.47 28.24C16.3161 28.24 14.57 29.7757 14.57 31.67C14.57 33.5643 16.3161 35.1 18.47 35.1Z" stroke="#513539" stroke-miterlimit="10"/>
<path d="M28.05 32.7699C28.8398 32.7699 29.48 32.1297 29.48 31.3399C29.48 30.5501 28.8398 29.9099 28.05 29.9099C27.2602 29.9099 26.62 30.5501 26.62 31.3399C26.62 32.1297 27.2602 32.7699 28.05 32.7699Z" fill="#513539"/>
<path d="M28.52 35.1C30.6739 35.1 32.42 33.5643 32.42 31.67C32.42 29.7757 30.6739 28.24 28.52 28.24C26.3661 28.24 24.62 29.7757 24.62 31.67C24.62 33.5643 26.3661 35.1 28.52 35.1Z" stroke="#513539" stroke-miterlimit="10"/>
<path d="M24.67 31.4701C24.5296 31.2799 24.3466 31.1253 24.1355 31.0187C23.9245 30.9122 23.6914 30.8567 23.455 30.8567C23.2186 30.8567 22.9855 30.9122 22.7745 31.0187C22.5634 31.1253 22.3804 31.2799 22.24 31.4701" stroke="#513539" stroke-miterlimit="10"/>
<path d="M27.31 19.6299C27.1019 19.1018 26.7742 18.6292 26.3525 18.2492C25.9309 17.8692 25.4268 17.5922 24.88 17.4399" stroke="#513539" stroke-linecap="round" stroke-linejoin="round"/>
<path d="M25.48 20.38C25.2031 19.6473 24.6505 19.052 23.9405 18.7212C23.2304 18.3905 22.4191 18.3506 21.68 18.61C21.6011 18.634 21.5242 18.6641 21.45 18.7" stroke="#513539" stroke-linecap="round" stroke-linejoin="round"/>
<path d="M38.64 24.64C38.5935 23.7659 38.4458 22.9002 38.2 22.06C38.3801 21.2972 38.4508 20.5127 38.41 19.73C38.5759 19.3803 38.6475 18.9933 38.6177 18.6074C38.5879 18.2215 38.4577 17.8501 38.24 17.53C37.1765 15.4169 35.5322 13.6511 33.5 12.44C32.7001 11.8896 31.7179 11.671 30.76 11.83L30.16 11.58C29.8338 10.9786 29.3833 10.4536 28.8384 10.0398C28.2936 9.62597 27.6669 9.33289 27 9.18004C25.4847 8.88898 23.9221 8.96095 22.44 9.39004C19.5235 10.1968 16.6959 11.2957 14 12.67C13.11 13.09 12.12 13.67 11.87 14.56C11.4243 15.0412 11.0837 15.6099 10.87 16.23C10.7124 16.9392 10.5086 17.6374 10.26 18.32C9.6588 19.2982 8.84542 20.1286 7.88 20.75C7.40139 21.0699 6.99311 21.4841 6.68016 21.9673C6.36722 22.4505 6.15619 22.9925 6.06 23.56C6.11284 24.4754 6.44043 25.3537 7 26.08L9.3 29.81C9.3 29.81 9.95 30.93 10.86 32.56C10.86 32.56 12.08 33.05 12.08 33.03C11.802 31.6748 11.9396 30.2671 12.4749 28.9913C13.0101 27.7156 13.9181 26.6312 15.08 25.88C16.77 24.61 18.9 23.88 20.38 22.41C21.2141 21.425 21.9825 20.3861 22.68 19.3C23.3943 18.1883 24.5196 17.4046 25.81 17.12C27.27 16.98 28.48 19.24 28.49 19.24C29.31 18.45 31.69 20.77 32.38 21.7C33.36 23.3683 34.0815 25.1755 34.52 27.06C34.76 28.16 35.7 31.21 35.38 32.46C35.9744 31.3803 36.9305 30.5447 38.08 30.1C38.4767 28.3077 38.6646 26.4755 38.64 24.64Z" fill="#4D3034"/>
<path d="M23.72 20.8401C23.3692 20.405 22.8776 20.106 22.3299 19.9947C21.7822 19.8833 21.2128 19.9666 20.72 20.2301" stroke="#513539" stroke-linecap="round" stroke-linejoin="round"/>
<path d="M34 15.47C33.2825 14.982 32.414 14.7672 31.5518 14.8644C30.6896 14.9617 29.8908 15.3645 29.3 16C29.35 16 26.74 10.54 23.83 10.7C21.6985 10.9894 19.7498 12.0581 18.36 13.7C16.9958 15.3439 15.5189 16.891 13.94 18.33C12.26 19.66 10 20.5 7.94 19.8" stroke="white" stroke-linecap="round" stroke-linejoin="round"/>
<path d="M17.65 19.49C14.6479 22.7424 10.7962 25.0908 6.53 26.27" stroke="white" stroke-linecap="round" stroke-linejoin="bevel"/>
<path d="M29.67 26.6899C29.5838 26.5776 29.4762 26.4835 29.3535 26.4131C29.2307 26.3426 29.0951 26.2973 28.9547 26.2796C28.8142 26.2619 28.6717 26.2723 28.5353 26.3101C28.3989 26.3479 28.2713 26.4124 28.16 26.4999" stroke="#513539" stroke-linecap="round" stroke-linejoin="round"/>
<path d="M16.9 26.6899C16.9862 26.5776 17.0938 26.4835 17.2165 26.4131C17.3393 26.3426 17.4749 26.2973 17.6153 26.2796C17.7558 26.2619 17.8983 26.2723 18.0347 26.3101C18.1711 26.3479 18.2987 26.4124 18.41 26.4999" stroke="#513539" stroke-linecap="round" stroke-linejoin="round"/>
<path d="M32.52 32.1099C33.7033 31.8023 34.8306 31.3095 35.86 30.6499" stroke="#513539" stroke-miterlimit="10"/>
<path d="M14.67 32.48L11.3 31.48" stroke="#513539" stroke-miterlimit="10"/>
<path d="M15.87 47.3201C20.7065 48.8789 25.9218 48.8016 30.71 47.1001C31.08 53.7801 33.21 54.7401 31.97 55.4901C29.97 56.7101 23.74 56.0101 21.42 55.9401C19.95 55.9401 16.29 56.0601 14.92 55.5301C13.55 55.0001 15.64 49.8701 15.87 47.3201Z" fill="white" stroke="#4D3034" stroke-width="1.5" stroke-linejoin="round"/>
<path d="M46.2 71.0001C46.2 68.8601 46.07 62.0001 45.61 59.9001C45.2018 57.8722 44.306 55.9742 43 54.3701C41.6855 52.9977 40.1296 51.879 38.41 51.0701L33.18 48.2201C32.87 48.0601 32.35 47.8501 32.33 47.8201L30.77 49.9101C26.0353 51.5479 20.8997 51.6215 16.12 50.1201L17.3 71.0001" fill="white"/>
<path d="M46.2 71.0001C46.2 68.8601 46.07 62.0001 45.61 59.9001C45.2018 57.8722 44.306 55.9742 43 54.3701C41.6855 52.9977 40.1296 51.879 38.41 51.0701L33.18 48.2201C32.87 48.0601 32.35 47.8501 32.33 47.8201L30.77 49.9101C26.0353 51.5479 20.8997 51.6215 16.12 50.1201L17.3 71.0001" stroke="#513539" stroke-width="1.5" stroke-linejoin="round"/>
<path d="M14.14 56.5901H33.44" stroke="#513539" stroke-width="1.5" stroke-linecap="round" stroke-linejoin="round"/>
<path d="M14.14 60.5701H33.44" stroke="#513539" stroke-width="1.5" stroke-linecap="round" stroke-linejoin="round"/>
<path d="M14.14 64.55H33.44" stroke="#513539" stroke-width="1.5" stroke-linecap="round" stroke-linejoin="round"/>
<path d="M14.14 68.53H33.44" stroke="#513539" stroke-width="1.5" stroke-linecap="round" stroke-linejoin="round"/>
<path d="M30.48 49.9999L32.3 47.6299C32.3 47.6299 32.84 47.8699 33.15 48.0399L38.35 50.9499C40.0709 51.7998 41.6254 52.9514 42.94 54.3499C44.228 56.0055 45.1084 57.941 45.51 59.9999C46.05 62.4699 46.12 69.1199 46.12 70.9999H29.33L30.47 49.9999H30.48Z" fill="#4D3034"/>
<path d="M16.35 50.2501C15.29 48.8601 14.53 47.6201 14.53 47.6201C14.53 47.6201 13.99 47.8601 13.68 48.0301L8.46 50.9401C6.7407 51.7926 5.18654 52.9439 3.87 54.3401C2.58056 55.9987 1.70009 57.9377 1.3 60.0001C0.840002 62.1701 0.720002 68.8001 0.690002 71.0001H17.48C17.48 71.0001 16.27 50.1301 16.35 50.2501Z" fill="#4C3235"/>
<g opacity="0.6">
<path opacity="0.3" d="M15.01 38.9001C15.9875 38.9001 16.78 38.1077 16.78 37.1301C16.78 36.1526 15.9875 35.3601 15.01 35.3601C14.0324 35.3601 13.24 36.1526 13.24 37.1301C13.24 38.1077 14.0324 38.9001 15.01 38.9001Z" fill="#0600FF"/>
<path opacity="0.3" d="M31.8 38.9001C32.7775 38.9001 33.57 38.1077 33.57 37.1301C33.57 36.1526 32.7775 35.3601 31.8 35.3601C30.8225 35.3601 30.03 36.1526 30.03 37.1301C30.03 38.1077 30.8225 38.9001 31.8 38.9001Z" fill="#0600FF"/>
</g>
<path d="M75.49 10.5799C76.7745 10.4524 78.0688 10.6931 79.2216 11.2739C80.3744 11.8547 81.3381 12.7517 82 13.8599C82.53 14.8599 82.8 15.9199 83.29 16.9199C83.5034 17.433 83.8345 17.8887 84.2567 18.25C84.6788 18.6114 85.1801 18.8683 85.72 18.9999C86.3519 19.0645 86.9838 18.8769 87.4782 18.478C87.9726 18.0792 88.2895 17.5012 88.36 16.8699C88.3551 16.8468 88.3551 16.823 88.36 16.7999C89.1203 17.6046 89.5321 18.677 89.5059 19.7837C89.4796 20.8905 89.0175 21.9421 88.22 22.7099L87.81 23.0599C87.4788 23.3238 87.0955 23.5146 86.6853 23.6197C86.2751 23.7249 85.8473 23.742 85.43 23.6699C84.5982 23.4046 83.8548 22.9171 83.28 22.2599C81.07 20.1699 78.76 18.1199 75.94 17.0399C74.8827 16.6609 73.8 16.3568 72.7 16.1299C71.93 15.9499 70.39 15.9099 69.93 15.1299C69.47 14.3499 70.14 13.5799 70.63 13.0599C71.886 11.6586 73.6183 10.7747 75.49 10.5799Z" fill="#513539"/>
<path d="M64.92 29.5801C65.0075 29.4638 65.1171 29.3661 65.2426 29.2926C65.3682 29.219 65.507 29.1711 65.6512 29.1516C65.7953 29.132 65.9419 29.1413 66.0825 29.1788C66.223 29.2163 66.3547 29.2813 66.47 29.3701" stroke="#513539" stroke-width="1.5" stroke-linejoin="round"/>
<path d="M64.92 29.7601C65.0091 29.6443 65.1202 29.5473 65.2469 29.4745C65.3737 29.4018 65.5135 29.3547 65.6585 29.3362C65.8034 29.3176 65.9506 29.3278 66.0915 29.3662C66.2325 29.4047 66.3645 29.4706 66.48 29.5601V29.5601" stroke="#513539" stroke-width="1.5" stroke-linejoin="round"/>
<path d="M83.22 34.3299C82.45 34.0599 82.22 34.7699 82.13 34.6099C81.6 26.2399 76.37 19.2899 69.53 19.1299H68.92H68.32C61.47 19.2899 56.24 26.2399 55.71 34.6099C55.64 34.7699 55.38 34.0599 54.62 34.3299C53.45 34.7299 52.92 36.2599 53.2 38.3299C53.48 40.3999 54.56 41.1199 55.54 41.3899C56.19 41.5799 56.54 41.2999 56.67 41.4899C58.05 45.9299 59.46 48.8799 64.38 50.2699V55.0899H73.46V50.2899C78.38 48.8899 79.79 45.9499 81.17 41.4999C81.28 41.3199 81.65 41.5899 82.3 41.3999C82.9535 41.2051 83.53 40.8115 83.9494 40.2738C84.3688 39.7362 84.6102 39.0811 84.64 38.3999C84.92 36.3099 84.39 34.7299 83.22 34.3299Z" fill="white" stroke="#513539" stroke-width="1.5" stroke-linecap="round" stroke-linejoin="round"/>
<path d="M66.43 43.1299C66.7566 43.4613 67.1458 43.7244 67.5749 43.904C68.0041 44.0836 68.4647 44.1761 68.93 44.1761C69.3952 44.1761 69.8559 44.0836 70.285 43.904C70.7142 43.7244 71.1034 43.4613 71.43 43.1299V43.1299" stroke="#513539" stroke-linecap="round" stroke-linejoin="round"/>
<path d="M69.29 40.4801C69.2416 40.4311 69.184 40.3922 69.1205 40.3656C69.057 40.3391 68.9888 40.3254 68.92 40.3254C68.8511 40.3254 68.783 40.3391 68.7195 40.3656C68.656 40.3922 68.5984 40.4311 68.55 40.4801V40.4801" stroke="#513539" stroke-linecap="round" stroke-linejoin="round"/>
<path d="M69.58 15C61.49 15 52.48 22 55.75 32.42C56.05 32.99 62.25 26.83 63.3 22.97C65.8746 24.1075 68.6783 24.6312 71.49 24.5C73.1289 25.8898 75.1446 26.7601 77.28 27C78.07 29.06 80.92 31.23 81.84 31C82.38 30.85 82.14 33.59 82.61 30.64C82.18 21.13 77.67 15 69.58 15Z" fill="#513539"/>
<path d="M68.92 14.79C64.8161 14.8428 60.9006 16.5211 58.0323 19.4568C55.1641 22.3925 53.5773 26.346 53.62 30.45C53.62 32.74 54.1 33.9 54.97 34.69C55.0915 34.8091 55.2549 34.8758 55.425 34.8758C55.5952 34.8758 55.7585 34.8091 55.88 34.69C55.9439 34.6206 55.9921 34.5382 56.0214 34.4485C56.0508 34.3588 56.0605 34.2638 56.05 34.17V33.67C56.002 31.9478 56.2998 30.2333 56.9258 28.6281C57.5517 27.0229 58.4931 25.5594 59.6944 24.3243C60.8956 23.0891 62.3322 22.1073 63.9194 21.4369C65.5066 20.7665 67.2121 20.421 68.935 20.421C70.658 20.421 72.3634 20.7665 73.9506 21.4369C75.5378 22.1073 76.9744 23.0891 78.1757 24.3243C79.3769 25.5594 80.3183 27.0229 80.9443 28.6281C81.5702 30.2333 81.868 31.9478 81.82 33.67V34.17C81.7908 34.3409 81.8301 34.5165 81.9292 34.6587C82.0284 34.8009 82.1796 34.8984 82.35 34.93C82.4478 34.945 82.5477 34.9384 82.6427 34.9108C82.7377 34.8831 82.8255 34.8351 82.9 34.77C83.76 33.97 84.24 32.82 84.24 30.53C84.2731 28.4958 83.9051 26.475 83.1571 24.5829C82.4091 22.6909 81.2957 20.9648 79.8805 19.5031C78.4653 18.0415 76.776 16.873 74.9091 16.0643C73.0422 15.2556 71.0343 14.8226 69 14.79H68.92Z" fill="white" stroke="#513539" stroke-width="1.5" stroke-linejoin="round"/>
<path d="M73.89 37.3799C74.6963 37.3799 75.35 36.7218 75.35 35.9099C75.35 35.0981 74.6963 34.4399 73.89 34.4399C73.0837 34.4399 72.43 35.0981 72.43 35.9099C72.43 36.7218 73.0837 37.3799 73.89 37.3799Z" fill="#513539"/>
<path d="M74.67 33.29C74.581 33.1738 74.4696 33.0766 74.3426 33.004C74.2155 32.9314 74.0752 32.8849 73.9299 32.8672C73.7846 32.8495 73.6373 32.861 73.4965 32.901C73.3557 32.9409 73.2243 33.0086 73.11 33.1V33.1" stroke="#513539" stroke-linecap="round" stroke-linejoin="round"/>
<path d="M63.96 37.3799C64.7663 37.3799 65.42 36.7218 65.42 35.9099C65.42 35.0981 64.7663 34.4399 63.96 34.4399C63.1537 34.4399 62.5 35.0981 62.5 35.9099C62.5 36.7218 63.1537 37.3799 63.96 37.3799Z" fill="#513539"/>
<path d="M63.17 33.29C63.259 33.1738 63.3703 33.0766 63.4974 33.004C63.6245 32.9314 63.7648 32.8849 63.9101 32.8672C64.0553 32.8495 64.2027 32.861 64.3435 32.901C64.4843 32.9409 64.6157 33.0086 64.73 33.1V33.1" stroke="#513539" stroke-linecap="round" stroke-linejoin="round"/>
<path d="M90.73 71.0001C90.73 69.1401 90.6 63.5901 90.14 61.8101C89.7212 60.0284 88.8379 58.3895 87.58 57.0601C86.2321 55.8516 84.6817 54.8902 83 54.2201L77.8 51.7401C77.49 51.6001 73.25 53.1001 70.6 54.3101C69.8756 54.6363 69.0889 54.8008 68.2945 54.7922C67.5001 54.7835 66.7171 54.6019 66 54.2601C63.32 52.9701 58.57 51.6001 58.27 51.7601L53 54.2101C51.3254 54.8868 49.7821 55.8513 48.44 57.0601C47.1832 58.3982 46.3004 60.0431 45.88 61.8301C45.42 63.6101 45.31 69.1601 45.27 71.0001" fill="white"/>
<path d="M90.73 71.0001C90.73 69.1401 90.6 63.5901 90.14 61.8101C89.7212 60.0284 88.8379 58.3895 87.58 57.0601C86.2321 55.8516 84.6817 54.8902 83 54.2201L77.8 51.7401C77.49 51.6001 73.25 53.1001 70.6 54.3101C69.8756 54.6363 69.0889 54.8008 68.2945 54.7922C67.5001 54.7835 66.7171 54.6019 66 54.2601C63.32 52.9701 58.57 51.6001 58.27 51.7601L53 54.2101C51.3254 54.8868 49.7821 55.8513 48.44 57.0601C47.1832 58.3982 46.3004 60.0431 45.88 61.8301C45.42 63.6101 45.31 69.1601 45.27 71.0001" stroke="#513539" stroke-width="1.5" stroke-linejoin="round"/>
<path d="M58.42 52.46C57.979 52.9224 57.6739 53.4974 57.538 54.1219C57.4022 54.7463 57.441 55.3961 57.65 56C58.2622 57.4438 59.0808 58.7912 60.08 60C60.79 60.81 63.67 63 66.16 61.29C67.3041 60.6801 68.173 59.6575 68.59 58.43C68.7308 57.8318 68.7272 57.2087 68.5794 56.6123C68.4316 56.0158 68.1438 55.4631 67.74 55" stroke="#513539" stroke-width="1.5" stroke-linecap="round" stroke-linejoin="round"/>
<path d="M79.25 52.46C79.6857 52.9257 79.9858 53.5016 80.118 54.1255C80.2502 54.7494 80.2094 55.3976 80 56C79.3878 57.4438 78.5692 58.7912 77.57 60C76.85 60.81 73.97 63 71.46 61.29C70.3185 60.677 69.4506 59.6555 69.03 58.43C68.8685 57.8474 68.8619 57.2328 69.011 56.647C69.1601 56.0611 69.4597 55.5244 69.88 55.09" stroke="#513539" stroke-width="1.5" stroke-linecap="round" stroke-linejoin="round"/>
<path d="M68.52 55.4399C68.6861 55.5191 68.8605 55.5795 69.04 55.6199C68.961 55.7494 68.9195 55.8983 68.92 56.0499C68.8422 55.9673 68.7781 55.8728 68.73 55.7699C68.7106 55.7146 68.7079 55.6548 68.7221 55.598C68.7363 55.5411 68.7668 55.4896 68.81 55.4499" stroke="#513539" stroke-width="1.5" stroke-linejoin="round"/>
<path d="M68.88 63.1899C69.4378 63.1899 69.89 62.7332 69.89 62.1699C69.89 61.6066 69.4378 61.1499 68.88 61.1499C68.3222 61.1499 67.87 61.6066 67.87 62.1699C67.87 62.7332 68.3222 63.1899 68.88 63.1899Z" fill="#4C3235"/>
<path d="M68.88 67.57C69.4378 67.57 69.89 67.1134 69.89 66.55C69.89 65.9867 69.4378 65.53 68.88 65.53C68.3222 65.53 67.87 65.9867 67.87 66.55C67.87 67.1134 68.3222 67.57 68.88 67.57Z" fill="#4C3235"/>
<g opacity="0.5">
<path opacity="0.3" d="M75.81 42.2599C76.7875 42.2599 77.58 41.463 77.58 40.4799C77.58 39.4969 76.7875 38.7 75.81 38.7C74.8325 38.7 74.04 39.4969 74.04 40.4799C74.04 41.463 74.8325 42.2599 75.81 42.2599Z" fill="#FF003D"/>
</g>
<g opacity="0.5">
<path opacity="0.3" d="M62.03 42.2599C63.0076 42.2599 63.8 41.463 63.8 40.4799C63.8 39.4969 63.0076 38.7 62.03 38.7C61.0525 38.7 60.26 39.4969 60.26 40.4799C60.26 41.463 61.0525 42.2599 62.03 42.2599Z" fill="#FF003D"/>
</g>
<path d="M127.89 32.0001C127.08 31.7201 126.82 32.4701 126.74 32.3001C126.2 23.5801 120.74 16.3001 113.6 16.1601C113.397 16.1446 113.193 16.1446 112.99 16.1601C112.79 16.1751 112.59 16.1751 112.39 16.1601C105.25 16.3201 99.79 23.5801 99.24 32.3001C99.17 32.4701 98.9 31.7201 98.1 32.0001C96.89 32.4201 96.33 34.0001 96.63 36.1601C96.93 38.3201 98.05 39.0801 99.06 39.3801C99.74 39.5801 100.12 39.2901 100.23 39.4801C101.64 44.1301 103.11 47.1901 108.23 48.6401V53.6401H117.7V48.6401C122.83 47.1901 124.3 44.1301 125.7 39.4801C125.81 39.2901 126.19 39.5801 126.87 39.3801C127.87 39.0801 129.01 38.3201 129.3 36.1601C129.59 34.0001 129.11 32.3901 127.89 32.0001Z" fill="white" stroke="#513539" stroke-width="1.5" stroke-linecap="round" stroke-linejoin="round"/>
<path d="M113 10.5601C103.68 10.5601 94.6 19.9301 99 32.3501C99.3 33.2101 105.08 28.8801 112.25 19.5101C112.381 19.3412 112.573 19.2307 112.784 19.2026C112.996 19.1746 113.21 19.2311 113.38 19.3601C113.474 19.431 113.55 19.5236 113.6 19.6301C118.93 30.0401 125.74 31.8101 126.54 32.5301C127 32.9401 127.93 30.0101 128.08 26.7201C128.5 17.0001 122.26 10.5601 113 10.5601Z" fill="#513539"/>
<path d="M107.73 34.04C108.575 34.04 109.26 33.355 109.26 32.51C109.26 31.665 108.575 30.98 107.73 30.98C106.885 30.98 106.2 31.665 106.2 32.51C106.2 33.355 106.885 34.04 107.73 34.04Z" fill="#513539"/>
<path d="M118.68 34.04C119.525 34.04 120.21 33.355 120.21 32.51C120.21 31.665 119.525 30.98 118.68 30.98C117.835 30.98 117.15 31.665 117.15 32.51C117.15 33.355 117.835 34.04 118.68 34.04Z" fill="#513539"/>
<path d="M114.14 38.3799C114.033 38.2726 113.906 38.1874 113.766 38.1293C113.626 38.0712 113.476 38.0413 113.325 38.0413C113.174 38.0413 113.024 38.0712 112.884 38.1293C112.744 38.1874 112.617 38.2726 112.51 38.3799" stroke="#513539" stroke-linecap="round" stroke-linejoin="round"/>
<path d="M120.05 30.08C119.861 29.8428 119.587 29.6891 119.286 29.6517C118.985 29.6143 118.681 29.6962 118.44 29.8799" stroke="#513539" stroke-linecap="round" stroke-linejoin="round"/>
<path d="M106.35 30.08C106.443 29.9586 106.559 29.8569 106.692 29.781C106.825 29.705 106.971 29.6563 107.123 29.6377C107.275 29.6191 107.429 29.6309 107.576 29.6725C107.723 29.7141 107.86 29.7847 107.98 29.88" stroke="#513539" stroke-linecap="round" stroke-linejoin="round"/>
<path d="M110.72 41.8999C111.06 42.2434 111.465 42.516 111.912 42.7021C112.358 42.8881 112.837 42.9839 113.32 42.9839C113.803 42.9839 114.282 42.8881 114.728 42.7021C115.175 42.516 115.58 42.2434 115.92 41.8999V41.8999" stroke="#513539" stroke-linecap="round" stroke-linejoin="round"/>
<path d="M98.91 38.6001C98.9351 38.7658 98.9351 38.9344 98.91 39.1001C98.91 39.8401 98.45 40.4301 97.91 40.4101C97.37 40.3901 97.09 39.7501 97.09 39.0101C97.0708 38.8934 97.0751 38.774 97.1026 38.659C97.13 38.5439 97.1802 38.4355 97.25 38.3401" stroke="#513539" stroke-width="0.5" stroke-linecap="round" stroke-linejoin="round"/>
<path d="M127 38.54C126.959 38.7034 126.942 38.8718 126.95 39.04C126.95 39.79 127.42 40.37 127.95 40.35C128.48 40.33 128.81 39.74 128.77 38.97C128.808 38.7312 128.751 38.4869 128.61 38.29" stroke="#513539" stroke-width="0.5" stroke-linecap="round" stroke-linejoin="round"/>
<path d="M134.24 70.9999C134.24 69.5099 134.13 63.7999 133.7 62.3599C133.283 60.874 132.454 59.536 131.31 58.4999C130.024 57.5077 128.585 56.7309 127.05 56.1999L122.19 54.1999C121.91 54.0899 121.42 53.9399 121.41 53.9299V51.1699C118.74 51.8199 107.3 51.8199 104.63 51.1699V53.9399C104.63 53.9399 104.13 54.0999 103.84 54.2099L99 56.1999C97.4683 56.7319 96.0331 57.5086 94.75 58.4999C93.5997 59.5326 92.7673 60.8715 92.35 62.3599C91.84 63.7999 91.73 69.5099 91.73 70.9999" fill="white"/>
<path d="M134.24 70.9999C134.24 69.5099 134.13 63.7999 133.7 62.3599C133.283 60.874 132.454 59.536 131.31 58.4999C130.024 57.5077 128.585 56.7309 127.05 56.1999L122.19 54.1999C121.91 54.0899 121.42 53.9399 121.41 53.9299V51.1699C118.74 51.8199 107.3 51.8199 104.63 51.1699V53.9399C104.63 53.9399 104.13 54.0999 103.84 54.2099L99 56.1999C97.4683 56.7319 96.0331 57.5086 94.75 58.4999C93.5997 59.5326 92.7673 60.8715 92.35 62.3599C91.84 63.7999 91.73 69.5099 91.73 70.9999" stroke="#4D3034" stroke-width="1.5" stroke-linejoin="round"/>
<path d="M109.14 51.7099C110.52 50.6099 109.06 49.9199 110.02 48.4099C106.3 46.8899 103.81 42.9899 102.12 39.4099C101.78 40.0121 101.489 40.6408 101.25 41.2899C101.01 41.7799 100.53 41.9899 100.14 42.2899C99.6073 42.7625 99.1899 43.3509 98.92 44.0099C98.4563 45.2259 98.485 46.5748 99 47.7699C99.51 48.9899 100.53 50.0199 100.45 51.3299C100.34 53.3299 97.8 54.5099 97.92 56.4899C98.03 58.1999 100.11 59.2299 100.14 60.9399C100.14 61.8199 99.6 62.7199 99.88 63.5399C100.004 63.8199 100.183 64.0721 100.406 64.2816C100.63 64.4912 100.893 64.6538 101.18 64.7599C102.584 65.4497 104.117 65.8381 105.68 65.8999C105.396 65.2616 105.272 64.5635 105.319 63.8664C105.366 63.1693 105.583 62.4943 105.95 61.8999C106.49 61.0299 107.39 60.3199 107.47 59.2799C107.63 57.4499 106.47 56.2799 106.47 54.4799C106.49 53.2699 108.24 52.4299 109.14 51.7099Z" fill="#513539"/>
<g opacity="0.5">
<path opacity="0.3" d="M120.04 39.4101C121.018 39.4101 121.81 38.6132 121.81 37.6301C121.81 36.647 121.018 35.8501 120.04 35.8501C119.062 35.8501 118.27 36.647 118.27 37.6301C118.27 38.6132 119.062 39.4101 120.04 39.4101Z" fill="#FF003D"/>
</g>
<g opacity="0.5">
<path opacity="0.3" d="M105.91 39.4101C106.888 39.4101 107.68 38.6132 107.68 37.6301C107.68 36.647 106.888 35.8501 105.91 35.8501C104.932 35.8501 104.14 36.647 104.14 37.6301C104.14 38.6132 104.932 39.4101 105.91 39.4101Z" fill="#FF003D"/>
</g>
</g>
<defs>
<clipPath id="clip0_108_1886">
<rect width="135" height="71" fill="white"/>
</clipPath>
</defs>
</svg>
