<svg id="레이어_1" data-name="레이어 1" xmlns="http://www.w3.org/2000/svg" viewBox="0 0 96 112"><defs><style>.cls-1{fill:#fffbed;}.cls-2{fill:#f0e2bd;}.cls-3{fill:none;stroke:#f0e2bd;stroke-linecap:round;stroke-linejoin:bevel;stroke-width:2px;}</style></defs><rect class="cls-1" width="96" height="112" rx="10"/><path class="cls-2" d="M57.1,21.11a10,10,0,0,0-3.41,3.38,5.47,5.47,0,0,0-.58,4.7.49.49,0,0,0,0,.11.33.33,0,0,0,.06.1,2.34,2.34,0,1,0,3.57-2.81,3.15,3.15,0,0,0-1.59-.21,3.21,3.21,0,0,1-.1-.39,2.26,2.26,0,0,1,.47-1.24,10.66,10.66,0,0,1,1.82-2.3S57.77,20.69,57.1,21.11Z"/><path class="cls-2" d="M41,21.11a10,10,0,0,0-3.42,3.38,5.47,5.47,0,0,0-.58,4.7.49.49,0,0,0,0,.11l.06.1a2.34,2.34,0,0,0,1.54,1.32,2.27,2.27,0,0,0,.59.08,2.35,2.35,0,0,0,1.44-4.21,3.12,3.12,0,0,0-1.58-.21,2.17,2.17,0,0,1-.11-.39,2.33,2.33,0,0,1,.47-1.24,10.66,10.66,0,0,1,1.82-2.3S41.63,20.69,41,21.11Z"/><path class="cls-3" d="M65.68,34.53S62,43.33,48.56,43.41c-14.91.08-18.24-8.83-18.24-8.83"/></svg>