<svg id="레이어_1" data-name="레이어 1" xmlns="http://www.w3.org/2000/svg" viewBox="0 0 96 112"><defs><style>.cls-1{fill:#fffbed;}.cls-2{fill:#fff;}.cls-2,.cls-4,.cls-5{stroke:#513539;}.cls-2,.cls-4,.cls-7,.cls-8{stroke-linecap:round;}.cls-2,.cls-4,.cls-7{stroke-linejoin:round;}.cls-3{fill:#513539;}.cls-10,.cls-11,.cls-4,.cls-5,.cls-7,.cls-8{fill:none;}.cls-10,.cls-11,.cls-5{stroke-miterlimit:10;}.cls-6{fill:#4d3034;}.cls-11,.cls-7,.cls-8{stroke:#fff;}.cls-8{stroke-linejoin:bevel;}.cls-9{fill:#4c3235;}.cls-10{stroke:#4d3034;}.cls-12{opacity:0.6;}.cls-13{fill:#0600ff;isolation:isolate;opacity:0.3;}</style></defs><rect class="cls-1" width="96" height="112" rx="10"/><path class="cls-2" d="M67.59,32.51c-1-.34-1.33.56-1.43.36-.67-10.48-7.49-19.2-16.38-19.4H48.73V13.4h-1c-8.9.19-15.71,8.91-16.39,19.4-.09.19-.42-.71-1.42-.37-1.53.51-2.21,2.42-1.84,5S32.9,40.8,33,41c1,3.71,3.11,9.64,9.51,11.38V62.63l12.34.07V52.51c6.4-1.74,8.48-7.67,9.51-11.38.14-.24,4.65-1,5-3.61S69.11,33,67.59,32.51Z"/><circle class="cls-3" cx="42.95" cy="34.55" r="1.82"/><path class="cls-4" d="M45.63,44.78a4.39,4.39,0,0,0,6.2,0"/><path class="cls-4" d="M49.71,41.51a1.39,1.39,0,0,0-2,0l0,0"/><ellipse class="cls-5" cx="42.35" cy="34.98" rx="4.98" ry="4.38"/><circle class="cls-3" cx="54.59" cy="34.55" r="1.82"/><ellipse class="cls-5" cx="55.19" cy="34.98" rx="4.98" ry="4.38"/><path class="cls-5" d="M50.27,34.72a1.9,1.9,0,0,0-2.65-.43,2,2,0,0,0-.43.43"/><path class="cls-4" d="M53.65,19a4.73,4.73,0,0,0-3.13-2.8"/><path class="cls-4" d="M51.31,19.64a3.87,3.87,0,0,0-5.15-2.2"/><path class="cls-6" d="M68.16,26a15.41,15.41,0,0,0-.57-3.3h0a10.79,10.79,0,0,0,.27-3,2.85,2.85,0,0,0-.21-2.81,16,16,0,0,0-6.07-6.52,4.88,4.88,0,0,0-3.49-.74l-.78-.32a6.14,6.14,0,0,0-4.11-3,12.59,12.59,0,0,0-5.82.26,57.73,57.73,0,0,0-10.77,4.18c-1.13.53-2.39,1.25-2.72,2.4h0a6.32,6.32,0,0,0-1.27,2.13,22.85,22.85,0,0,1-.79,2.68,10.1,10.1,0,0,1-3,3.14c-1.14.94-2.25,2.13-2.31,3.58a5.89,5.89,0,0,0,1.2,3.22l3,4.77h0s.83,1.42,2,3.51c0,0,1.59.63,1.59.6-.49-4,.56-6.67,3.88-9.14,2.08-1.6,4.81-2.5,6.68-4.42a36.86,36.86,0,0,0,2.92-4,6.34,6.34,0,0,1,4-2.79c1.87-.18,3.42,2.71,3.43,2.7,1-1,4.08,2,5,3.15A23.74,23.74,0,0,1,63,29.08c.31,1.43,1.5,5.3,1.1,6.9h0a6.71,6.71,0,0,1,3.45-3h0A30.87,30.87,0,0,0,68.16,26Z"/><path class="cls-4" d="M49.05,20.28a3,3,0,0,0-3.91-.77"/><path class="cls-7" d="M62.16,15.91a4.68,4.68,0,0,0-6,.72c.06,0-3.28-7-7-6.77-2.72.17-5.1,1.9-7,3.86s-3.52,4.22-5.66,5.92-5,2.77-7.62,1.88"/><path class="cls-8" d="M44.68,19.75a30.47,30.47,0,0,1-14.21,8.68"/><path class="cls-4" d="M56.66,28.87a1.36,1.36,0,0,0-1.9-.27l0,0"/><path class="cls-4" d="M40.34,28.87a1.38,1.38,0,0,1,1.94-.25h0"/><path class="cls-5" d="M60.3,35.53a11.6,11.6,0,0,0,4.07-1.12"/><path class="cls-5" d="M37.51,36l-4.34-1.32"/><line class="cls-4" x1="35.67" y1="78.77" x2="60.33" y2="78.77"/><path class="cls-2" d="M76.24,71.14A15,15,0,0,0,73,64.45a19.61,19.61,0,0,0-5.86-4L60.41,57c-.39-.2-1.06-.45-1.08-.48l-2,2.52a31.39,31.39,0,0,1-18.7.25L40.08,84H77C77,81.4,76.83,73.63,76.24,71.14Z"/><line class="cls-4" x1="36.16" y1="64.31" x2="60.82" y2="64.31"/><line class="cls-4" x1="36.16" y1="69.39" x2="60.82" y2="69.39"/><line class="cls-4" x1="36.16" y1="74.47" x2="60.82" y2="74.47"/><line class="cls-4" x1="36.16" y1="79.56" x2="60.82" y2="79.56"/><path class="cls-6" d="M57,58.81c1.36-1.69,2.3-2.88,2.3-2.88s.69.29,1.08.5L67.09,60A19.75,19.75,0,0,1,73,64.17a15.82,15.82,0,0,1,3.29,7c.59,2.6.74,10.71.76,13.41H55.57L57,58.82Z"/><path class="cls-9" d="M39,58.81c-1.36-1.69-2.3-2.88-2.3-2.88s-.69.29-1.08.5L28.91,60a19.86,19.86,0,0,0-5.86,4.16,15.82,15.82,0,0,0-3.29,7c-.59,2.6-.74,10.71-.76,13.41H40.43L39,58.82Z"/><path class="cls-6" d="M15.07,82,6,99a.86.86,0,0,0,.36,1.16.79.79,0,0,0,.4.1H89.22A.86.86,0,0,0,90,99L81.87,82a.87.87,0,0,0-.78-.49H15.83A.87.87,0,0,0,15.07,82Z"/><path class="cls-10" d="M89.67,100H6.34s-.87,3.56,2.19,3.56h79C90.54,103.54,89.67,100,89.67,100Z"/><path class="cls-10" d="M82.8,103.54H13.25s-.95,8,1.84,8H81C83.75,111.58,82.8,103.54,82.8,103.54Z"/><line class="cls-11" x1="19" y1="81.02" x2="77.45" y2="81.02"/><g class="cls-12"><circle class="cls-13" cx="37.28" cy="42.52" r="2.26"/><circle class="cls-13" cx="58.72" cy="42.52" r="2.26"/></g></svg>