<svg id="레이어_1" data-name="레이어 1" xmlns="http://www.w3.org/2000/svg" viewBox="0 0 96 112"><defs><style>.cls-1{fill:#fffbed;}.cls-2,.cls-7{fill:#513539;}.cls-3{fill:#fff;}.cls-3,.cls-4,.cls-7{stroke:#513539;stroke-linecap:round;stroke-linejoin:round;}.cls-4,.cls-6{fill:none;}.cls-5{fill:#4d3034;}.cls-6{stroke:#4d3034;stroke-miterlimit:10;}.cls-8{opacity:0.6;}.cls-9{fill:#0600ff;isolation:isolate;opacity:0.3;}</style></defs><rect class="cls-1" width="96" height="112" rx="10"/><path class="cls-2" d="M39.44,19.78a40.18,40.18,0,0,1,20.42.87,14.23,14.23,0,0,1,4.21,1.93,6.23,6.23,0,0,1,2.56,3.75,3.61,3.61,0,0,1-1.25,3.61,5.46,5.46,0,0,1-2.49.74c-10,1.21-20,.76-30.07.31a4.62,4.62,0,0,1-2.71-.68A3.14,3.14,0,0,1,29,27.69a4.49,4.49,0,0,1,2.15-4.28c3.66-2.63,4.49-2.26,7.5-3.95a1.53,1.53,0,0,1,.83-.28.54.54,0,0,1,.56.55"/><path class="cls-3" d="M66.06,32.81c-1-.32-1.28.54-1.37.35C64,23.12,57.52,14.78,49,14.59H48v-.07H47c-8.51.18-15,8.53-15.68,18.57-.09.19-.41-.67-1.37-.35-1.46.49-2.11,2.32-1.75,4.8S32.85,40.78,33,41c1,3.55,3,9.23,9.1,10.9v9.75l11.82.07V52C60,50.3,62,44.62,63,41.07c.14-.23,4.45-1,4.8-3.46S67.52,33.3,66.06,32.81Z"/><circle class="cls-2" cx="42.47" cy="34.77" r="1.74"/><path class="cls-4" d="M45,44.56a4.2,4.2,0,0,0,5.94,0h0"/><path class="cls-4" d="M48.94,41.43a1.32,1.32,0,0,0-1.87,0h0"/><circle class="cls-2" cx="53.61" cy="34.77" r="1.74"/><path class="cls-3" d="M34.26,20.52c5.53-1.32,12.11.39,17.7.95a51.54,51.54,0,0,1,7.71,1.12,6.41,6.41,0,0,1,.55-.49,3.51,3.51,0,0,1,4.23-.16,9.91,9.91,0,0,0,.43-2.86c0-7-7.48-12.67-16.7-12.67s-16.7,5.67-16.7,12.67a9.67,9.67,0,0,0,.63,3.45A3,3,0,0,1,34.26,20.52Z"/><path class="cls-3" d="M30.86,20.15h0l.53-.13a64,64,0,0,1,16.79-2.36A64.17,64.17,0,0,1,65,20l.53.13h0"/><path class="cls-3" d="M66.82,20.75A2.07,2.07,0,0,0,65.5,19.6l-.5-.2A46.87,46.87,0,0,0,48.18,16a47.14,47.14,0,0,0-16.79,3.4l-.53.2a2.07,2.07,0,0,0-1.32,1.15A35.42,35.42,0,0,0,29.21,26a1.33,1.33,0,0,0,1.35,1.31,1.25,1.25,0,0,0,.65-.18c2.4-1.48,7.5-3.72,16.29-3.72h1.34c8.79,0,13.89,2.24,16.29,3.72A1.33,1.33,0,0,0,67,26.65a1.35,1.35,0,0,0,.18-.65A34.11,34.11,0,0,0,66.82,20.75Z"/><path class="cls-5" d="M15.07,82l-9,17a.86.86,0,0,0,.36,1.16.79.79,0,0,0,.4.1H89.22A.86.86,0,0,0,90,99L81.87,82a.87.87,0,0,0-.78-.49H15.83A.87.87,0,0,0,15.07,82Z"/><path class="cls-6" d="M89.67,100H6.34s-.87,3.56,2.19,3.56h79C90.54,103.52,89.67,100,89.67,100Z"/><path class="cls-6" d="M82.8,103.52H13.25s-.95,8,1.84,8H81C83.75,111.57,82.8,103.52,82.8,103.52Z"/><polygon class="cls-7" points="51.31 30.41 51.31 31.26 56.3 31.26 56.3 30.06 51.31 30.41"/><polygon class="cls-7" points="44.69 30.41 44.69 31.26 39.7 31.26 39.7 30.06 44.69 30.41"/><path class="cls-3" d="M76.24,71.34A12.63,12.63,0,0,0,73,65.47,20.26,20.26,0,0,0,67.15,62l-6.64-3c-.39-.17-1-.39-1.07-.42L47.79,59.71c-1.15-.35-11.23-1.19-11.23-1.19s-.68.25-1.07.42l-6.64,3A20,20,0,0,0,23,65.47a12.48,12.48,0,0,0-3.26,5.87c-.59,2.2-.74,9-.76,11.3H77C77,80.37,76.83,73.54,76.24,71.34Z"/><path class="cls-3" d="M55.11,54.35S52,58.58,47.89,59.71c0,0,4.23,4.33,4.33,5.78,0,0,7.74-5.78,7-6.91S57.27,55.28,55.11,54.35Z"/><circle class="cls-3" cx="48.19" cy="65.76" r="0.95"/><circle class="cls-3" cx="48.19" cy="75.48" r="0.95"/><path class="cls-3" d="M40.51,54.35s3.09,4.23,7.22,5.36c0,0-4.23,4.33-4.33,5.78,0,0-7.73-5.78-7-6.91S38.35,55.28,40.51,54.35Z"/><g class="cls-8"><circle class="cls-9" cx="39.4" cy="41.24" r="2.26"/><circle class="cls-9" cx="56.6" cy="41.24" r="2.26"/></g></svg>