<svg id="레이어_1" data-name="레이어 1" xmlns="http://www.w3.org/2000/svg" viewBox="0 0 96 112"><defs><style>.cls-1{fill:#fffbed;}.cls-2,.cls-6,.cls-8{fill:#fff;}.cls-2,.cls-4{stroke:#513539;stroke-linecap:round;stroke-linejoin:round;}.cls-3{fill:#513539;}.cls-10,.cls-4,.cls-9{fill:none;}.cls-5{fill:#45282b;}.cls-6,.cls-9{stroke:#4d3034;}.cls-10,.cls-6,.cls-9{stroke-miterlimit:10;}.cls-7{fill:#4d3034;}.cls-10{stroke:#fff;}.cls-11{opacity:0.6;}.cls-12{fill:#0600ff;isolation:isolate;opacity:0.3;}</style></defs><rect class="cls-1" width="96" height="112" rx="10"/><path class="cls-2" d="M67.22,33.85c-1-.34-1.36.58-1.45.38-.69-10.69-7.64-19.58-16.7-19.77H48V14.4H46.93c-9.06.19-16,9.08-16.7,19.77-.09.2-.43-.72-1.45-.38-1.55.53-2.25,2.47-1.87,5.11s5,3.44,5.11,3.68c1,3.78,3.17,9.82,9.69,11.6V66l12.58.07V54.24c6.52-1.78,8.64-7.82,9.69-11.6.15-.24,4.73-1,5.11-3.68S68.77,34.38,67.22,33.85Z"/><circle class="cls-3" cx="42.11" cy="35.93" r="1.85"/><path class="cls-4" d="M44.84,46.36a4.48,4.48,0,0,0,6.32,0"/><path class="cls-4" d="M49,43a1.42,1.42,0,0,0-2,0h0"/><circle class="cls-3" cx="53.97" cy="35.93" r="1.85"/><path class="cls-4" d="M56.09,30.14a1.41,1.41,0,0,0-2-.26l0,0"/><path class="cls-4" d="M39.45,30.14a1.41,1.41,0,0,1,2-.26l0,0"/><path class="cls-5" d="M66.9,20.42c-.11-.54-.23-1.07-.38-1.6a22.05,22.05,0,0,0-3-6A15.79,15.79,0,0,0,57.14,7.1C52.53,5,46.53,4.11,41.7,5.67a5.9,5.9,0,0,0-2.38,1.84H39c-2.7,0-6.17,2.71-8.56,6.84a19.63,19.63,0,0,0-1.43,3,11.35,11.35,0,0,0-.6,2.12,5.55,5.55,0,0,0-.13.71,5.88,5.88,0,0,1-.1.68V21a33.67,33.67,0,0,0,.2,8.39,7,7,0,0,0,1.6,4.7c.05.08.1.16.16.24h0a6.38,6.38,0,0,0,.52.52c.06-.59.13-1.18.2-1.78.23-2.11.47-4.23.7-6.35A14.25,14.25,0,0,0,36.48,22l1.2-1.88-.11.17c1.47-1.81,4.32-2.22,6.67-1.59a19.74,19.74,0,0,1,6.23,3.49,16.8,16.8,0,0,0,6.35,3.27,5.74,5.74,0,0,0,2.88-.06,3.38,3.38,0,0,0,1.71-1.19c1,2.45,4.23,8.23,4.36,10C66.76,34.24,67.69,24.4,66.9,20.42Z"/><path class="cls-6" d="M37.4,59.72a35.08,35.08,0,0,0,22.54-.35,10,10,0,0,1,.14,6.7,9.28,9.28,0,0,1-4,5.07c-3,1.83-6.75,1.77-10.27,1.66a20,20,0,0,1-6.6-1,6.75,6.75,0,0,1-4.39-4.68,5,5,0,0,1,.57-3.44c.37-.64.89-1.2,1.28-1.83A3.11,3.11,0,0,0,37.4,59.72Z"/><path class="cls-7" d="M38.85,61l-2.29-2.43s-.68.24-1.07.42l-6.64,3A20.1,20.1,0,0,0,23,65.48a12.65,12.65,0,0,0-3.26,5.88c-.59,2.19-.74,9-.76,11.3H40.3L38.86,61Z"/><path class="cls-8" d="M76.24,71.36A12.61,12.61,0,0,0,73,65.48,20.29,20.29,0,0,0,67.15,62l-6.64-3c-.39-.18-1-.4-1.07-.42l-2,2.21A35.08,35.08,0,0,1,38.86,61L40.3,82.66H77C77,80.39,76.83,73.55,76.24,71.36Z"/><path class="cls-7" d="M57.15,61l2.29-2.43s.68.24,1.07.42l6.64,3A20.1,20.1,0,0,1,73,65.48a12.65,12.65,0,0,1,3.26,5.88c.59,2.19.74,9,.76,11.3H55.7L57.14,61Z"/><path class="cls-7" d="M15.07,82,6,99a.86.86,0,0,0,.36,1.16.79.79,0,0,0,.4.1H89.22A.86.86,0,0,0,90,99L81.87,82a.87.87,0,0,0-.78-.49H15.83A.87.87,0,0,0,15.07,82Z"/><path class="cls-9" d="M89.67,100H6.34s-.87,3.56,2.19,3.56h79C90.54,103.54,89.67,100,89.67,100Z"/><path class="cls-9" d="M82.8,103.54H13.25s-.95,8,1.84,8H81C83.75,111.58,82.8,103.54,82.8,103.54Z"/><line class="cls-10" x1="19" y1="81.01" x2="77.45" y2="81.01"/><g class="cls-11"><circle class="cls-12" cx="39.4" cy="42.4" r="2.26"/><circle class="cls-12" cx="56.6" cy="42.4" r="2.26"/></g></svg>