<svg id="레이어_1" data-name="레이어 1" xmlns="http://www.w3.org/2000/svg" viewBox="0 0 96 112"><defs><style>.cls-1{fill:#fffbed;}.cls-2{fill:#513539;}.cls-3,.cls-5,.cls-8{fill:#fff;}.cls-3,.cls-4{stroke:#513539;stroke-linecap:round;stroke-linejoin:round;}.cls-4,.cls-7,.cls-9{fill:none;}.cls-5,.cls-9{stroke:#4d3034;}.cls-5,.cls-7,.cls-9{stroke-miterlimit:10;}.cls-6{fill:#4d3034;}.cls-7{stroke:#fff;}.cls-10{opacity:0.5;}.cls-11{fill:#ff003d;isolation:isolate;opacity:0.3;}</style></defs><rect class="cls-1" width="96" height="112" rx="10"/><path class="cls-2" d="M72,35.51a12,12,0,0,0-.89-1.23c-.79-1-2.29-1.86-2.81-3V31l-.1,0c-.35-1-.36-2.17-.75-3.19a21.25,21.25,0,0,0-4.28-6.44C58.5,16.11,53.08,14.49,48,14.91c-5.08-.42-10.5,1.2-15.17,6.45a21.25,21.25,0,0,0-4.28,6.44c-.39,1-.4,2.19-.75,3.19l-.08.05v.25c-.52,1.13-2,2-2.81,3A12.08,12.08,0,0,0,24,35.51a7,7,0,0,0-1,5.8c.57,1.67,2,3.08,2.05,4.84s-1.19,3.51-.4,5c1,1.91,4,1.33,5.68,2.66,1.26,1,1.5,2.82,2.51,4.08,1.34,1.68,3.79,2,5.92,1.66s4.14-1.18,6.24-1.4a12.52,12.52,0,0,1,2.87,0h.18a12.52,12.52,0,0,1,2.87,0c2.14.22,4.16,1.09,6.28,1.43s4.58,0,5.92-1.66c1-1.26,1.25-3.09,2.51-4.08,1.69-1.33,4.69-.75,5.68-2.66.79-1.52-.46-3.31-.4-5s1.48-3.17,2-4.84A7,7,0,0,0,72,35.51Z"/><path class="cls-3" d="M65,39.38c-.91-.32-1.21.53-1.3.34-.62-9.89-6.85-18.11-15-18.29H47.26c-8.13.18-14.36,8.4-15,18.29-.09.19-.39-.66-1.3-.34-1.4.48-2,2.28-1.68,4.73s1.61,3.3,2.78,3.64c.77.23,1.2-.11,1.34.12,1.63,5.24,3.31,8.73,9.16,10.38V64H53.4V58.3c5.85-1.65,7.53-5.14,9.16-10.38.14-.23.57.11,1.34-.12,1.17-.34,2.45-1.2,2.78-3.64S66.4,39.86,65,39.38Z"/><path class="cls-2" d="M54.39,33.44a31.36,31.36,0,0,0,9.17,8.38c1,.63,2.34,1.19,3.42.64a2.54,2.54,0,0,0,1.23-2.12,6.18,6.18,0,0,0-.5-2.51A26.16,26.16,0,0,0,43.14,20.65,14.08,14.08,0,0,0,36,22.29a7.61,7.61,0,0,0-3.86,6.1,15.43,15.43,0,0,0-4.27,8.73,2.2,2.2,0,0,0,.58,2.18c.63.42,3.41,1.08,4.09.74,4.71-2.31,6.47-7.56,8-12.57a6.79,6.79,0,0,1,.65-1.61A1.73,1.73,0,0,1,42.64,25a1,1,0,0,1,1,1,1,1,0,0,1,0,.17c-.15-.43.54-.86,1-.94a1.38,1.38,0,0,1,1.21.53A4.07,4.07,0,0,1,46.43,27c.9,2.49,1.9,5.17,4.1,6.65a6.29,6.29,0,0,0,5.22.78"/><circle class="cls-2" cx="41.75" cy="41.39" r="1.74"/><circle class="cls-2" cx="54.25" cy="41.39" r="1.74"/><path class="cls-4" d="M45.17,52a4.2,4.2,0,0,0,5.94,0h0"/><path class="cls-4" d="M49.07,48.05a1.32,1.32,0,0,0-1.87,0h0"/><path class="cls-4" d="M55.81,37.36A1.31,1.31,0,0,0,54,37.13"/><path class="cls-4" d="M40.19,37.36A1.31,1.31,0,0,1,42,37.13"/><path class="cls-5" d="M38.56,62.2a29.49,29.49,0,0,0,18.95-.29c.47,8.53-1.65,8.94-3.23,9.89-2.53,1.54-5.68,1.5-8.63,1.4a16.59,16.59,0,0,1-5.55-.8C38.35,71.72,38.26,65.46,38.56,62.2Z"/><path class="cls-6" d="M76.24,76.75A12.61,12.61,0,0,0,73,70.87a20.12,20.12,0,0,0-5.83-3.5l-6.64-3c-.33-.15-1.41-.57-2-.76C56.85,65.82,52.77,67.4,48,67.4s-8.85-1.58-10.55-3.81c-.55.19-1.63.61-2,.76l-6.64,3A19.86,19.86,0,0,0,23,70.87a12.65,12.65,0,0,0-3.26,5.88c-.59,2.19-.74,9-.76,11.3H77C77,85.78,76.83,78.94,76.24,76.75Z"/><path class="cls-7" d="M34.66,64.57s4.49,5.73,14.2,5.5c9.41-.22,12.48-5.53,12.48-5.53"/><circle class="cls-8" cx="48" cy="75.69" r="1.29"/><circle class="cls-8" cx="48" cy="82.51" r="1.29"/><path class="cls-6" d="M15.07,82l-9,17a.86.86,0,0,0,.36,1.16.79.79,0,0,0,.4.1H89.22A.86.86,0,0,0,90,99L81.87,82a.87.87,0,0,0-.78-.49H15.83A.87.87,0,0,0,15.07,82Z"/><path class="cls-9" d="M89.67,100H6.34s-.87,3.56,2.19,3.56h79C90.54,103.51,89.67,100,89.67,100Z"/><path class="cls-9" d="M82.8,103.51H13.25s-.95,8,1.84,8H81C83.75,111.55,82.8,103.51,82.8,103.51Z"/><g class="cls-10"><circle class="cls-11" cx="39.31" cy="47.76" r="2.26"/></g><g class="cls-10"><circle class="cls-11" cx="56.69" cy="47.76" r="2.26"/></g><line class="cls-7" x1="18.69" y1="81.02" x2="76.76" y2="81.02"/></svg>