<svg id="레이어_1" data-name="레이어 1" xmlns="http://www.w3.org/2000/svg" viewBox="0 0 96 112"><defs><style>.cls-1{fill:#fffbed;}.cls-2{fill:#513539;}.cls-3,.cls-5{fill:#fff;}.cls-3,.cls-4{stroke:#513539;stroke-linejoin:round;}.cls-10,.cls-3,.cls-4{stroke-linecap:round;}.cls-10,.cls-11,.cls-4,.cls-7{fill:none;}.cls-5,.cls-7{stroke:#4d3034;}.cls-10,.cls-11,.cls-5,.cls-7{stroke-miterlimit:10;}.cls-6{fill:#4d3034;}.cls-8{opacity:0.5;}.cls-9{fill:#ff003d;isolation:isolate;opacity:0.3;}.cls-10,.cls-11{stroke:#fff;}</style></defs><rect class="cls-1" width="96" height="112" rx="10"/><path class="cls-2" d="M67.29,24.52A73.68,73.68,0,0,1,49.91,21c.08-.23.15-.47.24-.71-.37.15-.75.28-1.12.42-.89-.31-1.77-.63-2.63-1a12.74,12.74,0,0,1,.51,1.73,73.84,73.84,0,0,1-17.65,3.62,125.81,125.81,0,0,0,1.21,38L52.24,63,52,62.48H66.13A125.86,125.86,0,0,0,67.29,24.52Z"/><path class="cls-3" d="M66,33.7c-1-.34-1.3.56-1.39.37-.66-10.56-7.31-19.34-16-19.54H47.09c-8.69.2-15.34,9-16,19.54-.09.19-.42-.71-1.39-.37-1.49.51-2.16,2.43-1.8,5s1.73,3.53,3,3.89c.83.24,1.29-.11,1.43.13,1.75,5.6,3.54,9.32,9.79,11.08v11H53.61V53.84c6.25-1.76,8-5.48,9.79-11.08.14-.24.6.11,1.43-.13,1.24-.36,2.61-1.28,3-3.89S67.49,34.21,66,33.7Z"/><circle class="cls-2" cx="41.46" cy="34.35" r="1.86"/><circle class="cls-2" cx="54.8" cy="34.35" r="1.86"/><path class="cls-4" d="M45.1,44.81a4.5,4.5,0,0,0,6.35,0"/><path class="cls-4" d="M49.27,41.46a1.42,1.42,0,0,0-2,0h0"/><path class="cls-2" d="M47.82,25.62c8.37,0,16.12,3,18.75,7.12a17.07,17.07,0,0,0,.86-5.35c0-10-8.61-18-19.22-18S29,17.43,29,27.39a16.94,16.94,0,0,0,1,5.9c2-3.87,6.79-6.84,14.08-7.52.54-.05,1.9-4.25,2.45-4.27S47.29,25.62,47.82,25.62Z"/><path class="cls-4" d="M39.4,29.91a1.42,1.42,0,0,1,2-.27l0,0"/><path class="cls-4" d="M53.87,30.16a1.41,1.41,0,0,1,2-.26l0,0"/><path class="cls-5" d="M48.61,69.92l8.84-9.85a35.16,35.16,0,0,1-18.6.22C42.11,63.74,47.8,69.66,48.61,69.92Z"/><path class="cls-6" d="M76.24,70.68A12.61,12.61,0,0,0,73,64.8a20.12,20.12,0,0,0-5.83-3.5l-6.64-3c-.39-.18-1-.4-1.07-.42l-2,2.21-8.84,9.85c-.81-.26-6.5-6.18-9.76-9.63l-2.29-2.43s-.68.24-1.07.42l-6.64,3A20,20,0,0,0,23,64.8a12.65,12.65,0,0,0-3.26,5.88c-.59,2.19-.74,9-.76,11.3H77C77,79.71,76.83,72.87,76.24,70.68Z"/><path class="cls-6" d="M15.07,81.9l-9,17a.86.86,0,0,0,.35,1.17,1,1,0,0,0,.41.1H89.22a.87.87,0,0,0,.87-.87.89.89,0,0,0-.09-.39l-8.13-17a.87.87,0,0,0-.78-.49H15.83A.85.85,0,0,0,15.07,81.9Z"/><path class="cls-7" d="M89.67,99.9H6.34s-.87,3.57,2.19,3.57h79C90.54,103.47,89.67,99.9,89.67,99.9Z"/><path class="cls-7" d="M82.8,103.47H13.25s-.95,8,1.84,8H81C83.75,111.51,82.8,103.47,82.8,103.47Z"/><g class="cls-8"><circle class="cls-9" cx="57.02" cy="41.05" r="2.26"/></g><g class="cls-8"><circle class="cls-9" cx="38.98" cy="41.05" r="2.26"/></g><path class="cls-10" d="M44.36,20a11.38,11.38,0,0,0-3.21,7.05"/><path class="cls-10" d="M40.4,20a10.46,10.46,0,0,0-3.95,9.5"/><path class="cls-10" d="M47.64,19.26a8.36,8.36,0,0,1,2.15,7.55"/><path class="cls-10" d="M59.05,21.38a9.15,9.15,0,0,1,2.37,8.69"/><path class="cls-10" d="M52.67,20.72A15.48,15.48,0,0,1,54,24.08a5.18,5.18,0,0,1-.33,3.53"/><path class="cls-10" d="M56.24,21.41a9.94,9.94,0,0,1,1.07,7.91"/><line class="cls-11" x1="18.92" y1="80.97" x2="76.99" y2="80.97"/></svg>