<svg id="레이어_1" data-name="레이어 1" xmlns="http://www.w3.org/2000/svg" viewBox="0 0 96 112"><defs><style>.cls-1{fill:#fffbed;}.cls-2,.cls-5{fill:#513539;}.cls-3,.cls-6{fill:#fff;}.cls-3,.cls-4{stroke:#513539;}.cls-3,.cls-4,.cls-5{stroke-linecap:round;stroke-linejoin:round;}.cls-11,.cls-4,.cls-8{fill:none;}.cls-11,.cls-5{stroke:#fff;}.cls-7{fill:#4d3034;}.cls-8{stroke:#4d3034;}.cls-11,.cls-8{stroke-miterlimit:10;}.cls-9{opacity:0.5;}.cls-10{fill:#ff003d;isolation:isolate;opacity:0.3;}</style></defs><rect class="cls-1" width="96" height="112" rx="10"/><path class="cls-2" d="M66.17,60.58a9.64,9.64,0,0,0-.73-1.64,7.09,7.09,0,0,1-.3-3.1q.51-9.86,1-19.73c-3-.84-6.57-1.3-9.6-.44a13.6,13.6,0,0,0-6.77,5.08A23.74,23.74,0,0,0,48,43.42a22.53,22.53,0,0,0-1.78-2.67,13.6,13.6,0,0,0-6.77-5.08c-3-.86-6.57-.4-9.6.44q.49,9.87,1,19.73a7.09,7.09,0,0,1-.3,3.1,9.64,9.64,0,0,0-.73,1.64,2.63,2.63,0,0,0,2,2.89,4.42,4.42,0,0,0,3.64-.91,2,2,0,0,0,1.81,1.65,6,6,0,0,0,2.58-.37l4.24-1.25A11.71,11.71,0,0,0,48,60.87a11.76,11.76,0,0,0,3.92,1.72l4.24,1.25a6,6,0,0,0,2.58.37,2,2,0,0,0,1.81-1.65,4.42,4.42,0,0,0,3.64.91A2.63,2.63,0,0,0,66.17,60.58Z"/><path class="cls-3" d="M65.12,38.38c-.94-.32-1.24.54-1.33.35-.63-10.07-7-18.45-15.27-18.64H47.07c-8.29.19-14.64,8.57-15.27,18.64-.09.19-.39-.67-1.33-.35-1.42.49-2,2.33-1.71,4.82a3.89,3.89,0,0,0,2.84,3.71c.78.23,1.23-.11,1.36.12,1.66,5.34,3.37,8.9,9.34,10.57v5.81h11V57.6c6-1.67,7.68-5.23,9.34-10.57.13-.23.58.11,1.36-.12,1.19-.35,2.49-1.23,2.84-3.71S66.54,38.87,65.12,38.38Z"/><path class="cls-2" d="M48,13.72C37.22,13.72,25.2,24.36,29.57,37c.41.68,1.33,2.78,2.15,3,1.06.19,16.77-11.3,20.28-13.84C52.6,28.81,62.89,39.1,63.87,40c.52.46,3.29-2.54,3.46-6.34A19.05,19.05,0,0,0,49.17,13.74C48.78,13.72,48.39,13.71,48,13.72Z"/><circle class="cls-2" cx="41.7" cy="39.01" r="1.78"/><circle class="cls-2" cx="54.42" cy="39.01" r="1.78"/><path class="cls-4" d="M45.18,49a4.27,4.27,0,0,0,6,0"/><path class="cls-4" d="M49.15,45.79a1.35,1.35,0,0,0-1.9,0"/><path class="cls-3" d="M53.72,10.21c-2.53-2-4.23-3-5.72-3.17-1.49.16-3.19,1.17-5.72,3.17-9,7.1-11.14,12.58-11.93,15.2h0l.53-.14A65.62,65.62,0,0,1,48,22.88a66,66,0,0,1,17.11,2.39l.53.14h0C64.86,22.79,62.68,17.31,53.72,10.21Z"/><path class="cls-3" d="M67,26.39a2.06,2.06,0,0,0-1.34-1l-.53-.17a54.16,54.16,0,0,0-17.11-3,54.16,54.16,0,0,0-17.11,3l-.53.17a2.06,2.06,0,0,0-1.34,1c-.26.67-.61,6.87,0,6.75,0,0,5-4.39,18.33-4.39h1.36C62,28.75,67,33.14,67,33.14,67.59,33.26,67.24,27.06,67,26.39Z"/><path class="cls-4" d="M56.21,36a1.35,1.35,0,0,0-1.88-.24h0"/><path class="cls-4" d="M40.29,36a1.35,1.35,0,0,1,1.88-.24h0"/><path class="cls-5" d="M76.9,74.5a13,13,0,0,0-3.34-6,20.42,20.42,0,0,0-6-3.58c-2.26-1-4.26-1.74-6.92-2.66C60.27,62.09,57,61,57,61l-9.22,1.6c-1.17-.37-8.45-2.46-8.45-2.46s-3.74,1.48-4.13,1.67L28.4,64.9a20.42,20.42,0,0,0-6,3.58,13,13,0,0,0-3.34,6c-.6,2.24-.75,9.23-.78,11.56h59.4C77.65,83.73,77.5,76.74,76.9,74.5Z"/><path class="cls-5" d="M54,58s-2.63,3.59-6.13,4.56c0,0,3.59,3.68,3.68,4.91,0,0,6.57-4.91,6-5.88A8.5,8.5,0,0,0,54,58Z"/><path class="cls-5" d="M41.6,58s2.63,3.59,6.14,4.56c0,0-3.6,3.68-3.69,4.91,0,0-6.57-4.91-6-5.88A8.56,8.56,0,0,1,41.6,58Z"/><circle class="cls-6" cx="47.7" cy="69.98" r="1.32"/><circle class="cls-6" cx="47.7" cy="75.25" r="1.32"/><path class="cls-7" d="M15.07,82l-9,17a.86.86,0,0,0,.36,1.16.79.79,0,0,0,.4.1H89.22A.86.86,0,0,0,90,99L81.87,82a.87.87,0,0,0-.78-.49H15.83A.87.87,0,0,0,15.07,82Z"/><path class="cls-8" d="M89.67,100H6.34s-.87,3.56,2.19,3.56h79C90.54,103.52,89.67,100,89.67,100Z"/><path class="cls-8" d="M82.8,103.52H13.25s-.95,8,1.84,8H81C83.75,111.57,82.8,103.52,82.8,103.52Z"/><g class="cls-9"><circle class="cls-10" cx="55.99" cy="46.72" r="2.26"/></g><g class="cls-9"><circle class="cls-10" cx="40.01" cy="46.72" r="2.26"/></g><line class="cls-11" x1="18.89" y1="81" x2="77.29" y2="81"/></svg>