<svg id="레이어_1" data-name="레이어 1" xmlns="http://www.w3.org/2000/svg" viewBox="0 0 96 112"><defs><style>.cls-1{fill:#fffbed;}.cls-2{fill:#4d3034;}.cls-3,.cls-4,.cls-6{fill:none;}.cls-3{stroke:#4d3034;}.cls-3,.cls-4{stroke-miterlimit:10;}.cls-4{stroke:#fff;}.cls-5{fill:#fff;}.cls-5,.cls-6{stroke:#513539;stroke-linecap:round;stroke-linejoin:round;}.cls-7{opacity:0.6;}.cls-8{fill:#0600ff;isolation:isolate;opacity:0.3;}.cls-9{fill:#513539;}</style></defs><rect class="cls-1" width="96" height="112" rx="10"/><path class="cls-2" d="M74.48,72.07a11.9,11.9,0,0,0-3.06-5.51A18.92,18.92,0,0,0,66,63.27l-6.23-2.83c-.36-.17-1-.37-1-.4V56.1c-3.42.92-18,.92-21.44,0V60s-.65.23-1,.4L30,63.27a18.9,18.9,0,0,0-5.46,3.29,11.9,11.9,0,0,0-3.06,5.51c-.55,2.05-.69,8.46-.71,10.59H75.19C75.17,80.53,75,74.12,74.48,72.07Z"/><path class="cls-2" d="M15.07,82,6,99a.86.86,0,0,0,.36,1.16.79.79,0,0,0,.4.1H89.22A.86.86,0,0,0,90,99L81.87,82a.87.87,0,0,0-.78-.49H15.83A.87.87,0,0,0,15.07,82Z"/><path class="cls-3" d="M89.67,100H6.34s-.87,3.56,2.19,3.56h79C90.54,103.54,89.67,100,89.67,100Z"/><path class="cls-3" d="M82.8,103.54H13.25s-.95,8,1.84,8H81C83.75,111.58,82.8,103.54,82.8,103.54Z"/><line class="cls-4" x1="20.81" y1="81.01" x2="75.16" y2="81.01"/><path class="cls-5" d="M66.06,33.26c-1-.32-1.28.54-1.37.35C64,23.57,57.52,15.23,49,15H47c-8.51.18-15,8.53-15.68,18.57-.09.19-.41-.67-1.37-.35-1.46.49-2.11,2.32-1.75,4.8s4.66,3.23,4.8,3.45c1,3.55,3,9.23,9.1,10.9v5.78l11.82.07V52.41C60,50.75,62,45.07,63,41.52c.14-.23,4.45-1,4.8-3.46S67.52,33.75,66.06,33.26Z"/><path class="cls-6" d="M45,45a4.2,4.2,0,0,0,5.94.06L51,45"/><path class="cls-6" d="M48.94,41.88a1.32,1.32,0,0,0-1.87,0h0"/><path class="cls-2" d="M66.09,20.17c-.1-.51-.22-1-.36-1.51a20.89,20.89,0,0,0-2.88-5.74,15,15,0,0,0-6-5.43,23.35,23.35,0,0,0-9.42-2.06l-.16-.18a2,2,0,0,0-2-.3,2.37,2.37,0,0,0-1,.74h-.12a2.65,2.65,0,0,0-1.67-.06,3.46,3.46,0,0,0-1.67.74,1.67,1.67,0,0,0-.57,1.24A1.94,1.94,0,0,0,40,7.9h-.3c-2.56,0-5.84,2.57-8.1,6.49a21.7,21.7,0,0,0-1.35,2.89,11.68,11.68,0,0,0-.57,2c-.05.23-.09.45-.12.67s-.07.42-.1.65v.16c-.32,2.68-.35,9.85,1.86,12.64,0,.07,4.37-11.14,7.86-14.52,1.57-.6,5,3.46,8.71,3.46s7.51-4.09,9.45-3.52c2.3,2.37,6.59,13.27,7,14.76a2.61,2.61,0,0,0,1.31-1.68C66.36,28.15,66.84,24,66.09,20.17Z"/><g class="cls-7"><circle class="cls-8" cx="39.4" cy="42.43" r="2.26"/><circle class="cls-8" cx="56.6" cy="42.43" r="2.26"/></g><circle class="cls-9" cx="53.72" cy="36.82" r="1.74"/><path class="cls-6" d="M56.22,34.59A2.34,2.34,0,0,0,53,34.07l0,0"/><circle class="cls-9" cx="42.28" cy="36.82" r="1.74"/><path class="cls-6" d="M39.78,34.59a2.34,2.34,0,0,1,3.27-.52l0,0"/></svg>