<svg id="레이어_1" data-name="레이어 1" xmlns="http://www.w3.org/2000/svg" viewBox="0 0 96 112"><defs><style>.cls-1{fill:#fffbed;}.cls-2{fill:#513539;}.cls-3,.cls-7{fill:none;}.cls-3,.cls-4{stroke:#513539;stroke-linecap:round;stroke-linejoin:round;}.cls-4{fill:#fff;}.cls-5{fill:#4c3235;}.cls-6{fill:#4d3034;}.cls-7{stroke:#4d3034;stroke-miterlimit:10;}.cls-8{opacity:0.5;}.cls-9{fill:#ff003d;isolation:isolate;opacity:0.3;}</style></defs><rect class="cls-1" width="96" height="112" rx="10"/><path class="cls-2" d="M56.39,7.78A8.67,8.67,0,0,1,64.75,12c.68,1.22,1,2.61,1.65,3.87a4.51,4.51,0,0,0,3.06,2.66A3,3,0,0,0,72.83,16a1.49,1.49,0,0,0,0-.21,5.32,5.32,0,0,1-.13,7.52,6.57,6.57,0,0,1-.57.48,3.9,3.9,0,0,1-3,.77,6.24,6.24,0,0,1-2.75-1.79C63.56,20,60.58,17.38,57,16a31.26,31.26,0,0,0-4.13-1.16c-1-.23-3-.28-3.55-1.24s.27-2,.89-2.63A9.76,9.76,0,0,1,56.39,7.78Z"/><path class="cls-3" d="M42.89,31.9a1.41,1.41,0,0,1,2-.26l0,0"/><path class="cls-3" d="M42.89,32.13a1.42,1.42,0,0,1,2-.26h0"/><path class="cls-4" d="M66.27,37.92c-1-.34-1.31.58-1.4.38-.67-10.63-7.36-19.47-16.1-19.66H47.23c-8.74.19-15.43,9-16.1,19.66-.09.2-.41-.72-1.4-.38-1.49.52-2.16,2.46-1.8,5.08s1.73,3.55,3,3.91c.83.25,1.3-.11,1.44.13,1.75,5.64,3.55,9.39,9.84,11.15v6.12H53.8V58.19c6.29-1.76,8.09-5.51,9.84-11.15.14-.24.61.12,1.44-.13,1.26-.36,2.63-1.28,3-3.91S67.76,38.44,66.27,37.92Z"/><path class="cls-3" d="M44.81,49.1a4.5,4.5,0,0,0,6.36,0l0,0"/><path class="cls-3" d="M48.47,45.74a.66.66,0,0,0-.93,0h0"/><path class="cls-2" d="M48.84,13.41C38.5,13.41,27,22.24,31.17,35.52c.39.72,8.3-7.1,9.65-12a23.21,23.21,0,0,0,10.46,1.94s2.26,2.29,7.39,3.08c1,2.62,4.68,5.36,5.84,5,.67-.19.37,3.29,1-.46C64.93,21.18,59.18,13.41,48.84,13.41Z"/><path class="cls-4" d="M48,13.13A19.72,19.72,0,0,0,28.46,33c0,2.91.61,4.38,1.71,5.39a.83.83,0,0,0,1.38-.71V37a16.46,16.46,0,1,1,32.92,0h0v.65a.83.83,0,0,0,.73.92.86.86,0,0,0,.65-.21c1.1-1,1.71-2.48,1.71-5.39A19.72,19.72,0,0,0,48,13.13Z"/><circle class="cls-2" cx="54.34" cy="39.94" r="1.87"/><path class="cls-3" d="M55.34,36.61a1.41,1.41,0,0,0-2-.26l0,0"/><circle class="cls-2" cx="41.66" cy="39.94" r="1.87"/><path class="cls-3" d="M40.66,36.61a1.41,1.41,0,0,1,2-.26l0,0"/><path class="cls-4" d="M76.24,73.05A12.79,12.79,0,0,0,73,67.13a20,20,0,0,0-5.83-3.53l-6.64-3c-.39-.18-5.81,1.68-9.19,3.19a7.15,7.15,0,0,1-6-.06c-3.43-1.61-9.49-3.31-9.88-3.13l-6.64,3A19.81,19.81,0,0,0,23,67.13a12.69,12.69,0,0,0-3.26,5.92c-.59,2.21-.74,9.09-.76,11.37H77C77,82.14,76.83,75.26,76.24,73.05Z"/><path class="cls-3" d="M34.59,61a4.4,4.4,0,0,0-1,4.54,20.32,20.32,0,0,0,3.09,5.11c.91,1,4.59,3.85,7.79,1.65,1.38-1,2.76-2,3.14-3.65a4.84,4.84,0,0,0-1.09-4.46"/><path class="cls-3" d="M61.17,61a4.4,4.4,0,0,1,1,4.54,20,20,0,0,1-3.09,5.11c-.91,1-4.59,3.85-7.79,1.65-1.37-1-2.76-2-3.13-3.65a4.37,4.37,0,0,1,1.07-4.22"/><path class="cls-3" d="M47.49,64.74a3.68,3.68,0,0,0,.66.23,1,1,0,0,0-.15.54.88.88,0,0,1-.24-.36.4.4,0,0,1,.09-.4"/><circle class="cls-5" cx="47.94" cy="73.27" r="1.3"/><circle class="cls-5" cx="47.94" cy="78.84" r="1.3"/><path class="cls-6" d="M15.07,81.89l-9,17a.86.86,0,0,0,.36,1.16.79.79,0,0,0,.4.1H89.22a.85.85,0,0,0,.87-.85.78.78,0,0,0-.09-.4l-8.13-17a.87.87,0,0,0-.78-.49H15.83A.85.85,0,0,0,15.07,81.89Z"/><path class="cls-7" d="M89.67,99.89H6.34s-.87,3.56,2.19,3.56h79C90.54,103.45,89.67,99.89,89.67,99.89Z"/><path class="cls-7" d="M82.8,103.45H13.25s-.95,8,1.84,8H81C83.75,111.5,82.8,103.45,82.8,103.45Z"/><g class="cls-8"><circle class="cls-9" cx="56.8" cy="45.74" r="2.26"/></g><g class="cls-8"><circle class="cls-9" cx="39.2" cy="45.74" r="2.26"/></g></svg>