<svg id="레이어_1" data-name="레이어 1" xmlns="http://www.w3.org/2000/svg" viewBox="0 0 96 112"><defs><style>.cls-1{fill:#fffbed;}.cls-2,.cls-5{fill:#fff;}.cls-2,.cls-4{stroke:#513539;stroke-linecap:round;stroke-linejoin:round;}.cls-3{fill:#513539;}.cls-4,.cls-7{fill:none;}.cls-5,.cls-7{stroke:#4d3034;stroke-miterlimit:10;}.cls-6{fill:#4d3034;}.cls-8{opacity:0.5;}.cls-9{fill:#ff003d;isolation:isolate;opacity:0.3;}</style></defs><rect class="cls-1" width="96" height="112" rx="10"/><path class="cls-2" d="M67.05,34.91c-1-.35-1.37.6-1.46.39C64.89,24.22,57.91,15,48.8,14.8H47.2c-9.11.21-16.09,9.42-16.79,20.5-.09.21-.43-.74-1.46-.39-1.56.55-2.26,2.56-1.88,5.3s1.81,3.69,3.12,4.08c.86.25,1.35-.12,1.5.13C33.52,50.3,35.4,54.21,42,56.05v6.38H54V56.05c6.56-1.84,8.44-5.75,10.27-11.63.15-.25.64.12,1.5-.13,1.31-.39,2.74-1.35,3.12-4.08S68.61,35.46,67.05,34.91Z"/><path class="cls-3" d="M48,7.73c-11.9,0-23.5,11.91-17.88,27.67C30.47,36.49,37.81,31,47,19.06a1,1,0,0,1,1.39-.25.94.94,0,0,1,.34.4c6.88,13.24,15.57,15.5,16.61,16.42.57.51,1.76-3.2,2-7.38C67.83,15.89,59.86,7.73,48,7.73Z"/><circle class="cls-3" cx="41.3" cy="35.6" r="1.95"/><circle class="cls-3" cx="55.29" cy="35.6" r="1.95"/><path class="cls-4" d="M49.49,43.06a1.49,1.49,0,0,0-2.09,0"/><path class="cls-4" d="M57,32.52a1.48,1.48,0,0,0-2-.26"/><path class="cls-4" d="M39.54,32.52a1.49,1.49,0,0,1,2.08-.26"/><path class="cls-4" d="M45.12,47.52a4.7,4.7,0,0,0,6.65,0h0"/><path class="cls-4" d="M30,43.31a2.28,2.28,0,0,1,.06.64c0,.94-.59,1.69-1.22,1.66s-1.09-.81-1-1.75A1.16,1.16,0,0,1,28,43"/><path class="cls-4" d="M66,43.26a1.72,1.72,0,0,0,0,.64c0,.94.58,1.69,1.21,1.66s1.09-.81,1-1.75A1.16,1.16,0,0,0,68,43"/><path class="cls-5" d="M74.48,73.51a10.46,10.46,0,0,0-3.06-4.91A19.59,19.59,0,0,0,66,65.68l-6.23-2.52c-.36-.15-1-.33-1-.36V59.3c-3.42.81-18,.81-21.44,0v3.5s-.65.21-1,.36L30,65.68a19.56,19.56,0,0,0-5.46,2.92,10.46,10.46,0,0,0-3.06,4.91c-.55,1.82-.69,7.53-.71,9.42H75.19C75.17,81,75,75.33,74.48,73.51Z"/><path class="cls-6" d="M15.07,82l-9,17a.86.86,0,0,0,.36,1.16.79.79,0,0,0,.4.1H89.22A.86.86,0,0,0,90,99L81.87,82a.87.87,0,0,0-.78-.49H15.83A.87.87,0,0,0,15.07,82Z"/><path class="cls-7" d="M89.67,100H6.34s-.87,3.56,2.19,3.56h79C90.54,103.52,89.67,100,89.67,100Z"/><path class="cls-7" d="M82.8,103.52H13.25s-.95,8,1.84,8H81C83.75,111.57,82.8,103.52,82.8,103.52Z"/><path class="cls-3" d="M43.09,60c1.77-1.4-.1-2.27,1.13-4.19-4.75-1.94-7.93-6.88-10-11.43a15.34,15.34,0,0,0-1.11,2.4c-.31.62-.93.88-1.42,1.31a6,6,0,0,0-1.56,2.18,6.3,6.3,0,0,0,0,4.75c.66,1.51,1.95,2.85,1.86,4.52-.14,2.51-3.39,4-3.23,6.55.14,2.17,2.79,3.49,2.83,5.66,0,1.12-.68,2.24-.33,3.3a3,3,0,0,0,1.66,1.53A14.52,14.52,0,0,0,38.71,78a5.49,5.49,0,0,1,.34-5.1c.7-1.09,1.84-2,2-3.32.2-2.34-1.24-3.75-1.26-6.1C39.72,62,42,60.89,43.09,60Z"/><g class="cls-8"><circle class="cls-9" cx="57.02" cy="42.1" r="2.26"/></g><g class="cls-8"><circle class="cls-9" cx="38.98" cy="42.1" r="2.26"/></g></svg>